<svg width="105" height="10" viewBox="0 0 105 10" fill="none" xmlns="http://www.w3.org/2000/svg">
<g clip-path="url(#clip0_626_15599)">
<path fill-rule="evenodd" clip-rule="evenodd" d="M101.794 6.44402C101.793 5.49386 100.83 4.84271 99.3674 4.68162C97.8888 4.5188 96.446 4.81559 95.7891 5.4178C95.0034 6.13825 95.2467 7.09579 96.367 7.59011C97.4164 8.05317 98.633 8.14312 99.9083 7.87067C101.263 7.58114 101.748 7.00835 101.794 6.44402ZM96.9338 9.54829C96.867 9.46393 96.6945 9.49053 96.5738 9.47423C93.9443 9.11977 92.1641 8.09243 91.9173 6.75958C91.7127 5.65361 92.2292 4.65917 93.9271 3.8681C95.8464 2.97381 98.949 2.83825 100.89 3.56018C101.136 3.65177 101.359 3.75837 101.691 3.89983C101.691 3.72962 101.708 3.5999 101.686 3.47177C101.659 3.30802 101.768 3.25016 102.124 3.25385C103.082 3.26395 104.041 3.25267 105 3.2499V9.39469C104.216 9.39392 103.432 9.39274 102.648 9.39238C101.714 9.39202 101.714 9.39228 101.696 8.92502C101.694 8.87725 101.732 8.822 101.589 8.77485C100.866 9.19568 99.8797 9.40479 98.8194 9.54829H96.9338Z" fill="#F5F5F7"/>
<mask id="mask0_626_15599" style="mask-type:alpha" maskUnits="userSpaceOnUse" x="0" y="3" width="14" height="7">
<path d="M0 3.09814H13.0585V9.58986H0V3.09814Z" fill="white"/>
</mask>
<g mask="url(#mask0_626_15599)">
<path fill-rule="evenodd" clip-rule="evenodd" d="M3.43885 6.32884C3.42552 7.31571 4.78583 8.04254 6.65021 8.04476C8.51271 8.04692 9.86542 7.34415 9.8824 6.36558C9.89958 5.37495 8.54719 4.65168 6.67292 4.64915C4.82344 4.64668 3.45198 5.35892 3.43885 6.32884ZM0 5.77975C0.236146 5.57928 0.255208 5.34563 0.405625 5.13115C1.45865 3.62992 4.60729 2.78147 7.57417 3.20848C8.42427 3.33082 9.10677 3.58534 9.78135 3.93917C9.78135 3.74304 9.80323 3.59998 9.77563 3.45929C9.74312 3.29361 9.88146 3.25785 10.1914 3.26187C10.9719 3.27202 11.7548 3.28006 12.5338 3.25965C13.0001 3.24744 13.0605 3.33963 13.0586 3.53932C13.0433 5.09244 13.0501 6.64556 13.0501 8.19874C13.0501 8.542 13.0376 8.88537 13.0558 9.22838C13.0636 9.37664 13.0043 9.44229 12.6619 9.43709C11.8295 9.42451 10.9956 9.42771 10.1629 9.4359C9.87938 9.43874 9.74875 9.40715 9.77583 9.25358C9.80125 9.11006 9.78135 8.96453 9.78135 8.78081C9.47771 8.9116 9.2275 9.02235 8.97083 9.12938C8.3624 9.38303 7.60844 9.4762 6.87354 9.58989H4.99896C4.93958 9.50408 4.76667 9.52578 4.64917 9.51006C2.40792 9.21065 1.01531 8.48738 0.305313 7.41213C0.195937 7.24639 0.227917 7.05979 0 6.91251V5.77975Z" fill="#F5F5F7"/>
</g>
<mask id="mask1_626_15599" style="mask-type:alpha" maskUnits="userSpaceOnUse" x="69" y="3" width="13" height="7">
<path d="M69.3047 3.10583H81.8854V9.29026H69.3047V3.10583Z" fill="white"/>
</mask>
<g mask="url(#mask1_626_15599)">
<path fill-rule="evenodd" clip-rule="evenodd" d="M74.3686 9.29027C74.3224 9.22692 74.1935 9.24153 74.0934 9.2307C70.9084 8.88809 69.3871 8.05609 69.3261 6.57216C69.2814 5.483 69.3229 4.39314 69.3087 3.30363C69.3066 3.14657 69.4175 3.10372 69.7505 3.10709C70.6521 3.11621 71.5549 3.11883 72.4561 3.10614C72.8386 3.1008 72.9113 3.16596 72.9093 3.32336C72.8961 4.31232 72.9004 5.30132 72.9049 6.29023C72.9057 6.4576 72.9002 6.62755 72.9583 6.79175C73.1849 7.43135 74.2142 7.79702 75.6986 7.77849C77.1341 7.76056 78.1157 7.36775 78.2448 6.72443C78.4059 5.92204 78.2828 5.11642 78.3104 4.31232C78.3222 3.96875 78.3163 3.62509 78.3103 3.28147C78.3085 3.17754 78.3332 3.10639 78.6298 3.1082C79.6052 3.11409 80.5811 3.11288 81.5566 3.1085C81.8046 3.1074 81.87 3.15518 81.8688 3.25886C81.8554 4.44888 81.9426 5.64101 81.814 6.82831C81.6686 8.17034 79.8939 9.00537 76.9714 9.23881C76.8707 9.24686 76.7432 9.22798 76.6891 9.29027H74.3686Z" fill="#F5F5F7"/>
</g>
<mask id="mask2_626_15599" style="mask-type:alpha" maskUnits="userSpaceOnUse" x="33" y="0" width="12" height="10">
<path d="M33.6016 0.00817871H44.5841V9.24315H33.6016V0.00817871Z" fill="white"/>
</mask>
<g mask="url(#mask2_626_15599)">
<path fill-rule="evenodd" clip-rule="evenodd" d="M42.5161 0.00817871C43.0274 0.130484 43.6114 0.14299 44.1252 0.26744C44.4992 0.357995 44.6949 0.44462 44.5186 0.673968C44.2874 0.974679 44.1386 1.29101 43.9788 1.60356C43.8962 1.76497 43.8023 1.83419 43.4336 1.73689C42.8891 1.59325 42.2859 1.53373 41.6638 1.54078C40.9006 1.5495 40.4335 1.75236 40.3046 2.11989C40.2038 2.40697 40.2581 2.6966 40.2358 2.98491C40.2249 3.12534 40.3914 3.12891 40.6027 3.1284C41.5474 3.12631 42.4925 3.1358 43.4364 3.12345C43.8116 3.11855 43.9697 3.15602 43.9491 3.3577C43.9146 3.69685 43.9188 4.03783 43.948 4.37718C43.9639 4.56227 43.8243 4.60352 43.4694 4.59923C42.5428 4.588 41.6147 4.60459 40.6884 4.59106C40.3068 4.5855 40.2297 4.64956 40.2314 4.8221C40.2451 6.20738 40.2287 7.59271 40.2499 8.97799C40.2531 9.19197 40.1381 9.2522 39.7008 9.2421C38.9154 9.22387 38.1261 9.22642 37.3401 9.24138C36.953 9.24873 36.8412 9.20008 36.8438 9.00509C36.8627 7.61986 36.8423 6.23448 36.8657 4.84925C36.8695 4.6295 36.7378 4.58121 36.3134 4.5903C35.5277 4.60699 34.7394 4.5905 33.9523 4.59571C33.6697 4.59755 33.5283 4.58397 33.6396 4.41521C33.8845 4.04401 34.1084 3.66892 34.3057 3.29108C34.3791 3.15045 34.5221 3.12166 34.7851 3.12534C35.3094 3.13269 35.8373 3.11161 36.3585 3.13243C36.7972 3.14994 36.8759 3.06526 36.8624 2.87583C36.834 2.47711 36.8258 2.07696 37.0027 1.68299C37.3733 0.856508 38.3414 0.29919 40.0591 0.077703C40.1522 0.0657072 40.2775 0.0738235 40.3116 0.00817871H42.5161Z" fill="#F5F5F7"/>
</g>
<mask id="mask3_626_15599" style="mask-type:alpha" maskUnits="userSpaceOnUse" x="45" y="3" width="13" height="7">
<path d="M45.1953 3.10474H57.7393V9.2902H45.1953V3.10474Z" fill="white"/>
</mask>
<g mask="url(#mask3_626_15599)">
<path fill-rule="evenodd" clip-rule="evenodd" d="M50.2227 9.29021C49.9258 9.17852 49.541 9.19242 49.1996 9.1467C46.8652 8.8342 45.3117 7.97547 45.247 6.86612C45.1777 5.67685 45.2192 4.48628 45.1954 3.29637C45.1921 3.12959 45.3465 3.10517 45.657 3.10784C46.5035 3.11509 47.3515 3.12189 48.1968 3.10563C48.6457 3.09701 48.7898 3.14858 48.7838 3.36419C48.7568 4.33623 48.7713 5.30851 48.7729 6.2807C48.7732 6.41474 48.7684 6.54944 48.7945 6.68268C48.925 7.34982 49.9048 7.76292 51.3816 7.77893C52.889 7.7953 53.8853 7.42238 54.1131 6.75992C54.248 6.36791 54.1735 5.97359 54.1804 5.58038C54.1937 4.82617 54.195 4.07177 54.176 3.31762C54.1717 3.15185 54.2742 3.102 54.638 3.10668C55.521 3.11796 56.4056 3.11887 57.2883 3.10633C57.6668 3.10094 57.7413 3.16263 57.7393 3.32149C57.7249 4.41095 57.7512 5.50056 57.726 6.58997C57.6925 8.03186 56.0645 8.92736 52.9806 9.23074C52.8683 9.24182 52.7096 9.21115 52.6537 9.29021H50.2227Z" fill="#F5F5F7"/>
</g>
<mask id="mask4_626_15599" style="mask-type:alpha" maskUnits="userSpaceOnUse" x="57" y="1" width="13" height="9">
<path d="M57.7773 1.07507H69.2754V9.28213H57.7773V1.07507Z" fill="white"/>
</mask>
<g mask="url(#mask4_626_15599)">
<path fill-rule="evenodd" clip-rule="evenodd" d="M63.9388 9.28214C63.8886 9.20395 63.7346 9.22439 63.6258 9.20997C61.7024 8.95557 60.6432 8.36868 60.4044 7.4054C60.1975 6.57075 60.3423 5.73205 60.3099 4.89532C60.291 4.40639 60.3064 4.41008 59.3258 4.40463C58.8495 4.40198 58.2305 4.50207 57.9354 4.36514C57.6373 4.22676 57.854 3.92442 57.8453 3.6942C57.8358 3.44519 57.6672 3.11151 57.9274 2.96877C58.2273 2.80434 58.9307 2.92181 59.458 2.91646C60.3062 2.90785 60.3065 2.91413 60.3065 2.51538C60.3065 2.10952 60.3197 1.70351 60.3 1.29791C60.2921 1.13861 60.3572 1.06955 60.7296 1.07542C61.6015 1.08917 62.4751 1.08782 63.3473 1.07578C63.6909 1.07106 63.7636 1.13011 63.7574 1.28312C63.739 1.73199 63.7757 2.18164 63.7404 2.63C63.7229 2.85005 63.8214 2.92778 64.3149 2.92056C65.6138 2.90157 66.9148 2.9187 68.2148 2.91102C68.5468 2.90904 68.6909 2.94199 68.6764 3.12235C68.6472 3.48452 68.6507 3.84783 68.6753 4.21016C68.6866 4.37417 68.5717 4.41179 68.25 4.40977C66.8966 4.40146 65.5428 4.41236 64.1895 4.40219C63.8337 4.39949 63.7386 4.45065 63.7434 4.61939C63.762 5.27555 63.7493 5.93197 63.7532 6.58823C63.7537 6.68282 63.775 6.77783 63.7985 6.8719C63.9556 7.49957 64.8248 7.81536 66.1119 7.71221C66.6988 7.6652 67.2402 7.55354 67.7464 7.40872C68.023 7.32959 68.1332 7.35917 68.2543 7.49304C68.554 7.82433 68.8702 8.15252 69.2072 8.4752C69.3351 8.59781 69.2832 8.6526 69.0518 8.71917C68.3135 8.93144 67.5501 9.10884 66.7099 9.20623C66.571 9.22232 66.376 9.18922 66.291 9.28214H63.9388Z" fill="#F5F5F7"/>
</g>
<mask id="mask5_626_15599" style="mask-type:alpha" maskUnits="userSpaceOnUse" x="23" y="3" width="12" height="7">
<path d="M23.1445 3.10876H34.5593V9.53797H23.1445V3.10876Z" fill="white"/>
</mask>
<g mask="url(#mask5_626_15599)">
<path fill-rule="evenodd" clip-rule="evenodd" d="M27.2266 9.53798C26.6598 9.42454 26.0393 9.42168 25.4573 9.33564C24.7302 9.22823 24.0263 9.10053 23.3708 8.91138C23.1519 8.8482 23.0735 8.79876 23.2176 8.67525C23.5802 8.36443 23.9247 8.04815 24.2439 7.72649C24.3862 7.58299 24.5118 7.59741 24.756 7.66647C26.3553 8.11895 28.0793 8.25279 29.9029 8.11476C30.151 8.096 30.3812 8.05469 30.5917 7.99089C30.8937 7.89933 31.0802 7.77332 31.0731 7.5925C31.0657 7.40484 30.8318 7.29912 30.5097 7.22642C29.7935 7.06478 29.0135 7.0385 28.2475 6.98559C27.3907 6.92644 26.5442 6.85267 25.7458 6.68162C24.4435 6.4027 23.6516 5.94174 23.5698 5.24046C23.4889 4.54598 23.9718 3.96575 25.2009 3.5712C26.5775 3.12925 28.1406 3.07895 29.729 3.12056C30.6819 3.14556 31.6197 3.22285 32.5331 3.36318C32.7689 3.39943 32.8792 3.43434 32.7831 3.57554C32.558 3.90599 32.3723 4.24293 32.1918 4.57992C32.1129 4.72746 32.0005 4.76273 31.6806 4.70941C30.7084 4.54751 29.7076 4.45115 28.6689 4.48095C28.2768 4.4922 27.8991 4.52681 27.5594 4.62792C27.2315 4.72552 27.0666 4.86533 27.0895 5.05402C27.1112 5.23341 27.3598 5.32905 27.6621 5.38805C28.3725 5.52669 29.1371 5.54816 29.8843 5.60429C30.7396 5.66855 31.5792 5.75351 32.3829 5.9169C35.4224 6.53506 34.8714 8.27916 33.1989 8.90361C32.3352 9.22608 31.3545 9.39095 30.3013 9.48312C30.1909 9.49278 30.0445 9.46181 29.9811 9.53798H27.2266Z" fill="#F5F5F7"/>
</g>
<path fill-rule="evenodd" clip-rule="evenodd" d="M86.4627 3.8969C87.7279 3.07494 89.3014 2.99668 91.0244 3.17587C91.3507 3.20984 91.4002 3.27868 91.3145 3.43081C91.0934 3.82373 90.8754 4.21755 90.6884 4.61521C90.6196 4.7616 90.5145 4.78085 90.261 4.74165C89.6284 4.64388 88.9823 4.61072 88.3298 4.68717C87.3882 4.79758 86.8432 5.11703 86.6528 5.60372C86.5828 5.78277 86.5632 5.96983 86.5615 6.15336C86.5529 7.10917 86.5401 8.06519 86.5699 9.02074C86.5772 9.25321 86.4424 9.29846 86.0392 9.28894C85.3082 9.27165 84.5746 9.27972 83.8423 9.28637C83.5957 9.28864 83.4758 9.26938 83.4766 9.11387C83.4863 7.21898 83.4859 5.32409 83.4771 3.4292C83.4764 3.28054 83.5748 3.24718 83.8354 3.24995C84.5836 3.25776 85.3327 3.2619 86.0802 3.24849C86.4119 3.24254 86.4938 3.3072 86.467 3.46468C86.4458 3.5889 86.4627 3.71488 86.4627 3.8969Z" fill="#F5F5F7"/>
<path fill-rule="evenodd" clip-rule="evenodd" d="M18.2251 3.88577C19.5003 3.07197 21.0726 2.99472 22.7884 3.18011C23.0716 3.2107 23.1576 3.25882 23.0671 3.41508C22.8402 3.80696 22.6386 4.20307 22.4445 4.59989C22.3772 4.73756 22.2983 4.79797 21.9969 4.74078C21.5763 4.66102 21.128 4.64565 20.6798 4.64978C19.2891 4.66263 18.3649 5.12002 18.3401 5.85797C18.3045 6.91399 18.3127 7.97062 18.33 9.02684C18.3334 9.23495 18.2346 9.29884 17.8345 9.28917C17.104 9.27158 16.3706 9.27803 15.6389 9.2872C15.3449 9.29088 15.2255 9.25863 15.2266 9.08383C15.2387 7.20585 15.237 5.32782 15.2288 3.44985C15.2281 3.29732 15.3115 3.24602 15.6064 3.25005C16.338 3.25998 17.071 3.26174 17.8022 3.24944C18.1306 3.2439 18.2707 3.28915 18.23 3.47061C18.204 3.58625 18.2251 3.70482 18.2251 3.88577Z" fill="#F5F5F7"/>
</g>
<defs>
<clipPath id="clip0_626_15599">
<rect width="105" height="10" fill="white"/>
</clipPath>
</defs>
</svg>
