<svg width="59" height="20" viewBox="0 0 59 20" fill="none" xmlns="http://www.w3.org/2000/svg">
<mask id="mask0_626_15600" style="mask-type:alpha" maskUnits="userSpaceOnUse" x="0" y="0" width="19" height="13">
<path d="M0 0.506226H18.6336V12.2308H0V0.506226Z" fill="white"/>
</mask>
<g mask="url(#mask0_626_15600)">
<path fill-rule="evenodd" clip-rule="evenodd" d="M3.09288 0.506226C3.59465 0.630989 3.78222 0.866841 3.77997 1.1797C3.7742 1.95422 3.77777 2.72877 3.77836 3.50329C3.7786 3.78415 3.85829 3.8307 4.33636 3.83073C7.81786 3.83085 11.2994 3.83055 14.7809 3.83091C16.7704 3.83111 18.2725 4.59117 18.6084 5.76882C18.6301 5.84503 18.631 5.92397 18.6311 6.00168C18.6324 7.35103 18.6364 8.70035 18.6307 10.0497C18.626 11.164 17.0564 12.143 15.1986 12.2126C14.6453 12.2334 14.0933 12.2289 13.5409 12.2293C10.6776 12.2316 7.81434 12.2302 4.95109 12.2308C4.78785 12.2308 4.62599 12.2274 4.46593 12.2072C4.04155 12.1539 3.72476 11.9416 3.71714 11.6818C3.70566 11.2874 3.70356 10.8926 3.71753 10.4982C3.72842 10.1912 4.12803 9.96938 4.66248 9.96839C6.39507 9.96517 8.12766 9.96654 9.8603 9.96634C11.3326 9.96616 12.8049 9.96675 14.2772 9.96599C14.77 9.96572 14.8542 9.91355 14.8543 9.61618C14.8545 8.54938 14.8547 7.48259 14.8541 6.41576C14.8539 6.13549 14.7882 6.09693 14.3161 6.09693C10.981 6.09678 7.64593 6.09678 4.31091 6.09693C3.84407 6.09696 3.77855 6.13634 3.77836 6.41933C3.77777 7.36435 3.77914 8.3094 3.7765 9.25439C3.77626 9.34645 3.76697 9.43988 3.73922 9.53015C3.65626 9.7995 3.28607 9.98449 2.82724 9.98651C2.20094 9.98924 1.57458 9.98894 0.948229 9.98678C0.391692 9.98484 0.00239437 9.74967 0.0022478 9.41309C0.000928641 6.63162 0.00249209 3.85014 1.72907e-07 1.06864C-0.000243942 0.786525 0.258018 0.620213 0.652054 0.506226H3.09288Z" fill="#F5F5F7"/>
</g>
<path fill-rule="evenodd" clip-rule="evenodd" d="M39.9344 0.493164C40.4357 0.630363 40.5948 0.866575 40.5933 1.19048C40.5804 3.9132 40.584 6.63591 40.5887 9.35866C40.5892 9.62282 40.4439 9.82372 40.0353 9.94256C39.9071 9.97983 39.7718 9.99039 39.6317 9.9903C39.0207 9.99001 38.4097 9.99327 37.7988 9.9894C37.2184 9.9857 36.8412 9.75697 36.8399 9.40646C36.8362 8.43058 36.8386 7.45468 36.8375 6.4788C36.8375 6.41559 36.8376 6.35137 36.8202 6.28934C36.7846 6.16205 36.6606 6.09037 36.4353 6.09187C36.3213 6.0926 36.2072 6.09128 36.0931 6.09128C32.8182 6.09122 29.5433 6.09119 26.2684 6.09128C25.7869 6.09131 25.71 6.13636 25.7098 6.4195C25.7094 7.49785 25.7093 8.57623 25.71 9.65458C25.7101 9.91115 25.8099 9.97095 26.2461 9.97104C29.4476 9.97165 32.6492 9.97106 35.8509 9.97194C36.3645 9.97209 36.7211 10.1266 36.8345 10.3958C36.8581 10.4517 36.8644 10.5115 36.8648 10.5695C36.8674 10.9208 36.8689 11.2721 36.8653 11.6235C36.8618 11.9597 36.5486 12.1731 35.9934 12.2192C35.8729 12.2292 35.75 12.2331 35.6284 12.2331C32.4023 12.2338 29.1762 12.2319 25.9502 12.2345C24.5858 12.2356 23.4465 11.958 22.6294 11.2838C22.1779 10.9112 21.9336 10.4908 21.9328 10.0267C21.9306 8.6946 21.9267 7.3625 21.9337 6.03042C21.9394 4.94685 23.3494 3.99646 25.1422 3.85304C25.3854 3.8336 25.6281 3.8265 25.8727 3.82653C29.3268 3.827 32.781 3.82688 36.2351 3.82682C36.753 3.82679 36.8375 3.77582 36.8379 3.45907C36.8388 2.70275 36.8543 1.94625 36.8307 1.19022C36.8205 0.86593 36.9877 0.629894 37.49 0.493164H39.9344Z" fill="#F5F5F7"/>
<mask id="mask1_626_15600" style="mask-type:alpha" maskUnits="userSpaceOnUse" x="43" y="3" width="16" height="7">
<path d="M43.4102 3.84985H58.2909V9.97214H43.4102V3.84985Z" fill="white"/>
</mask>
<g mask="url(#mask1_626_15600)">
<path fill-rule="evenodd" clip-rule="evenodd" d="M58.2909 5.6885C58.0634 5.99213 57.6648 6.10097 57.1176 6.09986C53.9897 6.09354 50.8617 6.09707 47.7338 6.09744C47.2381 6.0975 47.1759 6.13513 47.1757 6.43463C47.1751 7.3755 47.1749 8.31634 47.175 9.25721C47.1751 9.34465 47.1711 9.43131 47.1379 9.51736C47.0319 9.79228 46.6932 9.96472 46.2191 9.96851C45.6098 9.97341 45.0003 9.97317 44.391 9.96892C43.8226 9.96495 43.4205 9.72813 43.4191 9.38908C43.4141 8.25423 43.3995 7.11923 43.4236 5.98455C43.4455 4.95338 44.8427 4.03612 46.572 3.88202C46.7975 3.86193 47.023 3.85229 47.2512 3.85237C50.5498 3.85334 53.8484 3.85622 57.147 3.84986C57.6893 3.84882 58.0714 3.96491 58.2909 4.26252V5.6885Z" fill="#F5F5F7"/>
</g>
<mask id="mask2_626_15600" style="mask-type:alpha" maskUnits="userSpaceOnUse" x="54" y="10" width="5" height="3">
<path d="M54.5977 10.0084H58.2913V12.2308H54.5977V10.0084Z" fill="white"/>
</mask>
<g mask="url(#mask2_626_15600)">
<path fill-rule="evenodd" clip-rule="evenodd" d="M58.2913 11.8279C58.087 12.1214 57.7016 12.2344 57.1907 12.2307C56.6895 12.227 56.1879 12.2337 55.6867 12.2287C55.04 12.2222 54.6559 12.0297 54.6226 11.6602C54.5895 11.2946 54.5887 10.926 54.6242 10.5605C54.6591 10.2001 55.027 10.0162 55.6306 10.0136C56.1479 10.0114 56.6661 10.0245 57.1821 10.0097C57.7048 9.99481 58.0768 10.1079 58.2913 10.3965V11.8279Z" fill="#F5F5F7"/>
</g>
<mask id="mask3_626_15600" style="mask-type:alpha" maskUnits="userSpaceOnUse" x="57" y="16" width="2" height="4">
<path d="M57.4023 16.9995H58.2843V19.1957H57.4023V16.9995Z" fill="white"/>
</mask>
<g mask="url(#mask3_626_15600)">
<path fill-rule="evenodd" clip-rule="evenodd" d="M58.2843 19.1791C57.4025 19.2182 57.4025 19.2182 57.4025 18.8295C57.4025 18.2883 57.402 17.747 57.4027 17.2057C57.403 17.0011 57.4062 16.9999 57.8498 16.9995C57.9946 16.9994 58.1395 17.0016 58.2843 17.0027V19.1791Z" fill="#F5F5F7"/>
</g>
<path fill-rule="evenodd" clip-rule="evenodd" d="M1.21267 17.3741C0.656526 17.3712 0.656526 17.3712 0.657536 17.7062C0.657681 17.7445 0.658787 17.7828 0.659556 17.821C0.660566 17.8722 0.700631 17.9048 0.788456 17.9038C1.0665 17.9006 1.34686 17.9255 1.62226 17.887C1.88708 17.85 1.98938 17.7671 1.97226 17.6123C1.95673 17.4717 1.80378 17.3843 1.54737 17.3748C1.43618 17.3706 1.32425 17.3741 1.21267 17.3741ZM1.1966 18.8578C1.31637 18.8578 1.43627 18.8605 1.55589 18.8574C1.91075 18.8482 2.07437 18.7545 2.07384 18.5642C2.07336 18.3766 1.90618 18.2811 1.55209 18.2713C1.40063 18.2671 1.24869 18.2693 1.097 18.27C0.605207 18.272 0.659893 18.2401 0.657969 18.5294C0.655805 18.8585 0.65744 18.8585 1.1966 18.8578ZM2.17908 18.0716C2.66197 18.1982 2.85296 18.415 2.78688 18.7033C2.71348 19.0236 2.36656 19.209 1.82533 19.2186C1.28938 19.2282 0.752576 19.2198 0.216152 19.2228C0.0658016 19.2237 -0.0004758 19.192 2.57019e-06 19.0976C0.00342004 18.4392 0.0025543 17.7808 0.000438039 17.1225C0.000197555 17.0438 0.03324 16.9898 0.184216 16.9911C0.704046 16.9954 1.22469 16.972 1.74361 17.0046C2.17157 17.0315 2.53831 17.1285 2.64802 17.4C2.7584 17.6732 2.65745 17.9176 2.17908 18.0716Z" fill="#F5F5F7"/>
<path fill-rule="evenodd" clip-rule="evenodd" d="M9.02673 17.8499C9.02673 18.2373 9.02945 18.6247 9.02414 19.012C9.02327 19.0783 9.08281 19.1733 8.94078 19.2023C8.78953 19.2332 8.62055 19.2279 8.46352 19.2009C8.39359 19.1888 8.40015 19.1392 8.4001 19.1017C8.39908 18.4358 8.4001 17.77 8.39844 17.1042C8.39821 17.0239 8.46227 16.9972 8.5815 16.9905C8.85835 16.9751 9.06661 17.0047 9.23014 17.1789C9.58685 17.5588 9.98781 17.9226 10.3729 18.2921C10.4083 18.3261 10.4268 18.3718 10.5055 18.3868C10.5644 18.3393 10.5364 18.285 10.5369 18.2352C10.5398 17.8807 10.5367 17.5263 10.5393 17.1718C10.5407 17 10.5629 16.99 10.8758 16.9903C11.1769 16.9906 11.1922 16.9976 11.1925 17.1659C11.1938 17.7887 11.1862 18.4114 11.1979 19.0341C11.2007 19.1836 11.1139 19.2143 10.8905 19.2212C10.6093 19.2298 10.4474 19.1707 10.2999 19.0203C9.90791 18.6206 9.48433 18.2329 9.07335 17.8405C9.05779 17.8436 9.04228 17.8467 9.02673 17.8499Z" fill="#F5F5F7"/>
<path fill-rule="evenodd" clip-rule="evenodd" d="M29.6097 17.6958C29.6097 17.7579 29.6166 17.8204 29.6082 17.8821C29.594 17.9861 29.6609 18.0315 29.8371 18.0263C30.0567 18.0199 30.2771 18.0245 30.4971 18.0201C30.6638 18.0168 30.8017 17.976 30.8885 17.8849C31.1148 17.6471 30.8782 17.3817 30.4305 17.3715C30.3362 17.3693 30.2418 17.3694 30.1475 17.3701C29.5188 17.3751 29.62 17.3218 29.6097 17.6958ZM28.9329 18.1077C28.9329 17.7967 28.9396 17.4858 28.9299 17.175C28.9257 17.0433 28.9908 16.9807 29.2246 16.9879C29.7346 17.0035 30.2476 16.9637 30.7559 17.0124C31.2268 17.0575 31.5617 17.2616 31.6341 17.5386C31.7253 17.8877 31.5395 18.1554 31.0891 18.2931C30.952 18.3351 30.9417 18.3678 31.0199 18.4421C31.2448 18.6554 31.4574 18.8736 31.6784 19.0885C31.77 19.1777 31.7413 19.204 31.5635 19.2171C31.1768 19.2456 30.9059 19.1858 30.7448 18.949C30.6346 18.7872 30.4557 18.6426 30.3032 18.4919C30.2244 18.414 29.775 18.3668 29.6606 18.4222C29.5958 18.4536 29.6107 18.5003 29.6104 18.5423C29.6086 18.724 29.605 18.9058 29.6104 19.0875C29.613 19.1795 29.5508 19.2208 29.4003 19.2134C29.3847 19.2127 29.3689 19.2135 29.3531 19.2137C28.9332 19.2193 28.933 19.2193 28.9329 18.9685C28.9326 18.6816 28.9328 18.3946 28.9329 18.1077Z" fill="#F5F5F7"/>
<path fill-rule="evenodd" clip-rule="evenodd" d="M13.3549 18.1137C13.3549 18.3201 13.3546 18.5266 13.355 18.7331C13.3551 18.7924 13.3523 18.8565 13.5051 18.8558C13.7834 18.8544 14.0624 18.8719 14.3395 18.8411C14.6943 18.8016 14.9089 18.6827 14.9944 18.4928C15.101 18.2561 15.0971 18.0142 15.0249 17.7779C14.9368 17.4896 14.6667 17.3783 14.1387 17.372C13.9818 17.3701 13.8239 17.3769 13.6681 17.3694C13.4361 17.3581 13.3353 17.3993 13.3495 17.5376C13.3692 17.7291 13.3545 17.9216 13.3549 18.1137ZM12.6012 18.1053C12.6011 17.7929 12.6077 17.4804 12.5978 17.1681C12.5938 17.0415 12.6652 16.9808 12.9113 16.9874C13.4076 17.0009 13.9054 16.9715 14.4017 17.0076C15.1969 17.0656 15.6455 17.2911 15.7974 17.7228C15.8966 18.0049 15.8861 18.2865 15.7562 18.5655C15.5652 18.9753 15.0294 19.212 14.2629 19.22C13.8004 19.2247 13.3374 19.2173 12.875 19.2233C12.6684 19.226 12.5968 19.1812 12.599 19.0713C12.6056 18.7493 12.6014 18.4273 12.6012 18.1053Z" fill="#F5F5F7"/>
<path fill-rule="evenodd" clip-rule="evenodd" d="M25.4899 18.1172C25.4899 18.3136 25.4899 18.5099 25.4899 18.7063C25.4899 18.7158 25.4913 18.7255 25.4905 18.735C25.483 18.8164 25.5399 18.8613 25.7028 18.8584C25.9128 18.8547 26.1241 18.8631 26.3332 18.8544C26.7447 18.8373 26.9976 18.7264 27.112 18.5097C27.2559 18.237 27.2536 17.9611 27.1128 17.6882C27.0137 17.4959 26.7509 17.3862 26.3808 17.3757C26.1711 17.3698 25.9602 17.3766 25.7504 17.3707C25.5576 17.3653 25.4834 17.4089 25.4877 17.5138C25.496 17.7148 25.4901 17.916 25.4899 18.1172ZM24.7348 18.1111C24.7349 17.785 24.737 17.4588 24.7336 17.1327C24.7327 17.05 24.7631 16.9899 24.9445 16.9909C25.4355 16.9938 25.9306 16.9747 26.4166 17.0026C27.4029 17.0591 27.8354 17.2947 27.9622 17.8301C28.023 18.0868 28.0085 18.3469 27.8756 18.6005C27.6792 18.9755 27.1462 19.2089 26.4319 19.2191C25.9585 19.2259 25.4843 19.2162 25.0109 19.2235C24.7836 19.227 24.7113 19.1737 24.7346 19.0608C24.7356 19.0561 24.7346 19.0512 24.7346 19.0464C24.7346 18.7346 24.7346 18.4229 24.7348 18.1111Z" fill="#F5F5F7"/>
<path fill-rule="evenodd" clip-rule="evenodd" d="M50.6358 18.0196C50.7783 18.0196 50.9214 18.0249 51.063 18.0182C51.2324 18.0101 51.3785 17.9606 51.4297 17.8615C51.5468 17.6351 51.4763 17.3694 50.9254 17.3724C50.8383 17.3729 50.7512 17.3717 50.6641 17.3717C50.111 17.3715 50.1072 17.3715 50.1119 17.7045C50.1172 18.0672 50.0227 18.023 50.6358 18.0196ZM49.4592 18.1041C49.4591 17.7789 49.4603 17.4536 49.4583 17.1284C49.4578 17.0534 49.4783 16.9919 49.6326 16.9934C50.1798 16.9989 50.729 16.9651 51.2738 17.0145C51.7579 17.0584 52.0872 17.2579 52.1585 17.5384C52.2493 17.8962 52.0711 18.1589 51.6148 18.292C51.4507 18.3399 51.4749 18.3792 51.5501 18.4508C51.7705 18.6611 51.9809 18.8752 52.2015 19.0853C52.3072 19.186 52.2584 19.207 52.0753 19.2184C51.6968 19.2421 51.4226 19.1901 51.269 18.9548C51.1745 18.8098 51.008 18.6819 50.8733 18.5465C50.7502 18.4227 50.4148 18.3579 50.1968 18.4134C50.0994 18.4382 50.1124 18.4884 50.1119 18.535C50.1101 18.7119 50.1034 18.8891 50.1134 19.0658C50.1197 19.1761 50.0577 19.2283 49.8677 19.2157C49.805 19.2116 49.7404 19.2122 49.6773 19.2154C49.51 19.2241 49.4554 19.1767 49.4571 19.0799C49.4628 18.7546 49.4592 18.4294 49.4592 18.1041Z" fill="#F5F5F7"/>
<path fill-rule="evenodd" clip-rule="evenodd" d="M42.2401 17.9953C42.6381 17.707 43.037 17.4192 43.4338 17.1303C43.5852 17.0201 44.0404 16.9492 44.2501 17.0083C44.3821 17.0456 44.2846 17.0858 44.2423 17.1172C43.9282 17.3511 43.6199 17.5884 43.2903 17.8135C43.1523 17.9078 43.1654 17.9754 43.2661 18.0738C43.603 18.4031 43.9281 18.7371 44.2546 19.0705C44.3749 19.1932 44.3542 19.1949 44.1229 19.2156C43.7287 19.2508 43.4793 19.1675 43.309 18.9386C43.1653 18.7454 42.9488 18.5737 42.7829 18.3862C42.6814 18.2716 42.6184 18.2928 42.4904 18.3732C42.2664 18.5137 42.1426 18.6669 42.1888 18.8688C42.2059 18.9434 42.1892 19.0209 42.1906 19.097C42.192 19.1717 42.1438 19.215 42.0148 19.2117C42.0072 19.2115 41.9995 19.2117 41.9918 19.2121C41.5288 19.2311 41.5276 19.2305 41.5276 18.9466C41.5276 18.3564 41.5268 17.7661 41.5282 17.1758C41.5286 17.0066 41.5428 17.0045 41.8672 16.9999C42.0659 16.9971 42.2072 17.0066 42.1963 17.171C42.1784 17.4412 42.1915 17.7123 42.1915 17.983C42.2077 17.9871 42.2239 17.9912 42.2401 17.9953Z" fill="#F5F5F7"/>
<path fill-rule="evenodd" clip-rule="evenodd" d="M53.6592 18.1064C53.6591 17.7895 53.6646 17.4726 53.6563 17.1559C53.6531 17.0322 53.7415 16.9863 53.9727 16.9879C54.6865 16.9931 55.4007 16.9955 56.1142 16.9873C56.4167 16.9838 56.4054 17.0766 56.4108 17.1904C56.4165 17.3109 56.3736 17.3797 56.1067 17.3748C55.6343 17.3661 55.1608 17.3758 54.688 17.3712C54.4954 17.3693 54.4153 17.4024 54.4205 17.5114C54.4417 17.9531 54.3066 17.8733 55.0869 17.8814C55.3544 17.8842 55.6223 17.8837 55.89 17.8818C56.0498 17.8807 56.1324 17.9085 56.141 18.005C56.1631 18.2561 56.1556 18.2645 55.6871 18.2647C55.348 18.2649 55.0088 18.2681 54.6699 18.2637C54.4848 18.2613 54.4248 18.3007 54.4199 18.3995C54.397 18.8585 54.3924 18.8584 55.241 18.8584C55.5623 18.8585 55.8839 18.8636 56.2047 18.8573C56.4689 18.8521 56.4577 18.9434 56.4549 19.0384C56.4522 19.1296 56.4835 19.2248 56.213 19.2232C55.4456 19.2188 54.678 19.2191 53.9106 19.2236C53.6965 19.2249 53.6574 19.1657 53.6582 19.0713C53.6609 18.7497 53.6592 18.428 53.6592 18.1064Z" fill="#F5F5F7"/>
<path fill-rule="evenodd" clip-rule="evenodd" d="M17.2684 18.1073C17.2683 17.7856 17.273 17.4639 17.2657 17.1422C17.2633 17.0312 17.3259 16.9872 17.5013 16.9881C18.1173 16.9917 18.7336 16.9939 19.3495 16.9872C19.5885 16.9847 19.5897 17.072 19.5913 17.1822C19.5929 17.2957 19.5789 17.3787 19.3444 17.3739C18.9466 17.3658 18.5479 17.376 18.1499 17.3702C17.9717 17.3676 17.9127 17.4102 17.9168 17.5217C17.9323 17.9481 17.8325 17.8732 18.4755 17.8805C18.7008 17.8831 18.9264 17.8852 19.1516 17.8803C19.3709 17.8755 19.3665 17.9673 19.3623 18.063C19.3581 18.1565 19.3993 18.2657 19.1573 18.2637C18.8193 18.2609 18.4811 18.2669 18.1431 18.2624C17.9801 18.2602 17.908 18.2965 17.9174 18.4041C17.9266 18.5094 17.9272 18.6156 17.9172 18.7209C17.9067 18.8317 17.9866 18.8605 18.146 18.8585C18.5441 18.8538 18.9429 18.8646 19.3405 18.8542C19.5663 18.8483 19.6022 18.9146 19.5983 19.0354C19.5947 19.1474 19.5914 19.2271 19.3524 19.2235C18.7366 19.2143 18.1202 19.2177 17.5042 19.2221C17.3304 19.2234 17.263 19.1857 17.2657 19.0725C17.2733 18.7508 17.2684 18.429 17.2684 18.1073Z" fill="#F5F5F7"/>
<path fill-rule="evenodd" clip-rule="evenodd" d="M45.7304 18.1025C45.7303 17.7905 45.7375 17.4783 45.7268 17.1665C45.7223 17.0385 45.781 16.9852 45.9933 16.9875C46.5942 16.9941 47.1955 16.9956 47.7963 16.987C48.0466 16.9835 48.0516 17.0707 48.0535 17.1878C48.0554 17.306 48.0257 17.3797 47.7975 17.3746C47.3998 17.3659 47.0012 17.3756 46.6031 17.371C46.4386 17.3691 46.3751 17.4069 46.3783 17.5133C46.391 17.9509 46.2996 17.8734 46.9236 17.8809C47.1414 17.8835 47.36 17.8883 47.5771 17.8796C47.8102 17.8703 47.829 17.9552 47.8263 18.0696C47.8238 18.1785 47.8273 18.2714 47.5862 18.2657C47.2562 18.258 46.9251 18.2667 46.5946 18.2631C46.4434 18.2614 46.3721 18.2956 46.3789 18.3967C46.3863 18.5069 46.3867 18.6177 46.3787 18.7278C46.3712 18.8308 46.4456 18.86 46.5959 18.8586C47.009 18.8547 47.4225 18.8633 47.8354 18.8553C48.0699 18.8508 48.0565 18.9412 48.0591 19.0419C48.0619 19.1477 48.0548 19.2261 47.8276 19.2233C47.2042 19.2157 46.5804 19.2176 45.9569 19.2226C45.7732 19.224 45.7259 19.1743 45.7281 19.0673C45.7347 18.7458 45.7305 18.4241 45.7304 18.1025Z" fill="#F5F5F7"/>
<path fill-rule="evenodd" clip-rule="evenodd" d="M33.8028 17.7918C33.8028 18.0046 33.7986 18.2174 33.8042 18.4302C33.8084 18.5869 33.8622 18.7381 34.1118 18.8176C34.3966 18.9084 34.6979 18.9085 34.9769 18.8092C35.2202 18.7226 35.2551 18.5652 35.2577 18.4116C35.2644 17.9955 35.2708 17.5792 35.2551 17.1633C35.2491 17.0064 35.3663 16.9837 35.5768 16.9876C35.8969 16.9937 35.9266 16.9994 35.9229 17.1634C35.9124 17.6265 35.9567 18.0899 35.8941 18.5527C35.8484 18.8914 35.544 19.1114 35.0028 19.1909C34.72 19.2324 34.4314 19.2316 34.1504 19.2045C33.4976 19.1415 33.1664 18.8941 33.141 18.4303C33.1172 17.9958 33.1365 17.5604 33.1326 17.1253C33.1318 17.0297 33.1944 16.9841 33.3527 16.9894C33.4144 16.9915 33.4769 16.9927 33.5381 16.9889C33.7401 16.9765 33.8123 17.0303 33.8053 17.1535C33.7933 17.366 33.802 17.579 33.802 17.7918H33.8028Z" fill="#F5F5F7"/>
<path fill-rule="evenodd" clip-rule="evenodd" d="M6.9963 17.8329C6.9963 18.0504 7.00264 18.2679 6.99498 18.4853C6.97953 18.9249 6.50513 19.2114 5.782 19.2206C5.60265 19.2229 5.42025 19.2282 5.24386 19.2128C4.60646 19.157 4.21916 18.8934 4.20638 18.4932C4.19196 18.0394 4.2046 17.5855 4.19985 17.1316C4.19877 17.0355 4.25885 16.9902 4.41899 16.9949C4.48132 16.9968 4.5445 16.9979 4.60637 16.9942C4.8086 16.982 4.88277 17.0341 4.88028 17.1576C4.87196 17.5689 4.87643 17.9803 4.87859 18.3916C4.87896 18.4668 4.86929 18.5432 4.91081 18.6165C5.0297 18.8261 5.27919 18.8949 5.67504 18.883C6.09044 18.8705 6.30605 18.7436 6.31305 18.5168C6.32667 18.0773 6.31902 17.6375 6.32484 17.1979C6.32573 17.1311 6.27758 17.0392 6.41987 17.0106C6.58212 16.978 6.76128 16.9793 6.92677 17.013C7.0179 17.0316 6.99592 17.0924 6.99634 17.1379C6.99841 17.3695 6.99728 17.6012 6.99728 17.8329H6.9963Z" fill="#F5F5F7"/>
<path fill-rule="evenodd" clip-rule="evenodd" d="M22.2954 19.2216C21.9105 19.2331 21.5592 19.187 21.2045 19.1501C20.89 19.1173 21.0196 19.0007 21.0385 18.9018C21.059 18.794 21.1612 18.7784 21.3316 18.7995C21.6836 18.8432 22.0398 18.8739 22.4026 18.8687C22.5527 18.8665 22.6977 18.8519 22.8277 18.8095C23.1363 18.7088 23.136 18.4932 22.8286 18.392C22.6783 18.3425 22.5113 18.3175 22.3451 18.2917C22.0598 18.2475 21.7801 18.1958 21.5299 18.1015C21.1301 17.9509 20.9755 17.7358 21.0487 17.4719C21.1173 17.225 21.4135 17.0952 21.8161 17.0326C22.4078 16.9406 22.9849 17.0025 23.5599 17.0865C23.6387 17.0979 23.6835 17.1181 23.6818 17.1734C23.6755 17.3797 23.5461 17.4432 23.1992 17.4023C22.8766 17.3642 22.5507 17.3508 22.2221 17.3636C21.9981 17.3723 21.8178 17.425 21.768 17.5585C21.7175 17.6941 21.8786 17.7663 22.0651 17.8171C22.303 17.8819 22.5642 17.9066 22.8148 17.9497C23.2625 18.0267 23.6641 18.1411 23.7686 18.4358C23.918 18.8568 23.4342 19.1918 22.643 19.221C22.5206 19.2255 22.3973 19.2216 22.2954 19.2216Z" fill="#F5F5F7"/>
<path fill-rule="evenodd" clip-rule="evenodd" d="M37.3315 18.1422C37.3355 17.9773 37.336 17.8615 37.3713 17.7451C37.5206 17.2533 37.9616 17.0127 38.7872 16.9888C39.1814 16.9774 39.5675 17.0189 39.95 17.0738C40.0971 17.0949 40.1708 17.1432 40.1013 17.2343C40.0412 17.313 40.1134 17.4661 39.822 17.4232C39.5151 17.378 39.2041 17.3524 38.8863 17.3593C38.4508 17.3689 38.1804 17.4937 38.0745 17.7505C37.9775 17.9856 37.9794 18.2233 38.0766 18.458C38.2131 18.7879 38.6058 18.9183 39.2633 18.8567C39.4453 18.8396 39.6294 18.8245 39.8063 18.7947C40.0503 18.7537 40.046 18.8638 40.0883 18.9499C40.1299 19.0346 40.1705 19.1091 39.9596 19.1412C39.4463 19.2194 38.9304 19.253 38.4086 19.1919C37.9479 19.1379 37.6433 18.9646 37.48 18.6998C37.3598 18.5047 37.3148 18.3019 37.3315 18.1422Z" fill="#F5F5F7"/>
</svg>
