<svg width="136" height="6" viewBox="0 0 136 6" fill="none" xmlns="http://www.w3.org/2000/svg">
<g clip-path="url(#clip0_626_15271)">
<path fill-rule="evenodd" clip-rule="evenodd" d="M2.51005 0V5.93303H30.3618V5.69708H31.0575V5.93303H31.5996V5.69708H32.3423V5.93303H32.8844V5.69708H34.1692V5.42906H34.8743V5.69708H35.3757V5.42906H36.1403V5.70077H36.6636V5.43287H37.2903V5.18697H37.9738V4.9498H38.6563V5.18697H39.1799V4.9498H39.9414V5.18697H40.4835V4.9498H41.0977V3.72965H40.496V3.21708H39.9539V3.72965H39.1921V3.21708H38.6691V3.72965H37.986V3.21708H37.3029V2.98618H33.4895V2.71816H34.1692V2.45026H34.8743V2.71816H35.3757V2.45026H36.1403V2.71816H36.6636V2.45026H37.2903V1.96989H37.9738V0.98679H37.2903V0.482826H33.4767V0.237174H29.6787V0H2.51005ZM17.7301 1.49309H22.0702V1.73886H22.7502V1.97481H22.0702V2.21186H17.7301V1.49309ZM16.4453 2.21186H17.0501V1.49555H16.4453V2.21186ZM15.217 1.49555H15.7591V2.21186H15.2198L15.217 1.49555ZM24.7401 1.97481H25.2634V1.73886H24.7401V1.97481ZM23.4334 1.97481H23.9755V1.73886H23.4334V1.97481ZM24.7338 3.73333V3.48756H25.2571V3.73333H25.8588V4.21002H25.2571V4.45591H24.7338V4.21002H23.9692V4.45591H23.4271V4.21002H22.744V4.45591H17.7301V3.48756H22.744V3.73333H23.4271V3.48756H23.9692V3.73333H24.7338ZM16.4453 4.45591H17.0501V3.49481H16.4453V4.45591ZM15.217 3.49481H15.7591V4.45591H15.2198L15.217 3.49481ZM1.22557 5.93794H1.82723V0H1.22557V5.93794ZM0 5.93794H0.54212V0H0V5.93794ZM39.9414 1.97481H40.4835V0.991705H39.9414V1.97481ZM38.6563 1.97481H39.1796V0.991705H38.6563V1.97481Z" fill="#F5F5F7"/>
<path fill-rule="evenodd" clip-rule="evenodd" d="M85.4049 4.44608H86.0066V0H85.4049V4.44608ZM84.2016 4.44608H84.7218V0H84.2016V4.44608ZM67.7027 0V3.99263H67.0763V4.2384H66.3336V3.99263H65.7915V4.2384H65.1083V3.99263H64.5067V4.2384H63.2031V3.99263H62.5983V4.2384H61.9151V3.99263H61.373V4.2384H60.6304V3.99263H60.0033V0H44.2605L44.2665 4.44608H44.8932V4.9573H45.498V5.19447H46.0994V4.9573H46.7828V5.19447H47.2998V4.9573H48.0613V5.19447H48.663V5.46114H49.2897V5.69831H49.9164V5.46114H50.5836V5.69831H51.1072V5.46114H51.8687V5.69831H56.2871V5.94409H71.4101V5.69831H75.8379V5.46114H76.6025V5.69831H77.1258V5.46114H77.8058V5.69831H78.4326V5.46114H79.0311V5.19447H79.6327V4.9573H80.397V5.19447H80.9395V4.9573H81.6163V5.19447H82.218V4.9573H82.8197V4.44608H83.4464V0H67.7027ZM42.9754 4.44608H43.4956V0H42.9754V4.44608ZM41.6875 4.44608H42.2923V0H41.6875V4.44608Z" fill="#F5F5F7"/>
<path fill-rule="evenodd" clip-rule="evenodd" d="M119.622 0V0.267896H118.857V0H118.319V0.267896H117.635V0H105.029V0.267896H104.346V0H103.719V0.267896H103.036V0H102.515L102.525 0.267896H98.0252V0.501382H97.4233V0.747035H96.7401V0.501382H96.1388V0.747035H95.4556V0.501382H94.9132V0.747035H94.2301V1.01493H93.6287V1.251H92.9453V1.01493H92.3186V1.251H91.6386V1.01493H91.1152V1.251H90.4321V1.49555H89.8054V2.00676H89.1191V1.49555H88.5175V2.00676H87.8343V1.49555H87.2922V2.00676H86.6094V3.97296H87.2922V4.44608H87.8343V3.97296H88.5175V4.44608H89.1191V3.97296H89.7963V4.44608H90.4227V4.71017H91.1058V5.19078H91.6295V4.71017H92.3092V5.19078H92.9362V4.71017H93.619V5.19078H94.9041V5.45745H95.4459V5.19078H96.1291V5.45745H96.7307V5.19078H97.4139V5.45745H98.0158V5.69462H102.513V5.9404H103.032V5.69462H103.716V5.9404H104.342V5.69462H105.026V5.9404H117.635V5.69462H118.315V5.9404H118.857V5.69462H119.622V5.9404H120.142V5.69462H121.449V5.45745H122.132V5.69462H122.653V5.45745H123.417V5.69462H123.959V5.45745H124.561V5.19078H125.325V5.69462H125.845V5.19078H126.529V5.69462H127.156V5.19078H127.839V5.93794H135.97V2.50445H112.615V3.96928H117.034V4.23705H108.739V3.99127H108.219V4.23705H107.454V3.99127H106.912V4.23705H106.232V3.99127H105.546V3.72461H104.944V2.20461H105.546V1.96743H106.232V1.73137H106.912V1.96743H107.454V1.73137H108.219V1.96743H108.739V1.73137H113.919V1.96743H114.439V1.73137H115.122V1.96743H115.749V1.73137H116.432V1.96743H117.034V2.20461H120.769V1.96743H124.564V1.73137H129.042V1.46359H129.725V1.73137H130.267V1.46359H131.032V1.73137H131.552V1.46359H132.858V1.251H132.176V1.01874H131.549V0.750845H131.029V1.01874H130.264V0.750845H129.722V1.01874H129.039V0.750845H128.355V0.504946H124.561V0.267896H120.142V0H119.622ZM103.719 3.70126H104.346V2.2341H103.719V3.70126ZM102.515 3.70126H103.036V2.2341H102.515V3.70126ZM134.827 1.251L134.839 1.46359H135.369V1.251H134.827ZM133.542 1.46359H134.062V1.251H133.542V1.46359ZM111.331 2.50445L111.337 3.96928H111.932V2.50445H111.331ZM110.105 3.96928H110.647V2.50433H110.105V3.96928Z" fill="#F5F5F7"/>
</g>
<defs>
<clipPath id="clip0_626_15271">
<rect width="136" height="6" fill="white"/>
</clipPath>
</defs>
</svg>
