<svg width="137" height="18" viewBox="0 0 137 18" fill="none" xmlns="http://www.w3.org/2000/svg">
<g clip-path="url(#clip0_626_15280)">
<mask id="mask0_626_15280" style="mask-type:alpha" maskUnits="userSpaceOnUse" x="47" y="9" width="10" height="9">
<path d="M47.2734 9.7019H56.6592V17.2097H47.2734V9.7019Z" fill="white"/>
</mask>
<g mask="url(#mask0_626_15280)">
<path fill-rule="evenodd" clip-rule="evenodd" d="M53.9479 14.3828C53.9654 13.5829 53.1603 12.9809 52.0341 12.9521C50.946 12.9242 50.0735 13.5355 50.0543 14.3393C50.0335 15.2011 50.7415 15.718 51.9609 15.7311C53.1807 15.7443 53.9289 15.2364 53.9479 14.3828ZM50.2672 17.1744C47.9366 16.3572 47.1226 15.3827 47.2959 14.0309C47.5148 12.3209 50.1212 10.7832 53.8314 12.0172C54.0545 11.4939 53.9715 10.9768 53.9226 10.4789C53.8564 9.80403 54.4072 9.70219 55.3358 9.7019C56.2431 9.70162 56.6749 9.83697 56.6588 10.4562C56.6099 12.3286 56.6438 14.2017 56.6417 16.0746C56.6405 17.0099 55.6296 17.5182 54.4234 17.007C53.3951 16.5709 53.016 17.006 52.369 17.1744H50.2672Z" fill="#F5F5F7"/>
</g>
<path fill-rule="evenodd" clip-rule="evenodd" d="M78.9726 14.4329C78.2749 14.4619 77.4396 14.4135 77.3653 15.0324C77.3124 15.4755 77.8401 15.6236 78.4904 15.6223C79.3041 15.6208 80.0872 15.5176 80.1926 14.9375C80.2858 14.4242 79.5568 14.467 78.9726 14.4329ZM76.5813 16.7824C76.2335 16.6375 75.8532 16.5144 75.5437 16.3442C74.0604 15.528 74.5216 14.0745 76.4117 13.5814C77.4041 13.3225 78.4415 13.3593 79.4807 13.4333C79.6995 13.4489 79.9656 13.5317 80.1023 13.3724C80.2582 13.1906 80.025 13.0539 79.8185 12.9595C78.99 12.581 78.0055 12.6619 77.157 12.8158C76.1161 13.0047 75.9054 12.7131 75.656 12.233C75.3463 11.6366 76.0131 11.5566 76.654 11.4591C77.1739 11.3799 77.7083 11.3111 78.2415 11.2917C81.4822 11.1722 82.8708 11.967 82.882 13.9282C82.885 14.5097 82.8845 15.0914 82.882 15.6729C82.8776 16.6443 82.1495 17.0256 80.6875 16.634C79.8856 16.4193 79.455 16.5688 78.8981 16.7824H76.5813Z" fill="#F5F5F7"/>
<path fill-rule="evenodd" clip-rule="evenodd" d="M60.8545 15.6277C61.6953 15.5967 62.4713 15.3837 62.4893 14.8535C62.507 14.3262 61.626 14.4588 61.0544 14.4419C60.3046 14.4196 59.5745 14.5333 59.5282 15.0603C59.485 15.5549 60.1923 15.6077 60.8545 15.6277ZM58.9331 16.7813C57.6746 16.4379 56.7973 15.9216 56.8585 15.0275C56.9176 14.163 57.9432 13.5568 59.6081 13.4249C60.2537 13.3737 60.9215 13.4274 61.5793 13.4245C61.8518 13.4233 62.2442 13.6426 62.3718 13.3672C62.4893 13.1135 62.1506 12.925 61.7671 12.8396C60.9374 12.6552 60.0475 12.6624 59.2486 12.8232C58.1892 13.0363 58.1156 12.632 57.8666 12.2251C57.5678 11.7366 58.031 11.5869 58.6502 11.4939C59.439 11.3753 60.2315 11.2757 61.0579 11.2802C63.7342 11.2949 65.045 12.0699 65.0686 13.6817C65.0791 14.38 65.0756 15.0784 65.0707 15.7768C65.0647 16.638 64.3233 17.0277 63.0568 16.6294C62.1431 16.3419 61.6741 16.6062 61.032 16.7813H58.9331Z" fill="#F5F5F7"/>
<path fill-rule="evenodd" clip-rule="evenodd" d="M85.8974 16.7859C85.4133 16.6628 84.9132 16.5587 84.4474 16.4126C83.3748 16.0759 83.3419 15.9009 84.0455 15.3015C84.3815 15.0152 84.6908 14.9762 85.1726 15.151C85.7566 15.363 86.3813 15.5292 87.0861 15.5012C87.4122 15.4884 87.8327 15.5383 87.9321 15.2734C88.0333 15.0047 87.6391 14.9273 87.3277 14.8545C86.732 14.7153 86.1138 14.6111 85.5305 14.4554C84.2783 14.1212 83.7609 13.6335 83.8251 12.907C83.8925 12.1423 84.6265 11.5961 85.9243 11.38C86.9729 11.2052 88.0191 11.2613 89.0004 11.5347C89.4726 11.6664 90.3475 11.6795 89.9596 12.2547C89.6441 12.7229 89.2697 13.19 88.2391 12.76C88.1483 12.7222 88.0333 12.6977 87.9245 12.687C87.3863 12.6347 86.6015 12.4236 86.4018 12.7919C86.1548 13.2485 87.0831 13.2136 87.5298 13.3582C87.9256 13.4866 88.3691 13.5567 88.7782 13.6707C89.7311 13.9363 90.4165 14.3472 90.4203 15.0393C90.4241 15.7204 89.9452 16.2468 88.9495 16.5717C88.7514 16.6362 88.5648 16.7141 88.3727 16.7859H85.8974Z" fill="#F5F5F7"/>
<path fill-rule="evenodd" clip-rule="evenodd" d="M4.10938 16.6424C13.4721 16.145 17.377 12.6174 17.5652 9.02994C17.7745 5.03784 14.1736 1.49397 4.33018 0.822818C4.72654 0.650126 5.13162 0.705371 5.50362 0.705371C9.74657 0.70551 13.992 0.659867 18.2315 0.734315C22.2865 0.805424 26.0713 1.39433 29.1652 3.14213C34.8915 6.3768 34.4639 13.8463 24.5838 16.0727C22.5629 16.5282 20.4812 16.7809 18.3126 16.7778C14.223 16.7721 10.1328 16.7845 6.04267 16.7823C5.4795 16.782 4.90277 16.8213 4.10938 16.6424Z" fill="#F5F5F7"/>
<mask id="mask1_626_15280" style="mask-type:alpha" maskUnits="userSpaceOnUse" x="0" y="4" width="11" height="9">
<path d="M0 4.52246H10.0541V12.8581H0V4.52246Z" fill="white"/>
</mask>
<g mask="url(#mask1_626_15280)">
<path fill-rule="evenodd" clip-rule="evenodd" d="M0.00998383 8.63874C0.00953709 7.49705 0.0298637 6.35507 0.000378934 5.21366C-0.0127999 4.70176 0.316894 4.49832 1.12773 4.52472C2.63904 4.57413 4.16198 4.4362 5.65118 4.75498C8.51835 5.36853 10.1865 6.86048 10.046 8.74999C9.89275 10.8112 8.16923 12.1991 5.17809 12.67C3.75611 12.8939 2.30756 12.8605 0.860352 12.85C0.153387 12.845 0.00551643 12.5759 0.00775013 12.2036C0.014898 11.0153 0.0104306 9.82703 0.00998383 8.63874Z" fill="#F5F5F7"/>
</g>
<path fill-rule="evenodd" clip-rule="evenodd" d="M87.6478 3.25878C86.9652 3.93318 86.2612 4.59935 85.6074 5.28501C85.1125 5.80369 84.7323 5.75245 84.2703 5.26653C83.6167 4.57929 82.9124 3.91196 82.2263 3.23266C81.7968 3.37394 81.9504 3.5884 81.9475 3.7535C81.9292 4.77729 81.9147 5.80167 81.9437 6.82531C81.9584 7.35237 81.5167 7.4785 80.8236 7.46219C80.1901 7.44747 79.4711 7.49928 79.4675 6.89444C79.4557 4.87038 79.4624 2.84632 79.4673 0.822398C79.4682 0.551657 79.6667 0.392185 80.1098 0.330706C81.4163 0.149731 82.1685 0.3499 82.8854 1.09617C83.3524 1.58238 83.826 2.06584 84.2968 2.55075C84.9707 3.24492 84.9769 3.24752 85.6301 2.58279C86.2233 1.97882 86.7868 1.36273 87.3896 0.762794C87.8079 0.346581 89.486 0.139628 90.0965 0.407627C90.4255 0.551946 90.4036 0.775927 90.4043 0.986776C90.4099 2.91559 90.3864 4.84469 90.4208 6.77336C90.4315 7.38945 89.9074 7.46479 89.1481 7.46831C88.3406 7.47186 87.8944 7.30777 87.9103 6.7318C87.941 5.59197 87.9194 4.45157 87.9194 3.31131C87.8289 3.29385 87.7383 3.27624 87.6478 3.25878Z" fill="#F5F5F7"/>
<path fill-rule="evenodd" clip-rule="evenodd" d="M49.8236 4.01966H49.8304C49.8304 4.49269 49.8247 4.96572 49.8331 5.43876C49.837 5.64373 49.8717 5.83817 50.2486 5.94846C51.9841 6.45652 54.4383 5.68246 54.7495 4.52389C55.122 3.13627 53.8662 2.18787 51.5192 2.08429C49.9535 2.01533 49.8302 2.08197 49.824 3.006C49.8218 3.34384 49.8236 3.68168 49.8236 4.01966ZM47.2776 4.07836C47.2767 3.17636 47.3028 2.27408 47.2665 1.37249C47.2465 0.876603 47.5865 0.67409 48.4024 0.692836C49.9801 0.729097 51.5671 0.614704 53.1343 0.822828C55.8202 1.17941 57.6389 2.57238 57.5365 4.20986C57.4368 5.80301 55.4646 7.10607 52.7939 7.36331C51.2943 7.50781 49.7872 7.45787 48.2813 7.46635C47.5745 7.47045 47.2601 7.28368 47.271 6.85197C47.2946 5.92766 47.2783 5.00294 47.2776 4.07836Z" fill="#F5F5F7"/>
<path fill-rule="evenodd" clip-rule="evenodd" d="M96.8582 4.41647C98.2863 4.42268 98.3299 4.39728 97.8053 3.62714C97.5601 3.26724 97.4556 2.64847 96.9133 2.64429C96.3004 2.63967 96.27 3.26104 96.0221 3.61487C95.4944 4.36741 95.5602 4.41084 96.8582 4.41647ZM101.933 7.36862C100.523 7.55087 99.9982 7.17684 99.7648 6.6093C99.5227 6.02054 98.9621 5.79038 98.0013 5.85806C97.545 5.89024 97.07 5.89731 96.6172 5.85719C95.1637 5.72833 94.1879 5.98028 93.8025 6.94956C93.6241 7.39863 91.8967 7.62375 91.3069 7.34769C90.9605 7.1855 91.1417 7.0044 91.2564 6.83629C92.6473 4.79613 94.0532 2.75973 95.4355 0.71727C95.7173 0.300812 96.2434 0.260407 96.8498 0.269354C97.4644 0.278301 98.1003 0.226207 98.4131 0.685812C99.8158 2.74876 101.248 4.80436 102.628 6.87294C103.101 7.58147 102.06 7.32663 101.933 7.36862Z" fill="#F5F5F7"/>
<path fill-rule="evenodd" clip-rule="evenodd" d="M131.108 2.29219C130.646 2.98486 130.324 3.45828 130.014 3.93471C129.806 4.25569 129.958 4.43069 130.554 4.41847C130.894 4.41143 131.236 4.41258 131.577 4.4179C132.203 4.42767 132.416 4.2646 132.171 3.89692C131.857 3.42667 131.547 2.95541 131.108 2.29219ZM131.386 0.283863C132.119 0.193777 132.501 0.504121 132.816 0.979838C134.035 2.82078 135.327 4.64347 136.543 6.48542C136.717 6.74907 137.453 7.0972 136.587 7.37436C135.855 7.60869 134.578 7.37349 134.235 7.01229C133.878 6.636 133.912 6.00726 133.115 5.92422C131.765 5.78341 130.363 5.77925 129.003 5.93801C128.456 6.00195 128.409 6.40209 128.214 6.67738C127.725 7.3676 127.148 7.55007 125.957 7.40898C125.407 7.3439 125.227 7.17852 125.446 6.86171C126.872 4.79189 128.302 2.72279 129.731 0.653689C130.027 0.224668 130.653 0.306564 131.386 0.283863Z" fill="#F5F5F7"/>
<path fill-rule="evenodd" clip-rule="evenodd" d="M63.3298 2.28939C62.8929 2.95527 62.571 3.43121 62.2711 3.91219C62.179 4.05959 62.0233 4.27924 62.3623 4.34501C63.0218 4.47294 63.7873 4.52803 64.3698 4.33419C64.8814 4.16401 64.3545 3.82984 64.2249 3.5874C64.0241 3.21112 63.7269 2.85446 63.3298 2.28939ZM68.2205 7.39145C67.087 7.50307 66.4951 7.2628 66.2799 6.71561C65.9996 6.00257 65.2642 5.76504 64.1474 5.85604C63.8452 5.88085 63.5284 5.88041 63.2257 5.85633C61.7359 5.73807 60.6064 5.92671 60.1995 6.97839C60.0417 7.38582 58.4054 7.60331 57.7829 7.37702C57.3958 7.2364 57.5575 7.05137 57.6737 6.88104C59.0804 4.81979 60.5011 2.7623 61.899 0.699035C62.2121 0.237087 62.8272 0.274874 63.4446 0.268961C64.044 0.263192 64.5859 0.287133 64.869 0.705814C66.2648 2.7698 67.7109 4.82095 69.0691 6.89431C69.5316 7.60071 68.4655 7.32784 68.2205 7.39145Z" fill="#F5F5F7"/>
<path fill-rule="evenodd" clip-rule="evenodd" d="M102.758 3.72965C102.65 2.45296 103.701 1.38662 105.735 0.733655C107.908 0.0357611 110.116 0.141858 112.217 0.924516C112.737 1.11806 113.261 1.35498 112.653 1.7415C112.144 2.06474 111.865 2.72223 110.687 2.2022C109.355 1.61478 107.765 1.65462 106.721 2.17776C105.462 2.80841 105.049 3.8455 105.687 4.7748C106.492 5.94893 108.736 6.33687 110.632 5.62922C111.576 5.27717 112.413 5.42706 112.928 6.02281C113.222 6.36201 112.782 6.49213 112.468 6.63933C110.446 7.58573 108.216 7.7027 105.941 7.08774C103.704 6.48323 102.719 5.35402 102.758 3.72965Z" fill="#F5F5F7"/>
<path fill-rule="evenodd" clip-rule="evenodd" d="M69.2411 11.8812C69.9434 11.5432 70.5634 11.2907 71.3991 11.2807C73.3204 11.2575 74.5075 11.8418 74.6165 13.0233C74.7142 14.0834 74.6309 15.1493 74.6548 16.2126C74.6689 16.8484 73.942 16.7658 73.2959 16.7725C72.6221 16.7796 71.9478 16.8099 71.972 16.1875C72.003 15.3846 71.9824 14.5808 71.9671 13.7775C71.9569 13.2569 71.7006 12.8344 70.703 12.788C69.7108 12.7418 69.2671 13.1339 69.2008 13.6447C69.0971 14.4434 69.0758 15.25 69.1259 16.0507C69.1657 16.6893 68.643 16.7796 67.7781 16.7857C66.8726 16.7923 66.4247 16.6401 66.446 16.0301C66.491 14.731 66.4511 13.4309 66.4641 12.1312C66.4674 11.8147 66.3305 11.385 67.1029 11.355C67.8699 11.3254 68.8508 11.0693 69.2411 11.8812Z" fill="#F5F5F7"/>
<path fill-rule="evenodd" clip-rule="evenodd" d="M69.8885 3.83521C69.8873 2.97516 69.9224 2.11423 69.8754 1.2552C69.8426 0.649489 69.9685 0.263473 71.2151 0.268356C72.4172 0.273188 72.5056 0.65674 72.4924 1.22402C72.4626 2.48995 72.5343 3.75749 72.4637 5.02226C72.4244 5.726 72.8654 5.95642 73.9519 5.91364C74.9901 5.8726 76.0361 5.9177 77.0783 5.90595C77.9285 5.89638 78.1007 6.19539 78.0907 6.64304C78.0809 7.08053 78.0718 7.46974 77.1027 7.46568C75.0567 7.45712 73.0102 7.45712 70.9642 7.46836C70.1747 7.47264 69.8643 7.25977 69.8803 6.77369C69.912 5.79459 69.8896 4.81475 69.8885 3.83521Z" fill="#F5F5F7"/>
<path fill-rule="evenodd" clip-rule="evenodd" d="M125.336 3.07859C125.336 3.7934 125.378 4.50922 125.326 5.2226C125.25 6.261 124.345 7.05196 122.852 7.31859C121.138 7.62459 119.513 7.47865 118.125 6.72202C117.531 6.398 117.923 6.10714 118.314 5.87685C118.675 5.66415 118.897 5.16693 119.664 5.52052C119.848 5.60531 120.033 5.69227 120.233 5.7599C121.529 6.1964 122.515 5.90727 122.695 4.98928C122.805 4.42515 122.75 3.84791 122.757 3.27658C122.765 2.49024 122.791 1.70347 122.753 0.917993C122.722 0.267493 123.392 0.27701 124.123 0.268791C124.879 0.260138 125.386 0.364109 125.354 0.934576C125.314 1.64853 125.344 2.36377 125.344 3.07859H125.336Z" fill="#F5F5F7"/>
<path fill-rule="evenodd" clip-rule="evenodd" d="M116.432 3.91756C116.433 4.84964 116.387 5.78288 116.449 6.71351C116.491 7.35265 115.954 7.47474 115.054 7.46806C114.217 7.46196 113.699 7.3634 113.711 6.75546C113.751 4.82002 113.749 2.88372 113.714 0.948135C113.703 0.316683 114.306 0.275312 115.104 0.268634C115.947 0.261376 116.476 0.372425 116.445 0.978183C116.396 1.95715 116.432 2.93772 116.432 3.91756Z" fill="#F5F5F7"/>
</g>
<defs>
<clipPath id="clip0_626_15280">
<rect width="137" height="18" fill="white"/>
</clipPath>
</defs>
</svg>
