<svg width="65" height="21" viewBox="0 0 65 21" fill="none" xmlns="http://www.w3.org/2000/svg">
<path d="M12.501 0.287109V15.8155H8.42897V14.1517C7.85647 14.8571 7.33772 15.3337 6.86736 15.5839C6.23841 15.906 5.54227 16.0684 4.77086 16.0684C3.22269 16.0684 2.04005 15.4854 1.22295 14.322C0.408547 13.1587 0 11.7397 0 10.0732C0 8.20704 0.448865 6.78279 1.35466 5.79513C2.25507 4.8048 3.40277 4.30964 4.78968 4.30964C5.46969 4.30964 6.08252 4.42411 6.6362 4.6504C7.1872 4.87934 7.67639 5.21477 8.10644 5.66734V0.287109H12.501ZM8.136 10.1611C8.136 9.27457 7.95054 8.61702 7.56887 8.18309C7.19258 7.74916 6.71415 7.53352 6.13896 7.53352C5.63096 7.53352 5.20898 7.74383 4.86494 8.15913C4.5209 8.57443 4.35156 9.27191 4.35156 10.2569C4.35156 11.1754 4.53165 11.8489 4.88106 12.2748C5.23586 12.7008 5.67397 12.9138 6.19271 12.9138C6.75178 12.9138 7.21408 12.7008 7.58231 12.2695C7.95323 11.8329 8.136 11.1328 8.136 10.1611Z" fill="#F5F5F7"/>
<path d="M27.1224 15.815H23.0558V13.9941C22.451 14.7422 21.8409 15.2773 21.2227 15.5914C20.6045 15.9109 19.8465 16.0679 18.9488 16.0679C17.7527 16.0679 16.8147 15.7139 16.132 15.0057C15.4519 14.2976 15.1133 13.2008 15.1133 11.7259V4.56738H19.4864V10.7543C19.4864 11.4597 19.6181 11.9629 19.8815 12.2584C20.1476 12.5539 20.5158 12.703 20.9942 12.703C21.5156 12.703 21.9403 12.5033 22.2709 12.1093C22.6042 11.7126 22.7682 11.0018 22.7682 9.97956V4.56738H27.1224V15.815Z" fill="#F5F5F7"/>
<path d="M29.793 4.56807H33.8569V6.21062C34.4456 5.52378 35.0315 5.03927 35.6282 4.74643C36.2222 4.45626 36.9425 4.3125 37.7865 4.3125C38.6923 4.3125 39.4073 4.47223 39.9341 4.78903C40.4636 5.10849 40.8936 5.57969 41.2296 6.21062C41.9123 5.47586 42.5359 4.97538 43.103 4.70916C43.6648 4.44561 44.3582 4.3125 45.1861 4.3125C46.4063 4.3125 47.3578 4.66923 48.0405 5.39067C48.7259 6.1068 49.0673 7.22757 49.0673 8.75299V15.8184H44.7049V9.41054C44.7049 8.90207 44.6055 8.52138 44.4066 8.27646C44.1136 7.89045 43.7508 7.69345 43.3153 7.69345C42.8047 7.69345 42.3881 7.87714 42.0736 8.24185C41.7591 8.60923 41.6059 9.20023 41.6059 10.0122V15.8157H37.2409V9.61819C37.2409 9.12303 37.2113 8.79026 37.1576 8.61189C37.0635 8.3297 36.9022 8.10342 36.6765 7.92772C36.4453 7.75468 36.1792 7.66683 35.8728 7.66683C35.3729 7.66683 34.9643 7.85584 34.6418 8.22588C34.3192 8.60125 34.1607 9.2162 34.1607 10.0708V15.813H29.7983V4.56807H29.793Z" fill="#F5F5F7"/>
<path d="M51.6836 20.0965V4.56807H55.7583V6.23192C56.3254 5.53177 56.8388 5.0579 57.3092 4.81032C57.9435 4.47755 58.645 4.3125 59.4164 4.3125C60.935 4.3125 62.1096 4.89019 62.9428 6.04024C63.7707 7.1903 64.1873 8.61455 64.1873 10.3104C64.1873 12.1792 63.7357 13.6088 62.8299 14.5938C61.9242 15.5761 60.7791 16.0686 59.3976 16.0686C58.7257 16.0686 58.1128 15.9568 57.5618 15.7332C57.0108 15.5042 56.5136 15.1688 56.0809 14.7242V20.0965H51.6836ZM56.0486 10.2225C56.0486 11.1117 56.2341 11.7745 56.6157 12.2032C56.992 12.6344 57.4704 12.8501 58.0456 12.8501C58.5536 12.8501 58.9756 12.6451 59.3197 12.2271C59.6637 11.8145 59.833 11.1143 59.833 10.1267C59.833 9.21621 59.653 8.548 59.2955 8.11939C58.9407 7.68812 58.5026 7.47515 57.9919 7.47515C57.4328 7.47515 56.9705 7.69079 56.6023 8.12206C56.2314 8.55599 56.0486 9.25614 56.0486 10.2225Z" fill="#F5F5F7"/>
</svg>
