<svg width="87" height="20" viewBox="0 0 87 20" fill="none" xmlns="http://www.w3.org/2000/svg">
<g clip-path="url(#clip0_626_15601)">
<path fill-rule="evenodd" clip-rule="evenodd" d="M47.4144 19.3238H45.2149C45.2149 19.1927 45.215 19.0679 45.2149 18.9431C45.2139 17.2299 45.2172 15.5167 45.2064 13.8035C45.2051 13.5784 45.1628 13.3485 45.087 13.1296C44.8667 12.4945 44.0998 12.1642 43.1517 12.206C41.8832 12.2619 40.9178 12.7249 40.0013 13.2587C39.8666 13.3372 39.8067 13.5223 39.8056 13.6584C39.7929 15.4041 39.7973 17.1499 39.7973 18.8957V19.3357C39.1294 19.3357 38.4932 19.3463 37.8598 19.322C37.7823 19.319 37.6615 19.1291 37.6598 19.025C37.6439 18.0927 37.6582 17.1601 37.6479 16.2276C37.6384 15.372 37.6179 14.5164 37.587 13.6611C37.5465 12.5384 36.5576 12.0125 34.9645 12.2635C33.9414 12.4246 33.0971 12.8149 32.3473 13.3017C32.2171 13.3862 32.1802 13.5739 32.1794 13.7142C32.1684 15.4491 32.1722 17.184 32.1722 18.9189V19.3386C31.5079 19.3386 30.9005 19.3457 30.2945 19.3308C30.2038 19.3285 30.0896 19.2323 30.0396 19.1615C29.9958 19.0998 30.0255 19.0127 30.0255 18.9368C30.0252 16.4645 30.0319 13.9922 30.0168 11.52C30.0149 11.2113 30.093 11.0496 30.6043 11.0971C30.974 11.1315 31.4507 11.024 31.7003 11.1498C31.9336 11.2675 31.9296 11.6095 32.0325 11.8521C32.0541 11.9032 32.0871 11.952 32.14 12.0468C32.3367 11.9514 32.5093 11.8664 32.6838 11.7834C33.8564 11.2256 35.1111 10.8503 36.5767 10.8904C37.7638 10.9229 38.6282 11.296 39.2117 12.0003C39.2655 12.065 39.3162 12.1309 39.3942 12.2287C39.5599 12.1389 39.7034 12.0607 39.8474 11.9829C41.1675 11.2702 42.5933 10.7946 44.3406 10.9029C45.8765 10.998 47.0806 11.727 47.3125 12.7886C47.3776 13.0867 47.4086 13.3911 47.4101 13.6927C47.419 15.4275 47.4144 17.1625 47.4144 18.8974V19.3238Z" fill="#F5F5F7"/>
<path fill-rule="evenodd" clip-rule="evenodd" d="M0 5.43309C0.406826 3.462 1.78392 1.93915 4.24736 0.949925C7.38936 -0.31176 10.6179 -0.287739 13.7284 1.01187C16.1189 2.01063 17.4348 3.51931 17.835 5.40978C17.4973 5.4825 17.3573 5.46083 17.2969 5.22388C16.6682 2.75182 13.9695 0.914415 10.3022 0.45358C9.08872 0.301099 7.88525 0.369311 6.69744 0.582561C6.60203 0.599729 6.51738 0.644572 6.42783 0.709977C9.32827 0.333149 11.9268 0.709128 14.1281 2.07943C15.5282 2.9509 16.3658 4.07199 16.6513 5.42904C16.5044 5.43596 16.3613 5.44268 16.2227 5.44921C15.1431 1.43974 9.34027 0.252013 6.11815 1.24203C9.04039 0.847575 11.6093 1.26318 13.6608 2.77525C14.666 3.51618 15.2853 4.39705 15.4704 5.41122C15.0589 5.534 14.9863 5.36031 14.9181 5.16807C14.2633 3.32036 12.5814 2.131 9.90334 1.5917C8.67661 1.34464 7.44489 1.38276 6.22077 1.61461C6.1292 1.63197 6.04205 1.66154 5.95634 1.69026C5.93645 1.69686 5.93097 1.72323 5.88965 1.78204C8.51154 1.39771 10.7973 1.7588 12.6525 3.09529C13.5763 3.76076 14.2782 4.78439 14.2495 5.41057C13.9164 5.5167 13.8292 5.39555 13.7502 5.19366C13.1251 3.59536 11.6411 2.55338 9.29694 2.09464C8.23001 1.88583 7.15289 1.89888 6.0874 2.1216C5.95634 2.14901 5.83047 2.18733 5.70565 2.25684C7.38138 2.03778 8.9788 2.12218 10.4471 2.74771C11.9007 3.36709 12.7802 4.25436 13.1411 5.39862C12.7871 5.50273 12.6643 5.4323 12.5679 5.21259C11.9399 3.78015 10.5461 2.8808 8.39355 2.55352C7.43404 2.40756 6.47933 2.45913 5.56181 2.74751C6.9808 2.58315 8.34377 2.6513 9.59346 3.16925C10.8386 3.6853 11.6214 4.43165 11.9541 5.40293C11.6272 5.51481 11.4812 5.43694 11.3762 5.2308C10.6903 3.88354 9.2882 3.1417 7.20122 3.01226C6.60501 2.97532 6.01188 3.031 5.45813 3.2417C7.05921 3.07336 8.4856 3.28361 9.65284 4.07401C10.2037 4.44712 10.5937 4.88544 10.7534 5.41507C10.3802 5.51931 10.2628 5.39307 10.1446 5.19379C9.40609 3.94797 7.4275 3.26259 5.63359 3.62055C5.52107 3.64301 5.41595 3.68224 5.31199 3.7479C6.51949 3.63654 7.6141 3.77943 8.5395 4.32897C9.0255 4.61768 9.38447 4.96866 9.55704 5.40299C9.19989 5.52963 9.06643 5.40273 8.92432 5.21638C8.28372 4.37695 7.08121 3.9573 5.71113 4.08472C5.56229 4.09856 5.4196 4.14359 5.25856 4.2154C6.66285 4.19092 7.74334 4.51383 8.36174 5.40776C7.99297 5.51905 7.82136 5.40404 7.64975 5.23752C7.10927 4.7135 6.33943 4.54177 5.43027 4.60698C5.36935 4.61135 5.30901 4.63087 5.25309 4.64973C5.22907 4.65789 5.21696 4.68237 5.17968 4.71853C5.54432 4.78126 5.9228 4.80619 6.24248 4.91252C6.56744 5.02062 6.83437 5.2088 7.21256 5.40691C6.35807 5.57858 5.85996 4.85998 5.04737 5.22336C5.25376 5.29594 5.41394 5.35228 5.64358 5.43309H0Z" fill="#F5F5F7"/>
<path fill-rule="evenodd" clip-rule="evenodd" d="M5.13446 8.17144C5.55088 8.39809 6.01747 8.39239 6.46954 8.33949C7.49023 8.22014 8.26782 7.84261 8.7362 7.1942C8.86954 7.00969 9.00278 6.90568 9.35471 7.02084C9.07332 7.62953 8.52233 8.07562 7.73362 8.38826C6.95556 8.6967 6.11026 8.73826 5.23253 8.67763C5.75881 8.92034 6.34808 8.92754 6.91859 8.86325C8.33807 8.70319 9.35508 8.16036 9.92305 7.23188C9.94143 7.20186 9.94766 7.15959 9.98038 7.14393C10.1044 7.08448 10.2371 7.03362 10.3664 6.97948C10.3864 7.07222 10.4573 7.17709 10.4184 7.25574C10.0724 7.9539 9.42496 8.48762 8.49451 8.8409C7.6644 9.15609 6.77865 9.30612 5.82444 9.17989C5.66102 9.15819 5.49185 9.15708 5.32532 9.14639C5.31589 9.17635 5.30637 9.20623 5.29703 9.23612C5.66017 9.29229 6.02011 9.37999 6.38731 9.39952C8.55279 9.51448 10.3933 8.66891 11.113 7.23975C11.2098 7.04751 11.3002 6.88457 11.6929 7.01979C11.3785 7.99716 10.5952 8.73957 9.37461 9.25251C8.15494 9.76492 6.83023 9.86815 5.43876 9.62479C5.43207 9.66405 5.42547 9.70331 5.41886 9.74257C5.87254 9.80516 6.32262 9.90092 6.78054 9.92498C9.51945 10.0691 11.6911 8.79823 12.2986 7.21733C12.3798 7.00576 12.4903 6.90548 12.8533 7.0266C12.5102 8.17347 11.6434 9.06446 10.2115 9.67775C8.78203 10.2899 7.2327 10.4227 5.5953 10.1257C5.59049 10.1658 5.58558 10.2058 5.58078 10.2458C6.04114 10.3144 6.49755 10.4226 6.96254 10.445C10.1404 10.5981 12.6463 9.34289 13.4819 7.21242C13.5184 7.11928 13.7064 7.05472 13.8238 6.97679C13.8655 7.0772 13.9666 7.18594 13.94 7.27665C13.4195 9.04493 11.1357 10.5333 8.55619 10.7298C7.76115 10.7904 6.94283 10.7034 6.13506 10.6832C6.01757 10.6802 5.90035 10.6733 5.78295 10.6683C5.77503 10.696 5.76711 10.7237 5.75909 10.7514C6.20334 10.8231 6.64249 10.9271 7.09267 10.9614C10.9307 11.2544 13.8917 9.48846 14.6032 7.29985C14.6606 7.12321 14.6622 6.90423 15.1533 7.00026C14.8332 8.5023 13.7537 9.6649 11.9422 10.499C10.1192 11.3384 8.11845 11.509 5.99984 11.1578C5.99258 11.1944 5.98532 11.2309 5.97806 11.2674C6.47445 11.3435 6.96565 11.4555 7.46788 11.4898C11.3319 11.7538 14.6985 10.1305 15.6816 7.54492C15.7254 7.4295 15.7826 7.31407 15.7981 7.19636C15.8289 6.96466 15.9966 6.92835 16.319 7.01435C15.9532 8.67573 14.7942 9.9875 12.7895 10.9212C10.8048 11.8458 8.6105 12.0441 6.27981 11.6904C6.27821 11.7241 6.27661 11.7578 6.275 11.7915C6.58119 11.8463 6.88342 11.9174 7.19404 11.9534C11.8874 12.4971 16.0544 10.4704 16.9608 7.21648C16.9863 7.12492 17.159 7.05308 17.2631 6.97201C17.3105 7.07478 17.4229 7.18679 17.3959 7.27894C16.6032 9.97335 14.2764 11.6555 10.4133 12.2618C5.80539 12.985 0.938916 10.718 0.0913586 7.48999C0.0689155 7.40452 0.0318561 7.32096 0.0112046 7.23542C-0.0288724 7.06881 0.0306302 6.96231 0.319656 6.96289C1.99761 6.96617 3.67566 6.96447 5.48883 6.96447C5.24328 7.06049 5.11154 7.11201 4.93794 7.17991C5.29364 7.4078 5.61038 7.27573 5.90912 7.19551C6.20805 7.11515 6.49161 7.00727 6.82477 6.96984C6.48416 7.51319 5.78927 7.62265 5.04289 7.67967C5.4845 7.91864 5.95533 7.87597 6.34299 7.74233C6.77677 7.59276 7.16405 7.35989 7.51814 7.12459C7.71542 6.9935 7.858 6.92285 8.16154 7.03316C7.52418 7.90822 6.50038 8.23567 5.13446 8.17144Z" fill="#F5F5F7"/>
<path fill-rule="evenodd" clip-rule="evenodd" d="M51.7907 15.141C51.7834 16.046 52.0038 16.8172 52.6785 17.5097C53.8326 18.6942 56.649 18.6663 57.7372 17.553C58.2977 16.9796 58.5579 16.3488 58.6371 15.6735C58.7421 14.7808 58.5927 13.9147 57.9025 13.1369C56.6507 11.726 53.6553 11.7652 52.4726 13.2016C51.9563 13.8287 51.7824 14.514 51.7907 15.141ZM55.2392 10.8889C58.3643 10.8328 60.4683 12.3993 60.8208 14.4118C60.9837 15.3423 60.9105 16.2469 60.4524 17.133C59.5026 18.9699 57.1307 19.818 54.4223 19.6119C51.8151 19.4135 49.9746 18.0468 49.6523 16.0128C49.506 15.0889 49.6036 14.1943 50.0858 13.3297C50.9655 11.7526 52.8051 10.8888 55.2392 10.8889Z" fill="#F5F5F7"/>
<path fill-rule="evenodd" clip-rule="evenodd" d="M19.8008 14.4181H20.3482C21.741 14.4181 23.134 14.4181 24.5268 14.4181C25.4164 14.4181 25.4385 14.4149 25.2576 13.8292C25.0276 13.0848 24.5176 12.4659 23.3703 12.2152C21.5077 11.8081 19.6186 12.9458 19.8008 14.4181ZM26.7322 17.7922C26.9477 18.1435 27.1445 18.4643 27.353 18.8041C26.5464 19.2092 25.6414 19.4232 24.6845 19.5428C22.9162 19.764 21.236 19.6447 19.7541 18.8858C18.3932 18.1888 17.7726 17.2035 17.5144 16.1042C17.2748 15.0837 17.3945 14.0735 17.9861 13.1109C18.6354 12.0541 19.7116 11.282 21.3953 10.9999C24.219 10.527 26.7318 11.5762 27.4239 13.5337C27.6503 14.1743 27.6991 14.8439 27.8384 15.5473C27.5193 15.5572 27.3324 15.5678 27.1455 15.5679C24.8787 15.569 22.6119 15.5681 20.3451 15.569C19.7592 15.5693 19.7059 15.6145 19.8034 16.0087C20.1235 17.3035 21.1295 18.1012 22.8106 18.3349C24.0286 18.5042 25.18 18.3084 26.2786 17.944C26.4078 17.9011 26.5365 17.8577 26.7322 17.7922Z" fill="#F5F5F7"/>
<path fill-rule="evenodd" clip-rule="evenodd" d="M78.3008 18.9259C78.5435 18.5616 78.7807 18.2058 79.031 17.8304C79.4211 17.9569 79.7833 18.0859 80.1583 18.1937C81.1559 18.4805 82.1853 18.5536 83.23 18.3429C83.8724 18.2132 84.3929 17.9613 84.5213 17.4708C84.6515 16.9736 84.3522 16.5772 83.7533 16.3183C83.2038 16.0808 82.6083 15.8937 82.0303 15.6883C81.5648 15.5228 81.0773 15.3832 80.6302 15.1972C79.3489 14.6641 78.8031 13.8539 79.0267 12.8521C79.2502 11.8506 80.1721 11.2223 81.6019 11.0124C83.3793 10.7514 85.1075 10.9006 86.7525 11.4482C86.823 11.4717 86.8851 11.5069 87.0008 11.559C86.7965 11.8744 86.6053 12.1948 86.3732 12.5005C86.3381 12.5467 86.0962 12.5563 85.9771 12.5282C85.0735 12.3144 84.168 12.1015 83.1967 12.1336C82.8208 12.146 82.4318 12.1865 82.0789 12.2728C81.043 12.5264 80.8024 13.357 81.6483 13.8417C82.093 14.0965 82.6365 14.2745 83.1546 14.4618C83.773 14.6853 84.4289 14.8607 85.0383 15.0942C86.4594 15.6386 86.9737 16.5008 86.7748 17.5871C86.6096 18.4891 85.6174 19.1931 84.1022 19.4559C82.2719 19.7734 80.4822 19.6982 78.7615 19.1282C78.6615 19.095 78.562 19.0604 78.4655 19.0226C78.4251 19.0068 78.3931 18.9809 78.3008 18.9259Z" fill="#F5F5F7"/>
<path fill-rule="evenodd" clip-rule="evenodd" d="M72.6459 11.1953C72.0937 12.1372 71.5792 13.0207 71.058 13.9023C69.9947 15.7003 68.9209 17.4954 67.8703 19.2971C67.7255 19.5454 67.5585 19.6489 67.1554 19.6418C65.9882 19.6216 65.9913 19.6349 65.5769 18.8868C64.2262 16.4482 62.8723 14.0104 61.521 11.572C61.4598 11.4619 61.4103 11.3485 61.3359 11.1971C62.0341 11.1971 62.6769 11.1837 63.3166 11.2089C63.4392 11.2137 63.605 11.3559 63.6581 11.4583C64.6588 13.3893 65.6454 15.3239 66.6364 17.2573C66.6918 17.3654 66.7604 17.4702 66.878 17.6701C67.287 16.9469 67.6444 16.319 67.9972 15.6898C68.783 14.2885 69.5746 12.8887 70.3425 11.4826C70.4649 11.2583 70.624 11.1788 70.9592 11.1904C71.4915 11.2089 72.0261 11.1953 72.6459 11.1953Z" fill="#F5F5F7"/>
<path fill-rule="evenodd" clip-rule="evenodd" d="M74.3867 10.9098C74.5113 10.9009 74.6044 10.8887 74.6977 10.8885C75.3056 10.8867 75.9136 10.8875 76.5617 10.8875V19.3402H74.3867V10.9098Z" fill="#F5F5F7"/>
<path fill-rule="evenodd" clip-rule="evenodd" d="M76.9942 8.30674C76.9975 8.92939 76.3664 9.37728 75.4844 9.37798C74.6076 9.37881 73.9476 8.92273 73.9492 8.31742C73.9508 7.73112 74.6074 7.27088 75.4509 7.26484C76.3591 7.25839 76.9909 7.68492 76.9942 8.30674Z" fill="#F5F5F7"/>
</g>
<defs>
<clipPath id="clip0_626_15601">
<rect width="87" height="20" fill="white"/>
</clipPath>
</defs>
</svg>
