<svg width="76" height="19" viewBox="0 0 76 19" fill="none" xmlns="http://www.w3.org/2000/svg">
<path fill-rule="evenodd" clip-rule="evenodd" d="M73.7938 9.56792C73.5878 9.40212 73.593 9.30367 73.7922 9.13916C75.262 7.92476 75.8898 6.56442 75.5756 5.06795C75.1484 3.03362 73.37 1.55861 70.3903 0.602359C69.3539 0.269794 68.2314 0.104864 67.0803 0H46.3582C46.2979 0.00972065 46.2384 0.0242099 46.1769 0.02852C44.3245 0.157594 42.6861 0.585394 41.2429 1.29991C37.5931 3.10694 36.6462 6.26166 39.1164 8.68751C40.964 10.502 43.7064 11.4425 47.2455 11.49C49.144 11.5156 50.3077 12.6796 49.4002 13.6882C48.9221 14.2195 48.1388 14.4467 47.1474 14.4463C41.4129 14.4437 35.6783 14.4451 29.9437 14.4449C29.3766 14.4449 28.8086 14.4553 28.2425 14.4403C27.4682 14.4198 26.8255 14.2242 26.3863 13.8321C25.8304 13.3356 25.7764 12.8046 26.2274 12.2723C26.6791 11.7392 27.4478 11.4951 28.4189 11.4943C32.994 11.4904 37.569 11.4927 42.144 11.4912C42.2847 11.4911 42.4392 11.517 42.6633 11.4194C42.573 11.3989 42.5233 11.3905 42.4779 11.3769C41.7407 11.1549 41.0635 10.8782 40.4447 10.5503C40.2878 10.4671 40.1098 10.4582 39.9167 10.4583C36.0349 10.4595 32.153 10.4532 28.2712 10.4618C25.7432 10.4674 23.7814 11.9568 24.3034 13.4525C24.7261 14.6637 26.3731 15.4755 28.4413 15.4765C34.6926 15.4795 40.9439 15.4778 47.1951 15.4771C47.4092 15.477 47.6254 15.4791 47.8369 15.4627C49.8168 15.3092 51.3858 14.2351 51.4354 13.004C51.4825 11.838 49.9981 10.7282 48.0963 10.5061C47.4503 10.4306 46.7905 10.4656 46.1413 10.4099C41.7329 10.0321 38.7261 7.46014 39.6114 4.82034C40.3605 2.58656 43.5153 1.02347 47.3078 1.02085C53.559 1.01654 59.8103 1.01865 66.0615 1.02195C66.4634 1.02218 66.871 1.03534 67.266 1.0767C70.4314 1.40784 72.6208 2.48138 73.5727 4.33555C74.5278 6.19604 73.7299 7.8392 71.4351 9.20683C71.2219 9.33389 71.2431 9.3896 71.4468 9.50795C73.479 10.6885 74.3018 12.1359 73.8102 13.8065C73.1297 16.1194 69.9432 17.686 66.0511 17.688C62.2952 17.69 58.5394 17.6907 54.7837 17.6848C54.4362 17.6842 54.1542 17.7277 53.8931 17.8718C53.4352 18.1244 52.9057 18.3183 52.3717 18.5073C52.243 18.5528 51.9872 18.5629 52.0371 18.6782C52.0742 18.764 52.3062 18.7178 52.4493 18.7178C56.9991 18.72 61.549 18.7197 66.0988 18.7195C68.4204 18.7195 70.4676 18.2646 72.2514 17.367C76.0973 15.4317 76.7879 11.9776 73.7938 9.56792Z" fill="#F5F5F7"/>
<path fill-rule="evenodd" clip-rule="evenodd" d="M0.259664 9.97243C0.594351 9.60423 0.975066 9.25429 1.42475 8.93466C1.61666 8.7982 1.68933 8.65785 1.69281 8.47953C1.71401 7.3987 1.59712 6.31609 1.75724 5.23723C1.92492 4.10675 2.72239 3.14358 4.05371 2.35643C5.61601 1.4327 7.53435 1.01971 9.7069 1.01966C13.4595 1.01961 17.2123 1.01805 20.9649 1.02264C21.262 1.02296 21.4935 0.973716 21.7148 0.854959C22.2351 0.575857 22.825 0.355721 23.4314 0.151771C23.5506 0.111696 23.6933 0.0895951 23.7472 0H8.62168C7.46909 0.0928964 6.34648 0.252691 5.30994 0.582093C2.27997 1.54508 0.491999 3.03954 0.0464065 5.1044C0.0383061 5.14168 0.0158221 5.17776 0 5.2144V10.1544C0.1667 10.1359 0.195997 10.0424 0.259664 9.97243Z" fill="#F5F5F7"/>
<path fill-rule="evenodd" clip-rule="evenodd" d="M18.8962 5.677C18.8462 7.07077 18.8857 8.46577 18.8893 9.86023C18.8895 9.94409 18.8384 10.0394 18.9557 10.1138C19.0962 10.0805 19.1183 10.0072 19.17 9.9489C19.4569 9.62574 19.7626 9.30404 20.1737 9.03824C20.5171 8.81604 20.5925 8.58297 20.597 8.2958C20.614 7.23006 20.4506 6.15918 20.6731 5.09931C20.984 3.6181 22.2558 2.48881 24.3482 1.70244C25.6473 1.21426 27.0859 1.02113 28.6014 1.0203C32.3434 1.01824 36.0853 1.01773 39.8271 1.02301C40.1381 1.02347 40.3803 0.973395 40.6129 0.850557C41.1462 0.569071 41.7385 0.337151 42.365 0.137877C42.4764 0.102434 42.5962 0.0746931 42.656 0H27.4548C26.1474 0.110641 24.8858 0.313674 23.7446 0.726848C20.6529 1.84601 18.9748 3.48609 18.8962 5.677Z" fill="#F5F5F7"/>
<path fill-rule="evenodd" clip-rule="evenodd" d="M17.4276 7.21113C14.7939 7.21989 12.159 7.18751 9.5265 7.22241C5.59739 7.2745 2.73003 8.39269 0.915108 10.496C0.390253 11.1042 0.154512 11.7671 0 12.4416V18.708C0.390253 18.7119 0.780582 18.7185 1.17084 18.7193C1.68456 18.72 1.68623 18.7181 1.68638 18.3971C1.68698 16.6212 1.68078 14.8453 1.68933 13.0695C1.69342 12.2257 1.97118 11.4171 2.67946 10.6803C4.03857 9.26627 6.0554 8.45615 8.75757 8.28526C9.93924 8.21052 11.1242 8.25766 12.3076 8.2516C14.0339 8.2428 15.7605 8.24491 17.4868 8.25312C17.8196 8.25468 17.9439 8.1853 17.9247 7.98956C17.909 7.83009 17.9032 7.66859 17.9262 7.50972C17.9597 7.27844 17.8078 7.20989 17.4276 7.21113Z" fill="#F5F5F7"/>
<path fill-rule="evenodd" clip-rule="evenodd" d="M47.2624 16.0532C44.1241 16.061 40.9855 16.0552 37.8471 16.0552C37.8471 16.0533 37.847 16.0515 37.847 16.0497C34.5826 16.0497 31.3177 16.0678 28.0537 16.0437C25.636 16.0257 23.2246 14.7845 23.256 12.9338C23.2858 11.1776 25.5316 9.88582 28.4375 9.88454C31.8281 9.88302 35.2186 9.88412 38.6092 9.88408C38.71 9.88408 38.8112 9.88688 38.9116 9.88284C39.0071 9.87903 39.1309 9.90265 39.1773 9.83002C39.2141 9.77247 39.1194 9.73556 39.0705 9.69315C38.8252 9.4809 38.5564 9.27695 38.3423 9.05374C38.1752 8.87941 37.9737 8.81848 37.643 8.81962C35.3616 8.82755 33.0802 8.81889 30.7988 8.82599C29.7791 8.82916 28.7595 8.80146 27.7392 8.85516C23.8313 9.06071 20.9342 11.3468 21.642 13.6774C22.2473 15.6703 25.0694 17.1066 28.4244 17.1095C34.6887 17.1151 40.9531 17.1111 47.2174 17.1113C47.6728 17.1113 48.1219 17.0762 48.5686 17.0267C51.9644 16.6508 54.456 14.6311 54.0756 12.5626C53.6833 10.4287 50.764 8.84732 47.1924 8.82196C45.1861 8.80775 43.6788 8.25124 42.7453 7.18935C41.7867 6.09903 41.9127 4.99817 43.0469 3.98286C44.0524 3.08279 45.5181 2.64957 47.332 2.65182C51.2897 2.65668 55.2476 2.65265 59.2053 2.65333C61.6127 2.65375 64.0208 2.63531 66.4273 2.66333C69.0327 2.69364 71.3554 4.01225 71.2718 5.83832C71.1931 7.5585 68.9535 8.82191 66.0995 8.82329C62.6963 8.82494 59.2932 8.82375 55.89 8.82384C55.7766 8.82384 55.6631 8.82361 55.5497 8.82544C55.321 8.8292 55.287 8.88138 55.4223 8.99349C55.6746 9.20262 55.9417 9.40772 56.153 9.63162C56.3318 9.82076 56.5481 9.88953 56.909 9.88862C59.9844 9.88073 63.0599 9.88357 66.1353 9.88523C66.3993 9.88541 66.6669 9.88614 66.9267 9.91044C69.8818 10.1873 71.5898 11.8245 71.2251 13.4156C70.898 14.8429 68.8542 16.0008 66.4684 16.0471C65.5367 16.0651 64.6033 16.055 63.6706 16.0553C61.4018 16.0561 59.133 16.0551 56.8643 16.0565C56.6678 16.0566 56.4487 16.0302 56.3189 16.1599C56.0378 16.4404 55.7378 16.7129 55.4004 16.9701C55.303 17.0443 55.3282 17.0989 55.4962 17.1071C55.609 17.1125 55.7229 17.1112 55.8363 17.1112C59.2143 17.1113 62.5922 17.1121 65.9702 17.1099C66.2718 17.1096 66.5746 17.0971 66.8744 17.0772C69.7756 16.8857 72.1439 15.6122 72.8082 13.8899C73.4594 12.2018 72.2561 10.4372 69.8078 9.48961C69.4624 9.35591 69.4667 9.35976 69.8014 9.22555C71.8135 8.41851 72.9155 7.28023 72.9829 5.82575C73.0902 3.51091 69.9604 1.60346 66.0998 1.59929C59.8354 1.59245 53.5711 1.59754 47.3067 1.59727C46.8512 1.59727 46.4021 1.63248 45.9555 1.68191C42.5562 2.05813 40.0572 4.10066 40.4586 6.17414C40.8698 8.29792 43.7849 9.8689 47.3432 9.88431C50.812 9.89926 53.2428 11.9708 52.1254 13.9596C51.408 15.2363 49.5439 16.0476 47.2624 16.0532Z" fill="#F5F5F7"/>
<path fill-rule="evenodd" clip-rule="evenodd" d="M56.7449 12.5988C56.5256 10.7911 55.1739 9.36083 52.7738 8.29518C51.1285 7.56466 49.2587 7.22627 47.2193 7.21371C45.7839 7.20491 44.7248 6.50277 44.8201 5.66519C44.9197 4.79047 45.935 4.26514 47.3935 4.264C49.6242 4.26221 51.8551 4.26345 54.0859 4.26345C58.0938 4.26349 62.1017 4.26221 66.1095 4.26455C67.2529 4.26523 68.1747 4.66974 68.4829 5.29237C68.9696 6.27603 67.8332 7.21284 66.1355 7.2144C61.611 7.21857 57.0866 7.21733 52.5621 7.21834C52.4486 7.21834 52.335 7.21701 52.2218 7.21999C52.1497 7.22192 52.0529 7.20839 52.0206 7.25814C51.9733 7.33077 52.0956 7.34526 52.1638 7.36796C52.617 7.51872 53.0991 7.65398 53.4656 7.8721C54.0151 8.19912 54.6454 8.26084 55.3845 8.25721C59.0141 8.23956 62.644 8.25144 66.2737 8.24772C68.3282 8.24561 70.3554 7.18106 70.303 5.70224C70.2461 4.09577 67.9644 3.21114 66.0342 3.22029C59.8085 3.25002 53.5823 3.23118 47.3561 3.23232C47.1047 3.23237 46.8489 3.23003 46.6026 3.25548C44.6211 3.46016 43.1363 4.4955 43.0983 5.69064C43.06 6.88995 44.4657 7.9611 46.4458 8.19839C47.0706 8.27326 47.7271 8.24575 48.3603 8.3016C52.8241 8.69519 55.7685 11.2011 54.9156 13.8743C54.1961 16.1294 51.0097 17.686 47.2039 17.6878C41.0283 17.6907 34.8526 17.688 28.6769 17.6897C28.108 17.6898 27.5422 17.6691 26.9855 17.6019C24.0476 17.2477 22.0027 16.2229 21.027 14.5172C20.0314 12.7765 20.6076 11.1671 22.6223 9.7889C24.1476 8.74545 26.144 8.26295 28.4362 8.25222C31.0701 8.23988 33.7043 8.24933 36.3384 8.24928C36.6409 8.24928 36.9438 8.24305 37.2457 8.25084C37.5234 8.25799 37.614 8.20627 37.5047 8.0385C37.3892 7.86169 37.2772 7.68149 37.2089 7.49671C37.1293 7.28102 36.9525 7.20922 36.5805 7.21055C33.9086 7.22018 31.2367 7.21738 28.5648 7.21435C27.9707 7.21371 27.3838 7.24406 26.7973 7.30023C21.7238 7.78631 18.1261 10.8161 18.9868 13.8818C19.779 16.7029 23.7171 18.7166 28.453 18.7194C31.5661 18.7212 34.6791 18.7198 37.7921 18.7198C40.9303 18.7198 44.0686 18.718 47.2068 18.7216C47.7 18.7222 48.1899 18.7038 48.6748 18.6593C53.5275 18.2144 57.1039 15.5587 56.7449 12.5988Z" fill="#F5F5F7"/>
<path fill-rule="evenodd" clip-rule="evenodd" d="M66.234 14.4431C65.768 14.4493 65.3017 14.4452 64.8354 14.4453C62.5168 14.4455 60.1982 14.4479 57.8798 14.4423C57.5806 14.4417 57.4175 14.4912 57.347 14.679C57.2721 14.8785 57.1561 15.0745 57.0244 15.2635C56.8981 15.4449 56.9873 15.4826 57.2868 15.4813C58.8241 15.4745 60.3615 15.4781 61.8987 15.4781V15.4758C63.373 15.4758 64.8475 15.4858 66.3215 15.4734C68.5032 15.4549 70.3663 14.2704 70.3173 12.9502C70.2654 11.5505 68.4304 10.463 66.1065 10.4599C64.0149 10.4572 61.9231 10.4593 59.8314 10.4592C59.0123 10.4592 58.1932 10.4584 57.3743 10.4596C56.9122 10.4604 56.906 10.4692 57.0575 10.7234C57.1514 10.8809 57.2613 11.0377 57.3139 11.2007C57.3879 11.4297 57.5783 11.4995 57.9646 11.4981C60.7114 11.4881 63.4584 11.4886 66.2053 11.4949C67.5485 11.498 68.5782 12.143 68.5834 12.9623C68.5887 13.7869 67.5794 14.4252 66.234 14.4431Z" fill="#F5F5F7"/>
<path fill-rule="evenodd" clip-rule="evenodd" d="M4.39134 15.5796H4.39323C4.39323 14.6955 4.37908 13.8114 4.39626 12.9274C4.4298 11.2039 6.64081 9.88767 9.49355 9.88492C11.9004 9.88253 14.3073 9.88432 16.7141 9.88432C17.935 9.88427 17.935 9.88427 17.9236 9.14729C17.9188 8.8393 17.8974 8.82445 17.391 8.82431C14.7573 8.82371 12.1237 8.82188 9.49 8.82688C9.13926 8.82752 8.78459 8.85045 8.43877 8.88726C4.9997 9.25349 2.64924 10.95 2.64591 13.0652C2.64319 14.8257 2.64531 16.5862 2.64546 18.3467C2.64546 18.4077 2.64902 18.4687 2.64773 18.5296C2.64508 18.6623 2.74698 18.7232 2.97083 18.72C3.28576 18.7156 3.60236 18.7079 3.91547 18.7227C4.27718 18.7399 4.40088 18.6576 4.39762 18.4375C4.38301 17.485 4.39134 16.5322 4.39134 15.5796Z" fill="#F5F5F7"/>
<path fill-rule="evenodd" clip-rule="evenodd" d="M19.4618 2.41948C19.6542 2.21512 19.904 2.03071 20.12 1.83406C20.1852 1.77473 20.3462 1.7259 20.2744 1.6436C20.207 1.56625 20.0463 1.5989 19.9262 1.59876C18.1615 1.59692 16.3969 1.59747 14.6322 1.59743C14.4936 1.59738 14.3549 1.59601 14.2163 1.59757C12.3772 1.61834 10.5343 1.53755 8.69921 1.63837C6.04481 1.78422 3.60608 3.05437 2.91748 4.61567C2.43078 5.71942 2.71308 6.84528 2.65138 7.96109C2.64275 8.11712 2.785 8.08778 2.94072 8.02001C3.2985 7.86421 3.64901 7.69943 4.02942 7.56655C4.31195 7.46793 4.39757 7.34376 4.39287 7.15738C4.37993 6.64679 4.37531 6.13574 4.39499 5.62529C4.45753 4.00572 6.59608 2.70394 9.27093 2.65854C10.1022 2.64447 10.9346 2.6535 11.7664 2.65332C14.0983 2.65286 16.4302 2.64983 18.762 2.65685C19.0926 2.65786 19.2972 2.59422 19.4618 2.41948Z" fill="#F5F5F7"/>
<path fill-rule="evenodd" clip-rule="evenodd" d="M38.3299 2.43509C38.526 2.2233 38.7815 2.03174 39.0073 1.82977C39.0737 1.7703 39.2395 1.72564 39.1705 1.64247C39.105 1.56361 38.9427 1.59901 38.8235 1.59887C37.0338 1.5968 35.2441 1.59745 33.4544 1.59763C31.753 1.59781 30.0514 1.59089 28.3501 1.59928C25.2358 1.61459 22.4941 2.91716 21.7589 4.74352C21.3328 5.80225 21.6092 6.88409 21.5483 7.95502C21.5396 8.10724 21.674 8.09146 21.8354 8.02076C22.1821 7.86891 22.5194 7.70605 22.8883 7.57675C23.1692 7.47826 23.2547 7.35795 23.2468 7.16983C23.2276 6.71279 23.2285 6.25511 23.2435 5.79794C23.2719 4.93366 23.7187 4.16594 24.751 3.54866C25.7679 2.94054 26.9964 2.64811 28.4324 2.65127C31.5075 2.65815 34.5828 2.65118 37.6579 2.65627C37.9681 2.65677 38.171 2.6067 38.3299 2.43509Z" fill="#F5F5F7"/>
<path fill-rule="evenodd" clip-rule="evenodd" d="M17.487 10.4553C14.7664 10.4623 12.0456 10.4513 9.32509 10.4628C7.19652 10.4718 5.35874 11.602 5.34776 12.8894C5.34004 13.7959 5.34624 14.7025 5.34602 15.609C5.34571 16.5537 5.35283 17.4984 5.3399 18.4429C5.33724 18.6449 5.42687 18.7427 5.78608 18.7221C6.02319 18.7085 6.26431 18.72 6.50361 18.7196C7.04814 18.7187 7.04996 18.7185 7.05004 18.3915C7.05072 16.6165 7.0489 14.8415 7.05102 13.0665C7.05223 12.1006 8.05296 11.4937 9.64297 11.4928C11.6456 11.4917 13.6484 11.4926 15.6511 11.4925C16.2809 11.4925 16.9109 11.4868 17.5404 11.4947C17.8185 11.4982 17.9306 11.4324 17.9222 11.2675C17.9129 11.0848 17.9079 10.9014 17.9241 10.7192C17.9415 10.5239 17.82 10.4545 17.487 10.4553Z" fill="#F5F5F7"/>
<path fill-rule="evenodd" clip-rule="evenodd" d="M18.3102 3.23134C16.7857 3.23089 15.2614 3.23116 13.7369 3.23116V3.23295C12.2755 3.23295 10.8139 3.22639 9.35268 3.2346C7.51648 3.24483 5.82382 4.08042 5.44333 5.17133C5.2334 5.77321 5.38019 6.38678 5.35218 6.99485C5.34582 7.13305 5.49216 7.10701 5.63774 7.07757C6.00778 7.00283 6.37706 6.92602 6.75165 6.86063C6.96755 6.82299 7.05968 6.75246 7.05378 6.61532C7.04295 6.36404 7.05098 6.11244 7.05166 5.86097C7.05423 4.86402 8.03975 4.26448 9.6832 4.26379C12.3793 4.26264 15.0754 4.2609 17.7715 4.26691C18.0731 4.2676 18.2336 4.21551 18.305 4.03177C18.3795 3.83987 18.4999 3.6543 18.606 3.46713C18.7355 3.23854 18.7298 3.23148 18.3102 3.23134Z" fill="#F5F5F7"/>
<path fill-rule="evenodd" clip-rule="evenodd" d="M28.5884 4.26375C31.2605 4.26278 33.9326 4.26063 36.6045 4.26705C36.9331 4.26783 37.1173 4.21821 37.1856 4.00866C37.2438 3.83079 37.367 3.66036 37.4683 3.48813C37.6113 3.24506 37.6013 3.23208 37.1717 3.23181C35.6466 3.2307 34.1215 3.23135 32.5964 3.23135V3.23291C31.147 3.23291 29.6974 3.22589 28.248 3.23456C26.127 3.24721 24.3165 4.3196 24.2484 5.59965C24.2245 6.04888 24.2346 6.49871 24.2228 6.94822C24.2194 7.08 24.2754 7.13273 24.5112 7.08128C24.89 6.99861 25.2747 6.9252 25.6613 6.85706C25.8657 6.82106 25.9446 6.74829 25.9421 6.6244C25.937 6.37289 25.9412 6.12129 25.9422 5.86973C25.9463 4.84962 26.9088 4.26434 28.5884 4.26375Z" fill="#F5F5F7"/>
</svg>
