<svg width="82" height="35" viewBox="0 0 82 35" fill="none" xmlns="http://www.w3.org/2000/svg">
<path d="M19.9231 2.5166V6.30685C19.9231 7.71413 19.1967 8.44158 17.7916 8.44158H8.33579C8.14235 8.44158 8.04733 8.5368 8.04733 8.73054V13.7819C8.04733 13.9757 8.14574 14.0709 8.33579 14.0709H16.3356C17.7407 14.0709 18.467 14.7984 18.467 16.2056V19.9959C18.467 21.4033 17.7407 22.1307 16.3356 22.1307H8.33579C8.14235 22.1307 8.04733 22.2258 8.04733 22.4196V32.23C8.04733 33.6374 7.32095 34.3648 5.91585 34.3648H0.386973C0.142585 34.3648 0 34.2186 0 33.9773V2.50973C0 1.10245 0.726283 0.375 2.13487 0.375H17.795C19.1967 0.381773 19.9231 1.10922 19.9231 2.5166ZM28.9886 0.381776H23.4597C23.2493 0.381776 23.1101 0.493935 23.0796 0.684288C23.0762 0.711581 23.0728 0.742162 23.0728 0.772742V32.2403C23.0728 33.6475 23.7991 34.375 25.2076 34.375H28.9886C30.3971 34.375 31.12 33.6475 31.12 32.2403V2.51999C31.1234 1.10922 30.3971 0.381776 28.9886 0.381776ZM59.0022 0.381776H56.5279H55.9035H53.3748C52.1156 0.381776 51.1449 0.915483 50.8055 2.56761L46.5393 23.8371C46.4917 24.0309 46.2983 24.0309 46.2473 23.8371L41.9811 2.56761C41.6416 0.91887 40.6709 0.381776 39.4118 0.381776H36.0177C33.9812 0.381776 33.4959 1.44919 33.8353 3.00608L39.9921 31.4618C40.4774 33.5965 41.3973 34.375 43.4812 34.375H49.2986C51.3825 34.375 52.3532 33.5965 52.7876 31.4618L59.3891 0.915483C59.44 0.62313 59.2941 0.381776 59.0022 0.381776ZM70.0088 8.44158H79.4652C80.8701 8.44158 81.596 7.71413 81.596 6.30685V2.51999C81.596 1.10922 80.8701 0.381776 79.4652 0.381776H63.8048C62.3996 0.381776 61.6733 1.10922 61.6733 2.51999V32.2403C61.6733 33.6475 62.3996 34.375 63.8048 34.375H81.2131C81.4534 34.375 81.6 34.2289 81.6 33.9875V31.5569V31.0879V28.45C81.6 27.0426 80.8731 26.3152 79.4682 26.3152H70.0128C69.8194 26.3152 69.7236 26.2167 69.7236 26.0229V21.4576C69.7236 21.2639 69.8194 21.1653 70.0128 21.1653H78.0125C79.4204 21.1653 80.1472 20.4378 80.1472 19.0305V15.2436C80.1472 13.8363 79.4204 13.1089 78.0125 13.1089H70.0128C69.8194 13.1089 69.7236 13.0103 69.7236 12.8165V8.73732C69.7206 8.54019 69.8154 8.44158 70.0088 8.44158Z" fill="#F5F5F7"/>
</svg>
