<svg width="133" height="30" viewBox="0 0 133 30" fill="none" xmlns="http://www.w3.org/2000/svg">
<g clip-path="url(#clip0_626_15368)">
<path d="M131.834 14.4789C131.765 14.1088 131.99 13.7132 131.609 13.2403C129.974 13.2403 128.266 13.1959 126.564 13.2542C125.16 13.3022 123.437 14.6593 123.404 15.9658C123.304 19.9284 123.368 23.8932 123.368 27.918H126.882V20.7959C126.882 19.4334 126.927 18.0697 126.864 16.7089C126.829 15.9425 127.171 15.6613 128.161 15.7054C129.328 15.7574 130.503 15.7175 131.674 15.7175C131.813 15.3459 132.025 14.9744 131.674 14.6028" stroke="#F5F5F7" stroke-width="1.6"/>
<path d="M27.5231 17.1423H16.5469V27.8024C17.5355 28.0236 18.6358 27.821 19.8804 27.9178V19.7373C21.2857 19.7373 22.5348 19.7514 23.783 19.7341C25.7978 19.7064 27.1523 18.8397 27.6857 17.2659" stroke="#F5F5F7" stroke-width="1.6"/>
<path d="M50.1638 22.6528C49.8338 23.1674 49.9707 23.5072 50.8093 23.4908C51.6708 23.4739 52.5482 23.6108 53.5544 23.3323C53.5544 21.2867 53.5638 19.194 53.5505 17.1014C53.5434 15.9202 53.2622 15.5697 55.4922 15.6477C56.4619 15.6815 57.4355 15.6532 58.4789 15.6532V13.2396C56.7332 13.2396 55.0605 13.1973 53.3939 13.2526C52.0076 13.2987 50.2897 14.5118 50.1796 15.5335C49.9284 17.8636 49.8564 20.1988 50.1638 22.5321" stroke="#F5F5F7" stroke-width="1.6"/>
<path d="M83.2089 19.6939C85.0561 19.34 86.6249 18.7272 87.3088 17.1423H77.5855C77.3841 18.2592 77.3284 19.2786 78.7881 20.081C79.6698 20.5657 80.4248 21.2228 81.0718 21.8911C82.5433 23.4098 84.4692 23.7734 86.793 23.3389" stroke="#F5F5F7" stroke-width="1.6"/>
<path d="M98.4495 20.6056C97.4788 18.35 96.4668 16.1035 95.5592 13.8336C95.2292 13.0078 94.4284 13.309 93.8069 13.2241C92.094 16.62 90.3919 19.9951 88.6211 23.5058C89.5992 23.5058 90.4656 23.4966 91.3314 23.5094C91.8035 23.5164 92.0167 23.4458 92.1752 23.0299C92.5522 22.0402 93.0931 21.0839 93.6069 20.1254C93.7626 19.8351 93.6704 19.4071 94.4038 19.3798C95.092 19.3541 95.149 19.7812 95.1781 20.004C95.279 20.7743 95.9494 20.7419 96.67 20.7283C97.209 20.7182 97.7483 20.7264 98.2877 20.7264" stroke="#F5F5F7" stroke-width="1.6"/>
<path d="M99.7603 23.2544C99.7043 23.1439 99.6142 23.0356 99.5981 22.9226C99.4399 21.8263 98.5511 21.4338 96.9082 21.5802C95.9178 21.6684 94.8942 21.5963 93.8633 21.5963C94.3419 23.2642 96.2419 23.8014 99.7603 23.365" stroke="#F5F5F7" stroke-width="1.6"/>
<path d="M107.945 27.6032C109.418 28.1097 110.545 27.9918 110.788 27.2445C110.894 26.9213 111.065 26.4546 110.497 26.1954C109.846 25.8981 109.175 25.9217 108.416 26.046C107.663 26.1693 107.613 26.4675 107.622 26.8971C107.635 27.5639 107.625 28.2309 107.625 28.8978" stroke="#F5F5F7" stroke-width="1.6"/>
<path d="M15.2352 11.2652V6.03266C10.3241 5.8759 5.56216 6.20353 0.820312 5.87744" stroke="#F5F5F7" stroke-width="1.6"/>
<path d="M48.4628 27.204C49.3313 26.9421 50.2859 27.1993 51.2722 27.0379C51.21 26.0927 50.424 25.8947 49.417 25.9752C48.6986 26.0327 47.8314 26.1783 48.0231 26.8607C48.2012 27.4939 48.6964 28.0564 49.8935 27.888C50.25 27.8379 50.6319 27.8803 51.0024 27.8803" stroke="#F5F5F7" stroke-width="1.6"/>
<path d="M95.4251 27.0871C96.4045 27.0153 97.433 27.2584 98.448 26.8865C98.0644 25.9278 97.2333 25.87 96.0712 26.0242C94.8898 26.1811 95.2124 26.6371 95.2114 27.2027C95.2108 27.8231 95.7992 27.8173 96.246 27.8753C96.8768 27.9576 97.5452 27.8961 98.1975 27.8961" stroke="#F5F5F7" stroke-width="1.6"/>
<path d="M10.3203 6.36694V16.6527" stroke="#F5F5F7" stroke-width="1.6"/>
<path d="M92.7304 27.786C93.2579 27.5483 94.0184 27.4242 93.8338 26.7503C93.6793 26.185 93.047 26.0278 92.4096 25.9704C91.6718 25.9039 91.0434 26.1289 90.6716 26.629C90.5056 26.8526 90.5678 27.2496 90.9732 27.3862C91.4597 27.5509 91.8148 27.9515 92.4099 27.9159" stroke="#F5F5F7" stroke-width="1.6"/>
<path d="M40.1328 25.959C40.1899 26.2866 40.3305 26.6188 40.2871 26.941C40.1845 27.698 40.8396 27.9383 41.8429 27.9169C42.7826 27.897 43.5314 27.7065 43.3922 26.9412C43.3337 26.6179 43.3826 26.2866 43.3826 25.959" stroke="#F5F5F7" stroke-width="1.6"/>
<path d="M89.2737 27.9182C89.2737 27.6488 89.2666 27.3794 89.2753 27.1103C89.301 26.3186 88.742 25.9569 87.7217 25.959C86.7002 25.9611 85.9013 26.161 86.0099 27.1105C86.0406 27.3781 86.0146 27.6488 86.0146 27.9182" stroke="#F5F5F7" stroke-width="1.6"/>
<path d="M33.582 25.4692C33.9179 25.8765 33.5776 26.2884 33.6047 26.6902C33.6591 27.4884 34.1967 27.9677 35.3027 27.9142C36.2829 27.8669 36.904 27.5547 36.8555 26.691C36.8321 26.2843 36.8514 25.8765 36.8514 25.4692" stroke="#F5F5F7" stroke-width="1.6"/>
<path d="M72.2581 25.959C72.2581 26.2861 72.3011 26.616 72.2493 26.9399C72.1423 27.6054 72.8321 27.8327 73.6165 27.9051C74.3592 27.9737 75.1523 27.7744 75.2576 27.2633C75.3437 26.8474 75.7599 26.3951 75.3061 25.959" stroke="#F5F5F7" stroke-width="1.6"/>
<path d="M115.421 26.545C114.31 25.792 113.512 25.7624 112.305 26.4692C113.076 27.2301 114.734 26.6185 115.483 27.4119C114.341 28.0807 113.375 28.0807 112.207 27.4485" stroke="#F5F5F7" stroke-width="1.6"/>
<path d="M63.7455 25.4692C63.7455 25.8405 63.686 26.2209 63.7591 26.5813C63.8775 27.168 64.3243 27.4284 65.0331 27.4284C65.7422 27.4284 66.1887 27.168 66.3072 26.5813C66.3802 26.2209 66.3207 25.8405 66.3207 25.4692" stroke="#F5F5F7" stroke-width="1.6"/>
<path d="M82.0664 19.5916C83.9885 20.7585 85.5237 22.2335 87.3082 23.5099" stroke="#F5F5F7" stroke-width="1.6"/>
<path d="M19.8232 0.979248C18.9393 1.32734 19.2076 1.86968 19.2021 2.35068C19.1807 4.17917 19.1933 6.0079 19.1933 7.83639" stroke="#F5F5F7" stroke-width="1.6"/>
<path d="M47.3396 26.3042C45.5922 25.6155 44.7343 25.9551 44.7198 27.3418C44.7176 27.5338 44.7195 27.7261 44.7195 27.9182" stroke="#F5F5F7" stroke-width="1.6"/>
<path d="M78.7928 26.2025C76.7898 25.6245 76.1719 26.0289 76.1719 27.9182" stroke="#F5F5F7" stroke-width="1.6"/>
<path d="M102.379 26.192C100.188 25.6647 99.7578 25.9481 99.7578 27.9182" stroke="#F5F5F7" stroke-width="1.6"/>
<path d="M55.0453 25.97C55.5085 25.97 55.9748 25.9945 56.4343 25.965C57.4749 25.8983 57.7386 26.3943 57.8162 26.9917C57.8983 27.6268 57.226 27.8135 56.5859 27.8825C55.8645 27.9601 55.1012 27.9547 54.5469 27.4067C55.0774 26.2173 56.6236 27.0866 57.5157 26.6507" stroke="#F5F5F7" stroke-width="1.6"/>
<path d="M25.718 7.59155H15.2344" stroke="#F5F5F7" stroke-width="1.6"/>
<path d="M37.5138 24.9792C37.5138 25.4246 37.5195 25.8696 37.5127 26.315C37.492 27.6846 37.7919 27.9256 39.4774 27.9178" stroke="#F5F5F7" stroke-width="1.6"/>
<path d="M58.5004 24.9792C58.5004 25.4246 58.5213 25.8705 58.4965 26.3151C58.4212 27.6664 58.5394 27.7689 60.4461 27.918" stroke="#F5F5F7" stroke-width="1.6"/>
<path d="M32.2704 24.9792C30.5291 25.0287 30.189 25.2314 30.3663 26.4454C30.4408 26.9546 30.2388 27.4283 30.3278 27.918" stroke="#F5F5F7" stroke-width="1.6"/>
<path d="M12.4491 2.93848C12.527 3.91816 11.6648 4.89757 12.4491 5.87725" stroke="#F5F5F7" stroke-width="1.6"/>
<path d="M23.0993 3.04028C21.8048 3.60649 20.476 3.12894 19.168 3.28518" stroke="#F5F5F7" stroke-width="1.6"/>
<path d="M103.727 24.9792C103.727 25.4246 103.782 25.8737 103.716 26.3143C103.565 27.3295 104.089 27.9172 105.657 27.918" stroke="#F5F5F7" stroke-width="1.6"/>
<path d="M84.0321 24.9937C82.4113 24.8753 81.873 25.4969 82.1259 26.4513C82.2614 26.9639 81.9923 27.4307 82.0901 27.918" stroke="#F5F5F7" stroke-width="1.6"/>
<path d="M92.6728 27.918C93.1748 28.2979 93.5045 28.7654 92.8168 29.1708C92.2265 29.519 91.5757 29.4902 91.2422 28.7666" stroke="#F5F5F7" stroke-width="1.6"/>
<path d="M66.1475 27.4282C66.7079 28.4549 66.0594 28.9171 64.3789 28.897" stroke="#F5F5F7" stroke-width="1.6"/>
<path d="M6.71875 11.9995H9.99487" stroke="#F5F5F7" stroke-width="1.6"/>
<path d="M22.9416 7.83643C21.8735 8.29634 23.6531 8.84492 22.6139 9.30581" stroke="#F5F5F7" stroke-width="1.6"/>
<path d="M69.0639 25.9596C68.3637 26.1292 67.6229 26.2321 67.6532 26.9941C67.6715 27.4397 67.9552 27.6753 68.4481 27.7911C69.1514 27.9565 69.7795 28.0207 70.4924 27.6022C70.9742 27.3198 70.9541 27.0564 70.9033 26.7655C70.7765 26.0384 70.0234 25.9504 69.2186 25.9596" stroke="#F5F5F7" stroke-width="1.6"/>
<path d="M72.7536 17.1423C71.996 17.2909 72.2992 17.7639 72.2935 18.1007C72.2648 19.8577 72.2803 21.6149 72.2803 23.3865C73.3183 23.6185 74.3858 23.422 75.5144 23.5097V17.1423H72.9113" stroke="#F5F5F7" stroke-width="1.6"/>
<path d="M116.849 13.2241C115.66 13.9329 116.829 14.8309 116.141 15.6731H121.382V13.2241H117.014" stroke="#F5F5F7" stroke-width="1.6"/>
<path d="M112.165 13.2241C111.55 13.4411 111.565 13.8966 111.563 14.3115C111.55 17.2111 111.554 20.1108 111.563 23.0104C111.563 23.1313 111.659 23.2518 111.725 23.4058C112.724 23.5466 113.739 23.5466 114.831 23.3927V13.2241H112.318" stroke="#F5F5F7" stroke-width="1.6"/>
<path d="M72.8785 13.233C71.7205 13.9579 72.8595 14.8761 72.2383 15.6731H87.3084C86.4093 13.9561 84.9796 13.2035 82.8364 13.2246C79.5711 13.2567 76.305 13.233 73.0391 13.233" stroke="#F5F5F7" stroke-width="1.6"/>
<path d="M59.8184 13.2241C59.0193 13.621 59.1374 14.2268 59.1499 14.7961C59.194 16.8117 59.2317 18.8275 59.3219 20.8421C59.3879 22.3029 61.1143 23.4717 63.1844 23.4998C64.3622 23.5157 65.5406 23.5099 66.7187 23.5012C69.3092 23.4821 70.9091 22.3411 70.9222 20.4796C70.9387 18.1008 70.9262 15.7219 70.9262 13.2846H67.3919V20.9028H62.8478V13.2241H59.9867" stroke="#F5F5F7" stroke-width="1.6"/>
<path d="M43.8656 13.2241C43.0921 13.9912 43.825 14.8178 43.4102 15.6731H48.652V13.2241H44.0336" stroke="#F5F5F7" stroke-width="1.6"/>
<path d="M30.8534 13.2241C30.0475 13.3741 30.3687 13.8518 30.364 14.1919C30.3361 16.3291 30.3905 18.4671 30.3348 20.6036C30.3009 21.9133 31.9514 23.492 34.2101 23.5061C35.3849 23.5133 36.5597 23.508 37.7346 23.5073C40.4927 23.5049 42.0962 22.35 42.0979 20.3618C42.0996 18.0224 42.0982 15.6826 42.0982 13.2846H38.4059V20.9667C37.125 20.9667 36.0029 20.9551 34.8814 20.9699C33.7284 20.9851 33.8778 20.3952 33.8764 19.8779C33.8714 17.9827 33.8845 16.0872 33.8637 14.1919C33.8603 13.912 34.0503 13.5977 33.5663 13.2241H31.0212" stroke="#F5F5F7" stroke-width="1.6"/>
<path d="M17.2524 13.2241C16.0683 13.9329 17.233 14.8309 16.5469 15.6731H29.6514V13.2241H17.4166" stroke="#F5F5F7" stroke-width="1.6"/>
</g>
<defs>
<clipPath id="clip0_626_15368">
<rect width="132.683" height="30" fill="white"/>
</clipPath>
</defs>
</svg>
