<svg width="119" height="20" viewBox="0 0 119 20" fill="none" xmlns="http://www.w3.org/2000/svg">
<g clip-path="url(#clip0_626_15602)">
<mask id="mask0_626_15602" style="mask-type:alpha" maskUnits="userSpaceOnUse" x="0" y="0" width="38" height="20">
<path d="M0 0.117188H37.6627V19.6924H0V0.117188Z" fill="white"/>
</mask>
<g mask="url(#mask0_626_15602)">
<path fill-rule="evenodd" clip-rule="evenodd" d="M10.8966 10.9979H10.9029C10.9029 12.0058 10.8947 13.0138 10.9067 14.0216C10.9118 14.4529 11.1925 14.7477 11.8678 14.7612C12.5494 14.775 12.8278 14.4745 12.8891 14.0551C12.9264 13.7994 12.9098 13.54 12.9175 13.2823C12.982 11.1388 12.3683 11.436 15.7922 11.4044C16.552 11.3972 16.8039 11.6367 16.7814 12.1327C16.7526 12.765 16.7719 13.3983 16.7889 14.031C16.8007 14.4658 17.0901 14.7519 17.7632 14.7609C18.4478 14.7699 18.7634 14.4605 18.7688 14.0459C18.7956 12.0304 18.808 10.0145 18.7705 7.99928C18.7599 7.44212 18.0138 7.16095 17.3342 7.38586C16.7194 7.58954 16.7857 7.98957 16.7767 8.36232C16.7279 10.3958 16.7299 10.3832 13.8499 10.2767C13.142 10.2505 12.8925 10.0439 12.9144 9.58183C12.9367 9.11358 12.9152 8.64448 12.9138 8.17566C12.9124 7.69827 12.7043 7.32608 11.899 7.32875C11.0902 7.33143 10.8974 7.71219 10.8968 8.18495C10.896 9.12258 10.8966 10.0602 10.8966 10.9979ZM20.2079 10.9617C20.2079 11.9209 20.2059 12.8799 20.2087 13.839C20.2099 14.2851 20.2813 14.7346 21.1126 14.7474C21.94 14.7602 22.0597 14.3275 22.0645 13.8719C22.0688 13.4976 22.0404 13.1221 22.0765 12.7493C22.1098 12.4049 21.8555 11.9289 22.6437 11.8386C23.3491 11.7576 24.0682 11.7388 24.4752 12.3044C24.9571 12.9738 25.4797 13.629 25.9701 14.2956C26.2548 14.6828 26.6813 14.8923 27.2797 14.7075C27.8851 14.5205 27.7951 14.1312 27.5902 13.7974C27.2739 13.2816 26.9338 12.7679 26.5247 12.2856C26.1177 11.8058 26.1589 11.4826 26.807 11.0914C27.8673 10.4514 27.9928 9.58141 27.528 8.70764C27.064 7.83499 26.0471 7.38094 24.7322 7.3251C23.5896 7.27671 22.4393 7.32017 21.2929 7.30948C20.52 7.30231 20.1976 7.56211 20.2055 8.08438C20.2203 9.04325 20.2097 10.0025 20.2079 10.9617ZM18.5377 19.6878C15.6309 19.6879 12.7242 19.6928 9.81747 19.6868C4.27901 19.6753 0.121208 16.9451 0.00257026 13.1089C-0.0534025 11.2982 0.802413 9.63852 2.80567 8.37245C3.43171 7.97677 3.77018 7.55578 3.91255 6.95362C4.75762 3.37538 9.58445 1.15733 14.6916 1.97512C15.3616 2.0823 15.807 1.98623 16.334 1.69071C22.2477 -1.62674 30.8417 0.570354 32.2684 5.76434C32.4173 6.30644 32.705 6.68003 33.3897 6.99933C38.0851 9.18869 39.0659 13.9168 35.5584 17.0077C33.5045 18.8179 30.8269 19.6667 27.5618 19.6843C24.5539 19.7004 21.5456 19.6876 18.5377 19.6878Z" fill="#F5F5F7"/>
</g>
<path fill-rule="evenodd" clip-rule="evenodd" d="M58.7351 9.32312C58.7355 10.5874 58.7355 10.5874 60.2775 10.587C62.0702 10.5864 62.7839 10.2364 62.7829 9.35889C62.7821 8.45459 61.8639 8.00987 60.0041 8.01329C58.7393 8.0156 58.7347 8.02061 58.7351 9.32312ZM56.2948 10.8471C56.2946 9.68012 56.3167 8.51268 56.2846 7.3461C56.2699 6.80895 56.522 6.5431 57.3332 6.57486C59.0188 6.64068 60.7222 6.4375 62.393 6.71609C64.0193 6.98724 65.0512 7.75633 65.2214 8.78583C65.4366 10.0883 64.8113 11.0005 63.1743 11.5355C62.4323 11.7781 62.5065 11.9961 62.8775 12.3883C63.5526 13.1016 64.1606 13.8461 64.8254 14.5644C65.2245 14.9954 65.0605 15.1173 64.3687 15.1635C63.1655 15.2439 62.2972 15.0393 61.7651 14.1881C61.3597 13.5394 60.7352 12.9591 60.2141 12.346C59.9789 12.0695 59.7289 11.8015 59.1879 11.9002C58.6433 11.9997 58.7501 12.3367 58.742 12.6091C58.7239 13.2043 58.6909 13.8019 58.745 14.3948C58.8079 15.0829 58.267 15.1652 57.4806 15.1642C56.7197 15.1632 56.2581 15.0586 56.2821 14.4197C56.3269 13.2297 56.295 12.0382 56.2948 10.8471Z" fill="#F5F5F7"/>
<mask id="mask1_626_15602" style="mask-type:alpha" maskUnits="userSpaceOnUse" x="109" y="6" width="10" height="10">
<path d="M109.055 6.57166H118.517V15.5372H109.055V6.57166Z" fill="white"/>
</mask>
<g mask="url(#mask1_626_15602)">
<path fill-rule="evenodd" clip-rule="evenodd" d="M116.161 12.1731C116.172 10.9792 115.314 10.261 113.854 10.2426C112.388 10.2243 111.472 10.9393 111.458 12.1119C111.445 13.2706 112.372 14.0266 113.806 14.0266C115.133 14.0268 116.151 13.2253 116.161 12.1731ZM116.167 9.84183C116.167 8.88088 116.19 8.08451 116.16 7.28912C116.135 6.58766 116.76 6.58597 117.461 6.57243C118.195 6.55804 118.523 6.74208 118.518 7.30365C118.493 9.69925 118.509 12.095 118.507 14.4907C118.507 14.9573 118.634 15.4703 117.594 15.4573C116.756 15.4467 115.909 15.5113 116.164 14.6373C115.951 14.5198 115.859 14.5966 115.776 14.6615C114.655 15.5381 113.295 15.727 111.768 15.36C110.299 15.0069 109.46 14.2269 109.21 13.1562C109.004 12.2764 108.937 11.3762 109.43 10.5185C110.513 8.63817 113.666 8.16038 115.707 9.56175C115.795 9.62253 115.894 9.67598 116.167 9.84183Z" fill="#F5F5F7"/>
</g>
<path fill-rule="evenodd" clip-rule="evenodd" d="M53.8732 10.9073C53.8736 12.0771 53.8368 13.2478 53.8872 14.4166C53.9175 15.113 53.4067 15.1779 52.6645 15.1795C51.931 15.1809 51.4859 15.0661 51.5247 14.429C51.5708 13.6664 51.5165 12.901 51.5379 12.1373C51.5512 11.6624 51.3125 11.4291 50.6327 11.4412C49.5965 11.4595 48.5591 11.4555 47.5227 11.4436C46.8992 11.4363 46.6498 11.6502 46.6576 12.0966C46.6712 12.8842 46.6251 13.6732 46.6657 14.4598C46.6998 15.1232 46.1779 15.176 45.4829 15.1773C44.7784 15.1786 44.3007 15.1059 44.3087 14.4508C44.3383 12.0634 44.3385 9.67567 44.3087 7.28834C44.3005 6.62979 44.7874 6.56481 45.4868 6.56409C46.1839 6.56352 46.7058 6.62104 46.6657 7.28361C46.6241 7.97458 46.6716 8.66813 46.6582 9.36039C46.6496 9.80578 46.9023 10.0225 47.5237 10.0165C48.5603 10.0065 49.5977 10.0024 50.6339 10.0189C51.3133 10.0297 51.5513 9.79057 51.5373 9.31793C51.5169 8.62595 51.5628 7.93255 51.5292 7.24101C51.4949 6.54172 52.1192 6.57801 52.7626 6.56739C53.4272 6.55635 53.8992 6.63539 53.8825 7.25449C53.8494 8.47161 53.8728 9.68959 53.8732 10.9073Z" fill="#F5F5F7"/>
<path fill-rule="evenodd" clip-rule="evenodd" d="M75.6686 6.9745C78.3572 6.97822 80.2836 7.76369 81.1801 9.22212C81.5663 9.8504 81.4553 9.94948 80.4506 9.98945C79.5614 10.025 78.887 9.92421 78.295 9.36017C77.4923 8.59555 76.1969 8.41981 74.8691 8.59483C73.5873 8.76372 72.763 9.33604 72.341 10.1582C71.9594 10.901 71.9575 11.6573 72.3539 12.3968C72.7871 13.205 73.5434 13.8158 74.8765 13.947C76.3241 14.0894 77.6138 13.8949 78.5209 13.0227C78.953 12.6072 80.5775 12.3647 81.1794 12.6019C81.5741 12.7576 81.4092 12.9678 81.2902 13.1611C80.8779 13.8304 80.3084 14.416 79.4076 14.8454C77.5141 15.7479 74.2854 15.8482 72.3715 15.0457C70.2755 14.167 69.0926 12.2626 69.5514 10.5061C70.1461 8.22994 72.3285 6.96994 75.6686 6.9745Z" fill="#F5F5F7"/>
<path fill-rule="evenodd" clip-rule="evenodd" d="M94.4441 12.2777C94.4346 11.1523 93.5716 10.4775 92.1468 10.4808C90.7018 10.4844 89.8292 11.1985 89.8478 12.3626C89.8651 13.4604 90.7954 14.1585 92.2085 14.1338C93.6049 14.1095 94.4539 13.4047 94.4441 12.2777ZM92.2565 9.02589C94.948 9.04028 97.0342 10.4969 96.9974 12.3358C96.9605 14.1828 94.8845 15.632 92.1667 15.5889C89.2353 15.5425 87.3053 14.2248 87.4231 12.2097C87.5349 10.2977 89.4052 9.01055 92.2565 9.02589Z" fill="#F5F5F7"/>
<path fill-rule="evenodd" clip-rule="evenodd" d="M104.701 14.5565C103.612 15.4308 102.386 15.7545 100.883 15.5116C99.5299 15.2928 98.7463 14.6651 98.4596 13.7466C98.0216 12.3428 98.2544 10.9115 98.2794 9.49301C98.2906 8.84554 99.1127 9.08112 99.6349 9.04432C100.199 9.00448 100.57 9.1466 100.567 9.61322C100.559 10.6227 100.522 11.6342 100.595 12.6415C100.684 13.8882 101.965 14.4986 103.515 14.0885C104.53 13.8197 104.773 13.2025 104.805 12.5368C104.85 11.6199 104.861 10.7002 104.809 9.78387C104.773 9.13599 105.226 9.03012 105.997 9.02585C106.792 9.02157 107.182 9.16714 107.164 9.79794C107.12 11.3577 107.168 12.9188 107.138 14.4788C107.13 14.8861 107.448 15.4525 106.381 15.5133C105.122 15.5851 104.947 15.5106 104.701 14.5565Z" fill="#F5F5F7"/>
<path fill-rule="evenodd" clip-rule="evenodd" d="M83.2425 10.8135C83.2427 9.62975 83.2735 8.44556 83.2303 7.26259C83.2072 6.63982 83.689 6.55837 84.4106 6.56438C85.1012 6.56998 85.6289 6.59704 85.6208 7.23991C85.5902 9.6527 85.5898 12.0659 85.6214 14.4786C85.6295 15.0994 85.1652 15.1721 84.4426 15.1791C83.6602 15.1868 83.2003 15.0778 83.2277 14.4325C83.2787 13.2271 83.2423 12.02 83.2425 10.8135Z" fill="#F5F5F7"/>
<path fill-rule="evenodd" clip-rule="evenodd" d="M23.931 10.2555C23.3737 10.1765 22.6363 10.4142 22.3575 10.0259C22.0272 9.56551 22.1602 9.03775 22.3102 8.53945C22.3276 8.48158 22.4118 8.42278 22.4889 8.38195C23.2921 7.95672 25.8391 8.35763 26.2418 8.97023C26.57 9.46905 26.0767 10.0472 25.1578 10.1858C24.7537 10.2467 24.3215 10.2355 23.931 10.2555Z" fill="#F5F5F7"/>
</g>
<defs>
<clipPath id="clip0_626_15602">
<rect width="119" height="20" fill="white"/>
</clipPath>
</defs>
</svg>
