<svg width="130" height="19" viewBox="0 0 130 19" fill="none" xmlns="http://www.w3.org/2000/svg">
<g clip-path="url(#clip0_626_15597)">
<path fill-rule="evenodd" clip-rule="evenodd" d="M128.451 10.4284L125.404 15.7153L121.951 10.4284H120.391L124.706 16.7483C124.423 17.1978 124.136 17.5088 123.843 17.6813C123.543 17.8546 123.156 17.9464 122.76 17.9389C122.491 17.9414 122.223 17.9228 121.96 17.8835C121.721 17.8432 121.49 17.7834 121.272 17.7056L120.794 18.452C121.099 18.5546 121.42 18.6348 121.75 18.6909C122.099 18.7467 122.456 18.7736 122.815 18.7711C123.524 18.7711 124.126 18.6359 124.623 18.3655C125.119 18.0952 125.569 17.633 125.972 16.9791L129.957 10.4259L128.451 10.4284Z" fill="#F5F5F7"/>
<path fill-rule="evenodd" clip-rule="evenodd" d="M40.288 11.5823H35.0731V8.1825H32.2461V16.7727H35.0731V13.3245H40.288V16.7727H43.1151V8.1825H40.288V11.5823Z" fill="#F5F5F7"/>
<path fill-rule="evenodd" clip-rule="evenodd" d="M53.4349 11.1399C53.4349 11.5081 53.2488 11.8027 52.8766 12.0237C52.5043 12.2448 51.969 12.3552 51.2704 12.3552H48.4098V9.88844H51.2183C51.9162 9.88844 52.4609 9.99064 52.8524 10.1951C53.2438 10.3995 53.4398 10.7064 53.4405 11.1156L53.4349 11.1399ZM55.5389 12.7415C56.047 12.3036 56.301 11.7371 56.301 11.0416V11.0173C56.301 10.1254 55.8755 9.43004 55.0243 8.93121C54.1732 8.43237 52.983 8.18358 51.4537 8.18482H45.5781V16.7727H48.4098V14.024H50.6311L53.3856 16.7727H56.69L53.5466 13.705C54.3337 13.5163 55.0246 13.1822 55.5389 12.7415Z" fill="#F5F5F7"/>
<path fill-rule="evenodd" clip-rule="evenodd" d="M71.9336 11.7353C71.7662 11.9699 71.5205 12.1758 71.2152 12.3368C70.881 12.5121 70.4998 12.6433 70.092 12.723C69.6229 12.8165 69.1354 12.8622 68.6459 12.8586H65.4625V9.0782H68.7194C69.7629 9.0782 70.6004 9.23575 71.232 9.55091C71.8635 9.86601 72.1797 10.3344 72.1802 10.956C72.1865 11.2248 72.1022 11.4911 71.9336 11.7353ZM72.3198 8.91275C71.8684 8.66931 71.3512 8.48601 70.7965 8.37287C70.1573 8.24157 69.4914 8.17738 68.8227 8.18254H64.0117V16.7728H65.4625V13.7419H68.5836C69.2415 13.7445 69.8966 13.6846 70.5294 13.5639C71.1118 13.456 71.6583 13.2749 72.1393 13.0302C72.5971 12.7936 72.9704 12.4916 73.2318 12.1464C73.511 11.7648 73.6495 11.344 73.6356 10.9193C73.6449 10.525 73.5292 10.1339 73.296 9.77171C73.0753 9.43839 72.7411 9.14425 72.3198 8.91275Z" fill="#F5F5F7"/>
<path fill-rule="evenodd" clip-rule="evenodd" d="M78.467 10.7903C78.1339 10.9513 77.8372 11.1434 77.5858 11.3607C77.3273 11.5835 77.1113 11.8269 76.9427 12.0853V10.4284H75.5273V16.7727H76.9409V14.2448C76.9294 13.8174 77.0289 13.3919 77.2349 12.9872C77.4076 12.6487 77.6825 12.3375 78.0426 12.0729C78.3769 11.8309 78.788 11.6422 79.2459 11.5205C79.7098 11.3964 80.2053 11.3331 80.705 11.334H80.8148V10.3176C80.3864 10.3076 79.9584 10.3451 79.5483 10.4284C79.1609 10.5091 78.7957 10.6313 78.467 10.7903Z" fill="#F5F5F7"/>
<path fill-rule="evenodd" clip-rule="evenodd" d="M89.7907 14.5771C89.6284 14.8645 89.3852 15.1284 89.0742 15.3546C88.7644 15.5767 88.3892 15.7538 87.9724 15.8746C87.5269 16.0023 87.0463 16.0659 86.5616 16.0611C86.0806 16.0643 85.6044 15.9974 85.1658 15.8652C84.7457 15.7402 84.3663 15.5614 84.0491 15.339C83.7303 15.1122 83.4808 14.846 83.3149 14.5553C83.1351 14.2471 83.0444 13.919 83.0478 13.5882C83.0438 13.2601 83.1313 12.9345 83.3056 12.6278C83.4677 12.34 83.707 12.0744 84.0118 11.8441C84.3152 11.6182 84.6878 11.4387 85.1044 11.3179C85.5506 11.1886 86.0325 11.1238 86.5188 11.1276C86.9999 11.1247 87.4762 11.1917 87.9147 11.3241C88.335 11.4514 88.7144 11.6323 89.0314 11.8566C89.3534 12.0851 89.6063 12.3531 89.7758 12.6458C89.9548 12.9542 90.0449 13.2824 90.042 13.613C90.0476 13.9409 89.9625 14.2668 89.7907 14.574V14.5771ZM90.1024 11.2719C89.6528 10.9692 89.1196 10.7276 88.5325 10.5603C86.0531 9.82163 83.1471 10.5663 82.0419 12.2235C82.0163 12.2619 81.9917 12.3007 81.9683 12.3398C81.7231 12.7475 81.5986 13.183 81.6016 13.6223C81.598 14.0597 81.7226 14.4933 81.9683 14.8987C82.2045 15.2903 82.5538 15.6468 82.9966 15.9479C83.4442 16.2494 83.9739 16.4909 84.5572 16.6595C85.1776 16.8382 85.8471 16.928 86.5226 16.9233C87.2033 16.9272 87.878 16.8374 88.5047 16.6595C89.0982 16.493 89.6359 16.249 90.0866 15.9417C91.4702 14.9775 91.8798 13.5606 91.1335 12.3211C90.8968 11.9294 90.5463 11.5727 90.1024 11.2719Z" fill="#F5F5F7"/>
<path fill-rule="evenodd" clip-rule="evenodd" d="M101.091 14.6038C100.915 14.8946 100.652 15.1584 100.319 15.3794C100.001 15.5883 99.6278 15.7562 99.2183 15.8745C98.8157 15.9913 98.3814 16.0514 97.9425 16.0511C97.5013 16.0528 97.0641 15.9948 96.6574 15.8806C96.2546 15.7671 95.8918 15.5987 95.5919 15.3862C95.2773 15.1615 95.0311 14.8981 94.867 14.6105C94.6833 14.2868 94.5931 13.9429 94.6008 13.5968C94.5926 13.2446 94.6829 12.8947 94.867 12.5649C95.0259 12.2791 95.2693 12.0177 95.5826 11.796C95.8807 11.5895 96.2406 11.4271 96.6388 11.3196C97.0527 11.2084 97.4954 11.1524 97.9416 11.1548C98.3805 11.1547 98.8148 11.215 99.2174 11.332C99.6272 11.4499 100.001 11.6175 100.319 11.8266C100.651 12.0457 100.914 12.3074 101.091 12.596C101.284 12.9135 101.381 13.2538 101.374 13.5968C101.38 13.941 101.283 14.2826 101.091 14.6019V14.6038ZM101.32 11.645C101.131 11.4613 100.919 11.2888 100.687 11.1293C100.447 10.9655 100.178 10.8215 99.8873 10.7001C99.5781 10.5729 99.2447 10.4738 98.8963 10.4053C98.5032 10.3296 98.0957 10.2926 97.6866 10.2952C97.111 10.2949 96.5413 10.3721 96.0116 10.5223C95.4721 10.6747 94.9813 10.8947 94.5655 11.1704C94.1249 11.4674 93.7768 11.8201 93.5419 12.2078C93.0277 13.1092 93.0277 14.1054 93.5419 15.0067C93.7768 15.3945 94.1249 15.7471 94.5655 16.0443C94.9811 16.3206 95.4741 16.5392 96.0162 16.688C96.5474 16.8346 97.1165 16.9099 97.6912 16.9094C98.098 16.9124 98.5031 16.8751 98.8935 16.7987C99.2418 16.7291 99.5728 16.6258 99.8762 16.492C100.168 16.3621 100.436 16.2097 100.675 16.0381C100.91 15.8683 101.128 15.688 101.326 15.4982V16.7739H102.74V7.81726H101.326L101.32 11.645Z" fill="#F5F5F7"/>
<mask id="mask0_626_15597" style="mask-type:alpha" maskUnits="userSpaceOnUse" x="0" y="0" width="130" height="19">
<path d="M0 18.7713H129.956V0H0V18.7713Z" fill="white"/>
</mask>
<g mask="url(#mask0_626_15597)">
<path fill-rule="evenodd" clip-rule="evenodd" d="M105.535 16.7732H106.949V10.4283H105.535V16.7732Z" fill="#F5F5F7"/>
<path fill-rule="evenodd" clip-rule="evenodd" d="M105.441 9.04136H107.057V7.99829H105.441V9.04136Z" fill="#F5F5F7"/>
<path fill-rule="evenodd" clip-rule="evenodd" d="M117.057 14.1778C116.868 14.4373 116.602 14.6687 116.276 14.8582C115.949 15.0476 115.572 15.1952 115.165 15.2936C114.748 15.3963 114.307 15.4483 113.863 15.4473C113.433 15.4487 113.006 15.3967 112.604 15.2936C112.215 15.195 111.859 15.0447 111.558 14.852C110.917 14.4402 110.561 13.8688 110.576 13.2747C110.569 12.9696 110.657 12.6668 110.833 12.3853C110.995 12.1279 111.236 11.8959 111.54 11.7041C111.841 11.5151 112.197 11.3689 112.586 11.2743C112.995 11.1748 113.427 11.1249 113.863 11.1269C114.307 11.1262 114.748 11.1782 115.165 11.2806C115.572 11.3793 115.949 11.5269 116.276 11.716C116.603 11.9065 116.869 12.1393 117.057 12.4001C117.448 12.9645 117.448 13.6153 117.057 14.1796V14.1778ZM117.295 11.5698C117.095 11.3947 116.874 11.2306 116.635 11.0791C116.388 10.9226 116.113 10.7865 115.818 10.6735C115.499 10.5541 115.16 10.4613 114.808 10.3974C113.858 10.2293 112.852 10.2658 111.934 10.5018C111.405 10.6374 110.919 10.8395 110.502 11.0971C110.077 11.3635 109.736 11.685 109.502 12.0419C109.245 12.4388 109.118 12.8678 109.13 13.3002C109.117 13.7304 109.244 14.1573 109.502 14.5517C109.969 15.2574 110.841 15.8081 111.921 16.0798C112.452 16.2145 113.016 16.2831 113.583 16.282C114.452 16.282 115.186 16.1512 115.786 15.8895C116.373 15.6363 116.888 15.3166 117.31 14.9447V15.6911C117.31 16.4375 116.998 17 116.374 17.3785C115.75 17.7571 114.913 17.9474 113.862 17.9496C113.206 17.9528 112.554 17.8822 111.934 17.7405C111.318 17.596 110.737 17.3934 110.207 17.1391L109.565 17.8755C110.189 18.1663 110.876 18.39 111.603 18.5385C112.341 18.6874 113.108 18.7618 113.879 18.7593C114.555 18.7651 115.227 18.6988 115.872 18.5628C116.436 18.4432 116.956 18.2446 117.396 17.98C117.827 17.7133 118.16 17.3836 118.368 17.0166C118.607 16.5849 118.723 16.127 118.708 15.6668V10.4285H117.294L117.295 11.5698Z" fill="#F5F5F7"/>
<path fill-rule="evenodd" clip-rule="evenodd" d="M13.212 0.882812C13.9419 0.882812 14.5334 1.27821 14.5334 1.76603C14.5334 2.25379 13.9419 2.64925 13.212 2.64925C12.4823 2.64925 11.8906 2.25379 11.8906 1.76603C11.8906 1.27821 12.4823 0.882812 13.212 0.882812Z" fill="#F5F5F7"/>
<path fill-rule="evenodd" clip-rule="evenodd" d="M2.33924 0.913518C3.04712 0.786695 3.77482 1.06746 3.96456 1.5406C4.15431 2.01375 3.73425 2.50014 3.02637 2.62697C2.31849 2.75379 1.59078 2.47302 1.40104 1.99988C1.2113 1.52673 1.63136 1.04034 2.33924 0.913518Z" fill="#F5F5F7"/>
<path fill-rule="evenodd" clip-rule="evenodd" d="M1.8335 15.1974C2.41092 14.899 3.2408 14.97 3.6871 15.3558C4.13358 15.7418 4.02741 16.2965 3.45008 16.5948C2.87267 16.8932 2.04279 16.8222 1.5964 16.4363C1.15 16.0504 1.25618 15.4957 1.8335 15.1974Z" fill="#F5F5F7"/>
<path fill-rule="evenodd" clip-rule="evenodd" d="M13.212 15.0143C13.9419 15.0143 14.5334 15.4097 14.5334 15.8975C14.5334 16.3853 13.9419 16.7807 13.212 16.7807C12.4823 16.7807 11.8906 16.3853 11.8906 15.8975C11.8906 15.4097 12.4823 15.0143 13.212 15.0143Z" fill="#F5F5F7"/>
<path fill-rule="evenodd" clip-rule="evenodd" d="M13.212 7.94849C13.9419 7.94849 14.5334 8.34395 14.5334 8.83171C14.5334 9.31947 13.9419 9.71493 13.212 9.71493C12.4823 9.71493 11.8906 9.31947 11.8906 8.83171C11.8906 8.34395 12.4823 7.94849 13.212 7.94849Z" fill="#F5F5F7"/>
<path fill-rule="evenodd" clip-rule="evenodd" d="M23.7834 16.7827C23.0537 16.7827 22.462 16.3873 22.462 15.8995C22.462 15.4117 23.0537 15.0163 23.7834 15.0163C24.5133 15.0163 25.1048 15.4117 25.1048 15.8995C25.1033 16.3866 24.5122 16.7809 23.7834 16.7809V16.7827ZM13.2122 10.6002C11.7526 10.6002 10.5694 9.80937 10.5694 8.83372C10.5694 7.85819 11.7526 7.06728 13.2122 7.06728C14.6718 7.06728 15.855 7.85819 15.855 8.83372C15.853 9.80843 14.6705 10.5979 13.2122 10.5983V10.6002ZM2.64099 9.71694C1.91124 9.71694 1.31958 9.32154 1.31958 8.83372C1.31958 8.34596 1.91124 7.9505 2.64099 7.9505C3.37083 7.9505 3.96239 8.34596 3.96239 8.83372C3.96239 9.32154 3.37083 9.71694 2.64099 9.71694ZM23.7834 0.884733C24.5133 0.884733 25.1048 1.28019 25.1048 1.76802C25.1048 2.25578 24.5132 2.65117 23.7834 2.65117C23.0537 2.65117 22.462 2.25578 22.462 1.76802C22.4615 1.28057 23.0523 0.885107 23.7816 0.884733H23.7834ZM23.8458 14.133C23.5204 14.1276 23.1963 14.1625 22.8901 14.2364C22.6478 14.2961 22.3756 14.2566 22.1922 14.135L16.8554 10.5678C16.6517 10.4342 16.6019 10.2274 16.7325 10.0578C17.3384 9.27838 17.3287 8.34913 16.7065 7.57544C16.5648 7.40358 16.6095 7.18981 16.8163 7.05048L22.1121 3.50958C22.3004 3.38518 22.581 3.34711 22.8268 3.41255C24.1869 3.76546 25.7177 3.31465 26.2457 2.40555C26.7739 1.49639 26.0993 0.473289 24.7392 0.120312C23.379 -0.232665 21.8483 0.218213 21.3202 1.12731C21.0814 1.53844 21.0814 1.99442 21.3202 2.40555C21.4183 2.56988 21.3614 2.75747 21.1751 2.88318L15.8792 6.42041C15.6708 6.55849 15.3513 6.5886 15.0938 6.49443C13.1646 5.79973 10.758 6.28189 9.71859 7.5714C9.5911 7.72957 9.48799 7.89601 9.41085 8.06812C9.32859 8.25608 9.07119 8.38564 8.77806 8.38651H5.66719C5.4057 8.38638 5.16905 8.28289 5.06418 8.12285C4.47857 7.22918 2.91997 6.82209 1.58303 7.21357C0.246083 7.60498 -0.362879 8.64669 0.222726 9.54036C0.80833 10.434 2.36684 10.8411 3.70379 10.4496C4.3121 10.2714 4.79776 9.94689 5.06418 9.54036C5.16859 9.37821 5.40691 9.27297 5.67091 9.27222H8.78086C9.07408 9.27297 9.33156 9.40259 9.41364 9.59068C10.0406 10.9949 12.252 11.7936 14.3528 11.3746C14.6323 11.3189 14.9017 11.2427 15.1562 11.1475C15.4146 11.049 15.7396 11.0778 15.9509 11.2178L21.2076 14.7315C21.3979 14.8603 21.4525 15.0533 21.3454 15.2197C21.2024 15.4475 21.1333 15.6929 21.1425 15.9399C21.1763 16.9152 22.3866 17.6876 23.8458 17.6651C25.305 17.6424 26.4605 16.8334 26.4267 15.8581C26.394 14.9146 25.2574 14.1549 23.8458 14.133Z" fill="#F5F5F7"/>
<path fill-rule="evenodd" clip-rule="evenodd" d="M23.7823 7.94849C24.5122 7.94849 25.1037 8.34395 25.1037 8.83171C25.1037 9.31947 24.5122 9.71493 23.7823 9.71493C23.0526 9.71493 22.4609 9.31947 22.4609 8.83171C22.4609 8.34395 23.0526 7.94849 23.7823 7.94849Z" fill="#F5F5F7"/>
</g>
</g>
<defs>
<clipPath id="clip0_626_15597">
<rect width="130" height="19" fill="white"/>
</clipPath>
</defs>
</svg>
