<svg width="99" height="21" viewBox="0 0 99 21" fill="none" xmlns="http://www.w3.org/2000/svg">
<g clip-path="url(#clip0_626_15595)">
<path fill-rule="evenodd" clip-rule="evenodd" d="M13.167 8.37697H17.3415C17.82 8.37697 18.1995 8.63524 18.1995 8.96088V11.8019C18.1995 12.1274 17.82 12.3858 17.3415 12.3858H13.167C12.6885 12.3858 12.309 12.1274 12.309 11.8019V8.96088C12.309 8.63524 12.6885 8.37697 13.167 8.37697ZM0 10.387C0 4.64888 6.831 0 15.2625 0C23.6115 0 30.4095 4.57027 30.525 10.241C30.6405 16.0465 23.595 20.8414 15.0645 20.7627C6.7155 20.6841 0 16.069 0 10.387ZM6.534 16.3609C8.2005 17.4951 11.4675 18.18 15.2625 18.18C19.0575 18.18 22.3245 17.5063 23.991 16.3609C25.6575 15.2268 26.664 13.0034 26.664 10.4207C26.664 7.83797 25.674 5.61459 23.991 4.48044C22.3245 3.34629 19.0575 2.66131 15.2625 2.66131C11.4675 2.66131 8.2005 3.33507 6.534 4.48044C4.8675 5.62582 3.861 7.83797 3.861 10.4207C3.8775 13.0034 4.8675 15.2268 6.534 16.3609ZM8.1015 5.51353C9.2895 4.70503 12.0945 4.18848 15.2625 4.18848C18.4305 4.18848 21.2355 4.70503 22.4235 5.51353C23.6115 6.32203 24.3705 8.23099 24.3705 10.387C24.3705 12.543 23.6115 14.452 22.4235 15.2605C21.2355 16.069 18.4305 16.5855 15.2625 16.5855C12.0945 16.5855 9.2895 16.0576 8.1015 15.2605C6.9135 14.4632 6.1545 12.543 6.1545 10.387C6.1545 8.23099 6.9135 6.32203 8.1015 5.51353ZM10.824 13.3515C11.0715 13.5199 11.814 14.0252 15.2295 14.0252C18.645 14.0252 19.3875 13.5199 19.635 13.3515C19.8825 13.1831 20.625 12.6777 20.625 10.3533C20.625 8.02886 19.8825 7.52355 19.635 7.35511C19.3875 7.18667 18.645 6.68136 15.2295 6.68136C11.814 6.68136 11.0715 7.18667 10.824 7.35511C10.5765 7.52355 9.834 8.02886 9.834 10.3533C9.834 12.6777 10.5765 13.1831 10.824 13.3515Z" fill="#F5F5F7"/>
<mask id="mask0_626_15595" style="mask-type:alpha" maskUnits="userSpaceOnUse" x="0" y="0" width="99" height="21">
<path d="M0 20.7638H98.9835V0.00012207H0V20.7638Z" fill="white"/>
</mask>
<g mask="url(#mask0_626_15595)">
<path fill-rule="evenodd" clip-rule="evenodd" d="M37.6367 13.6884H40.9697V7.32141H37.6367V13.6884Z" fill="#F5F5F7"/>
<path fill-rule="evenodd" clip-rule="evenodd" d="M42.75 13.6883V7.32139H45.39L45.8025 8.0176C46.578 7.45614 47.601 7.16418 48.8715 7.16418C49.9935 7.16418 50.868 7.4 51.5775 7.87162C52.2705 8.33202 52.617 8.92716 52.617 9.65706V13.6883H49.284V10.0389C49.284 9.45494 48.657 9.017 47.8155 9.017C46.776 9.017 46.083 9.52231 46.083 10.2747V13.6771L42.75 13.6883Z" fill="#F5F5F7"/>
<path fill-rule="evenodd" clip-rule="evenodd" d="M53.3789 9.02804V7.32121H54.9464V6.72606C54.9464 6.04108 55.2764 5.50208 55.9034 5.0866C56.5634 4.67112 57.4214 4.46899 58.4609 4.46899C59.2529 4.46899 60.0284 4.53637 60.7872 4.67112L60.3747 6.34427C60.0119 6.29935 59.6489 6.27689 59.2859 6.26566C58.6754 6.26566 58.2794 6.52393 58.2794 6.95064V7.30998H60.2097V9.02804H58.2794V13.6881H54.9464V9.02804H53.3789Z" fill="#F5F5F7"/>
<path fill-rule="evenodd" clip-rule="evenodd" d="M62.1382 8.09621C63.1449 7.46737 64.4152 7.15295 65.9827 7.15295C67.5502 7.15295 68.8374 7.46737 69.8274 8.09621C70.8337 8.71381 71.3287 9.51108 71.3287 10.4992C71.3287 11.4762 70.8337 12.2735 69.8274 12.9023C68.8374 13.5199 67.5502 13.8343 65.9827 13.8343C64.4152 13.8343 63.1449 13.5199 62.1382 12.9023C61.1317 12.2735 60.6367 11.4762 60.6367 10.4992C60.6367 9.53354 61.1317 8.73627 62.1382 8.09621ZM65.9662 12.0938C67.1049 12.0938 67.9132 11.4425 67.9132 10.5105C67.9132 9.56723 67.1049 8.91594 65.9662 8.91594C64.8277 8.91594 64.0357 9.56723 64.0357 10.5105C64.0524 11.4313 64.8442 12.0938 65.9662 12.0938Z" fill="#F5F5F7"/>
<path fill-rule="evenodd" clip-rule="evenodd" d="M72.2852 13.6884V4.62646H75.6182V7.77063C76.3277 7.37761 77.2187 7.15303 78.1262 7.16426C79.3968 7.16426 80.4361 7.47868 81.2446 8.10751C82.0531 8.72511 82.4656 9.52239 82.4656 10.5106C82.4656 11.4875 82.0531 12.2848 81.2446 12.9136C80.4361 13.5312 79.3968 13.8456 78.1262 13.8456C76.9877 13.8456 76.0637 13.5986 75.3543 13.1045L74.9418 13.6996L72.2852 13.6884ZM75.5522 10.8474C75.5522 11.5549 76.2287 12.0714 77.2352 12.0714C78.3077 12.0714 79.0832 11.4313 79.0832 10.5106C79.0832 9.58976 78.3077 8.93847 77.2352 8.93847C76.2287 8.93847 75.5522 9.45501 75.5522 10.1737V10.8474Z" fill="#F5F5F7"/>
<path fill-rule="evenodd" clip-rule="evenodd" d="M85.3545 4.3457C86.493 4.3457 87.2685 4.8847 87.2685 5.64829C87.2685 6.37818 86.493 6.93964 85.3545 6.93964C84.282 6.93964 83.457 6.38941 83.457 5.64829C83.457 4.8847 84.282 4.3457 85.3545 4.3457ZM83.688 13.6884H87.0209V7.32144H83.688V13.6884Z" fill="#F5F5F7"/>
<path fill-rule="evenodd" clip-rule="evenodd" d="M88.8203 16.3609V7.31016H91.4603L91.8728 7.90531C92.5988 7.4 93.5228 7.16418 94.6448 7.16418C95.9153 7.16418 96.9548 7.4786 97.7633 8.10744C98.5718 8.72504 98.9843 9.52231 98.9843 10.5105C98.9843 11.4875 98.5718 12.2847 97.7633 12.9135C96.9548 13.5311 95.9153 13.8457 94.6448 13.8457C93.7208 13.8457 92.8463 13.6322 92.1368 13.2392V16.3609H88.8203ZM92.0873 10.8474C92.0873 11.5548 92.7638 12.0713 93.7703 12.0713C94.8428 12.0713 95.6183 11.4314 95.6183 10.5105C95.6183 9.58969 94.8428 8.93839 93.7703 8.93839C92.7638 8.93839 92.0873 9.45494 92.0873 10.1736V10.8474Z" fill="#F5F5F7"/>
<path fill-rule="evenodd" clip-rule="evenodd" d="M37.6367 6.64769H40.9697V4.37939H37.6367V6.64769Z" fill="#F5F5F7"/>
</g>
</g>
<defs>
<clipPath id="clip0_626_15595">
<rect width="99" height="21" fill="white"/>
</clipPath>
</defs>
</svg>
