<svg width="128" height="33" viewBox="0 0 128 33" fill="none" xmlns="http://www.w3.org/2000/svg">
<g clip-path="url(#clip0_3_654)">
<path d="M26.3726 15.5288C26.1069 13.6486 24.9778 12.3342 24.1642 11.5189C22.8025 10.1546 21.4408 8.77357 20.0626 7.39256C18.4684 5.77863 16.8577 4.18135 15.2635 2.56741C13.2709 0.5708 10.8299 0.00509003 8.18957 0.936842C5.49945 1.88524 3.8057 4.09815 3.75589 6.74366C3.73927 7.59224 3.72266 8.65709 3.72266 9.77186C3.72266 10.2377 3.95513 10.4541 3.95513 10.4541L5.59909 12.1013C5.79837 12.2676 6.1969 12.2011 6.1969 11.9681C6.1969 10.1546 6.21349 8.14129 6.23009 6.7603C6.2633 5.16302 7.29286 3.84857 9.00325 3.24959C10.7468 2.63397 12.1749 2.96674 13.5034 4.2978C15.0975 5.91175 16.7082 7.50904 18.3024 9.12296C19.664 10.504 21.0257 11.8683 22.4039 13.2493C23.3172 14.1644 23.7822 14.9797 23.915 15.8615C24.1143 17.2592 23.7491 18.3906 22.8191 19.3556C21.4408 20.7532 20.0293 22.1675 18.6677 23.5153C16.9407 25.2289 15.1639 27.0092 13.4369 28.7895C12.3908 29.8711 10.7966 30.2871 9.26894 29.8546C7.94048 29.4885 6.94415 28.5567 6.51242 27.342C6.36297 26.9428 5.93121 27.0759 5.81495 27.1756L4.61936 28.3738C4.61936 28.3738 4.51974 28.4901 4.50313 28.6399C4.48653 28.8063 4.50313 28.9394 4.58617 29.0725C5.41645 30.6032 6.82791 31.7346 8.60471 32.2339C9.21911 32.4002 9.85013 32.5 10.4811 32.5C12.2579 32.5 13.9683 31.8011 15.2137 30.52C16.9241 28.7564 18.7009 26.9761 20.4113 25.2623C21.7729 23.898 23.2011 22.4836 24.5793 21.0694C26.0572 19.6052 26.6716 17.6751 26.3726 15.5288Z" fill="#F5F5F7"/>
<path d="M8.65567 21.4851C9.22026 20.9028 9.43614 20.204 9.3199 19.3887C9.23686 18.7731 8.88814 18.2906 8.45639 17.858C7.09473 16.477 5.73308 15.1126 4.35483 13.7316C3.59095 12.9662 2.71086 12.7499 1.68132 13.116C0.684988 13.4654 0.0373707 14.2641 0.0207651 15.2624C-0.0124461 16.7432 0.00414329 19.7215 0.00414329 19.7215C0.00414329 20.9694 0.00414329 22.2172 0.00414329 23.4652C0.00414329 23.8644 0.00414329 24.2804 0.0871713 24.6631C0.518916 26.5765 2.97655 27.1922 4.30499 25.8277C5.76629 24.3802 7.22759 22.9492 8.65567 21.4851Z" fill="#F5F5F7"/>
<path d="M36.4356 23.1823C36.1035 23.1823 35.9375 22.9993 35.9375 22.6831V10.1876C35.9375 9.85488 36.1202 9.68848 36.4356 9.68848H39.8232C43.7918 9.68848 45.8677 12.0012 45.8677 16.4437C45.8677 20.8862 43.7918 23.1988 39.8232 23.1988H36.4356V23.1823ZM43.2606 16.4271C43.2606 13.2491 42.1813 11.735 40.039 11.735H38.4117V21.1524H40.039C42.1813 21.1524 43.2606 19.6217 43.2606 16.4271Z" fill="#F5F5F7"/>
<path d="M57.9906 10.1877V18.7898C57.9906 21.7015 56.1639 23.5317 53.0754 23.5317C49.97 23.5317 48.1602 21.7015 48.1602 18.7898V10.1877C48.1602 9.85492 48.3427 9.68854 48.6583 9.68854H50.1362C50.4684 9.68854 50.6343 9.87156 50.6343 10.1877V18.7399C50.6343 20.5202 51.4811 21.5018 53.0754 21.5018C54.6694 21.5018 55.4996 20.5368 55.4996 18.7399V10.1877C55.4996 9.85492 55.6989 9.68854 56.0145 9.68854H57.4591C57.7913 9.6719 57.9906 9.85492 57.9906 10.1877Z" fill="#F5F5F7"/>
<path d="M60.9961 22.7661V10.2706C60.9961 9.93786 61.1788 9.77148 61.4944 9.77148H63.6033C63.8856 9.77148 64.035 9.92122 64.1844 10.2041L67.4722 16.144L70.6605 10.2041C70.8598 9.8713 70.9262 9.77148 71.2253 9.77148H73.3342C73.6661 9.77148 73.8654 9.9545 73.8654 10.2706V22.7661C73.8654 23.0989 73.6661 23.2653 73.3342 23.2653H72.0056C71.6901 23.2653 71.5075 23.0823 71.5075 22.7661V17.6248C71.5572 16.0276 71.5905 13.0659 71.5905 13.0659L68.8173 18.0741C68.6514 18.3569 68.5516 18.5067 68.2528 18.5067H66.7417C66.4427 18.5067 66.3266 18.3569 66.177 18.0741L63.2877 12.833C63.2877 12.833 63.3707 16.0276 63.3707 17.6248V22.7661C63.3707 23.0989 63.1882 23.2653 62.8726 23.2653H61.5441C61.1788 23.2653 60.9961 23.0823 60.9961 22.7661Z" fill="#F5F5F7"/>
<path d="M77.0391 22.6831V10.1876C77.0391 9.85488 77.2218 9.68848 77.5372 9.68848H80.7588C84.3289 9.68848 86.3383 11.2525 86.3383 14.0145C86.3383 16.843 84.3289 18.4902 80.7753 18.4902H79.5132V22.6831C79.5132 23.0159 79.3307 23.1823 79.0151 23.1823H77.5372C77.2218 23.1823 77.0391 23.0159 77.0391 22.6831ZM80.9912 16.6101C82.8843 16.6101 83.7975 15.7449 83.7975 14.0311C83.7975 12.4338 82.8843 11.5686 81.124 11.5686H79.5132V16.6101H80.9912Z" fill="#F5F5F7"/>
<path d="M88.928 23.1823C88.5959 23.1823 88.4297 22.9993 88.4297 22.6831V10.1876C88.4297 9.85488 88.6124 9.68848 88.928 9.68848H92.3156C96.2842 9.68848 98.3598 12.0012 98.3598 16.4437C98.3598 20.8862 96.2842 23.1988 92.3156 23.1988H88.928V23.1823ZM95.7528 16.4271C95.7528 13.2491 94.6734 11.735 92.5314 11.735H90.9041V21.1524H92.5314C94.6734 21.1524 95.7528 19.6217 95.7528 16.4271Z" fill="#F5F5F7"/>
<path d="M98.6403 22.6167L102.476 10.1045C102.559 9.82161 102.758 9.67188 103.057 9.67188H105.282C105.565 9.67188 105.781 9.80497 105.864 10.1045L109.7 22.6167C109.799 22.966 109.617 23.1823 109.268 23.1823H107.723C107.441 23.1823 107.225 23.0658 107.159 22.7498L106.412 20.0376H101.895L101.148 22.7498C101.065 23.0658 100.882 23.1823 100.583 23.1823H99.072C98.7065 23.1823 98.524 22.966 98.6403 22.6167ZM105.93 18.1575L104.17 11.6186H104.137L102.376 18.1575H105.93Z" fill="#F5F5F7"/>
<path d="M112.025 22.6831V18.1075L108.023 10.2875C107.84 9.92141 107.99 9.68848 108.371 9.68848H109.966C110.265 9.68848 110.447 9.8216 110.564 10.0545L113.27 15.9113L116.043 10.0545C116.16 9.8216 116.359 9.68848 116.625 9.68848H118.169C118.551 9.68848 118.717 9.92141 118.534 10.2875L114.499 18.1075V22.6831C114.499 23.0159 114.3 23.1823 114.001 23.1823H112.523C112.191 23.1823 112.025 23.0159 112.025 22.6831Z" fill="#F5F5F7"/>
<path d="M118.701 21.8851C118.469 21.702 118.452 21.4525 118.618 21.2029L119.183 20.3543C119.365 20.0881 119.598 20.0548 119.863 20.2711C120.744 20.9367 121.972 21.3859 122.969 21.3859C124.53 21.3859 125.426 20.6871 125.46 19.5557C125.476 18.0083 124.38 17.6589 122.62 17.0932C120.843 16.4942 118.867 15.7122 118.867 13.2497C118.867 10.937 120.644 9.42285 123.4 9.42285C124.696 9.42285 126.107 9.83883 127.087 10.4877C127.352 10.6541 127.386 10.9203 127.203 11.1865L126.655 11.9852C126.489 12.2348 126.257 12.2847 125.974 12.1183C125.227 11.6524 124.297 11.3862 123.517 11.3862C122.188 11.3862 121.375 12.0185 121.375 13.0334C121.375 14.2147 122.354 14.5808 123.965 15.1132C125.808 15.6789 128 16.411 128 19.2895C128 21.8019 125.924 23.3325 123.068 23.3325C121.491 23.3826 119.847 22.8167 118.701 21.8851Z" fill="#F5F5F7"/>
</g>
<defs>
<clipPath id="clip0_3_654">
<rect width="128" height="32" fill="white" transform="translate(0 0.5)"/>
</clipPath>
</defs>
</svg>
