<svg width="24" height="29" viewBox="0 0 24 29" fill="none" xmlns="http://www.w3.org/2000/svg">
<path d="M23.9147 13.6162C23.663 12.2321 22.958 10.968 21.908 10.0186L18.1855 6.32323C16.7353 4.88264 15.2832 3.44204 13.8291 2.00145C13.0362 1.14872 12.0011 0.552549 10.8594 0.291044C9.71778 0.0295398 8.52279 0.114903 7.43107 0.535949C6.29768 0.876707 5.29991 1.55794 4.57648 2.48492C3.85305 3.4119 3.43991 4.53858 3.39451 5.7083C3.39451 6.47265 3.39451 7.43241 3.39451 8.42665C3.36434 8.65565 3.42248 8.88748 3.55737 9.07607L5.06381 10.5473C5.2383 10.6967 5.61055 10.6393 5.60473 10.4324C5.60473 8.80021 5.60473 6.98414 5.63963 5.76577C5.66969 5.04529 5.93026 4.3528 6.38385 3.78791C6.83745 3.22303 7.46069 2.81486 8.16393 2.62213C8.85698 2.34106 9.62142 2.28024 10.3511 2.44811C11.0807 2.61599 11.7393 3.00423 12.2354 3.5589L16.5918 7.88643L20.3143 11.576C21.0325 12.1872 21.5221 13.019 21.7044 13.9381C21.8098 14.5003 21.7736 15.0795 21.5992 15.6247C21.4247 16.1698 21.1173 16.6643 20.704 17.0645C19.4593 18.3173 18.1797 19.5759 16.935 20.8001C15.3704 22.3403 13.7476 23.9322 12.1772 25.5299C11.6923 26.0104 11.0851 26.3526 10.4197 26.5205C9.75426 26.6884 9.05532 26.6758 8.39659 26.4839C7.82562 26.335 7.29927 26.0526 6.86195 25.6605C6.42464 25.2684 6.08919 24.7781 5.88391 24.231C5.86097 24.1724 5.82387 24.1203 5.77583 24.0791C5.7278 24.0379 5.6703 24.009 5.60834 23.9948C5.54639 23.9806 5.48187 23.9817 5.42041 23.9978C5.35895 24.0139 5.30242 24.0447 5.25575 24.0874L4.1739 25.1563C4.11346 25.2269 4.07329 25.3123 4.05758 25.4034C4.03488 25.5385 4.06169 25.677 4.13319 25.7942C4.51803 26.4859 5.04055 27.0935 5.66928 27.5805C6.29802 28.0674 7.01997 28.4236 7.79168 28.6275C8.34455 28.7803 8.91598 28.8577 9.49006 28.8574C10.2913 28.8615 11.0852 28.7064 11.8246 28.4013C12.564 28.0962 13.2338 27.6474 13.7942 27.0816C15.353 25.4954 16.9641 23.9092 18.5287 22.3747C19.7734 21.1506 21.0588 19.8863 22.3152 18.6219C22.9673 17.9747 23.4529 17.1823 23.7313 16.3114C24.0096 15.4404 24.0725 14.5162 23.9147 13.6162Z" fill="#F5F5F7"/>
<path d="M7.83868 18.9669C8.08059 18.7236 8.25972 18.4264 8.36095 18.1003C8.46218 17.7742 8.48254 17.4289 8.42031 17.0934C8.32823 16.5657 8.06243 16.0829 7.66419 15.7198L3.94171 12.0187C3.64637 11.688 3.25499 11.4554 2.82094 11.3526C2.38688 11.2497 1.93129 11.2817 1.51628 11.444C1.08249 11.5689 0.701043 11.8287 0.428603 12.1849C0.156163 12.5411 0.00726558 12.9746 0.00402886 13.421C0.00402886 14.7543 0.00402886 17.4439 0.00402886 17.4439C0.00402886 18.5646 0.00402886 19.6796 0.00402886 20.8002C-0.00971351 21.1444 0.0117215 21.489 0.0680087 21.8289C0.168395 22.2158 0.370548 22.5696 0.653962 22.8543C0.937375 23.139 1.29197 23.3447 1.68177 23.4503C2.07156 23.5559 2.4827 23.5578 2.87347 23.4557C3.26424 23.3537 3.62074 23.1513 3.90681 22.8692C5.19805 21.5531 6.52999 20.2772 7.83286 18.9669" fill="#F5F5F7"/>
</svg>
