<svg width="264" height="54" viewBox="0 0 264 54" fill="none" xmlns="http://www.w3.org/2000/svg">
<path fill-rule="evenodd" clip-rule="evenodd" d="M8 23.6055C9.53735 23.1786 11.521 22.7812 13.9483 22.4122C16.3757 22.0431 18.925 21.8593 21.5962 21.8593C24.3063 21.8593 26.5634 22.2 28.3635 22.8777C30.1636 23.5566 31.5897 24.5185 32.6418 25.7593C33.694 27.0028 34.4419 28.4764 34.8882 30.1853C35.3318 31.8943 35.5557 33.7961 35.5557 35.8921V53.1861H26.5125V36.9388C26.5125 34.1446 26.1278 32.1643 25.3598 30.9993C24.5905 29.8343 23.1537 29.2531 21.0507 29.2531C20.4033 29.2531 19.7157 29.2827 18.9866 29.3405C18.2588 29.3984 17.6101 29.4665 17.0445 29.5437V53.1847H8V23.6055Z" fill="#F5F5F7"/>
<path fill-rule="evenodd" clip-rule="evenodd" d="M61.2896 34.785C61.2481 34.0483 61.1167 33.3295 60.8942 32.6311C60.6717 31.9329 60.3273 31.3118 59.8622 30.7679C59.3971 30.2252 58.8087 29.7777 58.101 29.428C57.3933 29.0782 56.5127 28.9046 55.4606 28.9046C54.4486 28.9046 53.5788 29.0705 52.851 29.3997C52.1232 29.7301 51.516 30.1661 51.0308 30.71C50.5456 31.2539 50.1703 31.884 49.9076 32.6028C49.6436 33.3216 49.4519 34.0494 49.3313 34.7862H61.2896V34.785ZM40.0469 38.1039C40.0469 35.3869 40.4811 33.0091 41.351 30.971C42.2209 28.9329 43.3628 27.2355 44.7809 25.8764C46.1963 24.5185 47.8248 23.4898 49.6664 22.7902C51.508 22.092 53.3992 21.7422 55.3413 21.7422C59.8729 21.7422 63.4529 23.0719 66.0839 25.7311C68.7137 28.3903 70.0285 32.3019 70.0285 37.4634C70.0285 37.9688 70.0084 38.5219 69.9682 39.1235C69.928 39.7253 69.8864 40.259 69.8476 40.7244H49.3326C49.5337 42.5092 50.4035 43.9277 51.9422 44.9743C53.4796 46.0224 55.5437 46.5469 58.1318 46.5469C59.7911 46.5469 61.4196 46.4016 63.0186 46.1097C64.6163 45.8192 65.9218 45.4605 66.9324 45.0321L68.1467 52.0775C67.6615 52.3102 67.0141 52.5431 66.2046 52.7757C65.395 53.0085 64.4943 53.2131 63.5038 53.3878C62.512 53.5627 61.4491 53.708 60.3179 53.825C59.184 53.9407 58.0514 54 56.9188 54C54.0452 54 51.5482 53.5923 49.4238 52.777C47.2994 51.9618 45.5395 50.8469 44.1442 49.43C42.7476 48.0128 41.7169 46.3347 41.0494 44.3931C40.3806 42.4514 40.0469 40.3554 40.0469 38.1039Z" fill="#F5F5F7"/>
<path fill-rule="evenodd" clip-rule="evenodd" d="M74.5209 14.9296L83.564 13.5319V23.5862H94.4273V30.8064H83.564V40.5495C83.564 42.3742 83.8978 43.8298 84.5652 44.9164C85.2327 46.0043 86.5771 46.5468 88.601 46.5468C89.5714 46.5468 90.5739 46.4595 91.6046 46.2846C92.6367 46.1097 93.5776 45.868 94.4273 45.5568L95.702 52.3102C94.6096 52.7384 93.3953 53.1062 92.0603 53.4161C90.7254 53.7259 89.0862 53.8814 87.144 53.8814C84.6752 53.8814 82.6325 53.5614 81.0134 52.921C79.3943 52.2807 78.1009 51.3882 77.1291 50.2425C76.1587 49.0981 75.4805 47.7092 75.0959 46.0788C74.7112 44.4483 74.5195 42.643 74.5195 40.6639V14.9296H74.5209Z" fill="#F5F5F7"/>
<path fill-rule="evenodd" clip-rule="evenodd" d="M117.787 36.9388C117.787 34.1447 117.412 32.1643 116.664 30.9993C115.914 29.8343 114.63 29.2531 112.81 29.2531C112.243 29.2531 111.658 29.2827 111.05 29.3405C110.443 29.3984 109.856 29.4665 109.289 29.5437V53.1846H100.246V23.6055C101.014 23.4113 101.915 23.2081 102.947 22.9934C103.979 22.7812 105.071 22.5858 106.224 22.4109C107.377 22.236 108.56 22.101 109.774 22.0033C110.989 21.9068 112.182 21.858 113.356 21.858C115.662 21.858 117.534 22.1396 118.97 22.7028C120.406 23.266 121.589 23.936 122.521 24.7113C123.816 23.8189 125.302 23.1207 126.981 22.6154C128.66 22.1113 130.208 21.858 131.624 21.858C134.174 21.858 136.267 22.1987 137.906 22.8764C139.545 23.5553 140.85 24.5172 141.82 25.7581C142.791 27.0015 143.459 28.4751 143.823 30.1841C144.187 31.893 144.369 33.7948 144.369 35.8909V53.1846H135.326V36.9388C135.326 34.1447 134.951 32.1643 134.203 30.9993C133.454 29.8343 132.17 29.2531 130.35 29.2531C129.864 29.2531 129.186 29.3701 128.316 29.6028C127.445 29.8356 126.728 30.1275 126.161 30.476C126.444 31.3696 126.626 32.3096 126.707 33.2998C126.788 34.2899 126.829 35.3482 126.829 36.4733V53.1846H117.787V36.9388Z" fill="#F5F5F7"/>
<path fill-rule="evenodd" clip-rule="evenodd" d="M169.441 34.785C169.4 34.0483 169.269 33.3295 169.047 32.6311C168.824 31.9329 168.48 31.3118 168.014 30.7679C167.549 30.2252 166.962 29.7777 166.255 29.428C165.547 29.0782 164.666 28.9046 163.614 28.9046C162.602 28.9046 161.732 29.0705 161.005 29.3997C160.277 29.7301 159.67 30.1661 159.183 30.71C158.698 31.2539 158.324 31.884 158.061 32.6028C157.797 33.3216 157.606 34.0494 157.484 34.7862H169.441V34.785ZM148.199 38.1039C148.199 35.3869 148.633 33.0091 149.505 30.971C150.375 28.9329 151.517 27.2355 152.933 25.8764C154.348 24.5185 155.977 23.4898 157.82 22.7902C159.66 22.092 161.553 21.7422 163.495 21.7422C168.025 21.7422 171.607 23.0719 174.238 25.7311C176.866 28.3903 178.182 32.3019 178.182 37.4634C178.182 37.9688 178.162 38.5219 178.122 39.1235C178.082 39.7253 178.04 40.259 178 40.7244H157.486C157.689 42.5092 158.559 43.9277 160.096 44.9743C161.633 46.0224 163.697 46.5469 166.287 46.5469C167.946 46.5469 169.575 46.4016 171.174 46.1097C172.771 45.8192 174.077 45.4605 175.087 45.0321L176.302 52.0775C175.816 52.3102 175.168 52.5431 174.359 52.7757C173.55 53.0085 172.649 53.2131 171.659 53.3878C170.667 53.5627 169.604 53.708 168.472 53.825C167.339 53.9407 166.205 54 165.072 54C162.199 54 159.702 53.5923 157.577 52.777C155.453 51.9618 153.693 50.8469 152.298 49.43C150.901 48.0128 149.869 46.3347 149.203 44.3931C148.533 42.4514 148.199 40.3554 148.199 38.1039Z" fill="#F5F5F7"/>
<path fill-rule="evenodd" clip-rule="evenodd" d="M190.681 37.6383C190.681 40.3168 191.308 42.4707 192.563 44.1012C193.816 45.7315 195.678 46.5468 198.147 46.5468C198.956 46.5468 199.704 46.5173 200.393 46.4595C201.081 46.4003 201.646 46.3335 202.093 46.255V30.4759C201.526 30.1262 200.787 29.8356 199.877 29.6028C198.967 29.3701 198.046 29.2531 197.115 29.2531C192.826 29.2531 190.681 32.0485 190.681 37.6383ZM211.136 52.1958C210.326 52.4285 209.395 52.6523 208.344 52.8657C207.292 53.0792 206.188 53.2631 205.036 53.4187C203.883 53.5743 202.709 53.7003 201.516 53.798C200.322 53.8944 199.18 53.9433 198.086 53.9433C195.455 53.9433 193.11 53.5743 191.047 52.8374C188.983 52.1006 187.243 51.0424 185.828 49.665C184.411 48.2879 183.328 46.6176 182.58 44.658C181.831 42.6983 181.457 40.4943 181.457 38.0484C181.457 35.5642 181.781 33.3228 182.429 31.3233C183.075 29.3251 184.006 27.6264 185.221 26.2287C186.435 24.8309 187.921 23.7636 189.681 23.0255C191.441 22.2887 193.454 21.9197 195.719 21.9197C196.972 21.9197 198.096 22.0367 199.088 22.2694C200.078 22.5022 201.081 22.8327 202.093 23.2596V9.39775L211.136 8V52.1958Z" fill="#F5F5F7"/>
<path fill-rule="evenodd" clip-rule="evenodd" d="M225.83 13.1242C225.83 14.7162 225.294 15.9686 224.222 16.8803C223.15 17.7933 221.886 18.2485 220.429 18.2485C218.972 18.2485 217.707 17.792 216.636 16.8803C215.563 15.9686 215.027 14.7162 215.027 13.1242C215.027 11.5323 215.563 10.2812 216.636 9.36818C217.707 8.45649 218.972 8 220.429 8C221.886 8 223.15 8.45649 224.222 9.36818C225.294 10.2812 225.83 11.5323 225.83 13.1242Z" fill="#F5F5F7"/>
<path fill-rule="evenodd" clip-rule="evenodd" d="M224.981 53.1847H215.938V24.9172L224.981 23.5709V53.1847Z" fill="#F5F5F7"/>
<path fill-rule="evenodd" clip-rule="evenodd" d="M242.734 47.1294C243.623 47.1294 244.474 47.1103 245.284 47.0703C246.092 47.0317 246.741 46.9738 247.226 46.8967V40.317C246.861 40.2397 246.316 40.1614 245.586 40.0841C244.859 40.0069 244.19 39.9671 243.583 39.9671C242.733 39.9671 241.934 40.0172 241.185 40.1125C240.436 40.2089 239.779 40.394 239.212 40.6653C238.645 40.938 238.2 41.3057 237.877 41.7712C237.552 42.2366 237.392 42.8192 237.392 43.5187C237.392 44.8779 237.866 45.8193 238.818 46.3425C239.769 46.8671 241.075 47.1294 242.734 47.1294ZM242.005 21.7422C244.675 21.7422 246.9 22.0341 248.681 22.6154C250.461 23.1979 251.887 24.0324 252.959 25.119C254.03 26.2055 254.789 27.5261 255.235 29.0782C255.68 30.6316 255.903 32.3585 255.903 34.2603V52.3115C254.608 52.5829 252.808 52.9043 250.501 53.2722C248.196 53.6413 245.403 53.8263 242.126 53.8263C240.063 53.8263 238.191 53.6514 236.512 53.303C234.833 52.9532 233.387 52.381 232.172 51.585C230.958 50.7903 230.027 49.7515 229.381 48.4693C228.733 47.1886 228.41 45.6159 228.41 43.7527C228.41 41.9679 228.784 40.4544 229.533 39.211C230.281 37.9688 231.283 36.9788 232.537 36.2419C233.79 35.5052 235.227 34.9714 236.846 34.6409C238.464 34.3118 240.143 34.1459 241.883 34.1459C243.056 34.1459 244.099 34.1947 245.009 34.2912C245.919 34.3889 246.657 34.5149 247.224 34.6694V33.854C247.224 32.3791 246.759 31.1961 245.828 30.3024C244.896 29.41 243.278 28.9625 240.973 28.9625C239.434 28.9625 237.917 29.0705 236.42 29.2827C234.923 29.4961 233.628 29.7983 232.536 30.1854L231.383 23.1979C231.908 23.0436 232.567 22.8777 233.356 22.7028C234.145 22.5279 235.003 22.3736 235.935 22.2373C236.865 22.1023 237.846 21.9853 238.879 21.8876C239.911 21.7911 240.953 21.7422 242.005 21.7422Z" fill="#F5F5F7"/>
</svg>
