<svg width="136" height="12" viewBox="0 0 136 12" fill="none" xmlns="http://www.w3.org/2000/svg">
<g clip-path="url(#clip0_626_15308)">
<path fill-rule="evenodd" clip-rule="evenodd" d="M55.4547 8.85349L56.5036 4.10761H52.9297L53.1616 3.06909H62.2283L61.9964 4.10761H58.4277L57.3787 8.85349H55.4547Z" fill="#F5F5F7"/>
<path fill-rule="evenodd" clip-rule="evenodd" d="M87.0595 5.85206H90.3752C91.2803 5.84011 92.0409 5.48104 92.1832 4.99849C92.237 4.77343 92.1105 4.54666 91.8353 4.37538C91.5575 4.21035 91.1616 4.11817 90.7494 4.12187H87.4438L87.0595 5.85206ZM91.324 8.85381L91.44 8.33569C91.5812 7.79509 91.2138 7.25164 90.459 6.88774H86.8276L86.3948 8.85096H84.4766L85.7522 3.06628H90.9919C91.897 3.06059 92.761 3.26829 93.3582 3.63533C93.9491 4.00549 94.218 4.49459 94.0967 4.97857C93.9576 5.56356 93.3872 6.09391 92.5153 6.44957V6.46635C93.2264 7.0061 93.5316 7.67132 93.3693 8.32715L93.2533 8.85096L91.324 8.85381Z" fill="#F5F5F7"/>
<path fill-rule="evenodd" clip-rule="evenodd" d="M80.1332 8.85365L80.2439 8.33582C80.4273 7.65409 79.7932 6.98461 78.6625 6.66565C77.9261 6.80991 77.1486 6.88616 76.3647 6.89043H76.1744L76.1323 6.91034L75.7 8.8565H73.7812L75.0569 3.0721H76.9815L76.3647 5.84878H76.6172C78.9972 5.81777 80.9834 4.85977 81.3087 3.58709L81.4247 3.06641H83.3492L83.2327 3.5814C82.9902 4.54679 82.0693 5.42484 80.6603 6.03401L80.6239 6.05079L80.6603 6.06815C81.8327 6.63777 82.4035 7.48452 82.1842 8.327L82.0736 8.85081L80.1332 8.85365Z" fill="#F5F5F7"/>
<path fill-rule="evenodd" clip-rule="evenodd" d="M117.035 8.85349L118.317 3.06909H120.235L118.959 8.85349H117.035Z" fill="#F5F5F7"/>
<path fill-rule="evenodd" clip-rule="evenodd" d="M122.754 3.06917L121.499 8.75968C121.273 9.62634 119.921 10.2785 118.3 10.3018L118.062 11.3403C120.781 11.3025 123.05 10.2082 123.423 8.7537L124.677 3.06348L122.754 3.06917Z" fill="#F5F5F7"/>
<path fill-rule="evenodd" clip-rule="evenodd" d="M101.183 4.10773C99.7513 4.12679 98.5557 4.70239 98.3575 5.46776L98.1572 6.38393H103.212L103.412 5.47345C103.503 5.12519 103.311 4.77238 102.885 4.50607C102.453 4.24544 101.831 4.10005 101.183 4.10773ZM102.669 8.85362L102.986 7.43099H97.93L97.6137 8.85362H95.6797L96.4277 5.47345C96.7735 4.12167 98.882 3.10393 101.41 3.06921C102.542 3.05783 103.629 3.3122 104.387 3.7663C105.146 4.23463 105.489 4.85774 105.326 5.47345L104.577 8.85931L102.669 8.85362Z" fill="#F5F5F7"/>
<path fill-rule="evenodd" clip-rule="evenodd" d="M131.293 4.10773C129.863 4.12679 128.669 4.70267 128.473 5.46776L128.274 6.38394H133.323L133.523 5.47345C133.704 4.82388 132.875 4.21813 131.672 4.12054C131.547 4.11058 131.42 4.10631 131.293 4.10773ZM132.78 8.85362L133.097 7.43099H128.041L127.725 8.85362H125.801L126.549 5.47345C126.896 4.12338 129.001 3.1062 131.525 3.06921C132.657 3.05783 133.742 3.3122 134.498 3.7663C135.257 4.23463 135.599 4.85774 135.437 5.47345L134.688 8.85362H132.78Z" fill="#F5F5F7"/>
<path fill-rule="evenodd" clip-rule="evenodd" d="M111.023 8.85374C109.887 8.86655 108.796 8.6119 108.034 8.15666C107.282 7.68662 106.946 7.06379 107.112 6.4495L107.327 5.46789C107.667 4.11412 109.78 3.09466 112.309 3.06365C113.448 3.05142 114.539 3.30806 115.298 3.76643L115.899 4.13062L114.37 4.86754L113.775 4.5005C113.34 4.24102 112.719 4.09591 112.072 4.10217C110.64 4.12009 109.445 4.69654 109.252 5.4622L109.031 6.4495C108.942 6.79691 109.133 7.1483 109.558 7.41376C109.989 7.67552 110.612 7.82234 111.26 7.81523C111.954 7.81039 112.619 7.6687 113.132 7.41689L113.89 7.04985L115.087 7.7808L114.328 8.15666C113.423 8.6008 112.246 8.84891 111.023 8.85374Z" fill="#F5F5F7"/>
<path fill-rule="evenodd" clip-rule="evenodd" d="M68.0829 4.10762C67.3897 4.11189 66.7234 4.25386 66.2115 4.50595C65.6886 4.75349 65.3491 5.09521 65.2574 5.46765L65.036 6.44926C64.9496 6.79667 65.1415 7.14749 65.5632 7.4138C65.9959 7.675 66.6174 7.82124 67.2658 7.81498C67.959 7.81043 68.6253 7.66874 69.1371 7.41665C69.66 7.16911 69.9974 6.82711 70.086 6.45495L70.3021 5.47334C70.4887 4.82747 69.67 4.222 68.474 4.12127C68.3427 4.11018 68.2099 4.10563 68.0776 4.10762H68.0829ZM67.0286 8.8535C65.8958 8.8646 64.8099 8.61052 64.0503 8.15641C63.297 7.68695 62.9586 7.06384 63.1225 6.44926L63.3387 5.46765C63.4936 4.80698 64.0919 4.19952 65.0202 3.7605C65.9253 3.3155 67.1013 3.06512 68.3253 3.05772C69.4624 3.04662 70.5514 3.30298 71.3089 3.7605C72.0643 4.22939 72.4032 4.85279 72.2367 5.46765L72.01 6.44926C71.8576 7.1105 71.2588 7.71824 70.3284 8.15641C69.4255 8.60084 68.25 8.84895 67.0286 8.8535Z" fill="#F5F5F7"/>
<path fill-rule="evenodd" clip-rule="evenodd" d="M42.5078 8.85349L43.7835 3.06909H51.079L50.847 4.10761H45.4756L45.1804 5.44203H49.9667L49.7401 6.47742H44.9537L44.6585 7.81498H50.03L49.798 8.85349H42.5078Z" fill="#F5F5F7"/>
<path fill-rule="evenodd" clip-rule="evenodd" d="M33.037 5.0124L32.1883 8.85349H30.2695L31.561 3.06909H33.2215L38.4822 6.91019L39.3309 3.06909H41.2339L39.9582 8.85349H38.2977L33.037 5.0124Z" fill="#F5F5F7"/>
<path fill-rule="evenodd" clip-rule="evenodd" d="M19.1981 5.40522C17.6853 5.28572 15.8719 4.79064 14.1219 4.31549C13.1519 4.05088 12.1715 3.78627 11.1857 3.56434C10.9433 3.07552 10.0129 2.78531 9.10673 2.91619C8.85845 2.95204 8.62862 3.01805 8.43411 3.1091C8.22326 3.09203 8.0124 3.07211 7.80155 3.06357C5.89333 2.98106 4.87597 3.11194 3.52647 3.63262C3.52647 3.63262 3.46853 1.44462 7.84372 1.52145C9.65178 1.55274 11.8078 2.18439 13.8899 2.79327C16.1829 3.46191 18.3705 4.10494 20.3947 4.08502C21.4058 4.07506 22.3815 3.88045 23.1622 3.53304C23.1727 3.51597 22.9355 5.69828 19.1981 5.40522ZM18.7501 7.76678C18.4143 7.74828 18.0812 7.71699 17.7538 7.67289C17.4507 7.19062 16.4802 6.93255 15.5873 7.09615C15.4576 7.12005 15.3337 7.15249 15.2183 7.19204C14.5752 7.04408 13.9216 6.87906 13.2732 6.71404C11.3386 6.22465 9.3355 5.7182 7.47473 5.57593C5.90546 5.4257 4.29033 5.6206 2.98884 6.11653C2.98884 6.09377 3.03101 3.84033 7.42202 4.0395C7.5907 4.0395 7.75938 4.06226 7.94915 4.07933C8.2222 4.56501 9.17262 4.8393 10.0724 4.69191C10.2675 4.66005 10.4493 4.60968 10.6112 4.54311C11.4493 4.73943 12.3085 4.96989 13.1519 5.20036C15.018 5.70682 16.9473 6.23319 18.7237 6.37545C20.0242 6.52027 21.3784 6.37431 22.4769 5.97142L22.6719 5.89176C22.635 5.88038 22.635 7.95172 18.7501 7.76678ZM18.2967 10.1283C16.5309 10.0999 14.396 9.59599 12.3296 9.10974C9.16682 8.35859 6.1569 7.61029 3.39473 8.27608C3.04471 8.36201 2.7142 8.46899 2.40899 8.59475C2.40899 8.56914 2.55659 6.25282 6.96341 6.56324C8.59225 6.67961 10.4794 7.15789 12.3033 7.61883C13.0149 7.80092 13.7371 7.98017 14.454 8.1452C14.6079 8.58251 15.3163 8.89862 16.1408 8.89919C16.5646 8.89834 16.9726 8.81241 17.2847 8.65734C17.632 8.70059 17.9842 8.73189 18.3389 8.75124C19.6647 8.86049 21.0167 8.68352 22.1026 8.25901C22.0868 8.31563 22.1185 10.1938 18.2967 10.1283ZM23.8685 0.5L23.6682 1.38487C23.4616 2.05266 22.7215 2.63735 21.644 2.98391C20.0205 3.39931 17.427 2.64532 14.96 1.91978C12.7091 1.26253 10.3845 0.579667 8.17054 0.542679C6.54065 0.483782 4.93132 0.764893 3.67411 1.32797C2.58453 1.85206 1.90136 2.57846 1.76062 3.36233L0 11.0957H1.8186L1.9662 10.4527C2.22028 9.8791 2.95774 9.40308 3.95876 9.16664C5.83535 8.71425 8.66605 9.38004 11.4019 10.0202C13.6105 10.5409 15.893 11.0784 17.9857 11.1128H18.3916C19.7126 11.1282 20.9993 10.8869 22.0183 10.4328C23.1284 9.88137 23.8069 9.12226 23.916 8.31022L25.6819 0.508536L23.8685 0.5Z" fill="#F5F5F7"/>
</g>
<defs>
<clipPath id="clip0_626_15308">
<rect width="136" height="11" fill="white" transform="translate(0 0.5)"/>
</clipPath>
</defs>
</svg>
