<svg width="24" height="25" viewBox="0 0 24 25" fill="none" xmlns="http://www.w3.org/2000/svg">
<path fill-rule="evenodd" clip-rule="evenodd" d="M12.5 23.584H1.5C0.947715 23.584 0.5 23.1363 0.5 22.584V1.58398C0.5 1.0317 0.947715 0.583984 1.5 0.583984H22.5C23.0523 0.583984 23.5 1.0317 23.5 1.58398V22.584C23.5 23.1363 23.0523 23.584 22.5 23.584H16.5V14.584H19.059C19.3126 14.5859 19.5276 14.3977 19.559 14.146L19.934 11.146C19.9519 11.003 19.9072 10.8593 19.8114 10.7516C19.7156 10.644 19.5781 10.5829 19.434 10.584H16.5V9.26898C16.5011 8.33845 17.2555 7.58454 18.186 7.58398H20C20.2761 7.58398 20.5 7.36013 20.5 7.08398V4.08398C20.5 3.80784 20.2761 3.58398 20 3.58398H18.186C15.0475 3.58729 12.5039 6.13046 12.5 9.26898V10.584H10C9.72386 10.584 9.5 10.8078 9.5 11.084V14.084C9.5 14.3601 9.72386 14.584 10 14.584H12.5V23.584Z" stroke="#F5F5F7" stroke-linecap="round" stroke-linejoin="round"/>
</svg>
