<svg width="24" height="25" viewBox="0 0 24 25" fill="none" xmlns="http://www.w3.org/2000/svg">
<path d="M6.5 22.8828V23.3828C6.77614 23.3828 7 23.159 7 22.8828H6.5ZM1.5 22.8828H1C1 23.159 1.22386 23.3828 1.5 23.3828V22.8828ZM1.5 9.88281V9.38281C1.22386 9.38281 1 9.60667 1 9.88281H1.5ZM6.5 9.88281H7C7 9.60667 6.77614 9.38281 6.5 9.38281V9.88281ZM13.5 22.8828V23.3828C13.7761 23.3828 14 23.159 14 22.8828H13.5ZM8.5 22.8828H8C8 23.159 8.22386 23.3828 8.5 23.3828V22.8828ZM8.5 9.88281V9.38281C8.22386 9.38281 8 9.60667 8 9.88281H8.5ZM13.5 9.88281H14C14 9.60667 13.7761 9.38281 13.5 9.38281V9.88281ZM13.5 11.3678H13C13 11.5626 13.1131 11.7396 13.2898 11.8215C13.4665 11.9034 13.6747 11.8752 13.8233 11.7492L13.5 11.3678ZM17.49 9.87281V9.37276L17.483 9.37286L17.49 9.87281ZM22.5 22.8828V23.3828C22.7761 23.3828 23 23.159 23 22.8828H22.5ZM17.5 22.8828H17C17 23.159 17.2239 23.3828 17.5 23.3828V22.8828ZM6.5 22.3828H1.5V23.3828H6.5V22.3828ZM2 22.8828V9.88281H1V22.8828H2ZM1.5 10.3828H6.5V9.38281H1.5V10.3828ZM6 9.88281V22.8828H7V9.88281H6ZM15.5 13.3828C14.1193 13.3828 13 14.5021 13 15.8828H14C14 15.0544 14.6716 14.3828 15.5 14.3828V13.3828ZM13 15.8828V22.8828H14V15.8828H13ZM13.5 22.3828H8.5V23.3828H13.5V22.3828ZM9 22.8828V9.88281H8V22.8828H9ZM8.5 10.3828H13.5V9.38281H8.5V10.3828ZM13 9.88281V11.3678H14V9.88281H13ZM13.8233 11.7492C14.8511 10.8781 16.1498 10.3915 17.497 10.3728L17.483 9.37286C15.9039 9.39486 14.3815 9.96527 13.1767 10.9864L13.8233 11.7492ZM17.49 10.3728C18.8378 10.3728 19.9426 10.868 20.7201 11.8104C21.5066 12.7638 22 14.2268 22 16.2278H23C23 14.0738 22.4694 12.3594 21.4914 11.174C20.5044 9.97766 19.1042 9.37281 17.49 9.37281V10.3728ZM22 16.2278V22.8828H23V16.2278H22ZM22.5 22.3828H17.5V23.3828H22.5V22.3828ZM18 22.8828V15.8828H17V22.8828H18ZM18 15.8828C18 14.5021 16.8807 13.3828 15.5 13.3828V14.3828C16.3284 14.3828 17 15.0544 17 15.8828H18ZM6 5.38281C6 6.48738 5.10457 7.38281 4 7.38281V8.38281C5.65685 8.38281 7 7.03967 7 5.38281H6ZM4 7.38281C2.89543 7.38281 2 6.48738 2 5.38281H1C1 7.03967 2.34315 8.38281 4 8.38281V7.38281ZM2 5.38281C2 4.27824 2.89543 3.38281 4 3.38281V2.38281C2.34315 2.38281 1 3.72596 1 5.38281H2ZM4 3.38281C4.53043 3.38281 5.03914 3.59353 5.41421 3.9686L6.12132 3.26149C5.55871 2.69888 4.79565 2.38281 4 2.38281V3.38281ZM5.41421 3.9686C5.78929 4.34367 6 4.85238 6 5.38281H7C7 4.58716 6.68393 3.8241 6.12132 3.26149L5.41421 3.9686Z" fill="#F5F5F7"/>
</svg>
