<svg width="24" height="25" viewBox="0 0 24 25" fill="none" xmlns="http://www.w3.org/2000/svg">
<path d="M23.5 7.32181L23 7.32167V7.32181H23.5ZM20.062 3.88281V4.38281V3.88281ZM3.937 3.88281V3.38281L3.93686 3.38281L3.937 3.88281ZM0.500001 7.32181H1L1 7.32167L0.500001 7.32181ZM0.500001 16.4428L1 16.4431V16.4428H0.500001ZM3.937 19.8828L3.93686 20.3828H3.937V19.8828ZM20.062 19.8828V19.3828V19.8828ZM23.5 16.4428H23V16.4431L23.5 16.4428ZM9.5 15.8218H9C9 16.0045 9.09964 16.1727 9.25989 16.2604C9.42014 16.3481 9.61548 16.3415 9.76939 16.243L9.5 15.8218ZM9.5 7.16181L9.76948 6.74064C9.61557 6.64217 9.42021 6.63549 9.25994 6.72321C9.09966 6.81094 9 6.9791 9 7.16181H9.5ZM16.269 11.4928L16.5384 11.914C16.6821 11.8222 16.769 11.6634 16.769 11.4929C16.769 11.3223 16.6821 11.1636 16.5385 11.0716L16.269 11.4928ZM24 7.32196C24.0003 6.27734 23.5855 5.2754 22.847 4.53663L22.1398 5.24363C22.6908 5.7948 23.0002 6.54231 23 7.32167L24 7.32196ZM22.847 4.53663C22.1084 3.79786 21.1066 3.38281 20.062 3.38281V4.38281C20.8414 4.38281 21.5888 4.69247 22.1398 5.24363L22.847 4.53663ZM20.062 3.38281H3.937V4.38281H20.062V3.38281ZM3.93686 3.38281C2.89243 3.38312 1.89091 3.7983 1.1526 4.53704L1.85992 5.24394C2.41074 4.69279 3.15794 4.38304 3.93715 4.38281L3.93686 3.38281ZM1.1526 4.53704C0.414301 5.27577 -0.000303209 6.27754 5.96046e-07 7.32196L1 7.32167C0.999774 6.54246 1.30909 5.79508 1.85992 5.24394L1.1526 4.53704ZM5.96046e-07 7.32181V16.4428H1V7.32181H5.96046e-07ZM6.55651e-07 16.4425C-0.000607073 17.4871 0.413863 18.4892 1.1522 19.2282L1.85961 18.5214C1.30877 17.9701 0.999547 17.2225 1 16.4431L6.55651e-07 16.4425ZM1.1522 19.2282C1.89054 19.9672 2.89223 20.3825 3.93686 20.3828L3.93715 19.3828C3.15779 19.3826 2.41046 19.0727 1.85961 18.5214L1.1522 19.2282ZM3.937 20.3828H20.062V19.3828H3.937V20.3828ZM20.062 20.3828C21.1068 20.3828 22.1088 19.9676 22.8474 19.2286L22.1401 18.5217C21.5891 19.073 20.8415 19.3828 20.062 19.3828V20.3828ZM22.8474 19.2286C23.586 18.4896 24.0006 17.4873 24 16.4425L23 16.4431C23.0005 17.2226 22.6911 17.9703 22.1401 18.5217L22.8474 19.2286ZM24 16.4428V7.32181H23V16.4428H24ZM10 15.8218V7.16181H9V15.8218H10ZM9.23053 7.58298L15.9995 11.914L16.5385 11.0716L9.76948 6.74064L9.23053 7.58298ZM15.9996 11.0716L9.23061 15.4006L9.76939 16.243L16.5384 11.914L15.9996 11.0716Z" fill="#F5F5F7"/>
</svg>
