<svg xmlns="http://www.w3.org/2000/svg" viewBox="0 0 77.31 18.02"><defs><style>.cls-1{fill:#fff;}.cls-2{fill:#f5f5f7;}</style></defs><title>Asset 1</title><g id="Layer_2" data-name="Layer 2"><g id="Layer_1-2" data-name="Layer 1"><path class="cls-1" d="M0,.54V17.78H3.83V12.3H7.64a6.49,6.49,0,0,0,4.56-1.61,5.58,5.58,0,0,0,1.73-4.28A5.51,5.51,0,0,0,12.2,2.15,6.41,6.41,0,0,0,7.64.54ZM3.83,9V4H7.12C9,4,9.89,4.78,9.89,6.46S9,9,7.12,9Z"/><path class="cls-1" d="M18.09,17.78V12.37C18.09,9.55,19.42,8,22.16,8V4.87a3.81,3.81,0,0,0-3.93,2.65h-.14l-.45-2.41H14.5V17.78Z"/><path class="cls-1" d="M27.75,4.87a6.11,6.11,0,0,0-4.61,1.82,6.59,6.59,0,0,0-1.75,4.76,6.58,6.58,0,0,0,1.75,4.75A6.06,6.06,0,0,0,27.75,18a6.07,6.07,0,0,0,4.59-1.8,6.61,6.61,0,0,0,1.75-4.73,6.6,6.6,0,0,0-1.75-4.75A6,6,0,0,0,27.75,4.87Zm-2.7,6.58c0-2.18,1-3.6,2.65-3.6s2.7,1.37,2.7,3.57S29.4,15,27.72,15,25.05,13.69,25.05,11.45Z"/><path class="cls-1" d="M39.53,5.11V4.49c0-1,.59-1.56,1.75-1.56a5.18,5.18,0,0,1,1,.12V.21A6.31,6.31,0,0,0,40.55,0c-2.86,0-4.64,1.42-4.64,4.23v.88H33.55V8h2.36v9.76h3.62V8H44v9.76H47.6V5.11ZM44,3.78H47.6V.28H44Z"/><path class="cls-1" d="M56.93,13.13a2.2,2.2,0,0,1-2.34,1.93C53,15.06,52,13.83,52,11.47s.88-3.62,2.65-3.62A2.15,2.15,0,0,1,56.93,9.7H60.5a4.75,4.75,0,0,0-1.8-3.5A6.79,6.79,0,0,0,50,6.69a6.63,6.63,0,0,0-1.75,4.76A6.6,6.6,0,0,0,50,16.22,6,6,0,0,0,54.61,18a6.27,6.27,0,0,0,4.14-1.35,4.69,4.69,0,0,0,1.75-3.54Z"/><path class="cls-1" d="M66.74,4.87a6.11,6.11,0,0,0-4.61,1.82,6.59,6.59,0,0,0-1.75,4.76,6.58,6.58,0,0,0,1.75,4.75,6.76,6.76,0,0,0,9.19,0,6.56,6.56,0,0,0,1.75-4.73,6.56,6.56,0,0,0-1.75-4.75A6,6,0,0,0,66.74,4.87ZM64,11.45c0-2.18,1-3.6,2.65-3.6s2.7,1.37,2.7,3.57S68.39,15,66.71,15,64,13.69,64,11.45Z"/><path class="cls-2" d="M77.31,17.78V13.91h-3.5v3.87Z"/></g></g></svg>