<svg width="60" height="40" viewBox="0 0 60 40" fill="none" xmlns="http://www.w3.org/2000/svg">
<path fill-rule="evenodd" clip-rule="evenodd" d="M59.2421 40H0V0H59.2421V40ZM2.09731 37.9105H57.1428V2.08668H2.09731V37.9105ZM6.10902 14.9147L7.95029 13.2403C8.58997 14.0846 9.46539 14.5262 10.4709 14.5262C11.2937 14.5262 11.8025 14.2403 11.8025 13.7602C11.8025 13.2931 11.5417 13.0981 10.6792 12.9166L9.5042 12.6566C7.71468 12.2672 6.81407 11.2936 6.81407 9.76187C6.81407 8.00953 8.2766 6.94522 10.6404 6.94522C12.1943 6.94522 13.5526 7.42515 14.4797 8.33393L12.9258 10.0605C12.2856 9.35971 11.3196 8.93112 10.4312 8.93112C9.71257 8.93112 9.26914 9.17762 9.26914 9.58047C9.26914 10.0091 9.56958 10.2163 10.5225 10.4242L11.8544 10.722C13.6172 11.1115 14.3885 11.9687 14.3885 13.5131C14.3885 15.4341 12.8604 16.6028 10.3637 16.6028C8.56123 16.6021 6.99438 15.992 6.10902 14.9147ZM15.3903 6.97014H18.0287V11.007C18.4462 10.1391 19.1254 9.71053 20.0655 9.71053C21.4764 9.71053 22.1943 10.6056 22.1943 12.3458V16.3828H19.5567V12.6179C19.5567 11.9692 19.3216 11.6441 18.8379 11.6441C18.3155 11.6441 18.028 12.0592 18.028 12.8257V16.3827H15.3903V6.97014ZM23.5383 6.93092H26.2285V9.11185H23.5383V6.93092ZM23.5642 9.89057H26.2026V16.3813H23.5642V9.89057ZM32.1577 11.5521H30.7204V16.3813H28.0827V11.5521H27.116V9.89057H28.0827V9.50107C28.0827 7.76167 29.0623 6.89224 31.0077 6.89224C31.3945 6.89633 31.7799 6.93991 32.1577 7.0223V8.8268C31.9598 8.78772 31.7587 8.7662 31.5568 8.76252C31.0215 8.76252 30.7211 9.03476 30.7211 9.50257V9.89207H32.1584V11.5536L32.1577 11.5522V11.5521ZM32.8743 9.89057H33.9581V8.41102L36.5965 7.42447V9.89057H38.0985V11.5521H36.5964V13.4868C36.5964 14.0841 36.9364 14.4212 37.5501 14.4212C37.7337 14.4231 37.9171 14.41 38.0985 14.3819V16.3821C37.5113 16.4728 37.1584 16.5122 36.7926 16.5122C34.8724 16.5122 33.9588 15.7722 33.9588 14.2261V11.5522H32.8743V9.89057ZM12.78 32.0926V33.4556H6.35402V32.0926H12.78Z" fill="#F5F5F7"/>
</svg>
