<svg width="136" height="4" viewBox="0 0 136 4" fill="none" xmlns="http://www.w3.org/2000/svg">
<g clip-path="url(#clip0_626_15326)">
<path fill-rule="evenodd" clip-rule="evenodd" d="M135.82 0.34665L131.377 2.58798V3.73332C131.377 3.87998 131.197 3.98665 130.697 3.98665H129.157C128.657 3.98665 128.477 3.90665 128.477 3.73332V2.57865L124.215 0.34665C123.943 0.199984 124.033 0.0666504 124.577 0.0666504H126.119C126.799 0.0666504 127.071 0.173317 127.343 0.319984L130.108 1.83998L132.783 0.319984C133.055 0.173317 133.373 0.0666504 133.917 0.0666504H135.457C136.047 0.0666504 136.137 0.213317 135.82 0.34665Z" fill="#F5F5F7"/>
<path fill-rule="evenodd" clip-rule="evenodd" d="M123.443 0.26665V0.599984C123.443 0.74665 123.171 0.799984 122.582 0.799984H119.544V3.73332C119.544 3.87998 119.363 3.98665 118.864 3.98665H117.323C116.824 3.98665 116.643 3.87998 116.643 3.73332V0.799984H113.197C112.608 0.799984 112.336 0.74665 112.336 0.599984V0.26665C112.336 0.119984 112.699 0.0666504 113.197 0.0666504H122.582C123.08 0.0666504 123.443 0.119984 123.443 0.26665Z" fill="#F5F5F7"/>
<path fill-rule="evenodd" clip-rule="evenodd" d="M111.159 0.319984V3.71998C111.159 3.86665 110.978 3.97332 110.479 3.97332H108.938C108.439 3.97332 108.258 3.86665 108.258 3.71998V0.319984C108.258 0.173317 108.439 0.0666504 108.938 0.0666504H110.479C110.932 0.0666504 111.159 0.173317 111.159 0.319984Z" fill="#F5F5F7"/>
<path fill-rule="evenodd" clip-rule="evenodd" d="M99.8677 1.77322V2.27989C99.8677 2.75989 100.457 3.23989 102.18 3.23989H105.534C106.033 3.23989 106.396 3.29322 106.396 3.43989V3.77322C106.396 3.92002 106.124 3.97322 105.534 3.97322H102.18C98.9157 3.97322 97.0117 3.26656 97.0117 2.32002V1.70656C97.0117 0.746556 98.9157 0.0532227 102.18 0.0532227H105.625C106.124 0.0532227 106.487 0.106556 106.487 0.253223V0.586556C106.487 0.733223 106.214 0.786556 105.625 0.786556H102.18C100.457 0.786556 99.8677 1.26656 99.8677 1.77322Z" fill="#F5F5F7"/>
<path fill-rule="evenodd" clip-rule="evenodd" d="M75.1607 1.73318V2.23985C75.1607 2.73318 75.75 3.19985 77.4731 3.19985H80.8274C81.3265 3.19985 81.6887 3.25318 81.6887 3.39985V3.73318C81.6887 3.87985 81.4167 3.93318 80.8274 3.93318H77.4731C74.2087 3.93318 72.3047 3.22652 72.3047 2.27985V1.66652C72.3047 0.706517 74.2087 0.0131836 77.4731 0.0131836H80.918C81.4167 0.0131836 81.7798 0.0665169 81.7798 0.213184V0.546517C81.7798 0.693184 81.5074 0.746517 80.918 0.746517H77.4731C75.75 0.746517 75.1607 1.22652 75.1607 1.73318Z" fill="#F5F5F7"/>
<path fill-rule="evenodd" clip-rule="evenodd" d="M60.3838 0.213333V0.546667C60.3838 0.693333 60.1118 0.746667 59.5225 0.746667H55.9865V3.69333C55.9865 3.84 55.8051 3.94667 55.3065 3.94667H53.7651C53.2665 3.94667 53.0851 3.84 53.0851 3.69333V0.733333H50.5918C50.0025 0.733333 49.7305 0.68 49.7305 0.533333V0.2C49.7305 0.0533333 50.0931 0 50.5918 0H59.5225V0.0133333C60.0211 0.0133333 60.3838 0.0666667 60.3838 0.213333Z" fill="#F5F5F7"/>
<path fill-rule="evenodd" clip-rule="evenodd" d="M94.8389 0.293372V3.69337C94.8389 3.84004 94.6576 3.94657 94.1589 3.94657H92.6176C92.1189 3.94657 91.9376 3.84004 91.9376 3.69337V2.33337H86.2256V3.69337C86.2256 3.84004 86.0442 3.94657 85.5456 3.94657H84.0042C83.5056 3.94657 83.3242 3.84004 83.3242 3.69337V0.293372C83.3242 0.146706 83.5056 0.0400391 84.0042 0.0400391H85.5456C86.0442 0.0400391 86.2256 0.146706 86.2256 0.293372V1.60004H91.9376V0.293372C91.9376 0.146706 92.1189 0.0400391 92.6176 0.0400391H94.1589C94.6122 0.0400391 94.8389 0.146706 94.8389 0.293372Z" fill="#F5F5F7"/>
<path fill-rule="evenodd" clip-rule="evenodd" d="M64.6919 0.746761V1.57343H69.1795C69.6786 1.57343 70.0413 1.62676 70.0413 1.77343V2.10676C70.0413 2.25343 69.7693 2.30676 69.1795 2.30676H64.6919V3.20009H70.2226C70.8119 3.20009 71.0839 3.25343 71.0839 3.40009V3.73343C71.0839 3.88009 70.7213 3.93343 70.2226 3.93343H62.7879C62.1079 3.93343 61.8359 3.85343 61.8359 3.68009V0.266761C61.8359 0.0934278 62.1079 0.0134277 62.7879 0.0134277H70.2226C70.7213 0.0134277 71.0839 0.0667611 71.0839 0.213428V0.546761C71.0839 0.693428 70.8119 0.746761 70.2226 0.746761H64.6919Z" fill="#F5F5F7"/>
<path fill-rule="evenodd" clip-rule="evenodd" d="M31.1002 3.93318H24.8895C24.2095 3.93318 23.9375 3.85318 23.9375 3.67985V0.266517C23.9375 0.11985 24.1188 0.0131836 24.6175 0.0131836H26.1588C26.6575 0.0131836 26.8388 0.11985 26.8388 0.266517V3.19985H31.1455C31.7348 3.19985 32.0068 3.25318 32.0068 3.39985V3.73318C31.9615 3.87985 31.5988 3.93318 31.1002 3.93318Z" fill="#F5F5F7"/>
<path fill-rule="evenodd" clip-rule="evenodd" d="M36.2685 3.67985C36.2685 3.82665 36.0872 3.93318 35.5885 3.93318H34.0472C33.5485 3.93318 33.3672 3.82665 33.3672 3.67985V0.266517C33.3672 0.11985 33.5485 0.0131836 34.0472 0.0131836H35.5885C36.0419 0.0131836 36.2685 0.11985 36.2685 0.266517V3.67985Z" fill="#F5F5F7"/>
<path fill-rule="evenodd" clip-rule="evenodd" d="M47.4185 0.0133333C47.9172 0.0133333 48.2799 0.0666667 48.2799 0.213333V0.546667C48.2799 0.693333 48.0079 0.746667 47.4185 0.746667H44.8345V3.69333C44.8345 3.84 44.6532 3.94667 44.1545 3.94667H42.6132C42.1145 3.94667 41.9332 3.84 41.9332 3.69333V0.733333H38.5332C37.9439 0.733333 37.6719 0.68 37.6719 0.533333V0.2C37.6719 0.0533333 38.0345 0 38.5332 0H47.4185V0.0133333Z" fill="#F5F5F7"/>
<path fill-rule="evenodd" clip-rule="evenodd" d="M7.25333 2.86652C7.25333 2.69318 6.664 2.55985 5.44 2.41318C3.264 2.17318 0 1.85318 0 1.15985C0 0.51985 1.31467 0.0131836 4.488 0.0131836H8.47733C8.976 0.0131836 9.33867 0.0665169 9.33867 0.213184V0.546517C9.33867 0.693184 8.976 0.746517 8.47733 0.746517H4.66933C3.808 0.733184 2.76533 0.79985 2.76533 1.03985C2.76533 1.23985 3.44533 1.34652 4.39733 1.46652C6.8 1.74652 10.0187 2.07985 10.0187 2.78652C10.0187 3.54652 8.296 3.93318 5.53067 3.93318H1.04267C0.544 3.93318 0.181333 3.87985 0.181333 3.73318V3.39985C0.181333 3.25318 0.544 3.19985 1.04267 3.19985H5.34933C6.21067 3.19985 7.25333 3.11985 7.25333 2.86652Z" fill="#F5F5F7"/>
<path fill-rule="evenodd" clip-rule="evenodd" d="M19.448 1.38652C19.448 1.71985 18.4054 1.83985 17.272 1.91985L14.688 2.09318V0.733184H17.272C18.4054 0.733184 19.448 0.83985 19.448 1.18652V1.38652ZM17.0907 0.0131836H12.784C12.1947 0.0131836 11.832 0.11985 11.832 0.346517V3.67985C11.832 3.82652 12.0134 3.93318 12.512 3.93318H14.0534C14.552 3.93318 14.7334 3.82652 14.7334 3.67985V2.78652L17.408 2.61318C19.992 2.43985 22.4854 2.18652 22.4854 1.41318V1.07985C22.44 0.266517 19.856 0.0131836 17.0907 0.0131836Z" fill="#F5F5F7"/>
</g>
<defs>
<clipPath id="clip0_626_15326">
<rect width="136" height="4" fill="white"/>
</clipPath>
</defs>
</svg>
