<svg width="64" height="56" viewBox="0 0 64 56" fill="none" xmlns="http://www.w3.org/2000/svg">
<path fill-rule="evenodd" clip-rule="evenodd" d="M0.65625 0V3.31754H2.8093V1.64434H4.97624V0H0.65625Z" fill="#F5F5F7"/>
<path fill-rule="evenodd" clip-rule="evenodd" d="M63.9634 55.2979C62.8077 55.2921 61.652 55.2862 60.4965 55.2806C60.2989 55.2797 60.1014 55.2806 59.875 55.2806V53.7083H61.9468V52.0642H63.9634V55.2979Z" fill="#F5F5F7"/>
<path fill-rule="evenodd" clip-rule="evenodd" d="M63.9612 3.37894H61.9547V1.74911H59.8203V0.145264H63.9612V3.37894Z" fill="#F5F5F7"/>
<mask id="mask0_626_15152" style="mask-type:alpha" maskUnits="userSpaceOnUse" x="25" y="0" width="6" height="2">
<path d="M25.9922 0.145264H30.2046V1.75895H25.9922V0.145264Z" fill="white"/>
</mask>
<g mask="url(#mask0_626_15152)">
<path fill-rule="evenodd" clip-rule="evenodd" d="M26.0031 1.75901C25.9999 1.22109 25.997 0.683178 25.9936 0.145264H30.2046V1.75029H25.9922L26.0031 1.75901Z" fill="#F5F5F7"/>
</g>
<mask id="mask1_626_15152" style="mask-type:alpha" maskUnits="userSpaceOnUse" x="0" y="0" width="64" height="56">
<path d="M0.65625 55.2984H63.9614V0.145264H0.65625V55.2984Z" fill="white"/>
</mask>
<g mask="url(#mask1_626_15152)">
<path fill-rule="evenodd" clip-rule="evenodd" d="M42.9062 1.72171H47.117V0.145264H42.9062V1.72171Z" fill="#F5F5F7"/>
<path fill-rule="evenodd" clip-rule="evenodd" d="M38.6253 0.145264C38.6303 0.611741 38.6434 1.07822 38.6313 1.54432C38.6298 1.61168 38.5075 1.73433 38.4393 1.73507C37.145 1.74657 35.8502 1.74342 34.4844 1.74342V0.145264H38.6253Z" fill="#F5F5F7"/>
<path fill-rule="evenodd" clip-rule="evenodd" d="M51.3984 1.72264H55.5393V0.145264H51.3984V1.72264Z" fill="#F5F5F7"/>
<path fill-rule="evenodd" clip-rule="evenodd" d="M21.7109 0.145264C21.717 0.611741 21.731 1.07822 21.7199 1.54451C21.7182 1.61168 21.5951 1.73433 21.5267 1.73507C20.2319 1.74639 18.9369 1.74342 17.5703 1.74342V0.145264H21.7109Z" fill="#F5F5F7"/>
<path fill-rule="evenodd" clip-rule="evenodd" d="M9.14844 1.72264H13.2893V0.145264H9.14844V1.72264Z" fill="#F5F5F7"/>
<path fill-rule="evenodd" clip-rule="evenodd" d="M63.9616 22.8423H61.9411V19.6079L61.9297 19.6164L63.9616 19.6087V22.8423Z" fill="#F5F5F7"/>
<path fill-rule="evenodd" clip-rule="evenodd" d="M63.96 42.3047H61.9414V39.087L63.96 39.071V42.3047Z" fill="#F5F5F7"/>
<path fill-rule="evenodd" clip-rule="evenodd" d="M63.9626 35.8352C63.2874 35.8325 62.6125 35.8297 61.9375 35.8271V32.6016H63.9626V35.8352Z" fill="#F5F5F7"/>
<path fill-rule="evenodd" clip-rule="evenodd" d="M61.9766 9.84912H63.9598V6.66943H61.9766V9.84912Z" fill="#F5F5F7"/>
<path fill-rule="evenodd" clip-rule="evenodd" d="M63.96 16.3188C63.3762 16.3223 62.7922 16.3323 62.2089 16.3225C62.1211 16.321 61.9613 16.2275 61.9606 16.1756C61.9458 15.1817 61.9497 14.1877 61.9497 13.1389H63.96V16.3188Z" fill="#F5F5F7"/>
<path fill-rule="evenodd" clip-rule="evenodd" d="M61.9766 29.3117H63.9601V26.1318H61.9766V29.3117Z" fill="#F5F5F7"/>
<path fill-rule="evenodd" clip-rule="evenodd" d="M61.9766 48.7739H63.9598V45.594H61.9766V48.7739Z" fill="#F5F5F7"/>
<path fill-rule="evenodd" clip-rule="evenodd" d="M17.9081 42.3969C17.6815 42.3969 17.4707 42.3824 17.2663 42.4045C17.1899 42.4125 17.0724 42.5049 17.0704 42.5609C17.0547 43.018 17.0559 43.4754 17.0697 43.9326C17.0714 43.9874 17.1742 44.0802 17.2409 44.0867C17.4508 44.1069 17.6658 44.0941 17.9463 44.0941C17.6941 43.6537 17.4769 43.2746 17.2709 42.9152C17.5052 42.7341 18.0668 42.8736 17.9081 42.3969ZM46.7303 44.0967C46.9944 44.0967 47.1937 44.1182 47.3779 44.0878C47.4727 44.0722 47.6077 43.9657 47.6108 43.897C47.6319 43.4585 47.6285 43.0191 47.6132 42.5802C47.6111 42.5183 47.5073 42.4134 47.4374 42.4064C47.2145 42.3837 46.9847 42.398 46.7746 42.398C46.6017 42.8879 47.2348 42.7183 47.4014 42.9265C47.1886 43.2974 46.9748 43.6701 46.7303 44.0967ZM17.1969 47.4018C17.1969 47.617 17.208 47.8329 17.1938 48.0477C17.178 48.2819 17.3853 48.25 17.5684 48.2481C17.7459 48.2463 17.955 48.2919 17.9473 48.0527C17.9338 47.6402 17.9333 47.227 17.9478 46.8145C17.956 46.5816 17.7596 46.6094 17.5746 46.6111C17.3942 46.6128 17.1802 46.5745 17.1945 46.8095C17.2063 47.0065 17.1969 47.2043 17.1969 47.4018ZM47.487 47.4279C47.487 47.2125 47.4875 46.9972 47.4868 46.7818C47.4856 46.5612 47.266 46.6144 47.1059 46.6129C46.9431 46.6115 46.7327 46.5667 46.7352 46.7885C46.7397 47.2192 46.7376 47.6499 46.7361 48.0806C46.7356 48.307 46.9579 48.2441 47.1143 48.2461C47.2756 48.2483 47.4906 48.296 47.4875 48.0739C47.4848 47.8586 47.4872 47.6432 47.487 47.4279ZM47.3953 38.8672C47.3953 38.5976 47.4041 38.328 47.3888 38.0591C47.3854 37.9951 47.3139 37.8904 47.2536 37.8813C47.1574 37.8665 46.9956 37.8906 46.9492 37.9435C46.8493 38.0573 46.7547 38.1983 46.7472 38.3311C46.7223 38.7615 46.7451 39.1931 46.7339 39.6242C46.7298 39.793 46.8198 39.8424 47.0251 39.8396C47.2292 39.8366 47.4036 39.8342 47.397 39.6216C47.3895 39.3701 47.3953 39.1187 47.3953 38.8672ZM17.2842 37.9034C17.2842 38.4935 17.2743 39.0909 17.2895 39.6876C17.2953 39.8986 17.5391 39.822 17.6965 39.8352C17.8721 39.8498 17.9476 39.7895 17.9454 39.6488C17.9388 39.2015 17.955 38.7535 17.9388 38.3063C17.9272 37.9919 17.6951 37.8487 17.2842 37.9034ZM17.3159 37.415C17.1585 37.191 17.1408 36.9262 16.7972 36.9136C16.1691 36.8908 15.5382 36.9012 14.9092 36.9149C14.8282 36.9166 14.6956 37.014 14.6811 37.0793C14.6151 37.3779 14.6676 37.4137 15.0719 37.4148C15.3752 37.4158 15.6782 37.415 15.9815 37.415H17.3159ZM47.3929 37.4148C48.1832 37.4148 48.9404 37.4089 49.6976 37.4184C49.943 37.4215 50.0192 37.3573 50.0212 37.1708C50.0236 36.9748 49.9474 36.8962 49.6826 36.9027C49.1926 36.9144 48.7022 36.9056 48.212 36.9056C47.6389 36.9056 47.598 36.9294 47.3929 37.4148ZM15.5515 45.3682C15.5515 45.1525 15.572 44.9354 15.5404 44.7226C15.5295 44.6504 15.402 44.5613 15.3019 44.5313C15.1899 44.4979 15.0366 44.4982 14.9235 44.5302C14.8236 44.5584 14.6852 44.6482 14.6819 44.7144C14.6603 45.1447 14.662 45.5762 14.6811 46.0067C14.684 46.07 14.8057 46.1559 14.8971 46.1843C14.9977 46.2156 15.1276 46.1884 15.2439 46.1939C15.4637 46.2049 15.567 46.1394 15.5551 45.9605C15.5418 45.7636 15.552 45.5656 15.5515 45.3682ZM50.0137 45.3774C50.0137 45.162 50.0052 44.9462 50.0163 44.7309C50.0248 44.5773 49.9355 44.5185 49.7479 44.5218C49.6311 44.5238 49.514 44.5238 49.3972 44.5218C49.2093 44.5183 49.1257 44.5778 49.129 44.7309C49.1382 45.1531 49.1215 45.5756 49.1436 45.9971C49.1472 46.0644 49.2833 46.152 49.3834 46.185C49.4824 46.2175 49.6137 46.1887 49.7302 46.1937C49.9397 46.2027 50.026 46.1329 50.0163 45.9701C50.0052 45.7731 50.0139 45.5751 50.0137 45.3774ZM50.0139 49.6132C50.0139 49.3714 50.0023 49.1292 50.0168 48.888C50.032 48.6403 49.8096 48.6688 49.6173 48.6746C49.4391 48.68 49.1948 48.6124 49.1987 48.8703C49.2059 49.3716 49.2084 49.8733 49.198 50.3745C49.1922 50.6379 49.435 50.5633 49.6115 50.567C49.7965 50.5711 50.0301 50.6208 50.0163 50.3653C50.003 50.1149 50.0137 49.8639 50.0139 49.6132ZM15.484 49.6262C15.484 49.3842 15.469 49.1418 15.4881 48.901C15.5067 48.6625 15.3101 48.6638 15.1041 48.6737C14.9147 48.6827 14.6606 48.6087 14.6674 48.8843C14.6792 49.3766 14.6809 49.8694 14.6669 50.3617C14.6586 50.6421 14.9131 50.559 15.1002 50.5683C15.3007 50.5781 15.5072 50.5969 15.4879 50.3512C15.469 50.1103 15.484 49.8678 15.484 49.6262ZM49.0604 41.9452C49.2908 41.9452 49.4756 41.9345 49.6574 41.9478C49.9244 41.9673 50.0354 41.9011 50.0197 41.6814C49.9975 41.369 50.0144 41.0554 50.0144 40.7422C50.0144 40.2338 49.9324 40.1768 49.2722 40.2646C49.1922 40.2751 49.0715 40.3664 49.0695 40.4223C49.0538 40.9131 49.0604 41.4043 49.0604 41.9452ZM15.6257 41.099V40.75C15.6257 40.2293 15.5633 40.1825 14.8959 40.2651C14.8108 40.2755 14.6838 40.3787 14.6811 40.4412C14.6628 40.8882 14.6671 41.336 14.6775 41.7832C14.6787 41.8363 14.7484 41.9211 14.8091 41.9359C15.3781 42.0738 15.6257 41.9302 15.6257 41.4748V41.099ZM34.9251 5.79646H34.3877C33.2584 5.79628 33.2584 5.79628 33.3503 6.67308C33.3512 6.68198 33.3464 6.69479 33.3524 6.69943C33.4303 6.75955 33.5053 6.86551 33.5887 6.86978C33.9607 6.88852 34.3357 6.88666 34.7082 6.87107C34.7836 6.86811 34.9118 6.77681 34.9154 6.72207C34.9362 6.42831 34.9251 6.13345 34.9251 5.79646ZM39.916 28.6949C39.8858 28.6789 39.8555 28.6632 39.8253 28.6474C39.5172 28.9987 39.1876 29.3034 38.5823 28.979V30.5415C38.6423 30.5494 38.6677 30.5593 38.6868 30.5545C39.0413 30.4671 39.3958 30.3795 39.7489 30.2887C40.1099 30.1959 40.359 29.7027 40.0945 29.4914C39.8933 29.3303 39.9295 29.1777 39.9174 29.0089C39.9099 28.9046 39.916 28.7996 39.916 28.6949ZM18.623 29.0434V30.6227C19.1125 30.5066 19.5669 30.4001 20.0193 30.2891C20.0708 30.2765 20.1502 30.2397 20.1514 30.2125C20.1613 29.972 20.2633 29.683 20.1267 29.5034C19.9874 29.3203 19.9901 29.161 19.971 28.9833C19.9598 28.8823 19.9567 28.7808 19.9444 28.5971C19.6994 28.7988 19.5591 28.9959 19.3485 29.0638C19.1499 29.128 18.8772 29.056 18.623 29.0434ZM44.8061 28.6541C44.7749 28.6647 44.7434 28.675 44.7122 28.6854C44.7122 28.7968 44.7168 28.9085 44.711 29.0196C44.7043 29.1432 44.7504 29.3141 44.6641 29.3815C44.3524 29.6248 44.5589 29.9059 44.513 30.165C44.5067 30.1998 44.579 30.2668 44.6315 30.28C45.0992 30.3975 45.5705 30.5064 46.0558 30.6213V29.0733C45.7869 29.0733 45.5166 29.1276 45.3204 29.0582C45.112 28.9849 44.9744 28.7938 44.8061 28.6541ZM26.0888 30.5864V29.0454C25.8105 29.0569 25.5396 29.1245 25.3399 29.0607C25.1345 28.9951 24.9984 28.8012 24.7626 28.606C24.7505 28.7988 24.7459 28.9035 24.737 29.0081C24.7261 29.1323 24.7742 29.3082 24.6864 29.3707C24.418 29.5626 24.5304 29.7896 24.5297 30.0004C24.5292 30.079 24.6448 30.1995 24.7447 30.2299C25.1648 30.3579 25.5989 30.4593 26.0888 30.5864ZM49.5585 39.8311C49.5718 39.8083 49.5849 39.7856 49.5979 39.763C49.501 39.6821 49.4154 39.5898 49.3041 39.5229C49.0821 39.3894 49.0096 39.2278 49.0178 39.0111C49.0369 38.5054 49.0229 38.498 49.7019 38.4829C49.9469 38.4774 50.0381 38.4074 50.0163 38.2246C50.0035 38.1135 50.0141 38.0007 50.0141 37.8676C49.3602 37.8676 48.7663 37.8613 48.1731 37.8754C48.0952 37.8773 47.9574 37.9828 47.9557 38.0424C47.9387 38.5802 47.9407 39.1183 47.9533 39.6559C47.9545 39.7149 48.0522 39.8218 48.1095 39.8233C48.5919 39.8368 49.0754 39.8311 49.5585 39.8311ZM15.019 39.8313C15.597 39.8313 16.0821 39.837 16.566 39.8235C16.6245 39.822 16.7249 39.7158 16.7263 39.657C16.7391 39.1185 16.7389 38.5796 16.727 38.0409C16.7258 37.9834 16.6274 37.8786 16.5715 37.8776C15.9462 37.8657 15.3203 37.87 14.7027 37.87C14.6122 38.4703 14.6122 38.4703 15.3065 38.48C15.33 38.4803 15.3537 38.4818 15.3766 38.4802C15.5856 38.4642 15.6504 38.5323 15.6644 38.6958C15.6966 39.0775 15.6683 39.4286 15.1955 39.6615C15.1508 39.6835 15.1244 39.7281 15.019 39.8313ZM46.7393 41.9248H48.47C48.47 41.4037 48.4766 40.9027 48.4596 40.4021C48.4577 40.3523 48.3133 40.2668 48.2311 40.2642C47.8108 40.2501 47.3891 40.2501 46.969 40.2646C46.8899 40.2673 46.7511 40.357 46.7494 40.4086C46.7325 40.9087 46.7393 41.4095 46.7393 41.9248ZM17.9427 41.9337C17.9427 41.4112 17.948 40.9187 17.935 40.4266C17.9335 40.3709 17.831 40.2705 17.772 40.269C17.2627 40.2564 16.7529 40.2618 16.2463 40.2618V41.9337H17.9427ZM14.67 42.4117C14.67 42.7239 14.6649 43.0013 14.6717 43.2785C14.6782 43.5364 14.5697 43.9031 14.744 44.0234C14.945 44.1618 15.4001 44.0928 15.7452 44.0959C16.4813 44.1026 16.4813 44.098 16.4813 43.5298V42.4117H14.67ZM48.5426 44.5309C47.9697 44.5309 47.4261 44.5261 46.8832 44.5387C46.8319 44.54 46.7441 44.6504 46.7424 44.7111C46.7303 45.1409 46.7272 45.5712 46.7456 46.0006C46.7482 46.0657 46.8744 46.1798 46.9489 46.1824C47.4142 46.1989 47.8812 46.1963 48.3472 46.1837C48.4142 46.1819 48.5324 46.0937 48.5339 46.044C48.5479 45.553 48.5426 45.0614 48.5426 44.5309ZM17.9437 45.3546C17.9437 45.1481 17.9352 44.941 17.9466 44.7348C17.955 44.5869 17.8859 44.5196 17.689 44.5212C17.2564 44.5248 16.8235 44.525 16.3909 44.5203C16.2003 44.5185 16.113 44.578 16.1145 44.7269C16.1188 45.149 16.1058 45.5715 16.1283 45.9932C16.1316 46.0618 16.2772 46.1795 16.364 46.1834C16.8068 46.2027 17.2528 46.2021 17.696 46.1835C17.7824 46.1798 17.9219 46.0702 17.9323 46.0004C17.9635 45.7876 17.9434 45.5702 17.9437 45.3546ZM50.0122 42.3965C49.4362 42.3965 48.9232 42.3876 48.4118 42.4052C48.3281 42.4082 48.1854 42.5255 48.182 42.5932C48.1607 43.0232 48.1719 43.4537 48.1699 43.8842C48.1694 44.0226 48.2309 44.1019 48.4343 44.0991C48.8778 44.0931 49.3218 44.1056 49.7646 44.0894C49.8502 44.0863 49.9991 43.9894 50.0013 43.933C50.0199 43.4336 50.0122 42.9337 50.0122 42.3965ZM16.6095 47.4302C16.6095 47.2329 16.6013 47.0355 16.6122 46.8386C16.6204 46.6846 16.5614 46.6053 16.3399 46.6087C15.8731 46.6157 15.4061 46.6137 14.9397 46.6096C14.7508 46.6077 14.6649 46.6597 14.6681 46.8134C14.6763 47.2255 14.6601 47.6384 14.6814 48.05C14.685 48.1183 14.8248 48.2361 14.9072 48.2391C15.3962 48.2572 15.8869 48.2452 16.3769 48.2494C16.5669 48.2511 16.6148 48.1774 16.611 48.0487C16.6044 47.8427 16.609 47.6363 16.6095 47.4302ZM50.0139 47.4291C50.0139 47.232 50.0062 47.0345 50.0163 46.8377C50.0245 46.6814 49.9554 46.6061 49.7385 46.609C49.272 46.615 48.8052 46.6146 48.3387 46.6092C48.1453 46.607 48.0698 46.6636 48.073 46.8148C48.0817 47.227 48.0822 47.6393 48.073 48.0515C48.0696 48.2073 48.1549 48.253 48.3436 48.2506C48.7985 48.2448 49.2538 48.2431 49.7085 48.2513C49.9305 48.2554 50.0296 48.1992 50.0168 48.0205C50.003 47.8238 50.0139 47.6263 50.0139 47.4291ZM16.0692 48.6757V50.0307C16.0692 50.5699 16.0692 50.5755 16.7643 50.5662C16.9507 50.5636 17.2153 50.5661 17.3072 50.4801C17.5584 50.2443 17.808 49.9797 17.9224 49.6943C18.024 49.4408 17.9567 49.1435 17.934 48.8672C17.9287 48.8004 17.8073 48.6865 17.7347 48.6842C17.2017 48.6685 16.6675 48.6757 16.0692 48.6757ZM48.6135 49.6371C48.6135 49.3953 48.6021 49.153 48.6171 48.9117C48.628 48.7392 48.5501 48.6612 48.3218 48.6714C48.1823 48.6777 48.0415 48.6683 47.902 48.6724C47.5317 48.6829 47.0062 48.59 46.8324 48.7384C46.6355 48.9065 46.7468 49.2925 46.739 49.5839C46.7364 49.6876 46.7439 49.806 46.805 49.8936C47.1276 50.3552 47.5303 50.7271 48.3247 50.5698C48.3358 50.5677 48.3482 50.5685 48.3598 50.5694C48.5636 50.5868 48.6214 50.5074 48.6156 50.3627C48.6062 50.1211 48.6132 49.8789 48.6135 49.6371ZM26.7688 42.6366C26.802 42.6507 26.8353 42.665 26.8687 42.6793C27.7156 41.5361 28.9518 40.7593 30.5424 40.3054H26.7688V42.6366ZM34.134 40.3093C35.7398 40.7561 36.9589 41.5513 37.8232 42.6856L37.9081 42.6398V40.3093H34.134ZM26.5323 43.0625C23.6756 42.2303 20.8727 42.3106 18.0426 43.1664C18.1521 43.349 18.2465 43.5064 18.3405 43.6626C19.1267 43.442 19.8505 43.1508 20.6171 43.0486C21.3999 42.9441 22.227 43.0549 23.0306 43.0171C24.0226 42.9701 24.9457 43.0994 25.8349 43.4409C26.3123 43.6242 26.3282 43.6003 26.5011 43.2013C26.5156 43.1681 26.5173 43.1314 26.5323 43.0625ZM38.1465 43.0655C38.3112 43.609 38.311 43.6086 38.9358 43.4138C39.1518 43.3466 39.376 43.2926 39.584 43.213C39.9806 43.0612 40.3922 43.0132 40.8347 43.0198C41.8395 43.0351 42.8451 43.0202 43.8503 43.0286C44.0426 43.0302 44.2428 43.0638 44.4245 43.1143C45.0566 43.29 45.682 43.4797 46.3385 43.6727C46.4416 43.4895 46.5303 43.332 46.6263 43.1614C43.7776 42.3102 40.9725 42.2284 38.1465 43.0655ZM17.8728 50.693C19.244 51.0739 20.4408 51.7683 21.9791 51.5985C22.3114 51.562 22.6592 51.5716 22.9948 51.5974C23.9554 51.6705 24.841 51.5098 25.683 51.1586C26.0158 51.0198 26.371 50.9127 26.7149 50.7915C26.4179 50.2951 26.3904 50.2638 25.8564 50.5421C24.9967 50.9901 24.078 51.1799 23.0504 51.0849C22.8659 51.0678 22.6744 51.068 22.4899 51.0847C21.0933 51.2116 19.8065 50.9865 18.6443 50.3757C18.3413 50.2163 18.1604 50.2855 18.0138 50.5095C17.9833 50.5564 17.9446 50.6002 17.8728 50.693ZM37.932 50.7988C39.0771 51.1036 40.0352 51.7208 41.3208 51.6006C41.8045 51.5553 42.3048 51.5666 42.7918 51.5991C43.669 51.6576 44.4733 51.51 45.2515 51.2085C45.7458 51.0168 46.265 50.8628 46.7734 50.6919C46.4754 50.2118 46.445 50.1764 45.9282 50.4306C44.8012 50.9851 43.5921 51.199 42.2709 51.0845C42.0862 51.0686 41.8949 51.0676 41.7106 51.0847C40.6091 51.1875 39.6077 50.9993 38.7194 50.4851C38.4258 50.3152 38.2212 50.356 38.0699 50.6058C38.0408 50.6536 38.0038 50.6987 37.932 50.7988ZM32.6572 39.799H34.8329V37.8839H32.6572V39.799ZM29.7987 37.8678C29.7987 38.4896 29.7946 39.0877 29.8067 39.6856C29.8077 39.7301 29.9211 39.8108 29.984 39.8118C30.6026 39.8218 31.2217 39.8238 31.84 39.8112C31.9102 39.8097 32.0342 39.7049 32.0359 39.6464C32.0512 39.1083 32.0507 38.5696 32.0362 38.0316C32.0345 37.976 31.9114 37.8763 31.8422 37.875C31.1784 37.863 30.5143 37.8678 29.7987 37.8678ZM26.9188 31.3177C26.8885 31.2912 26.8767 31.2709 26.8576 31.2657C26.6719 31.2136 26.4791 31.1737 26.2992 31.1121C25.0371 30.6805 23.7208 30.5526 22.3431 30.5919C21.3141 30.6214 20.2967 30.6081 19.3183 30.9128C18.8167 31.069 18.2878 31.1741 17.7686 31.303C18.0552 31.8313 18.0743 31.8618 18.6675 31.643C19.8986 31.1889 21.1828 31.0161 22.5358 31.1086C22.6171 31.1141 22.7 31.1149 22.781 31.1084C23.9503 31.0174 25.0424 31.196 26.0874 31.6124C26.6361 31.831 26.6557 31.802 26.9144 31.3559C26.919 31.3481 26.9166 31.3383 26.9188 31.3177ZM37.7564 31.3017C37.9796 31.7987 38.0251 31.8365 38.5748 31.6187C39.6301 31.2002 40.7307 31.0178 41.914 31.1056C42.2381 31.1297 42.5701 31.1271 42.8951 31.1058C43.7401 31.0508 44.5398 31.1614 45.3069 31.4366C45.5388 31.5198 45.7835 31.5821 46.0227 31.6532C46.5975 31.8237 46.598 31.8237 46.8657 31.4003C46.88 31.3778 46.8798 31.35 46.8858 31.3259C44.3214 30.4184 40.625 30.223 37.7564 31.3017ZM37.7023 36.9643C37.9959 37.4837 38.0609 37.5275 38.6674 37.2935C39.6647 36.9084 40.7012 36.8069 41.8098 36.808C43.2564 36.8095 44.676 36.8188 45.9889 37.3651C45.9988 37.3692 46.0116 37.3694 46.0225 37.3723C46.5574 37.5093 46.8476 37.3703 46.9293 36.9646C46.4336 36.8581 45.9332 36.7739 45.4539 36.6431C44.5171 36.3875 43.563 36.2795 42.5691 36.3204C41.9162 36.3473 41.2601 36.3222 40.6052 36.3278C40.4318 36.3293 40.2509 36.3382 40.0867 36.3771C39.2986 36.5642 38.5153 36.7629 37.7023 36.9643ZM17.7335 36.9748C17.928 37.4367 18.1376 37.5208 18.7229 37.3579C18.8215 37.3304 18.9207 37.3024 19.015 37.2673C19.9676 36.9127 20.9629 36.7431 22.027 36.8205C22.3864 36.8466 22.7537 36.8444 23.1136 36.8208C24.0441 36.7596 24.9215 36.8826 25.751 37.2126C25.854 37.2536 25.9655 37.2823 26.0738 37.3159C26.6561 37.497 26.7669 37.4525 26.9364 36.9876C25.409 36.4647 23.8192 36.2112 22.1426 36.3218C21.7595 36.3471 21.3707 36.3161 20.9857 36.3291C20.7552 36.3369 20.5211 36.3627 20.2994 36.4096C19.4486 36.5902 18.6024 36.7824 17.7335 36.9748ZM10.2609 38.8981C8.80125 38.8981 7.34132 38.8949 5.88162 38.9025C5.72201 38.9034 5.41368 38.8158 5.44318 39.0257C5.46253 39.164 5.72854 39.2883 5.90194 39.403C5.94909 39.4343 6.06009 39.4097 6.14183 39.4097C8.87453 39.4098 11.6072 39.4098 14.3402 39.4098C14.4219 39.4098 14.5307 39.4345 14.5805 39.4035C14.759 39.2926 15.0371 39.1731 15.0572 39.0376C15.0923 38.7993 14.7687 38.9044 14.6054 38.9034C13.1574 38.8942 11.709 38.8981 10.2609 38.8981ZM10.2605 30.5938C9.4305 30.5938 8.60101 30.5936 7.77105 30.5938C7.08135 30.5938 6.39189 30.5908 5.70242 30.5977C5.61125 30.5986 5.47002 30.6318 5.44366 30.6799C5.41392 30.7339 5.46664 30.8334 5.52105 30.8926C5.66252 31.0468 5.85284 31.1117 6.11692 31.111C8.87477 31.1034 11.6333 31.1063 14.3914 31.106C14.4732 31.106 14.5868 31.129 14.6308 31.0969C14.7979 30.9755 14.9421 30.8356 15.0952 30.7025C14.9445 30.6664 14.7941 30.5992 14.6432 30.5984C13.1823 30.5905 11.7214 30.5938 10.2605 30.5938ZM54.4193 38.8981C53.496 38.8981 52.5727 38.8981 51.6494 38.8981C51.0535 38.8981 50.4574 38.8947 49.8613 38.9021C49.7704 38.9032 49.6265 38.9391 49.6038 38.9862C49.5776 39.0413 49.6393 39.1361 49.6949 39.1963C49.8376 39.3505 50.0265 39.4154 50.2908 39.4147C53.0491 39.4069 55.8075 39.4098 58.5655 39.4097C58.6473 39.4097 58.759 39.4332 58.8054 39.4015C58.9701 39.2889 59.2216 39.1649 59.2383 39.0305C59.2652 38.8168 58.9619 38.9032 58.802 38.9023C57.3414 38.8949 55.8802 38.8981 54.4193 38.8981ZM54.4517 30.5938C53.622 30.5938 52.7918 30.5936 51.9616 30.5938C51.2603 30.5938 50.559 30.591 49.8574 30.5977C49.766 30.5984 49.6229 30.6326 49.5987 30.6797C49.5713 30.7337 49.6308 30.8304 49.6867 30.8898C49.8301 31.0418 50.0163 31.1119 50.2818 31.1112C53.0407 31.1032 55.8 31.1063 58.559 31.1061C58.6407 31.1061 58.7522 31.1295 58.7989 31.0978C58.9641 30.9855 59.2158 30.8629 59.2342 30.728C59.2639 30.5108 58.9597 30.599 58.8008 30.5981C57.3513 30.5906 55.9015 30.5938 54.4517 30.5938ZM37.2496 37.3911C37.1117 36.9732 37.038 36.9253 36.5398 36.9251C33.7362 36.9246 30.9327 36.9246 28.1296 36.9251C27.644 36.9253 27.5584 36.9819 27.4285 37.3911H37.2496ZM29.2365 38.8409C29.2365 38.6076 29.2229 38.3738 29.2403 38.1413C29.2558 37.9381 29.1828 37.8516 28.8916 37.8619C28.3789 37.8799 27.8643 37.8663 27.3504 37.8669C26.9621 37.8674 26.7534 38.0105 26.7442 38.3156C26.7306 38.755 26.7318 39.1948 26.7502 39.634C26.7531 39.6977 26.8832 39.8105 26.9577 39.8121C27.6346 39.8261 28.312 39.8272 28.9888 39.8116C29.0735 39.8095 29.2164 39.6917 29.2241 39.6206C29.2527 39.3623 29.2355 39.1011 29.2365 38.8409ZM35.4479 37.8685C35.4479 38.4902 35.4409 39.0636 35.4578 39.6366C35.4598 39.699 35.5971 39.8105 35.675 39.8121C36.3519 39.8264 37.0297 39.8264 37.7066 39.8133C37.7874 39.8116 37.9306 39.7069 37.9332 39.6472C37.9523 39.199 37.9755 38.7479 37.9255 38.3028C37.9086 38.151 37.6972 37.8975 37.5531 37.8882C36.8718 37.844 36.1828 37.8685 35.4479 37.8685ZM5.76119 51.6284H14.6778C14.4468 51.0836 14.3438 51.024 13.6819 51.022C11.4031 51.0153 9.1241 51.0066 6.84508 50.9999C6.17859 50.9981 6.03156 51.0829 5.76119 51.6284ZM58.9355 51.6327C58.6961 51.2085 58.4284 50.973 57.7796 50.9854C55.5035 51.0296 53.2252 51.0151 50.9476 51.0222C50.3612 51.0238 50.1689 51.1446 50.0095 51.6327H58.9355ZM27.3797 33.1728C27.3797 33.8651 27.3739 34.4718 27.3918 35.0778C27.3932 35.1233 27.5642 35.2018 27.6583 35.2038C28.2181 35.2159 28.7782 35.2099 29.3385 35.2099C29.6481 35.2101 29.9576 35.2099 30.2635 35.2099V33.1785C29.2977 33.589 28.3623 33.5794 27.3797 33.1728ZM33.7829 33.1711C32.7977 33.5818 31.8613 33.5768 30.9051 33.1834V35.1867H33.7829V33.1711ZM34.4117 35.209C35.3275 35.209 36.2015 35.206 37.0752 35.2111C37.302 35.2123 37.3081 35.1082 37.3076 34.9828C37.3057 34.4814 37.3083 33.9798 37.3054 33.478C37.3049 33.4027 37.2841 33.3274 37.2621 33.1804C36.303 33.5827 35.3686 33.5786 34.4117 33.185V35.209ZM44.5563 31.6977C44.5267 31.774 44.5081 31.7994 44.5081 31.8248C44.505 33.1524 44.5016 34.4799 44.5076 35.8076C44.5079 35.8731 44.5741 35.98 44.6402 35.9969C45.1204 36.1199 45.6089 36.2248 46.1596 36.3502V32.1631C45.6646 32.0195 45.1258 31.8631 44.5563 31.6977ZM20.162 31.6855C19.5507 31.8636 19.0036 32.023 18.5308 32.1607V36.3469C19.0015 36.2413 19.3971 36.1404 19.8012 36.0661C20.0851 36.0142 20.1927 35.9153 20.1896 35.6796C20.1734 34.4599 20.1823 33.24 20.1813 32.0202C20.1811 31.9319 20.1714 31.8438 20.162 31.6855ZM38.5303 36.2909C38.9893 36.1816 39.3726 36.0784 39.7644 36.0012C40.064 35.942 40.1602 35.8206 40.1573 35.5829C40.1421 34.3727 40.1513 33.1622 40.1489 31.9518C40.1486 31.8484 40.1274 31.745 40.1119 31.607C39.5037 31.8028 38.9433 31.9829 38.4415 32.1444C38.4781 32.3717 38.5259 32.5367 38.5269 32.7016C38.5337 33.7866 38.5303 34.8715 38.5303 35.9565V36.2909ZM24.5791 31.615C24.5464 31.6907 24.5258 31.7157 24.5258 31.741C24.5222 33.0696 24.5181 34.3983 24.5239 35.7271C24.5242 35.7917 24.595 35.895 24.6644 35.9145C25.1399 36.0479 25.6233 36.1637 26.1548 36.2979V35.9539C26.1548 34.9305 26.151 33.9069 26.1575 32.8833C26.1592 32.6473 26.1971 32.4116 26.2221 32.1366C25.713 31.975 25.1587 31.799 24.5791 31.615ZM40.5174 28.3091C40.5114 28.3845 40.4925 28.4563 40.5019 28.5259C40.5704 29.0345 40.6381 29.5435 40.7273 30.0501C40.7365 30.1028 40.8843 30.1789 40.9687 30.1796C41.8683 30.1891 42.7682 30.1891 43.6678 30.1798C43.75 30.1789 43.8932 30.1024 43.9023 30.0501C43.9488 29.7892 43.9473 29.5439 44.1045 29.2763C44.2646 29.0039 44.1401 28.6326 44.1401 28.2726C44.0095 28.3163 43.9263 28.3295 43.8682 28.3663C43.6254 28.5192 43.4228 28.5012 43.2068 28.3234C43.0559 28.1991 42.8632 28.1048 42.6066 27.946C42.6066 28.342 42.5964 28.6448 42.6105 28.9469C42.6189 29.123 42.5096 29.1558 42.3135 29.1562C42.0813 29.1566 42.0472 29.0545 42.0492 28.9124C42.0528 28.6144 42.0502 28.3164 42.0502 28.0183C41.7334 28.1365 41.514 28.2677 41.308 28.4099C40.9926 28.6268 40.8267 28.2668 40.5174 28.3091ZM46.2217 37.8969C45.6786 37.7409 45.1277 37.5826 44.5026 37.4029V37.7691C44.5026 39.0628 44.4965 40.3566 44.5047 41.6502C44.5091 42.2776 44.3732 42.1382 45.1628 42.3295C45.4752 42.4052 45.7891 42.4772 46.154 42.563V42.18C46.154 40.9133 46.1516 39.6464 46.1569 38.3798C46.1574 38.2224 46.198 38.065 46.2217 37.8969ZM18.4627 37.8949C18.4859 38.0936 18.5267 38.2849 18.5275 38.4766C18.5333 39.7162 18.5304 40.9558 18.5304 42.1956V42.5622C19.0039 42.4526 19.4198 42.347 19.8428 42.2618C20.1018 42.2098 20.1869 42.1067 20.1852 41.9003C20.1741 40.508 20.1801 39.1155 20.178 37.7232C20.1777 37.6316 20.1557 37.5399 20.139 37.4119C19.5318 37.5868 18.9802 37.7459 18.4627 37.8949ZM24.5807 37.3287C24.545 37.3981 24.5217 37.4224 24.5217 37.4467C24.5176 38.9459 24.5133 40.4451 24.5196 41.9445C24.5198 42.0081 24.5979 42.1095 24.6697 42.1293C25.1379 42.2577 25.6146 42.3687 26.1536 42.5014V42.1467C26.1536 40.9526 26.15 39.7583 26.1568 38.5644C26.158 38.3375 26.201 38.1105 26.2291 37.8427C25.7186 37.6837 25.1621 37.5102 24.5807 37.3287ZM20.5608 28.2327C20.5361 28.3802 20.5318 28.442 20.5148 28.5017C20.3637 29.0412 20.7881 29.5285 20.7615 30.0588C20.7596 30.0987 20.9228 30.1794 21.0101 30.1804C21.9095 30.1893 22.8093 30.1909 23.7082 30.1774C23.7965 30.1761 23.9418 30.069 23.9578 29.9976C24.0093 29.7625 24.0129 29.5389 24.1401 29.2958C24.2905 29.0072 24.1752 28.6368 24.1752 28.2679C24.0395 28.3102 23.9503 28.3197 23.8961 28.3581C23.6187 28.5542 23.4045 28.4624 23.182 28.292C23.0398 28.1833 22.8693 28.0965 22.619 27.943C22.619 28.2232 22.6613 28.4238 22.6074 28.6075C22.5525 28.7936 22.8758 29.146 22.3373 29.1423C21.835 29.1388 22.1373 28.8029 22.087 28.6231C22.034 28.4327 22.0751 28.2267 22.0751 27.9812C21.547 28.1694 21.2481 28.7779 20.5608 28.2327ZM38.4406 37.8463C38.4771 38.0908 38.5267 38.2734 38.5279 38.456C38.5346 39.6848 38.5313 40.9139 38.5313 42.1429V42.4975C38.9961 42.3846 39.3997 42.2729 39.813 42.1913C40.0945 42.1358 40.1699 42.0196 40.1685 41.8077C40.1583 40.4173 40.1639 39.0268 40.1617 37.6364C40.1614 37.543 40.1385 37.4497 40.1213 37.3209C39.5158 37.5102 38.9603 37.6839 38.4406 37.8463ZM32.3738 29.9952C30.5965 29.9952 28.8191 30.0026 27.0419 29.9889C26.6963 29.9863 26.6716 30.1037 26.6723 30.311C26.6733 30.5168 26.6941 30.6363 27.0409 30.6352C30.5721 30.6255 34.1036 30.6255 37.6348 30.635C37.9775 30.6361 38.0077 30.5203 38.0075 30.3117C38.0072 30.1039 37.9799 29.9864 37.6358 29.989C35.882 30.0024 34.1278 29.9952 32.3738 29.9952ZM17.3783 33.3687C16.645 33.7627 15.9672 33.7506 15.2328 33.3864V35.0446C14.686 35.0969 14.6763 35.0967 14.6729 35.2725C14.6661 35.6133 14.6579 35.955 14.6823 36.2947C14.6872 36.3623 14.8349 36.4781 14.9191 36.4792C15.8414 36.4927 16.7643 36.4859 17.6869 36.4896C17.8835 36.4903 17.955 36.4285 17.9497 36.2797C17.9398 36.0197 17.9473 35.7594 17.9473 35.4992C17.9473 35.1231 17.9471 35.1235 17.4649 35.0644C17.445 35.062 17.4281 35.045 17.3783 35.0169V33.3687ZM49.435 33.4749C49.4038 33.4517 49.3726 33.4285 49.3411 33.4053C48.679 33.816 48.0111 33.6994 47.3022 33.3984V35.0524C47.1973 35.0667 47.1286 35.0873 47.0633 35.0826C46.7847 35.0626 46.6933 35.1617 46.7035 35.3664C46.7187 35.6707 46.711 35.9758 46.709 36.2806C46.7083 36.4243 46.7869 36.4907 46.9825 36.4898C47.9044 36.4863 48.8263 36.4868 49.7479 36.4892C49.9389 36.4896 50.0202 36.4304 50.0163 36.2799C50.0079 35.9663 50.0033 35.6521 50.018 35.3389C50.0272 35.1494 49.9614 35.0438 49.6894 35.0696C49.4821 35.0893 49.4263 35.0017 49.4342 34.8605C49.4417 34.7353 49.4352 34.6096 49.435 34.4842V33.4749ZM32.3297 36.4556C34.0018 36.4556 35.6738 36.4575 37.3458 36.4549C38.0355 36.4538 37.9356 36.5087 37.9422 35.9958C37.9463 35.6564 37.9349 35.6629 37.4902 35.6638C34.1111 35.6701 30.732 35.6746 27.3533 35.6722C26.7401 35.6716 26.7604 35.6562 26.7335 36.1135C26.7178 36.3801 26.8075 36.466 27.1734 36.4627C28.8919 36.4471 30.6108 36.4556 32.3297 36.4556ZM43.9214 31.5599C42.9266 31.5599 41.9822 31.5669 41.0383 31.5554C40.7653 31.5522 40.7061 31.6311 40.7075 31.823C40.716 33.0895 40.7186 34.356 40.7058 35.6224C40.7036 35.8546 40.8144 35.9108 41.094 35.9071C41.9123 35.896 42.7312 35.8947 43.5495 35.9077C43.8387 35.9123 43.9306 35.8453 43.9275 35.6198C43.9132 34.6317 43.9214 33.6436 43.9214 32.6554V31.5599ZM23.9701 33.7302C23.9701 33.0928 23.9624 32.4554 23.975 31.8182C23.9791 31.62 23.8985 31.5524 23.6349 31.5558C22.782 31.5667 21.9288 31.5667 21.0759 31.5556C20.8169 31.5522 20.726 31.6148 20.7271 31.8137C20.7347 33.0884 20.7337 34.3632 20.7281 35.6378C20.7274 35.8277 20.8026 35.9103 21.0708 35.9069C21.9235 35.8963 22.7769 35.8973 23.6299 35.9065C23.8891 35.9093 23.9783 35.8409 23.9747 35.6423C23.9631 35.0051 23.9701 34.3675 23.9701 33.7302ZM25.7906 13.5577C25.72 13.9751 26.0803 14.334 26.5543 14.3342C30.4103 14.3364 34.2668 14.3364 38.1228 14.3342C38.6171 14.334 38.9956 13.9411 38.8718 13.5577H25.7906ZM38.9061 23.97H25.7974C25.7048 24.3913 26.082 24.7427 26.6119 24.7429C30.4217 24.7438 34.2313 24.7437 38.0411 24.7431C38.5804 24.7431 38.9559 24.4204 38.9061 23.97ZM44.5299 43.6123V50.4714C45.0735 50.2573 45.5705 50.068 46.0556 49.8622C46.119 49.8351 46.149 49.7236 46.1492 49.651C46.1543 47.8637 46.1543 46.0761 46.1489 44.2887C46.1487 44.2171 46.1141 44.1013 46.0532 44.0811C45.5661 43.9191 45.0692 43.7755 44.5299 43.6123ZM20.1569 43.6146C19.6933 43.7495 19.2982 43.876 18.8926 43.9787C18.6218 44.0471 18.5204 44.1531 18.5229 44.3839C18.5379 45.9913 18.5625 47.5994 18.5117 49.2059C18.496 49.7048 18.6726 49.9904 19.2839 50.1424C19.5724 50.214 19.8372 50.3415 20.1569 50.4603V43.6146ZM24.5384 50.5822C24.8588 50.4495 25.1016 50.3174 25.3713 50.2434C26.0119 50.0676 26.1911 49.7533 26.1739 49.2278C26.1195 47.5849 26.156 45.9405 26.1485 44.2965C26.1481 44.1919 26.1127 44.0245 26.0271 43.9933C25.5585 43.8218 25.069 43.6838 24.5384 43.5194V50.5822ZM40.1353 43.5216C39.6478 43.6721 39.212 43.8137 38.769 43.9401C38.5842 43.9928 38.5274 44.0744 38.5279 44.221C38.533 46.0518 38.5303 47.8826 38.5347 49.7136C38.5349 49.7874 38.5545 49.9002 38.6166 49.9288C39.0991 50.1508 39.5944 50.3564 40.1353 50.5883V43.5216ZM43.9123 37.2751C42.9386 37.2751 41.9943 37.2814 41.0499 37.2712C40.7888 37.2684 40.708 37.333 40.7092 37.5325C40.7179 38.968 40.7194 40.4037 40.708 41.8395C40.7063 42.0647 40.8258 42.1091 41.0835 42.1063C41.8893 42.0976 42.6961 42.0876 43.5011 42.1102C43.8685 42.1206 43.9558 42.0222 43.9531 41.7595C43.9403 40.3779 43.948 38.996 43.9459 37.6141C43.9456 37.5095 43.9256 37.4046 43.9123 37.2751ZM23.9677 39.6902C23.9677 38.9717 23.9612 38.2534 23.9718 37.5351C23.9747 37.3389 23.8947 37.2679 23.6308 37.2712C22.7776 37.282 21.924 37.2814 21.071 37.2714C20.8162 37.2682 20.7182 37.3248 20.7194 37.5282C20.7269 38.9649 20.7262 40.4015 20.7201 41.8382C20.7192 42.0306 20.7961 42.1098 21.0621 42.1069C21.9153 42.0968 22.7689 42.0946 23.6219 42.1076C23.9172 42.1122 23.9742 42.0157 23.9716 41.8181C23.9619 41.1089 23.9679 40.3995 23.9677 39.6902ZM56.0766 28.1634V29.2735C55.518 29.3516 55.4996 29.341 55.4991 28.9671C55.4986 28.7227 55.4991 28.4782 55.4991 28.2058C55.0873 28.313 54.7475 28.4735 54.4114 28.4687C54.0672 28.4639 53.727 28.2969 53.3316 28.1857V29.2908H52.7456V28.1438C52.0102 28.5678 51.3222 28.5125 50.6023 28.1464C50.6023 28.8003 50.6122 29.3644 50.597 29.9284C50.5916 30.1249 50.6949 30.1731 50.9254 30.1728C53.2639 30.1694 55.6026 30.1689 57.9411 30.1733C58.2018 30.1737 58.2882 30.0952 58.2833 29.9005C58.2717 29.4156 58.2814 28.9306 58.2773 28.4455C58.2768 28.3709 58.2485 28.2963 58.2289 28.2C57.848 28.2996 57.5085 28.4624 57.1745 28.4559C56.8263 28.4492 56.4836 28.2794 56.0766 28.1634ZM6.39817 28.1848C6.39817 28.4396 6.3914 28.6444 6.39962 28.8489C6.41704 29.2754 6.44243 29.7014 6.46468 30.1277C7.01049 30.1423 7.5563 30.1674 8.10236 30.1694C9.63436 30.1752 11.1664 30.1714 12.6986 30.1714C13.0377 30.1714 13.3779 30.1596 13.7157 30.1746C14.0115 30.1878 14.0971 30.0991 14.0887 29.8784C14.0698 29.3937 14.0841 28.9083 14.0821 28.4232C14.0816 28.3562 14.064 28.2896 14.0502 28.1957C13.6802 28.3002 13.3448 28.4676 13.0074 28.4698C12.6645 28.4722 12.3199 28.3119 11.9177 28.2078V29.3121C11.7035 29.3037 11.5359 29.2971 11.3327 29.2891V28.1414C10.6077 28.5116 9.91851 28.5633 9.19713 28.1941C9.15239 28.4837 9.1536 28.7302 9.15215 28.9764C9.15021 29.3364 9.11418 29.3568 8.59376 29.2611V28.1634C8.18361 28.2813 7.839 28.4553 7.49149 28.4591C7.14809 28.4626 6.80155 28.2937 6.39817 28.1848ZM32.3102 29.5359C33.1169 29.5359 33.9239 29.5303 34.7306 29.539C34.9822 29.5418 35.0895 29.4884 35.0767 29.2807C35.0569 28.958 35.0733 28.634 35.0699 28.3108C35.0578 27.2445 34.0463 26.369 32.6673 26.2298C31.3261 26.0944 29.9859 26.7789 29.7025 27.8146C29.5748 28.2811 29.6425 28.7779 29.6038 29.2601C29.5869 29.4726 29.6834 29.5435 29.9596 29.5396C30.7428 29.5288 31.5264 29.5359 32.3102 29.5359ZM40.7152 47.0505C40.7152 48.1632 40.7189 49.276 40.7111 50.3886C40.7099 50.5768 40.7709 50.6692 41.0417 50.6667C41.906 50.6585 42.7708 50.6594 43.6351 50.6661C43.8857 50.6681 43.9565 50.5822 43.9563 50.4055C43.9526 48.18 43.9519 45.9544 43.9572 43.7289C43.9577 43.529 43.8607 43.4687 43.6049 43.4719C42.7638 43.4825 41.9225 43.4849 41.0816 43.4711C40.782 43.4661 40.7075 43.5494 40.7099 43.766C40.7211 44.8608 40.7152 45.9557 40.7152 47.0505ZM20.7199 47.0488C20.7199 48.1528 20.7245 49.2569 20.7156 50.3608C20.7141 50.5712 20.7823 50.6718 21.0863 50.6677C21.9271 50.6564 22.7687 50.6581 23.6098 50.667C23.8889 50.67 23.9696 50.5848 23.9689 50.3796C23.9624 48.1717 23.9612 45.9636 23.9704 43.7556C23.9713 43.5251 23.863 43.4676 23.5815 43.4717C22.7639 43.4834 21.9453 43.4875 21.1281 43.47C20.7987 43.463 20.7107 43.5476 20.7139 43.7907C20.7276 44.8766 20.7197 45.9627 20.7199 47.0488ZM37.9891 32.5749C37.6805 32.1596 37.3804 31.7883 37.1248 31.3995C36.9705 31.1652 36.7698 31.0952 36.4358 31.0965C33.8061 31.1067 31.1762 31.118 28.547 31.0898C27.9625 31.0837 27.6169 31.203 27.3877 31.6159C27.2078 31.9399 26.9425 32.2362 26.691 32.5775C27.2036 32.7026 27.6648 32.7948 28.1049 32.9277C28.6075 33.0795 29.0928 33.0967 29.5825 32.9214C30.2512 32.6822 30.915 32.6731 31.588 32.915C32.0763 33.0906 32.5781 33.0975 33.069 32.9202C33.7527 32.6738 34.4267 32.674 35.1086 32.9241C35.5841 33.0982 36.0607 33.0806 36.5526 32.933C37.0027 32.7979 37.4725 32.7018 37.9891 32.5749ZM32.3399 25.1972C30.574 25.1972 28.8082 25.199 27.0423 25.1949C26.817 25.1944 26.6714 25.2044 26.6735 25.4319C26.6852 26.7164 26.6823 28.0011 26.6755 29.2856C26.6745 29.4719 26.7601 29.542 27.0022 29.5383C27.54 29.5301 28.0788 29.5257 28.6159 29.5402C28.9073 29.548 29.0046 29.4682 29.0024 29.2468C28.9983 28.789 28.9671 28.3249 29.0508 27.8747C29.2585 26.7576 30.6464 25.8324 32.0562 25.7657C33.9396 25.6769 35.2992 26.6596 35.5679 27.7175C35.696 28.2215 35.654 28.7524 35.6694 29.2716C35.6755 29.467 35.7613 29.5441 36.0206 29.5389C36.5349 29.5285 37.0503 29.5233 37.5639 29.5407C37.8962 29.5518 38.0113 29.4704 38.0082 29.2071C37.993 27.9766 37.9913 26.7457 38.0093 25.515C38.0133 25.2456 37.8931 25.1898 37.5671 25.1918C35.8249 25.2033 34.0823 25.1972 32.3399 25.1972ZM14.0838 31.5639C13.9361 31.5524 13.8442 31.5387 13.752 31.5387C11.4266 31.5374 9.10112 31.5419 6.77591 31.5329C6.44194 31.5316 6.39987 31.6463 6.40059 31.8601C6.4076 33.9516 6.41075 36.0433 6.39743 38.1348C6.396 38.4095 6.50724 38.4866 6.85814 38.485C9.12506 38.4748 11.3922 38.475 13.6592 38.485C13.9946 38.4866 14.093 38.4143 14.0913 38.153C14.0778 36.0526 14.0838 33.952 14.0838 31.8514V31.5639ZM50.5991 31.5584V31.8683C50.5991 33.9609 50.6074 36.0533 50.5897 38.1458C50.587 38.4343 50.7147 38.4859 51.0499 38.4846C53.3062 38.4753 55.5627 38.4738 57.819 38.4858C58.1798 38.4876 58.2744 38.3979 58.2729 38.1317C58.2611 36.0481 58.2601 33.9646 58.2739 31.8811C58.2758 31.6085 58.1697 31.53 57.8185 31.5316C55.5622 31.5422 53.3059 31.5368 51.0497 31.538C50.9116 31.538 50.7735 31.55 50.5991 31.5584ZM26.8063 13.045H37.8824C37.6246 12.5605 37.3978 12.1098 37.1478 11.6666C36.2484 10.0747 35.01 8.68646 33.1138 7.68552C32.9544 7.60146 32.8378 7.39604 32.8214 7.23961C32.7795 6.84714 32.7977 6.45021 32.8103 6.05533C32.8165 5.85417 32.713 5.77438 32.4582 5.79516C32.3771 5.80184 32.2937 5.80184 32.2127 5.79516C31.9522 5.77382 31.8618 5.86234 31.8691 6.05978C31.8831 6.42757 31.8541 6.79666 31.8792 7.1639C31.8976 7.43 31.7406 7.58328 31.4879 7.74732C30.8297 8.17449 30.1506 8.59442 29.5758 9.08376C28.2467 10.2159 27.5185 11.6104 26.8063 13.045ZM32.3421 50.5689C33.8504 50.5689 35.3584 50.569 36.8667 50.5689C37.4841 50.5689 37.9436 50.2203 37.9439 49.7451C37.9451 48.1016 37.9485 46.4578 37.9383 44.8143C37.9368 44.5565 37.9006 44.2936 37.8271 44.0421C37.1461 41.7101 34.4056 40.2942 31.3257 40.6745C28.9523 40.9673 26.861 42.6545 26.7674 44.4951C26.6767 46.2797 26.7384 48.0691 26.7451 49.8563C26.7463 50.2116 27.2581 50.5689 27.7122 50.5689C29.2556 50.569 30.799 50.5689 32.3421 50.5689ZM32.3414 14.7919C30.576 14.7919 28.8106 14.7947 27.0455 14.7886C26.7918 14.7877 26.6707 14.8205 26.6716 15.0491C26.681 17.7703 26.6806 20.4914 26.6721 23.2125C26.6714 23.4319 26.778 23.4902 27.0411 23.49C30.5716 23.4863 34.1021 23.4855 37.6326 23.4911C37.9281 23.4915 38.0092 23.4063 38.0084 23.1892C38.0014 20.486 37.9997 17.7829 38.0106 15.0798C38.0118 14.83 37.894 14.7858 37.6021 14.7873C35.8486 14.7966 34.0951 14.7919 32.3414 14.7919ZM50.6197 50.5583C50.7614 50.5634 50.8753 50.5714 50.9897 50.5714C53.2813 50.5711 55.5734 50.564 57.865 50.5752C58.211 50.5768 58.2707 50.474 58.2703 50.245C58.2645 46.8857 58.2635 43.5264 58.272 40.1671C58.2724 39.9214 58.1769 39.8502 57.8541 39.8517C55.5622 39.8622 53.2706 39.8571 50.9786 39.858C50.8651 39.858 50.7517 39.8676 50.6197 39.8734V50.5583ZM14.065 39.873C13.9651 39.866 13.9075 39.8585 13.85 39.8585C11.4771 39.8578 9.10427 39.8619 6.73117 39.8522C6.4122 39.8509 6.40301 39.9736 6.40325 40.1525C6.40567 43.5198 6.4076 46.8868 6.39914 50.2541C6.39842 50.5 6.49297 50.5755 6.81799 50.5742C9.10886 50.5651 11.4 50.5711 13.6911 50.5713C13.8142 50.5713 13.9373 50.562 14.065 50.557V39.873ZM61.9134 35.8453C61.912 36.9168 61.9108 37.9882 61.9096 39.0597C61.3016 39.0575 60.6934 39.0504 60.0854 39.0584C59.9974 39.0597 59.8567 39.1183 59.8318 39.1744C59.6666 39.5501 59.3055 39.7587 58.8199 39.9185V40.2462C58.8199 43.5977 58.8228 46.9492 58.8141 50.3007C58.8134 50.5464 58.8799 50.7524 59.0727 50.9492C59.3135 51.1953 59.5259 51.4579 59.7505 51.7132C59.779 51.7056 59.8076 51.6978 59.8359 51.6902V48.8627H61.8985V49.1656C61.8985 50.0012 61.8987 50.8368 61.8985 51.6724C61.8982 52.0198 61.8975 52.0146 61.4298 52.0226C60.8893 52.0315 60.3493 52.0509 59.7612 52.0671C59.7612 52.5423 59.7474 52.9539 59.767 53.3644C59.7778 53.5954 59.6896 53.673 59.3733 53.6693C58.1462 53.6548 56.9184 53.6633 55.6285 53.6633C55.6285 53.2679 55.6307 52.886 55.6278 52.5041C55.6241 52.0459 55.6839 52.1024 55.1028 52.1009C53.9562 52.0983 52.81 52.1068 51.6639 52.0955C51.3836 52.0927 51.2975 52.1602 51.3065 52.371C51.3246 52.7906 51.312 53.2109 51.312 53.6468H47.2232V52.0816C47.6906 52.0816 48.1542 52.0732 48.6168 52.0853C48.8326 52.091 48.9607 52.035 49.0642 51.8917C49.2654 51.6132 49.4869 51.3432 49.7505 51.0049C48.5501 51.0812 47.4161 50.8375 46.3668 51.3018C46.0854 51.4263 45.7666 51.5002 45.4723 51.6087C44.7299 51.8825 43.9773 52.114 43.1256 52.029C43.0605 52.0226 42.9899 52.0458 42.8927 52.0593V53.6403H38.7482V52.0873H40.0756C40.0816 52.0626 40.0879 52.038 40.094 52.0133C39.6009 51.8439 39.1063 51.6763 38.6149 51.5043C38.162 51.3458 37.7144 51.1784 37.259 51.0246C37.1683 50.994 37.0522 51.0008 36.948 51.0008C33.8724 50.9995 30.7968 50.9958 27.7212 51.0079C27.4863 51.0088 27.2462 51.1135 27.0191 51.1884C26.2073 51.4557 25.4003 51.7308 24.6037 52.0652H25.9836V53.6778L25.9945 53.6693H21.8156V52.0708C21.708 52.0513 21.6391 52.0231 21.577 52.03C20.6324 52.1361 19.8051 51.8544 19.0097 51.5353C17.978 51.1211 16.907 50.9244 15.7464 51.0146C15.508 51.0331 15.2652 51.0173 14.9343 51.0173C15.2236 51.3851 15.4596 51.701 15.7217 52.0033C15.7689 52.0578 15.9237 52.0764 16.0296 52.0782C16.4954 52.086 16.9614 52.0816 17.4566 52.0816V53.642H13.369C13.369 53.2239 13.3549 52.8134 13.3748 52.4037C13.3859 52.1755 13.3083 52.0905 12.9866 52.0944C11.7951 52.1088 10.6029 52.0998 9.41067 52.1009C9.30813 52.1009 9.20559 52.1105 9.06074 52.1178V53.6826L9.07186 53.6745C7.67045 53.6735 6.26903 53.6726 4.86762 53.6715L4.8785 53.68V52.1426C4.33245 51.9405 3.75544 52.0331 3.19488 52.027C2.88872 52.0237 2.76949 51.9728 2.77554 51.7121C2.79779 50.7707 2.78425 49.829 2.78425 48.8661H4.82917V51.6783C4.86133 51.6891 4.8935 51.6999 4.92566 51.7108C5.10897 51.5043 5.27583 51.2873 5.4797 51.0938C5.78199 50.8065 5.87195 50.4928 5.8705 50.1246C5.8555 46.8382 5.86179 43.5519 5.86179 40.2653V39.9131C5.30582 39.7596 4.97016 39.4926 4.77283 39.0623H2.77699V35.8357L2.76562 35.844H4.84296V36.5943C4.84296 37.1333 4.85263 37.6726 4.83788 38.2115C4.8328 38.4048 4.89954 38.4816 5.16774 38.4839C5.86179 38.4894 5.86179 38.4983 5.86179 37.9708C5.86179 35.9761 5.86082 33.9815 5.86324 31.9868C5.86348 31.7655 5.91064 31.5658 5.50364 31.4793C5.27849 31.4313 5.11163 31.2219 4.85747 31.0425V32.5174H2.8152V29.3984H4.83691V30.1668C5.1288 30.1668 5.382 30.1711 5.6352 30.1655C5.88211 30.1603 5.85381 30.0141 5.85405 29.8903C5.85599 29.2163 5.85526 28.5426 5.85526 27.8686V27.5283C6.32925 27.6724 6.74061 27.8148 7.16768 27.9192C7.3493 27.9636 7.60274 27.984 7.75678 27.92C8.50331 27.6108 9.21357 27.6028 9.95164 27.9391C10.0963 28.005 10.3785 28.0003 10.5279 27.9346C11.2723 27.6079 11.9823 27.6095 12.7204 27.9456C12.8575 28.0081 13.102 27.987 13.2701 27.9435C13.7199 27.8274 14.1547 27.6782 14.6582 27.5229V30.172C14.9276 30.172 15.1464 30.1794 15.3643 30.17C15.5955 30.1599 15.6407 30.2396 15.6678 30.4067C15.7607 30.979 15.4366 31.3401 14.7728 31.5571C14.7302 31.571 14.7007 31.6177 14.6775 31.6537C14.663 31.6758 14.6698 31.7068 14.671 31.7337C14.6852 32.0724 14.7 32.4112 14.715 32.7501C15.2195 32.9136 15.722 33.0813 16.231 33.2359C16.3029 33.2578 16.4124 33.2251 16.4963 33.2008C16.8779 33.0898 17.2581 32.9757 17.6363 32.8573C17.9875 32.7473 18.0465 32.6246 17.8576 32.3634C17.5638 31.9566 17.2574 31.5552 16.9244 31.1091C17.1754 31.0239 17.3959 30.9256 17.6337 30.8749C17.9113 30.8157 18.0288 30.722 18.0189 30.4843C17.9942 29.8829 18.0109 29.2806 18.0109 28.6788V28.3295C18.3166 28.4193 18.5768 28.4852 18.8242 28.5721C19.014 28.6387 19.1429 28.6181 19.2781 28.4936C19.5477 28.2455 19.8445 28.0148 20.111 27.7648C20.2454 27.6389 20.3509 27.6424 20.5223 27.7199C21.1107 27.9868 21.1138 27.981 21.6297 27.6448C21.8435 27.5054 22.0609 27.3692 22.278 27.2328C22.3044 27.2163 22.3399 27.2087 22.3859 27.1916C22.7036 27.3982 23.0359 27.5973 23.3404 27.8188C23.5259 27.9539 23.6792 27.9727 23.8864 27.858C24.0451 27.77 24.2257 27.7055 24.4148 27.6223C24.7592 27.9204 25.0949 28.2056 25.4221 28.4965C25.5435 28.6045 25.6557 28.6437 25.8441 28.58C26.0223 28.5201 26.1369 28.4611 26.1357 28.2932C26.1289 27.3317 26.136 26.3703 26.1258 25.4091C26.1251 25.3245 26.0426 25.2361 25.9805 25.1576C25.9394 25.1055 25.8753 25.0584 25.808 25.025C25.1752 24.7091 25.0775 24.2436 25.1471 23.7138C25.1706 23.5358 25.2487 23.484 25.4661 23.4859C26.1759 23.4924 26.1277 23.5557 26.128 22.9535C26.1287 20.3571 26.1253 17.7603 26.134 15.1638C26.1348 14.9508 26.0898 14.7777 25.8552 14.6517C25.8269 14.6364 25.809 14.6092 25.78 14.5956C25.0792 14.2698 25.1041 13.7476 25.1662 13.2235C25.1735 13.1606 25.3082 13.0601 25.3897 13.0565C25.9834 13.0309 26.3316 12.8185 26.5427 12.3768C27.1163 11.1775 27.8329 10.0309 28.8803 9.02327C29.5117 8.41554 30.2321 7.87944 31.0633 7.43594C31.2596 7.33109 31.3363 7.21363 31.3322 7.03382C31.3211 6.54875 31.3288 6.06349 31.3288 5.57824C31.3288 5.45743 31.3215 5.3396 31.5523 5.3396C32.8601 5.34183 34.1679 5.34071 35.5004 5.34071V7.31086H33.5104C33.5887 7.38862 33.6122 7.42684 33.6514 7.44855C35.543 8.49236 36.7932 9.91046 37.6931 11.533C37.8665 11.8461 38.0539 12.1567 38.1896 12.4798C38.3513 12.8643 38.7151 13.0252 39.1876 13.0382C39.4882 13.0465 39.4938 13.1484 39.5332 13.3317C39.6599 13.9203 39.3627 14.3436 38.7791 14.6994C38.6507 14.7777 38.5564 14.9512 38.5559 15.0811C38.5431 17.7764 38.5499 20.4719 38.54 23.1673C38.5392 23.4156 38.6408 23.5178 38.9605 23.4887C39.0297 23.4824 39.1015 23.4933 39.1707 23.487C39.4437 23.4619 39.5027 23.5525 39.5351 23.7594C39.6207 24.3065 39.4316 24.7446 38.827 25.0545C38.5692 25.1868 38.5363 25.3681 38.539 25.5857C38.5499 26.4661 38.5475 27.3468 38.5402 28.2271C38.5392 28.3967 38.5842 28.504 38.8152 28.5789C39.0645 28.6596 39.1789 28.5674 39.3136 28.4466C39.5646 28.2215 39.835 28.0083 40.0717 27.7751C40.2127 27.6363 40.3235 27.6392 40.5073 27.7222C41.0765 27.9792 41.0809 27.9738 41.5841 27.65C41.817 27.5004 42.0485 27.3496 42.3133 27.1777C42.6542 27.3946 43.0037 27.6003 43.3261 27.8287C43.5169 27.964 43.6646 27.9567 43.8738 27.8576C44.3904 27.6132 44.394 27.6216 44.7928 27.9619C45.0498 28.1818 45.2704 28.5069 45.5879 28.5817C45.8771 28.6496 46.2757 28.4433 46.6735 28.3464V29.4028C46.6737 29.7981 46.6604 30.1939 46.6848 30.5882C46.6902 30.6734 46.8096 30.7866 46.9158 30.8293C47.169 30.9312 47.4456 30.9989 47.7598 31.0948C47.4456 31.5192 47.1598 31.9046 46.8744 32.2902C46.5956 32.6671 46.6573 32.6925 47.1516 32.903C48.0077 33.2674 48.8064 33.2444 49.6432 32.8811C49.8949 32.772 50.0465 32.6872 50.0212 32.4465C49.9914 32.1622 50.0144 31.8746 50.0144 31.6905C49.6507 31.4387 49.2761 31.2817 49.1194 31.041C48.974 30.8183 49.0577 30.5058 49.0548 30.2329C49.0546 30.2138 49.1697 30.1817 49.2335 30.1768C49.3612 30.1672 49.4918 30.1633 49.619 30.1729C49.9138 30.1954 50.0311 30.1199 50.0231 29.8734C50.0011 29.2 50.0149 28.5259 50.0144 27.8521C50.0141 27.7576 50.0144 27.6633 50.0144 27.5208C50.5309 27.6812 50.9757 27.833 51.4347 27.9536C51.5916 27.9949 51.8233 28.0081 51.9531 27.948C52.7028 27.6004 53.4249 27.6121 54.1763 27.946C54.3149 28.0076 54.5821 28.0035 54.7221 27.9406C55.4575 27.6095 56.169 27.6019 56.9165 27.9189C57.0691 27.9836 57.3237 27.964 57.5051 27.9196C57.9252 27.8172 58.329 27.6756 58.7943 27.5333C58.8057 27.6502 58.8224 27.7417 58.8226 27.8333C58.8248 28.5162 58.834 29.1991 58.818 29.8818C58.8129 30.1102 58.9232 30.1935 59.2054 30.172C59.2864 30.1657 59.3699 30.165 59.4506 30.1724C59.75 30.1993 59.8842 30.1139 59.8465 29.8708C59.8231 29.7218 59.8419 29.5691 59.8419 29.3993H61.8694C61.8801 29.47 61.897 29.5303 61.897 29.5908C61.8989 30.4893 61.8914 31.3876 61.904 32.2862C61.9067 32.4869 61.829 32.5543 61.5662 32.5484C61.008 32.5356 60.4489 32.5445 59.8514 32.5445V31.0213C59.6988 31.1238 59.6153 31.177 59.5358 31.2336C59.4158 31.319 59.3126 31.4628 59.1774 31.4828C58.7605 31.545 58.8182 31.766 58.8185 31.9867C58.8209 34.0351 58.818 36.0838 58.8253 38.1322C58.8257 38.2428 58.8896 38.4421 58.9513 38.4486C59.2219 38.4772 59.5038 38.4575 59.7783 38.4338C59.81 38.431 59.8388 38.2922 59.8395 38.2163C59.8441 37.5425 59.8419 36.8685 59.8422 36.1947V35.8453H61.9134Z" fill="#F5F5F7"/>
<path fill-rule="evenodd" clip-rule="evenodd" d="M47.5948 20.5371C47.5668 20.5872 47.5387 20.6371 47.5102 20.687C47.6589 20.7375 47.8077 20.7879 47.9561 20.8384C47.9847 20.7857 48.0425 20.6889 48.0374 20.687C47.8937 20.6313 47.7438 20.5849 47.5948 20.5371ZM48.8499 20.497C48.7532 20.6059 48.6567 20.6681 48.6565 20.7306C48.6562 20.7753 48.7936 20.8625 48.8545 20.8553C48.9423 20.8451 49.0166 20.7662 49.0966 20.7167C49.0311 20.6582 48.9655 20.5998 48.8499 20.497ZM48.4137 20.5437L48.2238 20.4562C48.1888 20.5393 48.1153 20.6272 48.1317 20.7039C48.1448 20.7651 48.265 20.852 48.3423 20.8547C48.4226 20.8579 48.5085 20.7737 48.5919 20.7276C48.5324 20.6662 48.4732 20.605 48.4137 20.5437ZM48.3987 20.5243C48.4526 20.525 48.5068 20.5257 48.5605 20.5265C48.6234 20.4649 48.7298 20.4077 48.7409 20.3411C48.7784 20.1136 48.4843 20.2457 48.3798 20.1631C48.324 20.216 48.2132 20.2769 48.2238 20.3198C48.2425 20.3938 48.3363 20.4567 48.3987 20.5243ZM53.4068 14.8549C53.3512 14.735 53.3219 14.6264 53.2518 14.5368C53.1983 14.4687 53.0926 14.4247 53.0107 14.37C52.9492 14.459 52.8252 14.5552 52.8406 14.6351C52.8631 14.7487 52.9792 14.8558 53.0747 14.9541C53.1045 14.9847 53.2116 15.0005 53.26 14.9836C53.3209 14.9623 53.3579 14.9005 53.4068 14.8549ZM52.7991 14.4433C52.8842 14.2935 53.1623 14.1729 52.9292 13.987C52.7812 13.8693 52.5575 13.804 52.3575 13.7318C52.3055 13.7131 52.201 13.7431 52.1485 13.7767C52.1224 13.7938 52.1362 13.8838 52.171 13.9148C52.3647 14.0879 52.5703 14.2529 52.7991 14.4433ZM53.505 12.5928C53.3775 12.5928 53.3067 12.5765 53.2641 12.596C53.1458 12.6501 53.0397 12.7194 52.9287 12.7825C53.0356 12.8489 53.1306 12.9417 53.2527 12.9741C53.3765 13.007 53.5374 13.004 53.6626 12.9721C53.7652 12.9461 53.8392 12.8543 53.9257 12.7915C53.8433 12.7279 53.7712 12.6513 53.6745 12.6052C53.614 12.5765 53.5163 12.5934 53.505 12.5928ZM50.0959 12.2668C49.8427 12.3555 49.5747 12.6813 49.6925 12.7967C49.8202 12.9218 50.0586 12.9806 50.2487 13.0682C50.2799 13.0191 50.3491 12.9628 50.3362 12.9213C50.27 12.7075 50.1827 12.4972 50.0959 12.2668ZM47.5092 12.1497C47.3895 12.4393 47.2834 12.6973 47.1767 12.9552L47.2838 13.0229C47.4892 12.9116 47.7798 12.8329 47.8792 12.6808C48.0113 12.4783 47.7702 12.3133 47.5092 12.1497ZM51.3836 18.6955C51.4228 18.6911 51.4622 18.6866 51.5014 18.6821C51.5222 18.6346 51.558 18.5877 51.5614 18.5393C51.6104 17.8514 51.6479 17.1627 51.705 16.4752C51.7251 16.2345 51.541 16.2507 51.3304 16.2494C51.0866 16.2477 50.9452 16.3101 50.9732 16.5146C51.0424 17.0213 51.1019 17.529 51.1872 18.0342C51.2252 18.2574 51.3166 18.4752 51.3836 18.6955ZM52.7845 12.0729C52.5971 12.1185 52.4622 12.024 52.4162 11.8802C52.3538 11.6863 52.4881 11.546 52.7306 11.4911C53.1734 11.3909 53.5591 11.6782 53.4476 12.0265C53.3993 12.1777 53.3084 12.3208 53.1877 12.5681C53.4544 12.5175 53.7405 12.5228 53.7867 12.4447C54.1158 11.8854 53.918 11.3057 53.0897 11.1485C52.7246 11.0793 52.3911 11.1684 52.1437 11.3896C51.9173 11.5917 51.8977 11.8275 52.0356 12.0684C52.1664 12.2968 52.5093 12.4115 52.8643 12.3423C53.142 12.2883 53.2859 12.138 53.2339 11.9244C53.2109 11.8296 53.0984 11.727 52.9891 11.6737C52.9296 11.6449 52.7098 11.7036 52.7035 11.7381C52.6864 11.8316 52.7444 11.9335 52.7845 12.0729ZM46.7218 18.0349C46.6848 18.0379 46.6481 18.0408 46.6113 18.044C46.5905 18.0637 46.5559 18.0815 46.5506 18.1034C46.3707 18.8226 46.1879 19.5417 46.0283 20.2637C46.0157 20.3216 46.1656 20.4578 46.2471 20.4614C46.6979 20.4808 47.1508 20.4706 47.6272 20.4706C47.5421 20.3229 47.4964 20.168 47.3803 20.0557C47.0577 19.7432 46.8648 19.406 46.8466 19.0011C46.8323 18.6783 46.7654 18.3569 46.7218 18.0349ZM47.0415 13.2141C47.5941 14.128 49.0828 14.2874 50.0117 13.5724C50.1341 13.4781 50.3329 13.3813 50.1203 13.2191C49.9038 13.0539 49.575 13.0267 49.4236 13.1822C49.0545 13.562 48.2686 13.5706 47.9765 13.1001C47.9457 13.0508 47.8069 12.9983 47.7419 13.0122C47.5114 13.0615 47.2916 13.1393 47.0415 13.2141ZM45.8237 19.3441L45.9221 19.3513C45.9535 19.2882 45.9983 19.227 46.0145 19.1615C46.1557 18.5825 46.302 18.0041 46.4256 17.4229C46.4928 17.1056 46.5315 16.7836 46.5588 16.4626C46.584 16.1651 46.444 16.0974 45.9811 16.0827C45.6157 16.0712 45.6242 16.2386 45.6341 16.4309C45.68 17.3175 45.7221 18.2045 45.7695 19.0911C45.7741 19.1759 45.805 19.2598 45.8237 19.3441ZM51.0542 16.0725C51.9442 16.2132 52.1159 16.1657 52.6012 15.6832C52.6583 15.6264 52.7108 15.5659 52.7758 15.5147C52.9974 15.3401 53.0743 15.184 52.8094 14.9714C52.6571 14.8491 52.6039 14.6543 52.5009 14.4941C52.4341 14.3902 52.3768 14.2777 52.2813 14.1913C52.1052 14.0317 51.9302 14.0554 51.8508 14.2553C51.7834 14.4243 51.7321 14.6062 51.7377 14.7812C51.7466 15.0742 51.6329 15.3241 51.4279 15.5633C51.2966 15.7161 51.1923 15.8823 51.0542 16.0725ZM50.743 17.46C50.7128 17.4613 50.6828 17.4626 50.6526 17.4637C50.6148 17.6959 50.5585 17.9273 50.5428 18.1603C50.4932 18.8933 50.2946 19.5935 49.8192 20.2376C49.6889 20.4142 49.7713 20.4901 50.0165 20.4816C50.3892 20.4686 50.7626 20.4582 51.1326 20.4265C51.2013 20.4205 51.3166 20.3133 51.3084 20.2626C51.1652 19.3769 51.0071 18.4925 50.8465 17.6085C50.8371 17.5563 50.7786 17.5094 50.743 17.46ZM46.1547 15.9183C46.1748 15.8833 46.1946 15.8484 46.2147 15.8133C46.0466 15.6222 45.8655 15.437 45.7129 15.2388C45.4072 14.8419 45.2551 14.441 45.6592 14.0142C45.7216 13.9486 45.6491 13.7999 45.6126 13.6949C45.607 13.6789 45.436 13.667 45.3794 13.6964C44.9889 13.8988 44.5819 14.0582 44.0989 14.0784C43.8718 14.0879 43.8368 14.1824 43.9118 14.3377C44.0208 14.5635 44.1437 14.7908 44.1971 15.0261C44.3067 15.5106 44.5739 15.8265 45.2899 15.8209C45.5777 15.8189 45.8665 15.8838 46.1547 15.9183ZM49.4337 19.9646C49.4702 19.9718 49.5063 19.9791 49.5428 19.9863C49.6071 19.9056 49.7005 19.831 49.7314 19.7434C49.9043 19.2539 50.0985 18.7664 50.2146 18.2683C50.3229 17.8033 50.256 17.3067 50.4231 16.8588C50.6455 16.2626 51.0168 15.699 51.3319 15.1237C51.4218 14.9591 51.5676 14.8098 51.6308 14.6409C51.6615 14.5594 51.5962 14.4104 51.5086 14.362C51.4172 14.3111 51.2085 14.3009 51.1176 14.3481C50.7229 14.5537 50.3517 14.7868 49.9725 15.01C49.6644 15.1915 49.4286 15.3982 49.4688 15.7292C49.4901 15.9066 49.4724 16.0868 49.4695 16.2657C49.4502 17.4053 49.4294 18.545 49.4115 19.6846C49.41 19.7779 49.426 19.8713 49.4337 19.9646ZM47.8072 20.0802C47.8442 19.978 47.8775 19.9282 47.8783 19.8779C47.902 18.4086 47.9286 16.9393 47.9317 15.47C47.932 15.3423 47.8033 15.1926 47.6812 15.0909C47.2413 14.7238 46.7813 14.3709 46.3206 14.0191C46.257 13.9703 46.1368 13.9229 46.0609 13.9363C45.9688 13.9524 45.8452 14.0237 45.8234 14.0885C45.7119 14.4223 45.6575 14.7561 45.9787 15.0556C46.1492 15.2145 46.3233 15.3767 46.4493 15.5567C46.6224 15.8048 46.8461 16.0633 46.8836 16.3308C47.0154 17.2731 47.0703 18.2216 47.1678 19.167C47.2043 19.519 47.3305 19.8468 47.8072 20.0802ZM50.7834 13.403C50.7336 13.382 50.6835 13.3612 50.6335 13.3403C50.4717 13.5039 50.3379 13.6914 50.1425 13.8266C49.5476 14.2393 48.8541 14.4457 48.0928 14.1465C47.6988 13.992 47.3711 13.7307 47.0345 13.5C46.873 13.3894 46.7627 13.2813 46.5458 13.4384C46.2338 13.6641 46.2111 13.7279 46.4991 13.9842C46.5789 13.8624 46.644 13.7628 46.7346 13.6246C46.8442 13.7272 46.9671 13.8424 47.1344 13.9996C47.0466 13.9675 47.021 13.9508 46.9941 13.9493C46.8766 13.943 46.7588 13.9411 46.6413 13.9376C46.6657 14.0207 46.6611 14.1209 46.7218 14.1833C46.8176 14.282 46.9537 14.3592 47.08 14.4386C47.4618 14.6788 48.0014 14.8602 48.1883 15.1686C48.3806 15.4854 48.2296 15.925 48.2284 16.3108C48.2248 17.4684 48.2267 18.6261 48.2122 19.7837C48.2096 19.9939 48.2882 20.0891 48.5699 20.0587C48.6386 20.0513 48.7107 20.0524 48.7798 20.0585C49.018 20.0795 49.1068 20.0101 49.109 19.818C49.1172 19.0824 49.1496 18.347 49.1667 17.6114C49.1846 16.8489 49.2006 16.0865 49.2057 15.3238C49.2069 15.1471 49.3104 15.0569 49.4981 14.9666C50.0313 14.7097 50.5536 14.4388 51.0644 14.156C51.1568 14.1048 51.247 13.9447 51.2083 13.881C51.1041 13.7084 50.9299 13.5605 50.7834 13.403ZM47.8618 11.1567C48.3387 10.8787 49.1358 10.8559 49.6381 11.099C49.7551 11.1554 49.8898 11.1901 50.0163 11.2348C50.0388 11.1233 50.0826 11.011 50.0777 10.9001C50.0736 10.8066 50.0419 10.6982 49.972 10.6247C49.7527 10.3939 49.515 10.1725 49.2731 9.95481C49.1181 9.81526 48.8995 9.76534 48.7145 9.88893C48.3726 10.1175 48.0384 10.3584 47.7441 10.6227C47.517 10.8268 47.6062 11.0825 47.8715 11.1506C47.821 11.3044 47.767 11.4577 47.7208 11.6125C47.7008 11.6802 47.7129 11.755 47.6829 11.8192C47.5549 12.0918 47.634 12.2091 47.9946 12.2618C47.9126 12.5505 48.0043 12.8795 48.2471 13.1163C48.4316 13.2961 48.6594 13.3681 48.9547 13.2653C49.3392 13.1315 49.3834 13.0064 49.2507 12.5563C49.1975 12.3757 49.129 12.2603 48.8526 12.2642C48.6192 12.2675 48.3958 12.2475 48.4072 12.5069C48.4079 12.5219 48.3438 12.5386 48.3097 12.5544C48.3254 12.4117 48.375 12.2553 48.4952 12.2104C48.8792 12.0673 49.2284 12.2239 49.3365 12.5449C49.3532 12.5952 49.4156 12.6364 49.4569 12.6817C49.5041 12.6294 49.6023 12.5672 49.589 12.5262C49.5406 12.3755 49.4715 12.2252 49.3771 12.0881C49.3261 12.0135 49.2091 11.9658 49.1218 11.906C49.1566 11.8836 49.1917 11.8613 49.2262 11.8389C49.3984 11.9979 49.5706 12.1569 49.7404 12.3141C50.2859 11.9879 50.1718 11.3688 49.5256 11.1276C48.9682 10.9196 48.412 11.0211 47.8618 11.1567ZM53.2825 13.7333C53.458 13.5394 53.6341 13.3455 53.8189 13.1415C53.525 13.0875 53.1635 12.9357 52.8762 12.9951C52.6392 13.0441 52.4798 13.3388 52.3222 13.541C52.3103 13.5563 52.5771 13.7173 52.7321 13.7867C52.8939 13.8591 53.0779 13.9736 53.251 13.7891C53.1253 14.0452 53.1299 14.2809 53.3183 14.5336C53.4317 14.6856 53.5852 14.8736 53.3763 15.079C53.2803 15.1737 53.2051 15.3115 53.2065 15.4292C53.2242 16.7291 53.2571 18.0286 53.2914 19.3281C53.295 19.4741 53.3333 19.6196 53.3574 19.7777C53.7289 19.6232 53.7988 19.5432 53.7956 19.2563C53.776 17.499 53.7533 15.7417 53.7301 13.9844C53.7291 13.9228 53.7393 13.84 53.6943 13.804C53.5865 13.7177 53.4873 13.5114 53.2825 13.7333ZM44.4607 13.8053C44.7122 13.7162 44.979 13.645 45.2092 13.5308C45.3294 13.4713 45.3857 13.336 45.4708 13.2349C45.339 13.2145 45.2055 13.1712 45.0757 13.177C44.297 13.2111 44.2975 13.215 44.4641 13.8118C44.3971 13.7216 44.3301 13.6314 44.2056 13.4635C44.0648 13.624 43.9608 13.7428 43.8566 13.8615C44.0303 13.8587 44.2039 13.858 44.3768 13.8511C44.4058 13.8498 44.4329 13.8213 44.4607 13.8053ZM45.0858 11.5932C45.1565 11.7342 45.2271 11.8749 45.2977 12.0157C45.0394 11.9116 44.7809 11.8073 44.5224 11.703L44.4614 11.7691L44.5925 12.1204C44.4701 12.0675 44.3475 12.0146 44.2249 11.9617C44.2452 12.0632 44.2614 12.1654 44.2885 12.2658C44.2972 12.2978 44.3357 12.325 44.3608 12.3544C44.2789 12.3172 44.1966 12.2801 44.0179 12.1994C44.0682 12.4676 44.1047 12.6563 44.1391 12.8454C44.1645 12.9864 44.208 13.1309 44.4447 13.1033C44.8097 13.0606 45.2338 13.1768 45.5146 12.8871C45.5209 12.8808 45.5163 12.8687 45.5214 12.8611C45.7156 12.5609 45.5149 12.3106 45.3494 12.0558C45.4164 12.0962 45.4837 12.1367 45.6275 12.2235C45.5743 11.9537 45.5567 11.7483 45.4844 11.5553C45.4542 11.4748 45.3074 11.42 45.2133 11.3534C45.1731 11.4364 45.1328 11.5191 45.0919 11.601C45.0723 11.533 45.0696 11.4581 45.0288 11.3985C44.9773 11.3239 44.8948 11.2617 44.8256 11.1942C44.7647 11.2677 44.6738 11.3362 44.6513 11.4161C44.6319 11.4855 44.6704 11.5763 44.7195 11.6416C44.7661 11.7038 44.859 11.7455 44.9318 11.7962C44.9831 11.7284 45.0346 11.6609 45.0858 11.5932ZM50.2884 20.6853C50.0755 20.682 49.8625 20.6785 49.6497 20.6751C49.5302 20.6419 49.4115 20.5888 49.2908 20.5859C49.2424 20.5846 49.19 20.6944 49.1394 20.7536C49.2212 20.7803 49.3017 20.8238 49.3851 20.8278C49.4403 20.8306 49.4997 20.7763 49.5573 20.7473C49.654 20.9602 49.8867 20.8603 50.056 20.8555C50.1333 20.8533 50.2057 20.7419 50.2801 20.6801C50.4146 20.6989 50.5491 20.7176 50.6835 20.7364C50.6835 20.6779 50.6973 20.571 50.6821 20.5684C50.5096 20.5404 50.3329 20.5282 50.1573 20.5116C50.15 20.5378 50.143 20.5642 50.136 20.5903C50.1868 20.6221 50.2376 20.6536 50.2884 20.6853ZM46.8207 20.6855C46.865 20.6449 46.9095 20.6041 47.0115 20.5105C46.8031 20.5105 46.6706 20.4886 46.5608 20.5178C46.4802 20.5391 46.4299 20.6272 46.3661 20.6855C46.4503 20.7126 46.5339 20.7596 46.6188 20.7607C46.6885 20.7616 46.7593 20.7083 46.8297 20.679C46.9291 20.8984 47.1779 20.9399 47.5448 20.7896C47.3547 20.5259 47.0706 20.6703 46.8207 20.6855ZM41.9459 9.66235H55.7799C55.7912 9.74938 55.8101 9.82676 55.8101 9.90415C55.8103 11.9886 55.8662 14.0742 55.792 16.157C55.7114 18.4018 54.2375 20.008 51.5744 20.888C47.7162 22.1628 43.3292 20.5014 42.2148 17.3897C42.0559 16.9456 41.9638 16.4734 41.9575 16.0132C41.9302 13.9918 41.9459 11.97 41.9459 9.9485V9.66235Z" fill="#F5F5F7"/>
<path fill-rule="evenodd" clip-rule="evenodd" d="M19.1808 18.9056C19.5546 18.9039 19.929 18.8933 20.3021 18.9039C20.5273 18.9104 20.6898 18.8616 20.7817 18.7007C21.0571 18.2195 21.3454 17.7421 21.5986 17.254C21.6934 17.0711 21.7048 16.8627 21.7592 16.6461H19.1812C19.1812 15.9078 19.181 15.1692 19.181 14.4307H21.7628V12.1706H19.1803V9.97392H16.5934V12.1708H13.9681V9.97373H11.3283V12.1705H8.71672V10.0971C8.70656 10.0971 8.6964 10.0973 8.68625 10.0973V15.9657H8.73534V14.4308H11.3285C11.3212 15.1705 11.314 15.91 11.3065 16.6496L11.3183 16.6415H8.76654C8.81805 17.2759 9.18805 18.0458 9.70387 18.6758C9.83736 18.839 9.98416 18.9156 10.2398 18.9045C10.595 18.8891 10.9522 18.9006 11.3234 18.9006C11.3234 19.2381 11.3053 19.5261 11.3331 19.8113C11.3435 19.9178 11.4267 20.0663 11.5365 20.113C12.0743 20.3422 12.6266 20.5532 13.1862 20.7501C13.4199 20.8325 13.6839 20.8644 13.9932 20.9321V18.9061H16.5922V20.9113C17.5162 20.7622 18.3358 20.4845 19.0756 20.0691C19.1392 20.0334 19.1967 19.9551 19.1974 19.8963C19.202 19.5662 19.1883 19.2359 19.1808 18.9056ZM8.27199 9.65308H22.2073V9.96223C22.2073 11.8665 22.1746 13.7713 22.2194 15.6751C22.2465 16.8124 21.9517 17.861 21.1684 18.8276C19.6813 20.6625 16.7528 21.6629 14.0457 21.2576C11.0903 20.815 8.85795 19.1019 8.38009 16.8989C8.31479 16.599 8.2657 16.293 8.26425 15.9898C8.25409 13.9417 8.25893 11.8936 8.25917 9.84551C8.25917 9.79244 8.26594 9.73918 8.27199 9.65308Z" fill="#F5F5F7"/>
<path fill-rule="evenodd" clip-rule="evenodd" d="M4.86766 53.6706V55.2635H0.699219V52.0835C1.31879 52.0835 1.92264 52.0773 2.52553 52.0929C2.5872 52.0946 2.68973 52.2263 2.6936 52.3003C2.71174 52.6494 2.70013 52.9997 2.704 53.3493C2.70497 53.4552 2.72044 53.561 2.73036 53.6793C3.46287 53.6793 4.17071 53.6793 4.87855 53.6792L4.86766 53.6706Z" fill="#F5F5F7"/>
<path fill-rule="evenodd" clip-rule="evenodd" d="M34.4867 53.6705L30.2031 53.67L30.2145 53.6789V52.1021H34.4751V53.6792L34.4867 53.6705Z" fill="#F5F5F7"/>
<path fill-rule="evenodd" clip-rule="evenodd" d="M30.2022 53.6704V55.2657H25.9953V53.6694L25.9844 53.678C26.7299 53.6852 27.4755 53.6978 28.2211 53.6986C28.8851 53.6991 29.5495 53.6863 30.2135 53.6795C30.2135 53.6793 30.2022 53.6704 30.2022 53.6704Z" fill="#F5F5F7"/>
<path fill-rule="evenodd" clip-rule="evenodd" d="M9.0625 53.6827C10.3111 53.6885 11.5597 53.6944 12.8082 53.7C12.9458 53.7007 13.0834 53.7002 13.245 53.7002V55.2599C13.1606 55.2675 13.0827 55.2803 13.0048 55.2803C11.8138 55.2818 10.6226 55.277 9.43129 55.2851C9.18874 55.2868 9.10506 55.2315 9.10651 55.0419C9.10966 54.5862 9.08668 54.1303 9.07387 53.6746C9.07362 53.6746 9.0625 53.6827 9.0625 53.6827Z" fill="#F5F5F7"/>
<path fill-rule="evenodd" clip-rule="evenodd" d="M25.9909 1.75073V3.34648H21.8064C21.8064 2.86478 21.7975 2.39218 21.82 1.92033C21.8224 1.87264 22.0127 1.79192 22.1167 1.791C23.2262 1.78153 24.3362 1.78617 25.446 1.78395C25.6312 1.78358 25.8165 1.76817 26.0017 1.75964C26.0017 1.75945 25.9909 1.75073 25.9909 1.75073Z" fill="#F5F5F7"/>
<path fill-rule="evenodd" clip-rule="evenodd" d="M2.779 35.8344H0.703125V32.6197C1.32923 32.6197 1.94445 32.613 2.55845 32.6303C2.62012 32.6321 2.72411 32.78 2.72532 32.8606C2.73741 33.7483 2.73185 34.6363 2.73427 35.5239C2.73475 35.6302 2.75579 35.7365 2.76764 35.8428L2.779 35.8344Z" fill="#F5F5F7"/>
<path fill-rule="evenodd" clip-rule="evenodd" d="M2.74999 19.6099C2.74394 20.5782 2.72677 21.5465 2.73862 22.5148C2.74152 22.7599 2.65906 22.8439 2.33017 22.8307C1.79693 22.8096 1.26103 22.8252 0.703125 22.8252V19.6188H2.76135L2.74999 19.6099Z" fill="#F5F5F7"/>
<path fill-rule="evenodd" clip-rule="evenodd" d="M61.9401 19.6067H59.8633V16.4087H61.8985V16.7111C61.8985 17.5814 61.8976 18.4518 61.9 19.3222C61.9002 19.4199 61.9186 19.5175 61.9288 19.6153L61.9401 19.6067Z" fill="#F5F5F7"/>
<path fill-rule="evenodd" clip-rule="evenodd" d="M2.76137 19.6173C2.7691 18.6573 2.77709 17.6975 2.78482 16.7377C2.78555 16.6326 2.78482 16.5274 2.78482 16.407H4.82298V19.6082C4.12046 19.6082 3.43535 19.6082 2.75 19.6084L2.76137 19.6173Z" fill="#F5F5F7"/>
<path fill-rule="evenodd" clip-rule="evenodd" d="M34.4727 53.6796C35.639 53.6865 36.8054 53.6947 37.9717 53.6995C38.6592 53.7024 38.6595 53.7 38.6592 54.225C38.6592 54.512 38.6573 54.7991 38.6597 55.0859C38.6607 55.2128 38.6131 55.2841 38.4201 55.2833C37.1364 55.2791 35.8528 55.2811 34.4843 55.2811V53.6709L34.4727 53.6796Z" fill="#F5F5F7"/>
<path fill-rule="evenodd" clip-rule="evenodd" d="M32.3137 3.36486C31.7181 3.36486 31.1227 3.35967 30.5273 3.36783C30.3186 3.37062 30.2309 3.31977 30.2345 3.15463C30.2429 2.76924 30.242 2.3833 30.235 1.9979C30.2323 1.83963 30.3039 1.77747 30.5211 1.77858C31.7237 1.78489 32.9261 1.78489 34.1287 1.77858C34.3393 1.77747 34.4225 1.82831 34.4189 1.99215C34.4104 2.36864 34.4078 2.74549 34.4206 3.12198C34.4266 3.30604 34.348 3.37377 34.0999 3.36876C33.5048 3.35689 32.9091 3.36486 32.3137 3.36486Z" fill="#F5F5F7"/>
<path fill-rule="evenodd" clip-rule="evenodd" d="M38.7344 3.36253V1.80575C38.8485 1.79833 38.9494 1.7859 39.0505 1.7859C40.2062 1.7846 41.3621 1.79035 42.5181 1.78107C42.7867 1.77885 42.8963 1.8308 42.8832 2.05161C42.862 2.41863 42.889 2.78713 42.8675 3.15416C42.8634 3.22596 42.7328 3.35288 42.6591 3.35362C41.3648 3.36606 40.07 3.36253 38.7344 3.36253Z" fill="#F5F5F7"/>
<path fill-rule="evenodd" clip-rule="evenodd" d="M0.68073 42.2688V41.0766C0.68073 40.493 0.688469 39.9094 0.675894 39.326C0.672266 39.146 0.756182 39.0902 0.980117 39.0939C1.47103 39.1023 1.96292 39.0878 2.45287 39.1043C2.54864 39.1076 2.71864 39.2093 2.71937 39.2666C2.73219 40.2448 2.72396 41.2231 2.71913 42.2015C2.71913 42.2174 2.70026 42.2332 2.67753 42.2688H0.68073Z" fill="#F5F5F7"/>
<path fill-rule="evenodd" clip-rule="evenodd" d="M51.4375 55.2801V53.6997H52.3925C53.3277 53.6997 54.2633 53.7061 55.1982 53.6957C55.4517 53.6929 55.5566 53.7415 55.5469 53.9489C55.5293 54.3256 55.5511 54.7034 55.5327 55.0799C55.529 55.1485 55.4125 55.271 55.3465 55.2716C54.0524 55.2831 52.7577 55.2801 51.4375 55.2801Z" fill="#F5F5F7"/>
<path fill-rule="evenodd" clip-rule="evenodd" d="M9.05786 3.36322H6.20885C5.8698 3.36322 5.53075 3.35635 5.19243 3.36544C4.99195 3.37101 4.92109 3.30644 4.9223 3.16078C4.92666 2.76592 4.91239 2.3707 4.9356 1.97659C4.93971 1.91035 5.09207 1.79456 5.17743 1.79382C6.3924 1.78176 7.60736 1.7825 8.82207 1.79271C8.90164 1.79345 9.04504 1.89476 9.04746 1.95209C9.06608 2.40818 9.05786 2.86482 9.05786 3.36322Z" fill="#F5F5F7"/>
<path fill-rule="evenodd" clip-rule="evenodd" d="M17.4854 3.3498H13.376C13.376 2.86032 13.3704 2.38011 13.3859 1.90046C13.3873 1.86094 13.5291 1.79098 13.6062 1.79061C14.8192 1.78356 16.032 1.78245 17.245 1.79265C17.326 1.79339 17.4724 1.89341 17.4748 1.95C17.4936 2.40572 17.4854 2.86199 17.4854 3.3498Z" fill="#F5F5F7"/>
<path fill-rule="evenodd" clip-rule="evenodd" d="M47.0844 53.7007V55.2565C46.9937 55.2656 46.9161 55.2803 46.8382 55.2803C45.6579 55.2817 44.4772 55.2767 43.2966 55.2853C43.0531 55.2869 42.966 55.2302 42.973 55.0418C42.9873 54.6652 42.9665 54.2874 42.9878 53.9111C42.9917 53.8387 43.1215 53.7103 43.195 53.7096C44.4784 53.6971 45.7621 53.7007 47.0844 53.7007Z" fill="#F5F5F7"/>
<path fill-rule="evenodd" clip-rule="evenodd" d="M0.699219 48.7629V45.6068C1.33209 45.6068 1.94755 45.6024 2.56253 45.6139C2.62057 45.615 2.72383 45.7163 2.72431 45.7715C2.73447 46.7139 2.7352 47.6564 2.72262 48.5988C2.7219 48.654 2.59566 48.7542 2.52504 48.7557C1.93014 48.7683 1.33475 48.7629 0.699219 48.7629Z" fill="#F5F5F7"/>
<path fill-rule="evenodd" clip-rule="evenodd" d="M61.8957 45.516H59.8672V42.3708C60.4962 42.3708 61.1112 42.3673 61.7259 42.3765C61.7835 42.3775 61.8882 42.4594 61.8884 42.5041C61.8978 43.4973 61.8957 44.4905 61.8957 45.516Z" fill="#F5F5F7"/>
<path fill-rule="evenodd" clip-rule="evenodd" d="M2.80469 45.5027H4.81817V42.3887H2.80469V45.5027Z" fill="#F5F5F7"/>
<path fill-rule="evenodd" clip-rule="evenodd" d="M51.3087 3.34897H47.1927C47.1927 2.86393 47.1859 2.39226 47.2033 1.92115C47.205 1.87439 47.355 1.792 47.437 1.79145C48.6505 1.7831 49.8637 1.78254 51.0772 1.79293C51.1551 1.79367 51.2961 1.89721 51.2985 1.95547C51.3169 2.41082 51.3087 2.86672 51.3087 3.34897Z" fill="#F5F5F7"/>
<path fill-rule="evenodd" clip-rule="evenodd" d="M59.7434 3.34948H55.6298C55.6298 2.86055 55.6245 2.38034 55.6397 1.90032C55.6409 1.8608 55.7826 1.79103 55.8593 1.79047C57.0728 1.78361 58.2863 1.78249 59.4996 1.79251C59.5816 1.79326 59.7301 1.8929 59.7325 1.94949C59.7518 2.40521 59.7434 2.86148 59.7434 3.34948Z" fill="#F5F5F7"/>
<path fill-rule="evenodd" clip-rule="evenodd" d="M4.80428 6.58274H2.78547V5.52315C2.78547 4.90339 2.79273 4.28344 2.78136 3.66387C2.77798 3.48894 2.85028 3.42327 3.07954 3.42716C3.57046 3.43551 4.0621 3.43032 4.55326 3.42958C4.71722 3.42921 4.84854 3.43737 4.8471 3.61211C4.83935 4.5732 4.84201 5.53428 4.83959 6.49537C4.83959 6.52004 4.82 6.54453 4.80428 6.58274Z" fill="#F5F5F7"/>
<path fill-rule="evenodd" clip-rule="evenodd" d="M0.707031 26.1451C1.33337 26.1451 1.93892 26.1397 2.54374 26.1529C2.60879 26.1542 2.72463 26.2624 2.72536 26.3215C2.73696 27.255 2.73696 28.1888 2.72536 29.1223C2.72463 29.1829 2.61145 29.2938 2.54713 29.2951C1.94206 29.3085 1.33652 29.3031 0.707031 29.3031V26.1451Z" fill="#F5F5F7"/>
<path fill-rule="evenodd" clip-rule="evenodd" d="M61.8604 26.0492H59.8447V25.6429C59.8447 24.8087 59.8513 23.9747 59.8399 23.1409C59.8372 22.9526 59.9146 22.8884 60.1579 22.8936C60.6479 22.9042 61.1388 22.8997 61.629 22.8956C61.813 22.8943 61.9054 22.935 61.9042 23.0943C61.8962 24.0448 61.8989 24.9953 61.8964 25.9459C61.8964 25.9713 61.8793 25.9965 61.8604 26.0492Z" fill="#F5F5F7"/>
<path fill-rule="evenodd" clip-rule="evenodd" d="M4.8313 22.8969V26.0407H2.81515C2.80572 25.9754 2.78758 25.9072 2.78734 25.8387C2.7854 24.9411 2.79169 24.0433 2.78129 23.1454C2.77936 22.9623 2.84296 22.8889 3.0935 22.8935C3.66277 22.9043 4.23228 22.8969 4.8313 22.8969Z" fill="#F5F5F7"/>
<path fill-rule="evenodd" clip-rule="evenodd" d="M2.80469 13.0493H4.81938V9.93457H2.80469V13.0493Z" fill="#F5F5F7"/>
<path fill-rule="evenodd" clip-rule="evenodd" d="M61.8998 6.58693H59.8771C59.8653 6.51848 59.8462 6.45893 59.8459 6.3992C59.844 5.49321 59.8498 4.58703 59.8399 3.68085C59.838 3.49925 59.8999 3.42115 60.1514 3.42653C60.6418 3.43729 61.1332 3.42133 61.6227 3.43766C61.7182 3.441 61.887 3.54154 61.888 3.59849C61.9046 4.58369 61.8998 5.56908 61.8998 6.58693Z" fill="#F5F5F7"/>
<path fill-rule="evenodd" clip-rule="evenodd" d="M0.703125 6.67907C1.33019 6.67907 1.9355 6.67369 2.54032 6.68686C2.60537 6.68834 2.72072 6.79705 2.72169 6.85678C2.7333 7.79022 2.7333 8.72386 2.72169 9.6573C2.72097 9.7174 2.6073 9.82704 2.54298 9.82852C1.93792 9.84169 1.33261 9.83631 0.703125 9.83631V6.67907Z" fill="#F5F5F7"/>
<path fill-rule="evenodd" clip-rule="evenodd" d="M17.6094 55.258H21.6789V53.7192H17.6094V55.258Z" fill="#F5F5F7"/>
<path fill-rule="evenodd" clip-rule="evenodd" d="M0.722557 13.156C1.33149 13.156 1.94671 13.1518 2.56144 13.1633C2.619 13.1642 2.72129 13.2653 2.72202 13.3204C2.73193 14.2618 2.73387 15.2032 2.71767 16.1445C2.7167 16.2068 2.55709 16.3177 2.46616 16.3207C1.95348 16.3378 1.43886 16.3376 0.926179 16.3203C0.840329 16.3174 0.690152 16.2025 0.689185 16.1384C0.674917 15.1791 0.680237 14.2197 0.682897 13.2603C0.682897 13.2356 0.701034 13.2108 0.722557 13.156Z" fill="#F5F5F7"/>
<path fill-rule="evenodd" clip-rule="evenodd" d="M59.8711 13.0595H61.8732V9.93433H59.8711V13.0595Z" fill="#F5F5F7"/>
<path fill-rule="evenodd" clip-rule="evenodd" d="M8.32637 50.034C8.32637 49.3086 8.31984 48.6012 8.32952 47.894C8.33387 47.5726 8.32178 47.2439 8.40303 46.9318C8.59118 46.2105 9.49539 45.7534 10.5094 45.8271C11.3875 45.8909 12.1367 46.5171 12.1471 47.2193C12.1599 48.0898 12.1519 48.9607 12.1514 49.8314C12.1514 49.8926 12.1376 49.9539 12.128 50.034H8.32637Z" fill="#F5F5F7"/>
<path fill-rule="evenodd" clip-rule="evenodd" d="M12.9681 43.5149H10.8813C10.8697 43.4466 10.8509 43.3869 10.8506 43.3271C10.8487 42.6456 10.8446 41.9643 10.8516 41.2827C10.8564 40.8078 11.3021 40.4728 11.9123 40.471C12.521 40.4691 12.9836 40.8069 12.9894 41.274C12.9974 41.9553 12.9923 42.6369 12.9908 43.3184C12.9908 43.3789 12.9773 43.4394 12.9681 43.5149Z" fill="#F5F5F7"/>
<path fill-rule="evenodd" clip-rule="evenodd" d="M9.68493 43.5295C9.00104 43.5295 8.36091 43.5356 7.72199 43.5208C7.65452 43.5191 7.53651 43.3952 7.5353 43.3271C7.5232 42.6365 7.51547 41.9455 7.53699 41.2551C7.55174 40.7863 8.00251 40.4713 8.5979 40.4709C9.18314 40.4708 9.66486 40.7969 9.67889 41.2515C9.70138 41.995 9.68493 42.7391 9.68493 43.5295Z" fill="#F5F5F7"/>
<path fill-rule="evenodd" clip-rule="evenodd" d="M56.354 50.0388H52.5725C52.5725 48.9869 52.4794 47.9435 52.6039 46.9156C52.6924 46.1863 53.661 45.7628 54.6743 45.8266C55.5354 45.8808 56.3122 46.4992 56.3443 47.2359C56.3847 48.1587 56.354 49.0834 56.354 50.0388Z" fill="#F5F5F7"/>
<path fill-rule="evenodd" clip-rule="evenodd" d="M53.8363 43.5161H51.7126C51.7053 43.4082 51.6942 43.3125 51.694 43.2169C51.6928 42.5712 51.6879 41.9257 51.6959 41.2801C51.7019 40.8037 52.1479 40.4713 52.7602 40.4709C53.3653 40.4704 53.8291 40.811 53.8342 41.2773C53.8422 42.0121 53.8363 42.7469 53.8363 43.5161Z" fill="#F5F5F7"/>
<path fill-rule="evenodd" clip-rule="evenodd" d="M55.0009 43.5122C55.0009 42.7218 54.9758 41.9516 55.0108 41.183C55.0304 40.7517 55.5491 40.4549 56.1312 40.4716C56.6928 40.4878 57.13 40.8079 57.1373 41.2403C57.1503 41.9913 57.1411 42.7423 57.1411 43.5122H55.0009Z" fill="#F5F5F7"/>
<path fill-rule="evenodd" clip-rule="evenodd" d="M33.703 19.2116C33.703 20.0734 33.7057 20.9351 33.7006 21.7967C33.6996 21.9585 33.7202 22.0778 33.9913 22.0745C34.5753 22.0675 35.1598 22.0695 35.7438 22.0738C35.9588 22.0754 36.0256 21.9981 36.0253 21.8431C36.0214 20.1107 36.0253 18.3782 36.0195 16.646C36.0183 16.2906 35.8372 15.9998 35.4111 15.8258C34.6104 15.4984 33.7202 15.9241 33.7071 16.6534C33.6914 17.5061 33.7035 18.3589 33.703 19.2116ZM36.5513 22.4926H33.1886C33.1794 22.4065 33.1623 22.3211 33.1623 22.2358C33.1608 20.3489 33.1577 18.4621 33.1637 16.5755C33.1654 15.9176 33.7799 15.3761 34.5772 15.3064C35.5395 15.2221 36.3056 15.5983 36.5322 16.2696C36.5586 16.3465 36.5697 16.4285 36.5697 16.5083C36.5723 18.44 36.5726 20.3716 36.5723 22.3033C36.5723 22.3562 36.5607 22.4089 36.5513 22.4926Z" fill="#F5F5F7"/>
<path fill-rule="evenodd" clip-rule="evenodd" d="M30.9739 19.2496C30.9739 18.4239 30.9848 17.5979 30.9662 16.7723C30.9613 16.5638 30.9118 16.3377 30.7942 16.1529C30.5792 15.8154 30.0247 15.651 29.5732 15.7402C28.9861 15.8562 28.6574 16.1709 28.6552 16.6619C28.6485 18.3762 28.6572 20.0906 28.6465 21.8051C28.6451 22.0302 28.7682 22.0795 29.0221 22.076C29.5478 22.0688 30.0741 22.0647 30.5993 22.0777C30.8915 22.0849 30.9821 22.0008 30.979 21.7808C30.9662 20.9372 30.9737 20.0934 30.9739 19.2496ZM31.4997 22.4928H28.1372C28.1278 22.4065 28.1111 22.3211 28.1111 22.2358C28.1099 20.3491 28.1072 18.4623 28.1126 16.5755C28.1143 15.9288 28.7133 15.388 29.4908 15.309C30.4569 15.2106 31.2218 15.571 31.4682 16.2448C31.4992 16.3296 31.5178 16.4203 31.5178 16.5085C31.5212 18.44 31.5214 20.3718 31.5209 22.3035C31.5209 22.3562 31.5093 22.4091 31.4997 22.4928Z" fill="#F5F5F7"/>
<path fill-rule="evenodd" clip-rule="evenodd" d="M29.066 46.937C29.066 47.691 29.0737 48.4451 29.0609 49.1991C29.0575 49.4119 29.1243 49.4989 29.4292 49.4973C31.3687 49.4878 33.3089 49.488 35.2484 49.4973C35.5512 49.4988 35.6257 49.4136 35.6203 49.1996C35.6061 48.6524 35.6213 48.1046 35.6143 47.557C35.6007 46.5078 35.6399 45.4553 35.5471 44.4098C35.4216 42.9952 33.4884 41.9518 31.6957 42.2686C30.1134 42.5482 29.08 43.5328 29.0674 44.7826C29.0604 45.5007 29.0662 46.2189 29.066 46.937ZM32.2802 41.8458C32.4656 41.8202 32.5933 41.7805 32.7157 41.7887C34.3028 41.8956 35.7376 42.8618 36.0675 44.0544C36.1323 44.289 36.1528 44.5347 36.1538 44.7752C36.1611 46.4011 36.1579 48.0272 36.1567 49.6531C36.1567 49.7404 36.1441 49.8276 36.1359 49.9283H28.5603C28.5468 49.855 28.5228 49.7868 28.5228 49.7185C28.5245 47.9847 28.5069 46.2508 28.5393 44.5172C28.5632 43.2357 29.9518 42.0485 31.6038 41.8367C31.7873 41.8134 31.973 41.7905 32.1576 41.7894C32.225 41.7889 32.293 41.8523 32.2802 41.8458Z" fill="#F5F5F7"/>
<path fill-rule="evenodd" clip-rule="evenodd" d="M57.1441 35.2386C57.1441 35.579 57.1359 35.9196 57.1475 36.2597C57.1533 36.4346 57.0643 36.4997 56.8406 36.4971C56.3277 36.4908 55.8142 36.4915 55.3011 36.4971C55.0849 36.4993 54.9891 36.4481 54.9923 36.2656C55.0039 35.585 54.9894 34.904 55 34.2234C55.007 33.7704 55.4933 33.4235 56.0894 33.4248C56.6742 33.4261 57.1238 33.7595 57.1392 34.2176C57.1508 34.5577 57.1417 34.8983 57.1417 35.2386H57.1441Z" fill="#F5F5F7"/>
<path fill-rule="evenodd" clip-rule="evenodd" d="M53.8345 35.2465C53.8348 35.5778 53.8246 35.9093 53.8389 36.2402C53.8466 36.4203 53.7784 36.5025 53.5274 36.4981C53.0147 36.489 52.5013 36.4906 51.9884 36.4971C51.7613 36.5001 51.6849 36.4302 51.6876 36.2576C51.697 35.5772 51.6854 34.8966 51.6946 34.216C51.7011 33.7673 52.1645 33.4276 52.7487 33.4248C53.3439 33.4219 53.8142 33.7689 53.8338 34.2257C53.8345 34.2435 53.8345 34.2615 53.8345 34.2794V35.2465Z" fill="#F5F5F7"/>
<path fill-rule="evenodd" clip-rule="evenodd" d="M7.53372 35.2163C7.53372 34.8846 7.51872 34.5525 7.53758 34.2218C7.56491 33.7385 8.00964 33.4199 8.61833 33.4249C9.20042 33.4297 9.67634 33.7857 9.68505 34.2483C9.69738 34.9204 9.68384 35.5926 9.69206 36.2647C9.69399 36.4202 9.64007 36.4984 9.42121 36.4964C8.88434 36.4912 8.34748 36.4918 7.81085 36.4958C7.59659 36.4975 7.52453 36.4192 7.52743 36.2647C7.53323 35.9154 7.52912 35.5657 7.52912 35.2163H7.53372Z" fill="#F5F5F7"/>
<path fill-rule="evenodd" clip-rule="evenodd" d="M10.8491 35.194C10.8496 34.8716 10.844 34.5492 10.851 34.2268C10.8609 33.7766 11.3158 33.4297 11.8919 33.4249C12.4962 33.4199 12.9806 33.7597 12.9876 34.2142C12.9982 34.8946 12.9854 35.5754 12.9951 36.2558C12.9975 36.4267 12.9288 36.5003 12.6984 36.4971C12.1854 36.4903 11.672 36.4892 11.1591 36.4979C10.912 36.502 10.8368 36.4241 10.8443 36.2415C10.8588 35.8928 10.8486 35.5433 10.8491 35.194Z" fill="#F5F5F7"/>
<path fill-rule="evenodd" clip-rule="evenodd" d="M21.3769 48.6234C21.3769 48.2562 21.3686 47.8887 21.379 47.5217C21.3911 47.096 21.7972 46.7331 22.2881 46.6927C22.748 46.6548 23.2003 46.9567 23.3161 47.3909C23.3529 47.5296 23.3686 47.674 23.37 47.8159C23.3756 48.4611 23.3645 49.106 23.3773 49.751C23.3812 49.9408 23.3001 50.002 23.0566 49.9959C22.5909 49.9842 22.1236 49.9866 21.6574 49.9952C21.4468 49.9989 21.3665 49.944 21.3713 49.779C21.3819 49.394 21.3744 49.0086 21.3744 48.6234H21.3769Z" fill="#F5F5F7"/>
<path fill-rule="evenodd" clip-rule="evenodd" d="M41.3174 49.9914C41.3174 49.1323 41.2821 48.3172 41.3292 47.5047C41.3628 46.9186 42.0438 46.5551 42.6424 46.7504C43.0547 46.885 43.2885 47.1479 43.2985 47.4835C43.3214 48.2537 43.312 49.0247 43.2997 49.7951C43.2985 49.8611 43.179 49.981 43.1106 49.9828C42.5304 49.9979 41.949 49.9914 41.3174 49.9914Z" fill="#F5F5F7"/>
<path fill-rule="evenodd" clip-rule="evenodd" d="M21.4427 40.1494C21.4427 39.8446 21.4293 39.5394 21.4463 39.2354C21.4661 38.8734 21.8105 38.612 22.2649 38.5896C22.7599 38.5653 23.1952 38.7707 23.2288 39.1322C23.291 39.8006 23.2811 40.4731 23.2825 41.1441C23.2827 41.1903 23.1328 41.2747 23.0496 41.2772C22.595 41.2901 22.1394 41.2798 21.6842 41.2844C21.4758 41.2866 21.431 41.2009 21.4337 41.0636C21.4393 40.759 21.4354 40.4542 21.4354 40.1494H21.4427Z" fill="#F5F5F7"/>
<path fill-rule="evenodd" clip-rule="evenodd" d="M43.2445 40.1699C43.2447 40.466 43.2372 40.7621 43.2476 41.058C43.2532 41.2149 43.1896 41.2893 42.9712 41.2858C42.5275 41.2787 42.0835 41.28 41.6395 41.2852C41.4402 41.2875 41.3807 41.2212 41.3829 41.0739C41.3909 40.4998 41.3766 39.9254 41.3894 39.3514C41.3998 38.8871 41.7867 38.5941 42.3335 38.5839C42.822 38.5747 43.2931 38.9136 43.2496 39.3627C43.2232 39.6302 43.2445 39.9007 43.2445 40.1699Z" fill="#F5F5F7"/>
<path fill-rule="evenodd" clip-rule="evenodd" d="M21.4339 35.2263C21.4339 35.0447 21.4332 34.895 21.4339 34.7453C21.4368 34.2153 21.4281 33.6853 21.4472 33.1556C21.4595 32.8065 21.8325 32.5325 22.2767 32.5104C22.734 32.4878 23.1843 32.7072 23.2261 33.0484C23.2902 33.5738 23.2847 34.1047 23.2931 34.6333C23.303 35.2263 23.2955 35.2263 22.5258 35.2263H21.4339Z" fill="#F5F5F7"/>
<path fill-rule="evenodd" clip-rule="evenodd" d="M43.2424 35.2141H41.3873C41.3873 34.5789 41.3849 33.955 41.39 33.3313C41.3907 33.2344 41.4137 33.1354 41.4461 33.0415C41.5684 32.6896 41.9812 32.4731 42.4429 32.5115C42.8811 32.5478 43.2327 32.8302 43.2388 33.184C43.2506 33.8535 43.2424 34.523 43.2424 35.2141Z" fill="#F5F5F7"/>
<path fill-rule="evenodd" clip-rule="evenodd" d="M39.1511 41.6597C39.1511 40.8525 39.1397 40.0581 39.1639 39.2643C39.1673 39.1495 39.3417 39.038 39.437 38.9248C39.5124 39.045 39.6488 39.1637 39.6536 39.2856C39.6819 39.9752 39.6788 40.6655 39.6868 41.3554C39.6904 41.6749 39.3489 41.5966 39.1511 41.6597Z" fill="#F5F5F7"/>
<path fill-rule="evenodd" clip-rule="evenodd" d="M25.5417 41.6423C24.9995 41.6087 24.962 41.5839 24.9695 41.1894C24.9823 40.5465 25.0029 39.9035 25.0237 39.2605C25.0256 39.1992 25.0363 39.1321 25.0721 39.0792C25.1112 39.0211 25.184 38.9764 25.2421 38.9258C25.3057 38.9707 25.3891 39.007 25.4285 39.0621C25.4836 39.1386 25.5361 39.2289 25.5369 39.3137C25.5451 40.0897 25.5417 40.8659 25.5417 41.6423Z" fill="#F5F5F7"/>
<path fill-rule="evenodd" clip-rule="evenodd" d="M19.1954 41.643C19.1954 40.8451 19.1947 40.0446 19.1973 39.2443C19.1973 39.2013 19.2111 39.1514 19.2421 39.117C19.3037 39.0488 19.3816 38.989 19.4525 38.9258C19.5192 38.9911 19.6172 39.0495 19.6457 39.1235C19.6943 39.2499 19.718 39.3859 19.7197 39.5181C19.7274 40.073 19.7233 40.6277 19.7233 41.1828C19.7233 41.5922 19.7211 41.5939 19.1954 41.643Z" fill="#F5F5F7"/>
<path fill-rule="evenodd" clip-rule="evenodd" d="M45.555 41.6467C44.9777 41.6105 44.9623 41.5981 44.9623 41.1937C44.9625 40.6111 44.9441 40.0281 44.9748 39.4467C44.984 39.2706 45.1296 39.0992 45.2128 38.9255C45.3195 39.081 45.488 39.2296 45.5197 39.3936C45.5753 39.6834 45.5516 39.9826 45.554 40.278C45.5577 40.7336 45.555 41.1894 45.555 41.6467Z" fill="#F5F5F7"/>
<path fill-rule="evenodd" clip-rule="evenodd" d="M25.524 35.5795C24.9688 35.5107 24.962 35.5107 24.9702 35.1055C24.9833 34.4605 25 33.8156 25.0312 33.1711C25.0367 33.0565 25.1204 32.9442 25.1681 32.8311C25.2159 32.8259 25.2638 32.8207 25.3117 32.8157C25.3901 32.9695 25.5303 33.1218 25.5366 33.2772C25.5656 34.0212 25.5586 34.7656 25.562 35.5101C25.562 35.5335 25.5368 35.557 25.524 35.5795Z" fill="#F5F5F7"/>
<path fill-rule="evenodd" clip-rule="evenodd" d="M39.486 32.7966C39.5518 32.9575 39.6504 33.0916 39.6548 33.2276C39.6783 33.9186 39.6758 34.6102 39.6848 35.3017C39.6887 35.5907 39.3525 35.5143 39.1692 35.6081C38.8918 35.1267 39.086 33.0831 39.486 32.7966Z" fill="#F5F5F7"/>
<path fill-rule="evenodd" clip-rule="evenodd" d="M19.1832 35.6217C18.9448 34.648 19.1126 33.0679 19.539 32.7954C19.6072 32.9963 19.7104 33.1672 19.7158 33.3395C19.7361 33.9948 19.7216 34.6508 19.7269 35.3064C19.7293 35.6015 19.389 35.5065 19.1832 35.6217Z" fill="#F5F5F7"/>
<path fill-rule="evenodd" clip-rule="evenodd" d="M45.3169 32.8235C45.3938 33.0205 45.5297 33.2162 45.5375 33.4149C45.5643 34.1147 45.5479 34.8157 45.5455 35.5163C45.5455 35.5394 45.5201 35.5624 45.5072 35.5842C44.9605 35.5133 44.9602 35.5133 44.9602 35.1346C44.9605 34.5508 44.9489 33.9666 44.9684 33.3832C44.9747 33.1979 45.0647 33.0142 45.1165 32.8298C45.1832 32.8278 45.2502 32.8255 45.3169 32.8235Z" fill="#F5F5F7"/>
<path fill-rule="evenodd" clip-rule="evenodd" d="M48.321 14.6639C48.4248 14.6975 48.5283 14.7309 48.6601 14.7735C48.6818 14.6506 48.6997 14.5485 48.7179 14.4465C48.7532 14.4469 48.789 14.4471 48.8243 14.4473C48.8366 14.5432 48.8492 14.6392 48.8656 14.7667C49.0182 14.7477 49.1686 14.7288 49.3191 14.7101C49.3304 14.7288 49.3416 14.7476 49.3529 14.7661C49.3031 14.7872 49.253 14.8269 49.2037 14.8262C48.7844 14.8212 48.7457 14.8548 48.8044 15.1727C48.8265 15.2908 48.8315 15.4108 48.8443 15.5301C48.7897 15.5308 48.7353 15.5316 48.6809 15.5325C48.6978 15.3828 48.714 15.2333 48.7319 15.0838C48.751 14.923 48.7466 14.7869 48.4458 14.8295C48.3863 14.8379 48.3104 14.7787 48.2422 14.7507C48.2683 14.7218 48.2949 14.6928 48.321 14.6639Z" fill="#F5F5F7"/>
<path fill-rule="evenodd" clip-rule="evenodd" d="M50.7978 13.9782C50.6271 14.0396 50.4786 14.093 50.3594 14.1359C50.421 14.0489 50.5013 13.9369 50.5814 13.8247C50.6416 13.8522 50.7081 13.8738 50.7591 13.9089C50.7889 13.9293 50.7942 13.971 50.7978 13.9782Z" fill="#F5F5F7"/>
<path fill-rule="evenodd" clip-rule="evenodd" d="M49.4694 11.2999C49.3947 11.3176 49.32 11.3354 49.1863 11.367C49.3052 11.4138 49.3681 11.4386 49.4494 11.4704C49.3618 11.5154 49.2912 11.5511 49.1763 11.6097C49.1299 11.5148 49.0312 11.3783 49.0598 11.3604C49.1599 11.2973 49.3035 11.2751 49.431 11.2375C49.4438 11.2583 49.4564 11.279 49.4694 11.2999Z" fill="#F5F5F7"/>
<path fill-rule="evenodd" clip-rule="evenodd" d="M48.3662 11.2566C48.4124 11.2811 48.5249 11.3104 48.556 11.3664C48.5831 11.4146 48.536 11.504 48.4859 11.5542C48.4591 11.5813 48.3573 11.5648 48.2891 11.5678C48.2978 11.522 48.3043 11.4758 48.3154 11.4303C48.3265 11.3842 48.342 11.3386 48.3662 11.2566Z" fill="#F5F5F7"/>
<path fill-rule="evenodd" clip-rule="evenodd" d="M44.375 12.4194C44.4563 12.4339 44.5378 12.4484 44.6192 12.4628C44.6301 12.4048 44.6541 12.3461 44.6483 12.289C44.642 12.228 44.6079 12.1687 44.5859 12.1086C44.6592 12.2141 44.7324 12.3196 44.8558 12.4977C44.9208 12.3386 44.9571 12.2495 44.9936 12.1604C45.0154 12.1613 45.0371 12.1622 45.0591 12.1631C45.0357 12.3359 45.0125 12.5086 44.9951 12.6348C44.8434 12.5961 44.7092 12.5686 44.5822 12.5271C44.507 12.5025 44.4437 12.4561 44.375 12.4194Z" fill="#F5F5F7"/>
<path fill-rule="evenodd" clip-rule="evenodd" d="M19.1863 14.4353C18.3181 14.4353 17.4502 14.4355 16.582 14.4357V12.1648C17.4502 12.165 18.3184 12.165 19.1863 12.1652V14.4353Z" fill="#F5F5F7"/>
<path fill-rule="evenodd" clip-rule="evenodd" d="M11.3203 14.4359H13.9277V12.1648H11.3203V14.4359Z" fill="#F5F5F7"/>
<path fill-rule="evenodd" clip-rule="evenodd" d="M19.1897 18.9101C18.3218 18.9101 17.4541 18.9102 16.5862 18.9102C16.5859 18.1535 16.5859 17.3966 16.5859 16.6399C17.4539 16.6399 18.322 16.6399 19.19 16.6401C19.19 17.3966 19.1897 18.1533 19.1897 18.9101Z" fill="#F5F5F7"/>
<path fill-rule="evenodd" clip-rule="evenodd" d="M11.3047 16.6498H13.9199C13.9322 16.7561 13.9498 16.8414 13.9503 16.9269C13.953 17.4911 13.9436 18.0554 13.9564 18.6194C13.9605 18.812 13.8947 18.8906 13.6241 18.886C12.8802 18.8737 12.1356 18.8817 11.317 18.8817C11.317 18.1178 11.317 17.3796 11.3168 16.6416C11.3165 16.6416 11.3047 16.6498 11.3047 16.6498Z" fill="#F5F5F7"/>
<path fill-rule="evenodd" clip-rule="evenodd" d="M16.5933 14.4299C16.5933 15.1683 16.5933 15.9068 16.593 16.6454H14.0117V14.4299H16.5933Z" fill="#F5F5F7"/>
</g>
</svg>
