<svg width="56" height="35" viewBox="0 0 56 35" fill="none" xmlns="http://www.w3.org/2000/svg">
<g clip-path="url(#clip0_626_15143)">
<path fill-rule="evenodd" clip-rule="evenodd" d="M28.2757 6.02911H7.65046V13.5545H27.2935C30.3606 13.5545 32.4628 14.1376 33.5225 15.2818C34.5822 16.426 35.1422 18.5824 35.1422 21.751V26.5479C35.1422 29.7055 34.608 31.9059 33.4966 33.0061C32.3852 34.1063 30.3348 34.7554 27.2677 34.7554H7.85723C4.78412 34.7774 2.70523 34.1943 1.61969 33.0061C0.542769 31.8289 0 29.7055 0 26.5149V25.5577L6.46154 24.0614V28.1872H28.6892V20.2657H9.08062C6.02474 20.2657 3.96049 19.6793 2.88615 18.5054C1.81785 17.3392 1.27508 15.2048 1.27508 12.0142V8.20752C1.27508 5.04993 1.81785 2.88253 2.88615 1.71632C3.95446 0.550102 6.02215 0 9.08062 0H26.9317C29.8902 0 31.9286 0.557803 33.0495 1.67231C34.1686 2.78681 34.7424 4.77488 34.7726 7.63541V8.36154L28.3188 10.0339L28.2757 6.02911Z" fill="#F5F5F7"/>
<path fill-rule="evenodd" clip-rule="evenodd" d="M39.2578 16.3486V14.5773L49.5179 3.00318H40.2822V0.0876465H55.0326V1.70494L44.5985 13.2791H55.0326V16.3486H39.2578Z" fill="#F5F5F7"/>
<path fill-rule="evenodd" clip-rule="evenodd" d="M49.056 21.3445V34.69H45.6098V21.3445H38.8984V18.429H55.8199V21.3445H49.056Z" fill="#F5F5F7"/>
</g>
<defs>
<clipPath id="clip0_626_15143">
<rect width="56" height="35" fill="white"/>
</clipPath>
</defs>
</svg>
