<svg width="131" height="6" viewBox="0 0 131 6" fill="none" xmlns="http://www.w3.org/2000/svg">
<path fill-rule="evenodd" clip-rule="evenodd" d="M0.833597 3.44927C0.833597 3.35896 0.773846 3.28575 0.65143 3.23105C0.529013 3.17636 0.314785 3.14804 0 3.14804V2.75537C0.136795 2.75666 0.272765 2.74885 0.397367 2.7325C0.500109 2.71881 0.587938 2.69727 0.65143 2.67023C0.718273 2.64133 0.765442 2.60902 0.790362 2.57501C0.820384 2.53526 0.834908 2.49466 0.833597 2.45398C0.833597 2.38647 0.819169 2.31903 0.790362 2.25203C0.760244 2.18389 0.727697 2.11586 0.693207 2.04742C0.658716 1.97899 0.622769 1.91083 0.596051 1.84141C0.567438 1.77226 0.553011 1.70267 0.552816 1.63301C0.547813 1.5191 0.610576 1.40578 0.738384 1.29798C0.853854 1.20022 1.04933 1.11194 1.3082 1.04064C1.59073 0.965443 1.92757 0.909249 2.29433 0.876152C2.69122 0.837713 3.16874 0.818359 3.72301 0.818359H4.13058V1.12226C4.13378 1.14363 4.11557 1.16481 4.07811 1.18326C4.04304 1.19957 3.99772 1.21384 3.94453 1.22534C3.89337 1.23549 3.83722 1.24334 3.7779 1.24862C3.73001 1.25357 3.67963 1.25632 3.62877 1.25675C3.29795 1.25675 3.05604 1.28606 2.9001 1.34496C2.74417 1.40386 2.66693 1.4852 2.66693 1.5901C2.66693 1.6734 2.68101 1.7518 2.70385 1.82613C2.72668 1.90045 2.75242 1.97155 2.77866 2.04069C2.80489 2.10983 2.82966 2.17701 2.85395 2.24349C2.87824 2.30995 2.89038 2.37755 2.89038 2.44571C2.89106 2.50162 2.86372 2.55727 2.80926 2.61091C2.75869 2.66318 2.67805 2.71263 2.57074 2.75718C2.46202 2.80253 2.32829 2.84243 2.17483 2.87526C2.01137 2.91045 1.82745 2.9369 1.63173 2.95338C1.82624 2.97029 2.00972 2.99635 2.17483 3.03052C2.32819 3.0629 2.46193 3.10238 2.57074 3.14734C2.67839 3.19225 2.75903 3.24207 2.80926 3.29472C2.86308 3.34818 2.89038 3.40356 2.89038 3.45922C2.89038 3.52738 2.87533 3.59483 2.85395 3.66145C2.83258 3.72806 2.80537 3.79608 2.77866 3.8641C2.75194 3.93213 2.72619 4.00434 2.70385 4.07866C2.6815 4.153 2.66693 4.23166 2.66693 4.31441C2.66693 4.41861 2.74757 4.50051 2.9001 4.55941C3.05264 4.61831 3.29698 4.64791 3.62877 4.64791C3.67963 4.64829 3.72996 4.65098 3.7779 4.65589C3.83702 4.6615 3.89308 4.66948 3.94453 4.67959C3.99806 4.69066 4.04348 4.70467 4.07811 4.72082C4.11571 4.73921 4.13393 4.76036 4.13058 4.7817V5.08573H3.72155C3.16874 5.08573 2.68976 5.06639 2.29288 5.02823C1.92582 4.99454 1.58908 4.93784 1.30675 4.86218C1.04797 4.7907 0.851959 4.70244 0.734984 4.60472C0.606835 4.49752 0.544024 4.38474 0.549416 4.27135C0.549999 4.20179 0.564912 4.13229 0.594108 4.06324C0.622283 3.99321 0.654684 3.92426 0.691263 3.85638C0.72624 3.78851 0.758787 3.72021 0.788419 3.65191C0.818003 3.5847 0.833111 3.51701 0.833597 3.44927Z" fill="#F5F5F7"/>
<path fill-rule="evenodd" clip-rule="evenodd" d="M16.8931 1.28857V1.89623H13.6733V4.59291H11.0156V1.89623H7.79688V1.28857H16.8931Z" fill="#F5F5F7"/>
<path fill-rule="evenodd" clip-rule="evenodd" d="M22.2212 2.84215H23.2899C23.6528 2.84215 23.9583 2.82925 24.2129 2.80233C24.4466 2.77958 24.6598 2.74201 24.8366 2.69238C24.9971 2.64637 25.1178 2.59012 25.1893 2.52816C25.2652 2.46248 25.3028 2.39362 25.3005 2.32439C25.3005 2.17938 25.1383 2.06593 24.8104 1.98417C24.4825 1.90241 23.9768 1.8616 23.2904 1.8616H22.2217L22.2212 2.84215ZM22.2212 3.37044V4.59291H19.5664V1.28857H23.2904C24.1162 1.28857 24.8255 1.31256 25.4089 1.3622C25.9923 1.41185 26.4693 1.47944 26.839 1.56723C27.1931 1.64987 27.4698 1.75681 27.6439 1.87828C27.8124 2.00247 27.8971 2.1348 27.8936 2.26815C27.8951 2.37116 27.8446 2.47369 27.7435 2.57247C27.6448 2.66673 27.495 2.75585 27.2995 2.83655C27.0991 2.91909 26.8562 2.9923 26.5791 3.05364C26.2783 3.11945 25.9458 3.17218 25.592 3.21015C25.77 3.23605 25.937 3.26785 26.0894 3.30495C26.2495 3.34436 26.3859 3.39113 26.4931 3.44336L28.9317 4.59333H26.5266C26.0826 4.59333 25.7633 4.54519 25.5687 4.44889L23.6688 3.48838C23.5991 3.45126 23.4971 3.41999 23.373 3.39765C23.2598 3.37956 23.1004 3.3696 22.8969 3.3696L22.2212 3.37044Z" fill="#F5F5F7"/>
<path fill-rule="evenodd" clip-rule="evenodd" d="M34.8854 3.32961H38.0119L36.9592 2.42464C36.8897 2.36714 36.8111 2.29955 36.7197 2.22171C36.6284 2.14388 36.5376 2.05974 36.4448 1.96928C36.3646 2.06156 36.2752 2.14697 36.1878 2.22508C36.1004 2.30321 36.0163 2.37205 35.9357 2.42983L34.8854 3.32961ZM42.2382 4.5929H40.1775C39.9506 4.5929 39.7592 4.5779 39.6077 4.54649C39.4633 4.5176 39.3551 4.47603 39.2992 4.42797L38.624 3.85187H34.2704L33.5967 4.42797C33.4547 4.52958 33.1099 4.59528 32.7305 4.59303H30.6523L35.0865 1.2887H37.8045L42.2382 4.5929Z" fill="#F5F5F7"/>
<path fill-rule="evenodd" clip-rule="evenodd" d="M42.2266 1.28845H44.3616C44.5938 1.28845 44.7808 1.30346 44.928 1.33347C45.0742 1.36316 45.1845 1.40534 45.2432 1.45408L47.4579 3.22319C47.5551 3.30062 47.659 3.38447 47.7596 3.47562C47.8601 3.56678 47.9583 3.66174 48.0457 3.76131C48.12 3.66174 48.2065 3.56581 48.3027 3.47562C48.3989 3.38546 48.497 3.30118 48.5898 3.22319L50.7899 1.45478C50.9286 1.35257 51.274 1.28638 51.6541 1.28915H53.8061L49.2169 4.59348H46.8147L42.2266 1.28845Z" fill="#F5F5F7"/>
<path fill-rule="evenodd" clip-rule="evenodd" d="M63.6896 1.28845V1.87816H58.9897V2.64948H62.5907V3.21633H58.9897V4.00406H63.6896V4.59307H56.3203V1.28845H63.6896Z" fill="#F5F5F7"/>
<path fill-rule="evenodd" clip-rule="evenodd" d="M69.4282 3.98105H73.6715V4.59291H66.7734V1.28857H69.4292L69.4282 3.98105Z" fill="#F5F5F7"/>
<path fill-rule="evenodd" clip-rule="evenodd" d="M83.0464 1.71354C83.0063 1.73399 82.953 1.75202 82.8895 1.76669C82.8278 1.77935 82.7533 1.78572 82.6776 1.78478C82.5805 1.78478 82.4731 1.77076 82.3508 1.74397C82.1996 1.71174 82.0425 1.68197 81.88 1.65478C81.6621 1.61883 81.4329 1.58892 81.1955 1.56544C80.8817 1.53643 80.5534 1.52269 80.224 1.52477C79.9023 1.52334 79.5821 1.53756 79.2767 1.56685C79.023 1.59097 78.7882 1.62934 78.586 1.67974C78.4053 1.72612 78.263 1.78363 78.1696 1.84803C78.0743 1.91408 78.0261 1.985 78.0278 2.05657C78.0278 2.15155 78.1087 2.23055 78.2707 2.29357C78.444 2.35934 78.6622 2.41415 78.9119 2.45457C79.201 2.50145 79.5055 2.53996 79.8208 2.56956C80.1609 2.60224 80.5068 2.63618 80.8633 2.67096C81.2198 2.70574 81.5628 2.74543 81.9004 2.78904C82.2297 2.83097 82.5358 2.88669 82.8088 2.95438C83.0796 3.02239 83.2985 3.10586 83.452 3.19952C83.6138 3.29769 83.6949 3.41604 83.6949 3.557C83.6986 3.70077 83.6087 3.84349 83.4301 3.97772C83.2599 4.10618 82.997 4.22276 82.6592 4.31976C82.304 4.41951 81.8815 4.49712 81.418 4.54779C80.925 4.60389 80.3658 4.63194 79.7373 4.63194C78.9729 4.63194 78.2766 4.59177 77.6484 4.51147C77.0398 4.43578 76.4909 4.32513 76.0352 4.18624L76.4971 3.96704C76.542 3.94979 76.5963 3.93479 76.6579 3.9226C76.721 3.91112 76.7941 3.90504 76.8687 3.90507C76.9853 3.90507 77.115 3.9226 77.2661 3.95878C77.4432 4.00081 77.6281 4.04005 77.8199 4.07629C78.0748 4.12392 78.3466 4.16355 78.6307 4.19453C78.9469 4.23055 79.3321 4.24808 79.7883 4.24808C80.1335 4.24975 80.4772 4.23458 80.805 4.20321C81.084 4.17595 81.3406 4.1324 81.5589 4.07532C81.7653 4.02076 81.9276 3.95371 82.034 3.87899C82.1475 3.7981 82.2037 3.71144 82.1992 3.62416C82.1992 3.52095 82.1195 3.43639 81.9563 3.37062C81.7861 3.30289 81.568 3.24639 81.3165 3.20485C81.0302 3.15765 80.7267 3.11974 80.4115 3.0918L79.3729 2.99644C79.0194 2.9642 78.6723 2.92648 78.3329 2.88342C78.003 2.84212 77.698 2.78593 77.4293 2.71696C77.1564 2.64539 76.9388 2.55804 76.7905 2.4606C76.6249 2.35822 76.5477 2.23187 76.5477 2.08041C76.55 1.83586 76.8917 1.60179 77.4963 1.43053C77.8252 1.33925 78.2135 1.26774 78.6389 1.22017C79.0926 1.168 79.6105 1.14122 80.2021 1.14122C80.8189 1.13907 81.4318 1.16987 82.0097 1.23209C82.5424 1.29041 83.028 1.37956 83.437 1.49406L83.0464 1.71354Z" fill="#F5F5F7"/>
<path fill-rule="evenodd" clip-rule="evenodd" d="M96.7306 2.8877C96.7306 2.67734 96.6301 2.48984 96.4338 2.32295C96.2574 2.16674 95.9706 2.02281 95.5915 1.90027C95.2261 1.78412 94.7753 1.69306 94.2721 1.63381C93.7562 1.57169 93.1776 1.54069 92.5403 1.54069C91.9029 1.54069 91.3312 1.57169 90.8158 1.63381C90.311 1.69311 89.8583 1.78414 89.4906 1.90027C89.1101 2.02273 88.8217 2.16666 88.6439 2.32295C88.4451 2.48984 88.348 2.67776 88.348 2.8877C88.348 3.09764 88.4451 3.28458 88.6439 3.45077C88.8222 3.60674 89.1105 3.75036 89.4906 3.87261C89.8586 3.9881 90.3113 4.07842 90.8158 4.13696C91.331 4.19811 91.9059 4.22864 92.5403 4.22854C93.1776 4.22854 93.7547 4.19811 94.2721 4.13696C94.7749 4.07847 95.2257 3.98812 95.5915 3.87261C95.9701 3.75029 96.2569 3.60666 96.4338 3.45077C96.6281 3.28458 96.7287 3.0968 96.7287 2.8877H96.7306ZM98.3721 2.8877C98.3721 3.14294 98.2312 3.37854 97.9533 3.59143C97.6904 3.79679 97.2848 3.98449 96.7617 4.14299C96.2432 4.29913 95.6147 4.42137 94.9187 4.50144C94.2021 4.58642 93.4069 4.62878 92.5383 4.62878C91.6698 4.62878 90.876 4.58671 90.158 4.50144C89.4643 4.42058 88.8373 4.29845 88.3179 4.14299C87.7974 3.98406 87.3933 3.79646 87.1297 3.59143C86.8513 3.37797 86.7109 3.14266 86.7109 2.8877C86.7109 2.63274 86.8513 2.39686 87.1297 2.1837C87.3941 1.97834 87.7981 1.79032 88.3179 1.63073C88.8373 1.47468 89.4641 1.35176 90.158 1.26989C90.8747 1.18425 91.6681 1.14123 92.5383 1.14087C93.405 1.14087 94.2002 1.1842 94.9187 1.26989C95.6149 1.35098 96.2432 1.474 96.7617 1.63073C97.2837 1.79004 97.6884 1.97824 97.9514 2.18398C98.2292 2.39722 98.3694 2.6318 98.3721 2.8877Z" fill="#F5F5F7"/>
<path fill-rule="evenodd" clip-rule="evenodd" d="M109.496 1.17969V1.55581H103.816V2.7494H108.67V3.12594H103.818V4.59285H102.207V1.17969H109.496Z" fill="#F5F5F7"/>
<path fill-rule="evenodd" clip-rule="evenodd" d="M121.251 1.17969V1.56703H117.431V4.59285H115.833V1.56703H111.992V1.17969H121.251Z" fill="#F5F5F7"/>
<path fill-rule="evenodd" clip-rule="evenodd" d="M129.877 3.44927C129.878 3.51678 129.893 3.58423 129.922 3.65121C129.95 3.71952 129.984 3.78782 130.019 3.85568C130.054 3.92356 130.087 3.99256 130.116 4.06254C130.146 4.13159 130.16 4.20109 130.159 4.27065C130.164 4.38402 130.101 4.4968 129.973 4.604C129.857 4.70171 129.662 4.78998 129.403 4.86148C129.12 4.9372 128.783 4.99391 128.415 5.02753C128.019 5.06569 127.541 5.08504 126.988 5.08504H126.579V4.78099C126.575 4.75963 126.594 4.73844 126.632 4.72012C126.666 4.70369 126.713 4.68961 126.768 4.6789C126.818 4.66863 126.872 4.66065 126.93 4.65519C126.978 4.65038 127.028 4.6477 127.079 4.6472C127.408 4.6472 127.651 4.6177 127.808 4.55871C127.961 4.4998 128.038 4.41846 128.038 4.31372C128.038 4.23096 128.027 4.15201 128.002 4.07796C127.978 4.00391 127.954 3.93253 127.929 3.86339C127.904 3.79427 127.877 3.72694 127.852 3.66075C127.827 3.59455 127.82 3.52669 127.82 3.45852C127.819 3.40293 127.845 3.34758 127.897 3.29403C127.949 3.24153 128.03 3.19176 128.136 3.14663C128.361 3.05304 128.69 2.98457 129.069 2.95267C128.874 2.93641 128.691 2.90993 128.529 2.87456C128.377 2.84139 128.245 2.80155 128.136 2.75648C128.03 2.71171 127.949 2.66234 127.897 2.61021C127.845 2.55644 127.819 2.50085 127.82 2.44501C127.82 2.37685 127.83 2.30925 127.852 2.24278C127.874 2.1763 127.901 2.10857 127.929 2.03999C127.957 1.97141 127.978 1.89975 128.002 1.82542C128.027 1.7511 128.038 1.6727 128.038 1.5894C128.038 1.48506 127.961 1.40386 127.808 1.34426C127.654 1.28466 127.407 1.25605 127.079 1.25605C127.028 1.2555 126.978 1.25275 126.93 1.24792C126.872 1.2428 126.817 1.23493 126.768 1.22464C126.713 1.21349 126.667 1.19915 126.632 1.18256C126.594 1.16419 126.575 1.14297 126.579 1.12156V0.818359H126.988C127.54 0.818359 128.019 0.837713 128.415 0.876152C128.783 0.909193 129.12 0.965373 129.403 1.04064C129.662 1.11191 129.858 1.20021 129.973 1.29798C130.101 1.4058 130.163 1.5191 130.159 1.63301C130.16 1.70267 130.145 1.77227 130.116 1.84141C130.088 1.91153 130.056 1.97969 130.019 2.04742C129.983 2.11516 129.949 2.18389 129.922 2.25203C129.893 2.31903 129.878 2.38647 129.877 2.45398C129.877 2.49469 129.892 2.53528 129.922 2.57501C129.946 2.60899 129.992 2.64133 130.058 2.67023C130.123 2.69723 130.212 2.71871 130.315 2.7325C130.439 2.74879 130.574 2.75662 130.71 2.75537V3.14804C130.395 3.14804 130.175 3.17609 130.058 3.23105C129.94 3.28603 129.877 3.35896 129.877 3.44927Z" fill="#F5F5F7"/>
</svg>
