<svg width="310" height="21" viewBox="0 0 310 21" fill="none" xmlns="http://www.w3.org/2000/svg">
<path fill-rule="evenodd" clip-rule="evenodd" d="M126.051 13.0418C128.734 12.1075 130.179 11.8755 135.566 11.7601H139.962V8.03046H135.566C132.298 7.8882 129.027 8.25988 126.051 9.10707V4.48022H144.111V0.69928H120.168V19.9244H145.102V16.0794H126.051V13.0418Z" fill="#F5F5F7"/>
<path fill-rule="evenodd" clip-rule="evenodd" d="M50.9425 8.26116L42.872 0.69928H35.2969L47.9909 12.1831V19.8988H53.9767V12.1831L66.5674 0.69928H59.24L50.9425 8.26116Z" fill="#F5F5F7"/>
<path fill-rule="evenodd" clip-rule="evenodd" d="M0 4.55712H11.0015V19.8988H17.0904V4.55712H28.4634V0.69928H0V4.55712Z" fill="#F5F5F7"/>
<path fill-rule="evenodd" clip-rule="evenodd" d="M96.248 9.18487H93.5647C90.2911 9.0426 87.0134 9.41301 84.0288 10.2615V4.55802H96.248C98.6836 4.55802 100.995 4.94252 100.995 6.78814C100.995 8.87727 99.179 9.18487 96.248 9.18487ZM97.342 0.700179H78.043V19.9253H84.0288V14.1065C86.5882 13.2606 87.9298 13.0299 93.5647 13.0299H96.248C103.08 13.0299 107.229 10.6332 107.229 6.85222C107.569 3.66598 103.687 0.912938 98.5598 0.700179C98.1531 0.683518 97.7486 0.683518 97.342 0.700179Z" fill="#F5F5F7"/>
<path fill-rule="evenodd" clip-rule="evenodd" d="M258.009 7.69736C252.147 7.69736 251.425 6.91554 251.425 5.76204C251.425 4.60853 254.583 3.68572 257.617 3.68572C260.86 3.56012 264.067 4.15994 266.658 5.37753L270.786 2.4425C266.877 0.764784 262.201 -0.0888123 257.452 0.00731335C250.744 0.00731335 244.882 2.31433 244.882 5.78767C244.882 9.95311 250.125 11.4911 257.452 11.4911C263.809 11.4911 266.864 11.7987 266.864 13.5803C266.864 15.5797 262.963 16.6563 257.452 16.6563C251.941 16.6563 249.898 14.7338 248.061 13.5034L243.664 16.2718C247.103 18.7992 252.123 20.2885 257.452 20.3603C266.121 20.3603 272.85 18.2071 272.85 13.5803C272.85 10.4914 270.889 7.69736 258.009 7.69736Z" fill="#F5F5F7"/>
<path fill-rule="evenodd" clip-rule="evenodd" d="M183.555 14.1056C181.825 13.0329 179.621 12.3049 177.22 12.0165L174.163 15.3873C175.482 15.5129 176.733 15.8282 177.819 16.3101H177.94C176.694 16.5921 175.369 16.7241 174.041 16.6946C168.18 16.6946 162.316 14.7721 162.316 10.376C162.316 5.97981 168.054 4.0573 173.916 4.0573C179.777 4.0573 185.887 5.90291 185.887 10.2222C185.935 11.6538 185.101 13.0431 183.555 14.1056ZM174.041 0.0841064C164.875 0.0841064 156.082 3.85223 156.082 10.2606C156.082 16.669 164.753 20.514 173.916 20.514C177.379 20.4986 180.776 19.9437 183.802 18.8991C185.239 19.6194 186.981 20.0629 188.82 20.1808L191.955 16.8869C190.835 16.8356 189.747 16.6254 188.777 16.2717C190.899 14.4889 192.015 12.3215 191.955 10.1068C191.955 3.48055 183.082 0.0841064 174.041 0.0841064Z" fill="#F5F5F7"/>
<path fill-rule="evenodd" clip-rule="evenodd" d="M281.148 0.700012V4.55785H292.15V19.8982H298.136V4.55785H309.612V0.700012H281.148Z" fill="#F5F5F7"/>
<path fill-rule="evenodd" clip-rule="evenodd" d="M222.92 13.504C218.682 13.4284 214.484 14.0103 210.7 15.1946L217.883 6.41639L223.745 13.5169L222.92 13.504ZM212.599 0.315613L214.663 2.71235L200.215 19.9765H206.407L206.531 19.7458C207.501 18.8999 215.324 17.0415 222.775 17.0415H226.428L228.885 19.8983H235.469L219.101 0.315613H212.599Z" fill="#F5F5F7"/>
</svg>
