<svg width="72" height="56" viewBox="0 0 72 56" fill="none" xmlns="http://www.w3.org/2000/svg">
<mask id="mask0_626_15110" style="mask-type:alpha" maskUnits="userSpaceOnUse" x="0" y="0" width="72" height="56">
<path d="M0 0H71.655V55.2987H0V0Z" fill="white"/>
</mask>
<g mask="url(#mask0_626_15110)">
<path fill-rule="evenodd" clip-rule="evenodd" d="M35.7812 54.7663C16.253 54.7325 0.609558 42.5566 0.687254 27.4515C0.765045 12.5266 16.5934 0.478186 36.0509 0.530522C55.3483 0.585075 71.0138 12.7778 70.9629 27.7066C70.9091 42.6935 55.1711 54.7981 35.7812 54.7663ZM35.8687 8.50222e-07C16.054 -0.00374877 0.00461635 12.3953 3.31994e-07 27.7122C-0.0026721 42.8678 16.1291 55.3044 35.7885 55.2988C55.562 55.295 71.6525 42.9016 71.655 27.6803C71.6574 12.4234 55.5985 0.00375217 35.8687 8.50222e-07Z" fill="#F5F5F7"/>
</g>
<path fill-rule="evenodd" clip-rule="evenodd" d="M38.5027 13.5056C38.3418 13.6517 38.1809 13.7921 38.0273 13.9382C38.4223 13.9495 38.5832 13.809 38.5027 13.5056ZM38.5027 13.5056C38.3418 13.6517 38.1809 13.7921 38.0273 13.9382C38.4223 13.9495 38.5832 13.809 38.5027 13.5056ZM38.5027 13.5056C38.3418 13.6517 38.1809 13.7921 38.0273 13.9382C38.4223 13.9495 38.5832 13.809 38.5027 13.5056ZM38.5027 13.5056C38.3418 13.6517 38.1809 13.7921 38.0273 13.9382C38.4223 13.9495 38.5832 13.809 38.5027 13.5056ZM38.5027 13.5056C38.3418 13.6517 38.1809 13.7921 38.0273 13.9382C38.4223 13.9495 38.5832 13.809 38.5027 13.5056ZM38.5027 13.5056C38.3418 13.6517 38.1809 13.7921 38.0273 13.9382C38.4223 13.9495 38.5832 13.809 38.5027 13.5056ZM38.5027 13.5056C38.3418 13.6517 38.1809 13.7921 38.0273 13.9382C38.4223 13.9495 38.5832 13.809 38.5027 13.5056ZM38.5027 13.5056C38.3418 13.6517 38.1809 13.7921 38.0273 13.9382C38.4223 13.9495 38.5832 13.809 38.5027 13.5056ZM38.5027 13.5056C38.3418 13.6517 38.1809 13.7921 38.0273 13.9382C38.4223 13.9495 38.5832 13.809 38.5027 13.5056ZM38.5027 13.5056C38.3418 13.6517 38.1809 13.7921 38.0273 13.9382C38.4223 13.9495 38.5832 13.809 38.5027 13.5056ZM38.5027 13.5056C38.3418 13.6517 38.1809 13.7921 38.0273 13.9382C38.4223 13.9495 38.5832 13.809 38.5027 13.5056ZM38.5027 13.5056C38.3418 13.6517 38.1809 13.7921 38.0273 13.9382C38.4223 13.9495 38.5832 13.809 38.5027 13.5056ZM38.5027 13.5056C38.3418 13.6517 38.1809 13.7921 38.0273 13.9382C38.4223 13.9495 38.5832 13.809 38.5027 13.5056ZM38.5027 13.5056C38.3418 13.6517 38.1809 13.7921 38.0273 13.9382C38.4223 13.9495 38.5832 13.809 38.5027 13.5056ZM38.5027 13.5056C38.3418 13.6517 38.1809 13.7921 38.0273 13.9382C38.4223 13.9495 38.5832 13.809 38.5027 13.5056ZM38.5027 13.5056C38.3418 13.6517 38.1809 13.7921 38.0273 13.9382C38.4223 13.9495 38.5832 13.809 38.5027 13.5056ZM38.5027 13.5056C38.3418 13.6517 38.1809 13.7921 38.0273 13.9382C38.4223 13.9495 38.5832 13.809 38.5027 13.5056ZM38.5027 13.5056C38.3418 13.6517 38.1809 13.7921 38.0273 13.9382C38.4223 13.9495 38.5832 13.809 38.5027 13.5056ZM38.5027 13.5056C38.3418 13.6517 38.1809 13.7921 38.0273 13.9382C38.4223 13.9495 38.5832 13.809 38.5027 13.5056ZM38.5027 13.5056C38.3418 13.6517 38.1809 13.7921 38.0273 13.9382C38.4223 13.9495 38.5832 13.809 38.5027 13.5056ZM38.5027 13.5056C38.3418 13.6517 38.1809 13.7921 38.0273 13.9382C38.4223 13.9495 38.5832 13.809 38.5027 13.5056ZM38.5027 13.5056C38.3418 13.6517 38.1809 13.7921 38.0273 13.9382C38.4223 13.9495 38.5832 13.809 38.5027 13.5056ZM38.5027 13.5056C38.3418 13.6517 38.1809 13.7921 38.0273 13.9382C38.4223 13.9495 38.5832 13.809 38.5027 13.5056ZM38.5027 13.5056C38.3418 13.6517 38.1809 13.7921 38.0273 13.9382C38.4223 13.9495 38.5832 13.809 38.5027 13.5056ZM38.5027 13.5056C38.3418 13.6517 38.1809 13.7921 38.0273 13.9382C38.4223 13.9495 38.5832 13.809 38.5027 13.5056ZM38.5027 13.5056C38.3418 13.6517 38.1809 13.7921 38.0273 13.9382C38.4223 13.9495 38.5832 13.809 38.5027 13.5056ZM38.5027 13.5056C38.3418 13.6517 38.1809 13.7921 38.0273 13.9382C38.4223 13.9495 38.5832 13.809 38.5027 13.5056Z" fill="#F5F5F7"/>
<path fill-rule="evenodd" clip-rule="evenodd" d="M49.2547 6.39266C49.2945 5.5627 48.296 5.4835 47.5797 5.24181C46.8484 4.99499 47.0066 5.62153 46.7691 5.85063C46.6164 5.99806 46.4507 6.21104 46.8337 6.35881C47.0955 6.45963 47.3316 6.49543 47.5645 6.31859C47.7586 6.17117 47.8852 5.84178 48.2694 6.11288C48.586 6.33631 48.2988 6.54557 48.1905 6.74881C48.0165 7.07555 47.8392 7.40228 47.6293 7.71555C47.5404 7.84827 47.502 8.08641 47.1636 7.99356C46.8939 7.91968 46.8426 7.79263 46.9417 7.5839C47.1045 7.24175 46.9052 6.94017 46.4854 6.90456C45.8596 6.8514 45.9412 7.37606 45.7224 7.64503C45.56 7.84473 45.3108 8.11901 45.8364 8.29036C46.7118 8.57616 47.5995 9.03916 48.3218 8.10998C48.4547 7.93952 48.6356 7.84366 48.8894 7.93084C49.2628 8.05895 49.0724 8.26608 48.9862 8.45249C48.9607 8.50777 48.9152 8.55703 48.8862 8.61125C48.2846 9.73675 48.2832 9.73941 46.8456 9.24807C45.763 8.87809 44.6841 8.5021 43.6062 8.12486C43.3742 8.04371 43.0452 7.99782 43.1797 7.70652C43.2733 7.50346 43.482 7.47617 43.7374 7.549C44.0554 7.63954 44.2538 7.50434 44.3731 7.29774C44.8074 6.54522 45.2295 5.78862 45.6619 5.03556C45.7633 4.8589 45.7948 4.70262 45.5715 4.5653C45.3421 4.42461 44.9906 4.30395 45.3281 4.0208C45.5892 3.80162 45.8304 4.01548 46.0465 4.08707C47.3089 4.50648 48.5641 4.93917 49.8134 5.38144C50.0984 5.48243 50.5953 5.52585 50.4281 5.8905C50.2274 6.32745 50.1221 6.96392 49.6062 7.10017C48.9864 7.2639 49.1018 6.77698 49.2547 6.39266Z" fill="#F5F5F7"/>
<path fill-rule="evenodd" clip-rule="evenodd" d="M9.56716 35.4098C9.43531 35.4332 9.23099 35.455 9.03999 35.5071C8.7955 35.574 8.5626 35.6365 8.41572 35.4021C8.23556 35.1147 8.51159 35.0007 8.761 34.8842C8.86624 34.835 8.9801 34.7973 9.0883 34.7518C10.4825 34.1638 10.4825 34.1636 11.1916 35.2493C11.7875 36.1616 12.3884 37.0721 12.9739 37.9886C13.0903 38.1705 13.3333 38.3729 12.9695 38.5687C12.6718 38.7288 12.5729 38.5274 12.3807 38.4173C11.7651 38.065 8.22027 39.415 8.24048 40.0132C8.24862 40.2539 8.36273 40.4588 8.00019 40.5414C7.59132 40.6342 7.55312 40.3217 7.43654 40.1477C6.69693 39.0419 5.98294 37.9255 5.2485 36.8175C5.07204 36.5517 5.01683 36.3246 5.44911 36.2089C6.03568 36.0516 6.53525 35.5179 7.1928 35.764C7.6172 35.923 7.21251 36.1672 6.98725 36.3547C6.38442 36.8566 6.52761 38.0882 7.2411 38.457C7.73081 38.7103 8.0549 38.3102 8.44849 38.1981C8.67499 38.1337 8.92687 38.0251 8.76026 37.7776C8.57345 37.5008 8.31344 37.3136 7.86858 37.4641C7.56371 37.5673 7.41757 37.4307 7.31381 37.2328C7.1992 37.0135 7.42594 36.9556 7.59501 36.8852C8.1732 36.645 8.75509 36.4103 9.34042 36.1809C9.51146 36.1139 9.6963 36.0015 9.87129 36.1952C10.0367 36.3782 10.0719 36.5326 9.79489 36.6732C9.34362 36.9022 9.12206 37.2834 9.57135 37.5347C10.0657 37.8117 10.501 37.3275 10.9695 37.1965C11.4898 37.0511 11.3547 36.7787 11.1467 36.5046C10.7822 36.0242 10.5937 35.3952 9.56716 35.4098Z" fill="#F5F5F7"/>
<path fill-rule="evenodd" clip-rule="evenodd" d="M22.0972 45.6309C22.962 45.6949 23.6899 45.976 24.2815 46.4825C24.4342 46.6133 24.5567 46.7788 24.7378 46.8737C25.0067 47.0149 25.6919 46.7017 25.5867 47.1658C25.4789 47.6409 25.1321 48.1814 24.6721 48.4762C24.2342 48.7568 24.0853 48.3311 24.1169 47.9984C24.1858 47.266 23.7263 46.8019 22.9463 46.4931C22.5752 46.3461 22.2006 46.3054 21.9279 46.5955C21.6797 46.8594 21.8479 47.1236 22.0925 47.3295C22.5593 47.7234 23.0629 48.0899 23.5279 48.4856C24.0703 48.9472 24.2787 49.4643 23.781 50.0375C23.3015 50.5906 22.6438 50.8168 21.817 50.649C21.2234 50.5284 20.6857 50.311 20.2616 49.9455C20.1339 49.8355 20.0409 49.6221 19.9057 49.6072C18.1978 49.4172 19.4464 48.7633 19.5937 48.3061C19.6505 48.1301 19.7571 47.8746 20.1357 47.9748C20.4602 48.0606 20.4766 48.2556 20.4325 48.4847C20.3053 49.1462 20.6857 49.5819 21.4027 49.8704C21.7707 50.0182 22.1461 50.0803 22.427 49.7958C22.6899 49.5294 22.4754 49.2635 22.2447 49.0647C21.7582 48.6451 21.2118 48.2692 20.7357 47.8426C20.2809 47.4352 20.0871 46.9712 20.448 46.4303C20.8064 45.8933 21.3588 45.6521 22.0972 45.6309Z" fill="#F5F5F7"/>
<path fill-rule="evenodd" clip-rule="evenodd" d="M27.7036 3.62784C27.9417 3.64081 28.1798 3.66378 28.4182 3.66448C28.7614 3.66589 29.0548 3.16501 29.307 3.44744C29.6133 3.79018 29.6395 4.26774 29.7782 4.6885C29.8222 4.82226 29.7086 4.90379 29.555 4.95971C29.1942 5.09137 29.0735 4.88959 28.9045 4.72391C28.3193 4.15011 27.5572 4.04404 26.681 4.31438C26.3762 4.40852 26.103 4.57016 26.15 4.83541C26.1973 5.10049 26.5132 5.21252 26.845 5.23794C27.6364 5.29824 28.4307 5.33664 29.2233 5.38748C29.9254 5.43254 30.459 5.67465 30.6316 6.18464C30.825 6.75494 30.7009 7.29053 30.006 7.67552C29.3102 8.06104 28.5151 8.21952 27.6505 8.17639C27.2463 8.15623 26.8639 7.94848 26.4868 8.32068C26.2655 8.53912 25.9064 8.42376 25.8061 8.11661C25.7415 7.91903 25.6248 7.72215 25.6212 7.52422C25.6167 7.25985 25.1371 6.9562 25.6354 6.73723C26.1493 6.5116 26.2933 6.92377 26.5571 7.10592C26.8205 7.28807 27.0879 7.47531 27.4597 7.50722C28.1887 7.56963 29.1467 7.61381 29.2984 7.02598C29.4777 6.33015 28.4405 6.44673 27.8339 6.35803C27.4484 6.30157 27.0387 6.33681 26.6407 6.32138C25.8289 6.29018 25.1112 6.11767 24.9203 5.46059C24.7153 4.75494 25.0627 4.20708 25.9657 3.86539C26.5154 3.65747 27.0965 3.59576 27.7036 3.62784Z" fill="#F5F5F7"/>
<path fill-rule="evenodd" clip-rule="evenodd" d="M61.6323 18.5433C61.5398 18.0471 61.4303 17.5669 61.3662 17.0836C61.2952 16.552 61.5337 16.1264 62.251 15.8941C62.9761 15.6595 63.6283 15.7317 64.212 16.1235C64.7838 16.507 65.1413 16.965 65.1969 17.5431C65.217 17.7535 65.0668 17.9971 65.4257 18.1603C66.1688 18.4985 65.7254 18.709 65.2293 18.8374C64.7786 18.9539 64.3156 19.4082 63.8652 19.1006C63.3459 18.7458 64.1689 18.5519 64.3021 18.256C64.4036 18.0311 64.4888 17.8103 64.427 17.5853C64.309 17.1577 64.1238 16.6163 63.4284 16.6773C62.6231 16.7478 62.8273 17.2957 62.9319 17.7206C63.0289 18.1147 63.1531 18.5075 63.2023 18.9048C63.2678 19.4341 62.9976 19.8667 62.3175 20.1115C61.6176 20.3628 60.9339 20.3163 60.333 19.9517C59.6368 19.5294 59.2525 18.9787 59.1936 18.3139C59.1787 18.1441 59.2109 17.9564 59.121 17.8094C58.9909 17.5965 58.1771 17.5603 58.6587 17.2184C59.1153 16.8938 59.7875 16.5977 60.4376 16.6318C60.9566 16.6589 60.871 17.0036 60.5244 17.264C59.9429 17.7008 59.8166 18.2065 60.184 18.7633C60.3933 19.0802 60.6375 19.4346 61.2081 19.3298C61.7579 19.229 61.6124 18.8336 61.6323 18.5433Z" fill="#F5F5F7"/>
<path fill-rule="evenodd" clip-rule="evenodd" d="M53.3867 11.5135C53.3884 11.0916 53.6225 10.7606 53.9928 10.4674C54.5658 10.0139 55.132 9.55539 55.6903 9.09165C55.8919 8.92407 56.2377 8.76099 55.9841 8.48978C55.7843 8.27605 55.5775 8.10021 55.9914 7.91755C56.3529 7.75788 56.4742 8.04041 56.6561 8.16164C57.1596 8.49733 57.6398 8.85313 58.12 9.20821C58.2781 9.32496 58.5244 9.43452 58.3292 9.65077C58.1568 9.84223 57.9533 9.83756 57.7348 9.69405C57.7051 9.67447 57.6742 9.63855 57.6443 9.63873C56.2771 9.64394 56.0092 10.6869 55.1439 11.1713C54.7299 11.4028 54.4644 11.7705 54.7527 12.2003C55.1723 12.8262 56.0202 12.9532 56.6944 12.4602C57.3465 11.9828 57.9511 11.4679 58.5681 10.9635C58.7182 10.841 58.9818 10.7266 58.8167 10.5174C58.6467 10.3015 58.2195 10.0797 58.7396 9.87563C59.1449 9.71668 59.3086 10.0964 59.5703 10.2422C59.8237 10.3834 60.0659 10.5427 60.2765 10.7191C60.4442 10.8595 60.8128 10.9423 60.6663 11.2062C60.4962 11.5126 60.2412 11.4346 59.9137 11.2996C59.5392 11.1451 59.3658 11.4515 59.1613 11.6067C58.604 12.0298 58.0699 12.4706 57.5289 12.9062C56.8772 13.4306 56.133 13.7031 55.2061 13.3392C54.2198 12.9518 53.4504 12.4271 53.3867 11.5135Z" fill="#F5F5F7"/>
<path fill-rule="evenodd" clip-rule="evenodd" d="M49.2871 45.0698C49.9972 45.0379 50.515 45.2969 50.8548 45.8007C51.2375 46.3682 51.5922 46.9489 51.9841 47.5119C52.1915 47.8099 52.2991 48.2671 52.9507 48.0346C53.1854 47.9508 53.2822 48.1232 53.3565 48.2605C53.4628 48.4567 53.2651 48.5382 53.1101 48.6074C52.4521 48.9014 51.7861 49.1833 51.1257 49.4739C50.9528 49.55 50.7823 49.6202 50.6352 49.4567C50.5127 49.3205 50.4794 49.141 50.6598 49.046C51.2902 48.7136 50.9339 48.3624 50.7141 48.0148C50.3848 47.4938 50.0404 46.9793 49.7103 46.4587C49.3729 45.9269 48.9222 45.7548 48.2461 46.0746C47.6146 46.3732 47.4187 46.7604 47.7671 47.3072C48.1509 47.9095 48.5308 48.5138 48.9191 49.1141C49.0772 49.3582 49.213 49.6457 49.6731 49.4666C49.7657 49.4308 49.9017 49.4093 49.9893 49.439C50.1774 49.5026 50.2681 49.6371 50.1945 49.8101C50.1283 49.9656 48.3213 50.7581 48.1479 50.6999C47.9076 50.6191 47.7425 50.4144 47.9509 50.2729C48.5794 49.8469 48.0966 49.5047 47.884 49.1443C47.6542 48.7552 47.3948 48.3785 47.1518 47.9948C46.214 46.5152 47.2599 45.0832 49.2871 45.0698Z" fill="#F5F5F7"/>
<path fill-rule="evenodd" clip-rule="evenodd" d="M7.30746 29.1009C6.33715 29.1753 5.47243 29.2327 4.61199 29.3124C4.30235 29.341 3.97011 29.3984 3.93373 29.6875C3.90781 29.8938 3.86452 30.1062 3.47378 30.0512C3.1054 29.9992 3.19815 29.7524 3.16152 29.5708C3.123 29.3785 3.09898 29.1847 3.07139 28.9914C3.03429 28.7283 2.72916 28.4094 3.1318 28.2195C3.62266 27.9884 3.59816 28.4941 3.88569 28.5594C4.13635 28.6165 4.4253 28.6232 4.69166 28.6068C5.43795 28.5613 6.17947 28.4728 6.92623 28.4367C8.55602 28.3578 9.32965 28.8686 9.49375 30.1009C9.62312 31.0701 8.84854 31.672 7.34004 31.7832C6.63395 31.8352 5.92976 31.8991 5.22415 31.9545C4.86908 31.9824 4.47572 31.9816 4.39867 32.3043C4.34825 32.5147 4.30116 32.7148 3.92207 32.6586C3.54846 32.6031 3.66023 32.3516 3.62599 32.1734C3.53609 31.7062 3.45927 31.2376 3.3915 30.7687C3.37223 30.6346 3.37033 30.4843 3.62099 30.4346C3.8386 30.3912 4.0398 30.4306 4.07785 30.5928C4.1851 31.0513 4.66717 30.9701 5.08454 30.9441C5.87007 30.8955 6.65393 30.8294 7.43588 30.756C8.14911 30.6893 8.64948 30.4477 8.54651 29.8846C8.44924 29.3531 8.08442 28.9927 7.30746 29.1009Z" fill="#F5F5F7"/>
<path fill-rule="evenodd" clip-rule="evenodd" d="M65.689 25.2847C64.9394 25.2829 64.8433 24.7756 64.7866 24.3516C64.7038 23.7156 65.4122 23.9656 65.6236 23.8732C66.4282 23.7101 66.4914 24.0435 66.4977 24.4476C66.5065 24.9223 66.3691 25.2865 65.689 25.2847ZM66.8857 22.5994C66.8729 22.5106 66.8705 22.42 66.8554 22.3312C66.8203 22.1482 66.7726 21.9561 66.4914 21.9598C66.3037 21.9616 66.149 22.0413 66.162 22.2388C66.1947 22.7335 65.7544 22.7135 65.3557 22.757C64.6756 22.8295 63.9953 22.9092 63.3196 22.9998C62.8008 23.0687 62.2384 23.3042 61.9921 22.6483C61.9485 22.5305 61.761 22.5142 61.6152 22.565C61.4035 22.6393 61.421 22.8041 61.4408 22.9473C61.5212 23.5434 61.6128 24.1378 61.7065 24.7321C61.7329 24.8915 61.8264 25.0238 62.0531 24.9984C62.2582 24.9767 62.3452 24.8589 62.3605 24.6868C62.4217 23.9185 63.2304 24.1595 63.6967 24.0997C64.2918 24.0218 64.0391 24.5799 64.1893 24.8426C64.2918 25.0256 64.2658 25.2576 64.3419 25.4569C64.5817 26.082 65.0113 26.5422 65.8961 26.4587C66.8554 26.3701 67.2519 25.8555 67.2803 25.0655C67.1517 24.2646 67.0189 23.4329 66.8857 22.5994Z" fill="#F5F5F7"/>
<path fill-rule="evenodd" clip-rule="evenodd" d="M15.0021 42.8201C14.3243 43.0946 13.6468 43.3694 12.9688 43.6436C12.5699 43.8048 12.106 43.9402 12.6151 44.3941C12.7362 44.5024 12.6587 44.6113 12.5432 44.695C12.3844 44.8099 12.2287 44.8151 12.0739 44.6833C11.9482 44.5767 11.8144 44.4766 11.6839 44.374C10.6799 43.5859 10.7045 43.636 11.9392 43.2262C13.0748 42.8494 14.1517 42.3528 15.2505 41.9023C15.6649 41.7323 16 41.5137 16.4851 41.9033C16.9681 42.2913 16.8538 42.5883 16.6039 42.9914C16.1127 43.7833 15.6592 44.5912 15.2108 45.3999C15.0944 45.61 15.0004 45.8465 14.9917 46.0735C14.9832 46.3003 15.4208 46.5762 14.9178 46.7358C14.5869 46.8409 14.4284 46.5451 14.2273 46.394C13.8003 46.0737 13.3914 45.7373 12.9729 45.4094C12.8298 45.2972 12.7445 45.1737 12.8828 45.0264C12.9951 44.907 13.1412 44.7926 13.3265 44.9339C13.8147 45.3055 13.9893 45.0102 14.1741 44.6852C14.5048 44.1036 14.8481 43.5266 15.1863 42.9478C15.1248 42.9052 15.0633 42.8626 15.0021 42.8201Z" fill="#F5F5F7"/>
<path fill-rule="evenodd" clip-rule="evenodd" d="M7.87336 23.5713C8.59495 23.5993 9.16881 23.4033 9.44028 22.8353C9.70281 22.2862 9.41196 21.867 8.8529 21.5572C8.56967 21.4004 8.22631 21.2335 8.49364 20.9521C8.7505 20.6812 9.08014 20.9393 9.33069 21.0604C10.21 21.4852 10.341 22.158 10.1758 22.8929C9.95249 23.8879 9.01543 24.6656 7.89036 24.7581C6.65438 24.8597 5.56569 24.5776 4.85718 23.7129C4.16631 22.8696 4.26501 22.0047 4.96568 21.1788C5.02646 21.1071 5.13235 21.0534 5.16938 20.9764C5.52102 20.2459 6.02931 20.0929 6.9204 20.4633C7.07117 20.5258 7.28468 20.5597 7.2313 20.7601C7.19317 20.9029 7.14219 21.07 6.92258 21.0704C5.83824 21.0721 5.13627 21.4283 5.24803 22.368C5.33017 23.0606 6.55765 23.5829 7.87336 23.5713Z" fill="#F5F5F7"/>
<path fill-rule="evenodd" clip-rule="evenodd" d="M57.3696 45.6309C56.9221 45.2415 56.3823 44.8641 56.0117 44.4063C55.8541 44.212 56.1771 43.9536 56.584 44.078C56.8762 44.1674 57.1285 44.3402 57.4246 44.4131C57.8077 44.5075 58.1663 44.3614 58.3511 44.122C58.5441 43.8723 58.1447 43.7678 57.9697 43.6379C57.2542 43.1064 56.5102 42.5973 55.781 42.0765C55.4784 41.8605 55.1922 41.629 54.7911 41.9766C54.5854 42.1551 54.3761 42.1174 54.1936 41.9468C54.017 41.7821 54.1845 41.6691 54.3136 41.5615C54.88 41.0888 55.4515 40.6199 56.0216 40.1497C56.1627 40.0336 56.3179 39.9267 56.528 40.05C56.727 40.1667 56.8954 40.3069 56.64 40.4938C56.1235 40.8718 56.5842 41.083 56.8858 41.3055C57.5462 41.7933 58.2057 42.2834 58.9 42.7417C59.123 42.8891 59.2982 43.3077 59.732 43.0154C60.0558 42.7969 60.0786 42.4681 59.8863 42.1678C59.783 42.0062 59.6051 41.8734 59.4739 41.7208C59.2877 41.505 59.4977 41.3103 59.688 41.2858C60.3626 41.1995 60.5333 41.7359 60.9488 41.9748C61.1872 42.1117 61.6753 42.2909 61.2829 42.621C60.1552 43.5696 59.0012 44.5 57.8517 45.4333C57.7777 45.4932 57.6537 45.5168 57.3696 45.6309Z" fill="#F5F5F7"/>
<path fill-rule="evenodd" clip-rule="evenodd" d="M36.3266 2.8874C37.3686 2.95043 38.4105 3.01294 39.4524 3.0763C39.7997 3.09748 40.2542 3.04061 40.2014 3.43805C40.1436 3.87579 40.4041 4.36973 39.9286 4.7337C39.7221 4.89151 39.3936 4.78391 39.3116 4.52892C39.2413 4.3103 39.2367 4.07221 39.1068 3.87409C38.9648 3.65786 38.6548 3.54616 38.2995 3.59757C37.9766 3.64437 38.0412 3.85308 38.0218 4.01106C37.9355 4.7185 37.8561 5.42644 37.7826 6.13473C37.7524 6.42577 37.7355 6.71475 38.2963 6.78512C38.5517 6.8174 38.7612 6.90792 38.6376 7.13269C38.551 7.28948 38.3517 7.31475 38.1403 7.30399C37.3381 7.26334 36.5356 7.22184 35.7336 7.17914C35.4888 7.16616 35.231 7.15557 35.2356 6.91373C35.2393 6.73764 35.4086 6.66197 35.6272 6.65958C36.1554 6.65429 36.2993 6.43448 36.3264 6.10672C36.3852 5.39792 36.4802 4.69066 36.5351 3.98169C36.5491 3.80338 36.6935 3.55948 36.3141 3.4705C35.9692 3.38937 35.655 3.48792 35.468 3.68843C35.2961 3.87306 35.2211 4.10124 35.082 4.30295C34.9164 4.54343 34.5113 4.5641 34.46 4.36307C34.3487 3.92703 34.334 3.45239 34.4612 3.02011C34.5874 2.59124 35.1319 2.9202 35.4811 2.88433C35.7546 2.85615 36.0425 2.89833 36.3237 2.90927C36.3247 2.90192 36.3257 2.89458 36.3266 2.8874Z" fill="#F5F5F7"/>
<path fill-rule="evenodd" clip-rule="evenodd" d="M12.8958 9.87843C12.0276 10.6074 13.2416 10.8019 13.6588 11.1883C13.9736 11.4797 14.3661 11.7489 14.7953 11.956C15.1482 12.1265 15.3121 12.7521 15.9809 12.3318C16.5931 11.9475 17.3911 11.5538 16.6867 10.8343C16.5097 10.6535 15.999 10.4804 16.4559 10.2064C16.9719 9.89666 17.1602 10.3261 17.4096 10.4845C18.5759 11.2245 18.5645 11.2337 17.4319 12.0613C16.617 12.6568 15.8048 13.2544 14.9821 13.845C14.7968 13.9777 14.6182 14.1863 14.2788 13.9878C14.0174 13.8348 14.1162 13.6919 14.303 13.558C14.6635 13.2994 14.3341 13.1546 14.112 13.002C13.3578 12.4839 12.595 11.972 11.8364 11.4571C11.5967 11.2946 11.3541 11.1107 11.0139 11.3395C10.7466 11.5192 10.5265 11.5104 10.316 11.3032C10.1051 11.0956 10.3734 10.998 10.5295 10.8852C11.0665 10.4968 11.6099 10.1128 12.157 9.73158C12.2925 9.63721 12.4197 9.49599 12.6647 9.59394C12.8083 9.65135 12.9327 9.72324 12.8958 9.87843Z" fill="#F5F5F7"/>
<path fill-rule="evenodd" clip-rule="evenodd" d="M61.6756 32.261C61.6012 32.7698 62.0582 32.9801 62.5632 33.1553C62.8136 33.242 63.0878 33.3195 62.9665 33.6004C62.8428 33.887 62.5389 33.7832 62.2937 33.7493C61.9975 33.7083 61.7105 33.6168 61.4136 33.5884C60.7942 33.5288 60.5896 33.3048 60.7533 32.7986C61.075 31.8028 61.3431 30.7959 61.6293 29.7928C61.6872 29.5899 61.6633 29.3182 61.9954 29.2897C62.3667 29.2576 62.3672 29.5021 62.3713 29.7272C62.3774 30.0412 62.677 30.1019 62.9851 30.1588C63.8663 30.321 64.7427 30.4999 65.6258 30.6559C65.9937 30.7208 66.3942 30.7871 66.5948 30.4087C66.703 30.2038 66.8715 30.1224 67.1194 30.237C67.3129 30.3265 67.2986 30.4789 67.2503 30.6369C67.0793 31.1953 66.9248 31.7567 66.7465 32.3133C66.6941 32.4774 66.6682 32.6928 66.3493 32.6783C66.0463 32.6642 65.9821 32.5261 66.0506 32.3071C66.169 31.9286 65.8499 31.8432 65.4915 31.7784C64.6835 31.6316 63.8769 31.4789 63.0703 31.3263C61.958 31.1156 61.6779 31.297 61.6756 32.261Z" fill="#F5F5F7"/>
<path fill-rule="evenodd" clip-rule="evenodd" d="M21.5304 9.20973C21.1192 8.6593 20.7979 8.08702 20.3043 7.61149C19.8794 7.20262 20.0068 6.28884 18.6816 6.56093C18.411 6.61656 18.055 6.2848 18.4734 6.08027C19.2278 5.71142 20.0519 5.41931 20.8481 5.09617C21.0064 5.03173 21.1599 5.03099 21.2945 5.13399C21.462 5.26215 21.5129 5.41967 21.306 5.52359C20.6881 5.83351 21.0266 6.14581 21.2645 6.46528C21.6812 7.02526 22.0816 7.59185 22.5173 8.14357C22.7505 8.4388 22.9065 8.87632 23.6125 8.58366C23.8385 8.49002 23.9878 8.63066 24.0869 8.77405C24.2227 8.96995 24.0242 9.04963 23.846 9.12418C23.1636 9.40986 22.4821 9.69719 21.789 9.96855C21.5936 10.0453 21.3846 10.2304 21.1315 10.042C20.8496 9.83232 20.9842 9.67589 21.252 9.51928C21.3694 9.4508 21.428 9.32797 21.5304 9.20973Z" fill="#F5F5F7"/>
<path fill-rule="evenodd" clip-rule="evenodd" d="M13.1639 16.5036C12.6606 17.1886 12.2379 17.8739 11.6767 18.4754C11.4395 18.7295 10.9905 18.4634 11.1333 18.2047C11.4721 17.5909 10.8852 17.5011 10.4845 17.304C9.78176 16.9587 9.0636 16.6334 8.34757 16.3057C7.98387 16.1394 7.61426 15.866 7.24937 16.3179C7.12175 16.4758 6.93824 16.4841 6.74692 16.3718C6.48859 16.2195 6.58047 16.0567 6.70738 15.8813C7.08244 15.3631 7.44732 14.8399 7.82239 14.3217C7.94386 14.1537 8.08687 13.993 8.37717 14.1085C8.57417 14.1869 8.67314 14.3028 8.55783 14.4847C8.26517 14.9457 8.69327 15.0914 9.0778 15.2672C9.75997 15.5787 10.4317 15.9053 11.1141 16.2168C11.5699 16.4248 11.9817 16.7779 12.5372 16.2615C12.818 16.0002 13.0503 16.2515 13.1639 16.5036Z" fill="#F5F5F7"/>
<path fill-rule="evenodd" clip-rule="evenodd" d="M65.0897 37.7929C64.6686 38.4864 64.2967 39.1777 63.8363 39.8256C63.5812 40.1843 63.1085 39.8881 63.1784 39.7069C63.5377 38.7763 62.5625 38.7798 62.0375 38.5055C61.4732 38.2107 60.8504 37.993 60.2495 37.7481C59.8719 37.5945 59.4788 37.3266 59.1692 37.8393C59.0615 38.0174 58.8741 38.03 58.6768 37.918C58.4763 37.8042 58.4711 37.6605 58.5733 37.4944C58.9319 36.9095 59.2891 36.3241 59.646 35.7386C59.7395 35.5855 59.855 35.4523 60.0919 35.4934C60.3216 35.5334 60.4531 35.6823 60.3629 35.8526C60.0945 36.3595 60.5532 36.4781 60.9303 36.6419C61.6632 36.9605 62.3984 37.2755 63.1363 37.5858C63.5788 37.7721 63.9842 38.0622 64.4679 37.556C64.7116 37.3009 65.0155 37.4684 65.0897 37.7929Z" fill="#F5F5F7"/>
<path fill-rule="evenodd" clip-rule="evenodd" d="M2.19752 20.8328C2.57746 21.2293 3.93608 21.3159 3.60275 21.9205C3.28574 22.496 2.14124 22.3716 1.46094 22.5234C1.70502 21.9633 1.94444 21.4132 2.19752 20.8328Z" fill="#F5F5F7"/>
<path fill-rule="evenodd" clip-rule="evenodd" d="M26.3281 1.54583C27.6959 1.7635 27.6959 1.7635 28.5221 1.10669C28.363 1.69687 28.49 2.53058 27.8277 2.75181C27.0469 3.01287 26.8238 2.08859 26.3281 1.54583Z" fill="#F5F5F7"/>
<path fill-rule="evenodd" clip-rule="evenodd" d="M37.9453 13.5777C37.9965 13.529 38.0504 13.4821 38.1038 13.4333C38.1309 13.5346 38.077 13.5815 37.9453 13.5777Z" fill="#F5F5F7"/>
<path fill-rule="evenodd" clip-rule="evenodd" d="M37.9453 13.5777C37.9965 13.529 38.0504 13.4821 38.1038 13.4333C38.1309 13.5346 38.077 13.5815 37.9453 13.5777Z" fill="#F5F5F7"/>
<path fill-rule="evenodd" clip-rule="evenodd" d="M54.6518 33.1693C54.5159 33.7362 54.1444 34.2975 53.4281 34.4933C51.1796 35.1092 49.1448 36.3353 46.8405 36.0038H45.8231C44.1671 36.0019 43.0817 35.1167 43.2007 33.8436C43.2447 33.3746 43.7106 33.2767 44.223 33.2051C46.4423 32.8925 48.6689 32.7154 50.9295 32.819C51.2791 32.8341 51.8303 32.9659 51.8206 32.4518C51.8039 31.5233 52.6146 31.6626 53.3188 31.7662C54.2803 31.9094 54.8412 32.3746 54.6518 33.1693ZM44.1574 39.5144C44.0797 39.714 43.8126 39.7498 43.5601 39.7498H40.5346V39.7592C39.5269 39.7592 38.5168 39.763 37.5091 39.7573C37.0866 39.7573 36.788 39.5747 37.1959 39.3317C37.9146 38.9004 38.376 38.0661 39.5803 38.2845C39.6556 38.2977 39.76 38.3015 39.8183 38.2714C41.603 37.3579 42.6519 38.4371 43.8345 39.1565C43.9923 39.2545 44.2205 39.3486 44.1574 39.5144ZM36.3873 36.5387C36.2416 37.098 36.4966 37.7553 35.5229 38.2299C35.6395 37.7082 35.7706 37.3448 35.7924 36.9794C35.8094 36.6592 36.0134 36.2091 35.4501 36.0791C34.996 35.9755 34.7702 36.3522 34.5589 36.6084C34.2166 37.0265 33.9058 37.4615 33.5683 37.9098C33.0899 36.8249 33.1433 36.7101 35.0397 34.7271C33.9932 34.8757 33.1895 35.2184 32.4465 35.6817C32.0385 35.9341 31.6063 36.1658 31.1646 36.3842C30.8004 36.5633 30.4092 36.582 30.0207 36.3937C29.5812 36.1808 29.6881 35.8531 29.7342 35.5499C30.0839 33.2089 30.1713 33.1844 33.1603 33.6534C34.758 33.902 36.3898 33.8775 37.9826 33.627C38.7693 33.5029 39.0267 33.6402 38.9976 34.241C38.9757 34.6591 39.2598 35.0226 39.4614 35.3974C39.5561 35.5763 39.6605 35.7703 39.4203 35.9096C39.1821 36.049 38.9417 35.9247 38.7645 35.8042C38.1672 35.3974 37.5844 34.9755 36.8948 34.6045C37.6718 35.5235 38.6601 36.371 38.2861 37.6969C37.6937 37.3221 37.6475 36.8362 37.4096 36.4351C37.2736 36.2091 37.1279 35.919 36.7613 35.9416C36.3218 35.968 36.4432 36.3221 36.3873 36.5387ZM31.2421 37.002C31.5917 37.0378 31.735 37.211 31.7253 37.4502C31.7156 37.6856 31.7836 38.019 31.3416 38.0246C31.0211 38.0284 30.9386 37.7553 30.941 37.5274C30.941 37.3221 30.873 37.0792 31.2421 37.002ZM26.9831 39.682C27.8259 38.8948 28.4691 38.4352 29.9285 38.3411C32.0021 38.2054 33.5124 38.8288 35.1247 39.5238C35.1514 39.5351 35.1563 39.5747 35.2194 39.682H26.9831ZM26.5024 33.9737C26.3761 33.8153 26.2571 33.6326 26.4732 33.465C26.6432 33.3351 26.8471 33.4123 27.0368 33.4575C27.3449 33.5291 27.6484 33.6364 27.9641 33.6628C29.132 33.7626 29.6444 34.1317 29.0859 35.0734C28.9669 35.2768 29.0058 35.5782 29.0908 35.8079C29.2777 36.3202 29.0276 36.4407 28.2749 36.3127C27.5149 36.2901 26.8909 36.0396 27.0244 35.1939C27.0975 34.7363 26.801 34.3504 26.5024 33.9737ZM42.7733 35.9944C42.8972 36.2769 42.8341 36.5556 42.4431 36.7119C42.1056 36.8494 41.7754 36.9078 41.4452 36.6762C40.4423 35.9755 39.8693 35.0395 39.7673 34.0658C39.6872 33.2899 40.8527 33.5611 41.467 33.4349C41.9381 33.337 42.5645 33.3633 42.6155 33.9585C42.6376 34.2372 42.6179 34.5178 42.6179 34.548C42.5791 35.2034 42.6034 35.6008 42.7733 35.9944ZM20.4077 32.303C19.6161 32.3086 19.366 32.1768 19.3636 31.544C19.3539 29.4346 19.3223 29.4346 21.9884 29.4346C31.2372 29.4346 40.486 29.4478 49.7348 29.4177C50.8105 29.4139 51.199 29.5928 51.1553 30.4855C51.063 32.2842 51.131 32.286 48.7587 32.286H35.1903C30.2635 32.286 25.3344 32.271 20.4077 32.303ZM25.3903 36.243C22.9718 35.774 20.4417 35.661 18.1228 34.8794C17.29 34.5988 16.5834 34.1411 16.2483 33.4726C15.9496 32.8755 16.0031 32.2032 16.8796 31.9546C17.5838 31.7568 18.5405 31.5685 18.8003 32.5026C18.9241 32.9414 19.3466 32.7889 19.6647 32.804C21.0754 32.8699 22.4765 32.9622 23.8363 33.3049C25.2421 33.6571 25.8834 34.4519 26.1236 35.5122C26.2255 35.9567 26.1041 36.2694 25.3903 36.243ZM26.6675 22.6526C26.7889 22.5001 26.8617 22.2609 27.1701 22.3362C27.4032 22.3946 27.5295 22.5829 27.5367 22.7826C27.544 22.9992 27.5756 23.2289 27.4979 23.4305C27.1919 24.2441 27.2114 25.0257 27.7116 25.7941C27.8184 25.9579 27.8548 26.1519 27.9058 26.3346C28.0491 26.8544 27.7261 27.0767 27.09 27.1482C26.1138 27.2556 26.6262 26.7228 26.5485 26.425C26.6262 25.9598 26.5485 25.4457 26.2547 25.069C25.5238 24.1367 26.075 23.4079 26.6675 22.6526ZM29.7294 27.459C29.5667 27.8262 29.557 28.4138 28.9888 28.4421C28.0709 28.4873 27.2624 28.6907 26.4562 28.9807C26.3397 29.0222 26.1163 28.992 26.0143 28.9261C25.8128 28.798 25.973 28.6417 26.058 28.5099C26.3834 28.0146 26.8253 27.6417 27.5853 27.5475C28.1802 27.474 28.763 27.3592 29.353 27.2612C29.5958 27.184 29.7973 27.3045 29.7294 27.459ZM26.7719 20.0253C27.4129 19.7749 28.0297 19.5545 28.559 20.1892C28.7508 20.419 29.047 20.6073 29.3336 20.7768C29.7973 21.0499 29.892 21.3418 29.6128 21.7486C28.627 23.1969 28.4254 24.6603 29.5788 26.1199C29.7512 26.3346 29.8143 26.5344 29.5035 26.683C29.1879 26.8318 28.9793 26.6661 28.7897 26.4873C28.3866 26.1048 28.2166 25.6566 28.2509 25.1745C28.338 23.9258 28.1122 22.6884 28.0175 21.2815C27.1798 21.6639 26.6796 21.4454 26.3421 20.8521C26.1017 20.4359 26.3227 20.2024 26.7719 20.0253ZM31.5116 19.7221C32.7184 20.7033 34.2457 20.3964 35.705 20.0197C36.1882 19.8956 36.618 19.6279 37.2833 19.6769C36.6204 20.8352 35.3165 21.1271 33.9835 21.2947C31.6889 21.5829 29.9042 20.886 28.491 19.3812C29.6929 18.9518 30.5865 18.9688 31.5116 19.7221ZM32.9054 19.2136C34.6585 19.208 36.2562 18.8821 37.5674 17.9292C37.9486 17.6523 38.4391 17.5885 38.7669 17.8388C39.1263 18.1118 38.6504 18.4056 38.4148 18.513C36.5452 19.3586 34.5784 19.9764 32.3445 19.788C32.1308 19.7711 31.9365 19.6166 31.6549 19.4886C32.0992 19.1289 32.5242 19.2136 32.9054 19.2136ZM29.9042 14.0136C29.8629 13.9496 29.875 13.8253 29.9309 13.7688C30.0547 13.6426 30.2271 13.6841 30.3437 13.7839C31.1474 14.4656 31.6646 15.3395 32.665 15.8934C32.6868 15.9064 32.6771 15.9516 32.6868 15.9931C32.6358 16.2002 32.444 16.2341 32.2668 16.1136C31.3586 15.4958 30.4675 14.863 29.9042 14.0136ZM29.3287 13.5974C29.2146 13.123 29.6419 12.9382 29.7803 12.6522C29.9285 12.3431 30.2733 12.3845 30.5452 12.6162C31.5043 13.4355 32.461 14.2566 33.4153 15.0796C33.5804 15.2209 33.7552 15.3998 33.5221 15.5655C33.2842 15.735 33.0608 15.558 32.9054 15.4356C32.4562 15.0777 31.8564 14.7557 31.6355 14.3225C31.1814 13.4279 30.4869 13.2172 29.3287 13.5974ZM31.0333 12.247C31.2202 11.1359 33.0729 9.80432 34.6998 9.68002C34.6124 10.0567 34.253 10.1096 33.9859 10.2205C32.8422 10.6933 32.1089 11.3809 31.9487 12.4092C31.9171 12.6124 32.0434 13.0023 31.5165 12.9138C31.1353 12.8478 30.975 12.5785 31.0333 12.247ZM36.7346 11.3317C35.7754 11.3338 35.0834 11.5295 35.2631 12.4052C35.3141 12.6463 35.4476 13.0908 34.9353 13.0663C34.4472 13.0456 34.6026 12.635 34.6854 12.3732C34.7945 12.0286 34.9523 11.6651 34.4642 11.4466C33.9908 11.2338 33.5658 11.3769 33.2016 11.6576C33.4906 11.993 34.083 11.4675 34.219 11.9551C34.2409 12.0267 34.0757 12.1813 33.9543 12.2169C33.5415 12.3469 33.1506 12.2583 32.8325 12.0305C32.546 11.8233 32.6237 11.5898 32.8082 11.3506C33.7261 10.1471 35.4646 10.1021 36.7346 11.3317ZM35.8995 11.908C35.9454 11.6237 36.2853 11.6651 36.5524 11.6802C36.7443 11.6915 36.9944 11.7178 36.9798 11.908C36.9579 12.1774 36.6544 12.2056 36.3776 12.2263C36.1348 12.1905 35.8629 12.1209 35.8995 11.908ZM37.8782 12.5088C37.7568 12.7763 38.5192 13.0117 38.2206 13.4185C38.8033 13.1661 39.0704 12.5785 40.134 12.4391C38.0263 14.4299 36.079 16.2153 32.8884 16.8161C32.8957 16.2737 33.5245 15.9648 34.1391 15.8669C35.9478 15.5787 37.0551 14.6352 38.0627 13.5635C37.8151 13.5767 37.6742 12.9627 37.3149 13.5183C37.0478 13.9308 36.533 14.2133 36.2076 14.6201C35.5666 15.4205 33.9932 15.3245 33.4541 14.4845C33.2599 14.1813 33.1992 13.8121 32.8228 13.5955C32.3008 13.2961 31.9584 12.8102 32.444 12.507C32.8908 12.2284 33.6727 12.5258 34.0587 12.8497C34.4132 13.1454 35.183 13.5767 34.219 14.0758C34.0563 14.1588 33.6435 14.4958 34.3501 14.5316C34.7461 13.7311 35.1538 13.7726 35.5739 14.5184C36.1397 14.5466 35.9187 14.33 35.7781 14.1342C35.2267 13.3676 35.5156 12.797 36.5792 12.5409C37.6233 12.2904 37.8102 11.8063 37.1983 11.0812C36.6811 10.4654 35.6759 10.3091 35.0567 9.71392C37.1716 9.74217 38.4998 11.134 37.8782 12.5088ZM38.5921 11.2564C39.0631 11.5803 39.2574 11.8176 39.0561 12.1472C39.0243 12.2 38.8155 12.2527 38.7742 12.2263C38.4173 11.9966 38.4391 11.7065 38.5921 11.2564ZM35.6686 18.4282C34.5444 18.9273 33.3254 18.9292 32.0871 18.7673C32.9345 18.432 33.8426 18.2719 34.5468 17.7634C34.7313 17.6316 35.0688 17.5694 35.3311 17.5751C35.7781 17.5845 36.4553 17.3679 36.5986 17.8239C36.7224 18.2135 36.028 18.2663 35.6686 18.4282ZM39.4395 14.428C38.5098 15.1681 37.684 15.9573 36.9798 16.8481C36.6569 17.2549 35.7754 17.0459 35.2121 17.1494C34.894 17.0986 34.5177 17.2794 34.3987 17.0176C34.2578 16.7031 34.6731 16.5279 34.9402 16.511C36.6447 16.3999 37.5213 15.4808 38.3808 14.5127C38.5362 14.3376 38.7839 14.2039 39.017 14.0852C39.1311 14.0249 39.3497 13.9835 39.4492 14.0287C39.692 14.1379 39.5633 14.33 39.4395 14.428ZM39.5585 18.5036C39.7845 18.4866 40.1 18.5959 39.9956 18.8219C39.7892 19.272 39.2477 19.4283 38.7693 19.562C38.478 19.5357 38.2813 19.449 38.3444 19.2701C38.512 18.8049 38.949 18.5469 39.5585 18.5036ZM41.6904 19.1552C40.9085 19.9952 39.5561 19.9877 38.5581 20.7015C40.4229 20.9821 41.4282 19.9745 42.7733 19.3982C42.7709 19.967 42.4455 20.2457 42.0643 20.4547C40.6536 21.2269 39.0194 21.4153 37.3513 21.4605C37.1012 21.468 36.7224 21.3588 36.6156 21.2119C36.4577 20.9934 36.8365 20.8521 37.0089 20.6902C37.3974 20.321 37.8248 20.0404 38.4828 19.9406C39.1044 19.8485 39.7187 19.6602 40.1801 19.2645C40.5929 18.9123 41.0809 18.9895 41.6904 19.1552ZM35.654 28.4553C35.8143 28.444 35.994 28.4138 36.1324 28.4553C37.2469 28.7905 37.9753 28.7265 37.9462 27.5814C37.9365 27.2424 37.6864 26.6585 38.4731 26.6002C39.2331 26.5455 39.906 26.8525 40.3112 27.3441C40.9935 28.1747 40.5807 28.766 39.306 28.8771C38.5897 28.9393 37.8709 28.9901 37.1522 29.0448C37.1522 29.0335 37.1498 29.0203 37.1498 29.009C36.628 29.009 36.1057 29.0165 35.586 29.0052C35.3748 28.9996 35.1563 28.9092 35.1465 28.7453C35.1295 28.5005 35.4112 28.4722 35.654 28.4553ZM35.8531 27.6435C36.2004 27.6887 36.5233 27.7019 36.8195 27.7791C37.1182 27.8564 37.4897 28.0052 37.3974 28.2801C37.2736 28.6532 36.9094 28.4044 36.6301 28.3611C36.3606 28.3197 36.0838 28.2971 35.8094 28.2765C35.4549 28.2481 34.9207 28.2594 34.9304 27.9543C34.9426 27.4948 35.5448 27.7452 35.8531 27.6435ZM29.8338 28.1408C30.045 27.572 30.334 27.0126 31.2567 26.9486C31.4582 26.9354 31.6524 27.0145 31.5408 27.2932C30.9021 27.5814 31.4315 28.5287 30.402 28.6681C29.9673 28.7265 29.7099 28.4703 29.8338 28.1408ZM37.4727 27.2801C37.4339 27.5456 37.1449 27.5569 36.9434 27.4571C36.3922 27.1802 35.6977 27.4533 34.9304 27.1181C35.7657 26.8224 36.397 26.9448 37.0162 26.9582C37.2639 26.9636 37.5091 27.039 37.4727 27.2801ZM37.7301 24.1009C37.6257 24.1254 37.531 24.1235 37.4946 24.1593C37.1571 24.4738 37.3902 25.2423 36.6763 25.1443C36.0935 25.0633 36.3995 24.374 36.2441 23.9672C36.1372 23.5529 36.2149 23.0802 35.552 22.6809C35.6735 23.3798 35.7682 23.9465 35.8653 24.5134C35.1635 25.3835 35.1635 25.3835 34.2311 24.0633C33.7649 24.2215 33.8645 24.5925 33.7309 24.8712C33.2817 25.7941 32.359 26.1143 31.2275 25.7244C29.4234 25.1029 28.8892 22.6959 30.3148 21.6394C30.5816 21.4435 30.822 21.5358 31.0867 21.6243C32.3639 22.0556 33.6751 22.0236 34.9863 21.7505C35.6322 21.6149 36.2659 21.662 36.9021 21.7524C37.7447 21.8731 38.6115 21.9633 39.4104 21.7222C40.3573 21.4341 40.6876 21.8014 40.9959 22.3833C41.467 23.2817 41.4476 24.1574 40.8867 25.0106C40.5176 25.57 39.9688 26.0088 39.0607 25.8355C38.1817 25.6679 37.6694 25.2347 37.7787 24.4738C37.7957 24.3552 37.7495 24.2309 37.7301 24.1009ZM34.3598 27.9562C34.7022 28.9412 34.1146 29.0316 33.3012 29.0071C32.5169 29.0071 31.7739 29.0354 31.497 28.4929C31.2227 27.9581 31.7909 27.5703 32.2255 27.201C32.9321 26.602 33.8839 26.4721 34.8527 26.4062C35.3724 26.3704 35.8995 26.3911 36.4213 26.376C36.7661 26.3666 37.3003 25.9862 37.3804 26.4928C37.429 26.7979 36.8123 26.7037 36.4772 26.7358C36.2392 26.7565 35.994 26.7414 35.7536 26.7433C34.4885 26.7452 34.0393 27.0352 34.3598 27.9562ZM41.5399 28.7811C40.8165 28.6474 41.0809 28.0861 40.8891 27.7547C40.9304 27.5192 40.7993 27.1558 41.1756 27.2198C41.8604 27.3349 41.9332 27.8771 42.0668 28.3159C42.159 28.6154 41.8822 28.8432 41.5399 28.7811ZM43.8854 20.0216C44.1137 20.1082 44.2691 20.2457 44.3104 20.4472C44.2691 20.7222 43.9631 20.7712 43.713 20.8597C43.276 21.0141 42.8197 21.1422 42.3848 21.306C42.0306 21.4416 41.8555 21.6149 42.0376 21.9784C42.8122 23.5378 42.4625 25.0407 41.5399 26.4947C41.4039 26.7113 41.28 27.0277 40.8673 26.9072C40.4715 26.7923 40.5492 26.4909 40.7119 26.2687C41.7997 24.7789 42.2756 23.2647 41.0931 21.6657C41.0737 21.6377 41.0397 21.6111 41.0348 21.5829C41.0032 21.274 43.5309 19.8879 43.8854 20.0216ZM44.3055 26.4005C44.2982 26.7753 44.0338 27.0672 43.6256 27.0524C43.0769 27.0296 43.4387 26.6077 43.3003 26.3421C43.7179 24.8618 43.6863 23.3438 43.4071 21.8221C43.3707 21.6262 43.3755 21.4153 43.6645 21.3682C44.0166 21.3117 43.9801 21.5565 44.0311 21.7319C44.4925 23.2741 44.3347 24.8394 44.3055 26.4005ZM45.1578 28.4666C45.1214 28.8093 44.5605 28.5909 44.3444 28.6267C43.6572 28.6606 43.1011 28.638 42.7175 28.2236C42.4844 27.9713 42.1153 27.6718 42.3193 27.3949C42.5937 27.0239 42.9142 27.4853 43.2347 27.5023C43.5965 27.5211 43.9704 27.491 44.3152 27.5588C44.8931 27.6718 45.1991 28.0882 45.1578 28.4666ZM56.4487 31.4555C55.6085 30.6701 54.4357 30.6211 53.2241 30.8396C53.0274 30.8754 52.8283 30.9018 52.6292 30.9262C52.0804 30.994 51.8522 30.8566 51.8158 30.3838C51.6992 28.8188 51.6701 28.8206 49.645 28.8206C49.3633 28.8225 49.0792 28.8338 48.7976 28.8206C47.6394 28.7679 46.5127 29.1241 45.7551 27.7923C45.2039 26.8299 44.8276 25.9448 44.9757 24.9807C45.0995 24.165 45.3448 23.4436 44.7183 22.6545C44.3565 22.2006 44.4415 21.5509 44.7596 21.0179C45.0658 20.5077 44.8931 20.2118 44.3419 19.8257C42.8389 18.7673 40.7119 18.5996 39.2185 17.4753C38.3954 16.8575 38.2886 16.5223 38.9417 15.8838C39.5706 15.2717 40.1461 14.6239 40.7046 13.9722C41.3869 13.1774 41.1101 12.3582 40.3671 11.7706C39.068 10.7404 37.5553 9.88531 35.9017 9.20353C35.1684 8.90219 34.4667 8.93609 33.7261 9.26757C32.0531 10.0154 30.7322 11.0775 29.4234 12.1397C28.4497 12.9307 28.525 13.6409 29.4671 14.46C30.1373 15.0438 30.9677 15.5168 31.4873 16.204C32.1624 17.0948 32.0701 17.4884 30.8317 17.8858C29.2583 18.3906 27.9131 19.2098 26.3494 19.724C25.7788 19.9105 25.4437 20.2325 25.7253 20.7712C26.1017 21.4887 25.9487 22.2119 25.5165 22.8636C25.0358 23.5887 25.026 24.2912 25.3053 25.0445C25.4631 25.4645 25.5141 25.9052 25.6452 26.3308C25.9269 27.2556 25.1037 27.9543 24.708 28.7003C24.5186 29.0542 23.4332 28.7905 22.7557 28.8169C22.1511 28.8395 21.5417 28.8206 20.9346 28.8206C18.9314 28.8206 18.912 28.8206 18.8343 30.3292C18.8051 30.8905 18.6667 31.0995 17.8314 30.9375C16.9792 30.7737 16.088 30.8264 15.2698 31.237C14.0338 31.8549 13.7862 32.7663 13.9318 33.7795C14.1069 34.9943 14.7817 36.0094 16.2871 36.5406C17.727 37.0491 19.1936 37.5274 20.1867 38.535C20.9759 39.3355 22.0419 39.7253 23.2438 39.94C23.9091 40.0587 24.5938 40.1434 25.2737 40.1792C26.0507 40.2206 26.4028 40.4297 26.347 41.0945C26.2668 42.0306 26.3202 42.9741 26.33 43.9158C26.3348 44.1795 26.2304 44.5336 26.8229 44.5015C27.2842 44.4752 27.2551 44.191 27.2551 43.9422C27.2624 43.0947 27.3206 42.2453 27.2405 41.4034C27.1628 40.586 27.4226 40.2527 28.6003 40.2922C30.9825 40.3713 33.3716 40.3167 35.756 40.3167C38.3444 40.3167 40.9328 40.3318 43.5212 40.3054C44.24 40.2979 44.5362 40.4448 44.4998 41.038C44.4439 41.9458 44.4682 42.8574 44.4973 43.7672C44.5046 44.0345 44.2691 44.4959 44.9223 44.477C45.4637 44.462 45.2622 44.0476 45.2671 43.8009C45.2913 42.799 45.3399 41.7914 45.2549 40.7913C45.1894 40.038 45.5342 39.8967 46.4253 39.989C48.5475 40.2112 50.3152 39.8214 51.4443 38.2243C52.1533 37.2242 53.2241 36.4596 54.5644 35.9247C55.5308 35.5386 56.2034 34.8983 56.6162 34.1261C57.0945 33.2277 57.3301 32.2787 56.4487 31.4555Z" fill="#F5F5F7"/>
</svg>
