<svg width="20" height="20" viewBox="0 0 20 20" fill="none" xmlns="http://www.w3.org/2000/svg">
<path fill-rule="evenodd" clip-rule="evenodd" d="M3.28333 2.91699H16.7167C18.53 2.91699 20 4.38699 20 6.20033V13.8003C20 15.6137 18.53 17.0837 16.7167 17.0837H3.28333C1.47 17.0837 0 15.6137 0 13.8003V6.20033C0 4.38699 1.47 2.91699 3.28333 2.91699ZM8.14167 13.6343L13.7833 10.001V10.026C13.9022 9.94923 13.9739 9.81743 13.9739 9.67598C13.9739 9.53452 13.9022 9.40273 13.7833 9.32598L8.14167 5.71765C8.01354 5.63544 7.85078 5.62965 7.71714 5.70255C7.5835 5.77544 7.50025 5.91542 7.5 6.06765V13.2843C7.50025 13.4365 7.5835 13.5765 7.71714 13.6494C7.85078 13.7223 8.01354 13.7165 8.14167 13.6343Z" fill="#F5F5F7"/>
</svg>
